M48
; DRILL file {KiCad 8.0.4} date 2024-08-22T21:39:24+0200
; FORMAT={-:-/ absolute / inch / decimal}
; #@! TF.CreationDate,2024-08-22T21:39:24+02:00
; #@! TF.GenerationSoftware,Kicad,Pcbnew,8.0.4
; #@! TF.FileFunction,Plated,1,2,PTH
FMAT,2
INCH
; #@! TA.AperFunction,Plated,PTH,ViaDrill
T1C0.0118
; #@! TA.AperFunction,Plated,PTH,ComponentDrill
T2C0.0394
; #@! TA.AperFunction,Plated,PTH,ComponentDrill
T3C0.0433
; #@! TA.AperFunction,Plated,PTH,ComponentDrill
T4C0.1063
%
G90
G05
T1
X5.1969Y-2.9921
X5.1969Y-3.1102
X5.1969Y-3.2087
X5.1969Y-3.3071
X5.1969Y-3.4055
X5.1969Y-3.5039
X5.1969Y-3.7008
X5.1969Y-3.8189
X5.4331Y-2.8583
X5.4331Y-3.0512
X5.4331Y-3.1496
X5.4331Y-3.248
X5.4331Y-3.3465
X5.4331Y-3.4449
X5.4331Y-3.5433
X5.4331Y-3.6417
X5.4331Y-3.7402
X5.5709Y-2.8583
X5.5709Y-3.0512
X5.5709Y-3.1496
X5.5709Y-3.248
X5.5709Y-3.3465
X5.5709Y-3.4449
X5.5709Y-3.5433
X5.5709Y-3.6417
X5.5709Y-3.7402
X5.6496Y-2.7165
X5.6496Y-2.7953
X5.6496Y-3.9764
X5.6496Y-4.0551
X5.748Y-2.7165
X5.748Y-2.7953
X5.748Y-2.9921
X5.748Y-3.1102
X5.748Y-3.2087
X5.748Y-3.3071
X5.748Y-3.4055
X5.748Y-3.5039
X5.748Y-3.6024
X5.748Y-3.7008
X5.748Y-3.8189
X5.748Y-3.9764
X5.748Y-4.0551
X5.8465Y-2.7165
X5.8465Y-2.7953
X5.8465Y-3.9764
X5.8465Y-4.0551
X5.9449Y-2.7165
X5.9449Y-2.7953
X5.9449Y-2.9921
X5.9449Y-3.1102
X5.9449Y-3.2087
X5.9449Y-3.3071
X5.9449Y-3.4055
X5.9449Y-3.5039
X5.9449Y-3.6024
X5.9449Y-3.7008
X5.9449Y-3.8189
X5.9449Y-3.9764
X5.9449Y-4.0551
X6.0433Y-2.7165
X6.0433Y-2.7953
X6.0433Y-3.9764
X6.0433Y-4.0551
X6.1417Y-2.7165
X6.1417Y-2.7953
X6.1417Y-2.9921
X6.1417Y-3.1102
X6.1417Y-3.2087
X6.1417Y-3.3071
X6.1417Y-3.4055
X6.1417Y-3.5039
X6.1417Y-3.6024
X6.1417Y-3.7008
X6.1417Y-3.8189
X6.1417Y-3.9764
X6.1417Y-4.0551
X6.2402Y-2.7165
X6.2402Y-2.7953
X6.2402Y-3.9764
X6.2402Y-4.0551
X6.3189Y-2.9921
X6.3189Y-3.1102
X6.3189Y-3.2087
X6.3189Y-3.3071
X6.3189Y-3.4055
X6.3189Y-3.5039
X6.3189Y-3.6024
X6.3189Y-3.7008
X6.3189Y-3.8189
X6.3386Y-2.7165
X6.3386Y-2.7953
X6.3386Y-3.9764
X6.3386Y-4.0551
X6.437Y-2.7165
X6.437Y-2.7953
X6.437Y-3.9764
X6.437Y-4.0551
X6.5354Y-2.7165
X6.5354Y-2.7953
X6.5354Y-2.9921
X6.5354Y-3.1102
X6.5354Y-3.2087
X6.5354Y-3.3071
X6.5354Y-3.4055
X6.5354Y-3.5039
X6.5354Y-3.6024
X6.5354Y-3.7008
X6.5354Y-3.8189
X6.5354Y-3.9764
X6.5354Y-4.0551
X6.6339Y-2.7165
X6.6339Y-2.7953
X6.6339Y-3.9764
X6.6339Y-4.0551
X6.7323Y-2.7165
X6.7323Y-2.7953
X6.7323Y-2.9921
X6.7323Y-3.1102
X6.7323Y-3.2087
X6.7323Y-3.3071
X6.7323Y-3.4055
X6.7323Y-3.5039
X6.7323Y-3.6024
X6.7323Y-3.7008
X6.7323Y-3.8189
X6.7323Y-3.9764
X6.7323Y-4.0551
X6.8307Y-2.7165
X6.8307Y-2.7953
X6.8307Y-3.9764
X6.8307Y-4.0551
X6.9291Y-2.7165
X6.9291Y-2.7953
X6.9291Y-3.9764
X6.9291Y-4.0551
X6.9764Y-3.0
X6.9764Y-3.1024
X6.9764Y-3.1969
X6.9764Y-3.2992
X6.9764Y-3.4016
X6.9764Y-3.4961
X6.9764Y-3.5984
X6.9764Y-3.7008
X6.9764Y-3.8031
X7.1969Y-2.8976
X7.1969Y-3.0
X7.1969Y-3.1024
X7.1969Y-3.2047
X7.1969Y-3.2992
X7.1969Y-3.4016
X7.1969Y-3.5039
X7.1969Y-3.5984
X7.1969Y-3.7008
X7.1969Y-3.8031
X7.3701Y-2.8976
X7.3701Y-3.0
X7.3701Y-3.1024
X7.3701Y-3.2047
X7.3701Y-3.2992
X7.3701Y-3.4016
X7.3701Y-3.4961
X7.3701Y-3.5984
X7.3701Y-3.7008
X7.3701Y-3.8031
T2
X4.9984Y-3.2087
X4.9984Y-3.3087
X4.9984Y-3.4087
X4.9984Y-3.5087
X4.9984Y-3.6087
X5.0984Y-3.2087
X5.0984Y-3.3087
X5.0984Y-3.4087
X5.0984Y-3.5087
X5.0984Y-3.6087
X5.2559Y-2.9512
X5.2559Y-3.0512
X5.2559Y-3.1512
X5.2559Y-3.2512
X5.2559Y-3.3512
X5.2559Y-3.4512
X5.2559Y-3.5512
X5.2559Y-3.6512
X5.2559Y-3.7512
X5.2559Y-3.8512
X5.3559Y-2.9512
X5.3559Y-3.0512
X5.3559Y-3.1512
X5.3559Y-3.2512
X5.3559Y-3.3512
X5.3559Y-3.4512
X5.3559Y-3.5512
X5.3559Y-3.6512
X5.3559Y-3.7512
X5.3559Y-3.8512
X5.6496Y-2.9496
X5.6496Y-3.0496
X5.6496Y-3.1496
X5.6496Y-3.2496
X5.6496Y-3.3496
X5.6496Y-3.4496
X5.6496Y-3.5496
X5.6496Y-3.6496
X5.6496Y-3.7496
X5.6496Y-3.8496
X5.8465Y-2.9496
X5.8465Y-3.0496
X5.8465Y-3.1496
X5.8465Y-3.2496
X5.8465Y-3.3496
X5.8465Y-3.4496
X5.8465Y-3.5496
X5.8465Y-3.6496
X5.8465Y-3.7496
X5.8465Y-3.8496
X6.0433Y-2.9512
X6.0433Y-3.0512
X6.0433Y-3.1512
X6.0433Y-3.2512
X6.0433Y-3.3512
X6.0433Y-3.4512
X6.0433Y-3.5512
X6.0433Y-3.6512
X6.0433Y-3.7512
X6.0433Y-3.8512
X6.2402Y-2.9496
X6.2402Y-3.0496
X6.2402Y-3.1496
X6.2402Y-3.2496
X6.2402Y-3.3496
X6.2402Y-3.4496
X6.2402Y-3.5496
X6.2402Y-3.6496
X6.2402Y-3.7496
X6.2402Y-3.8496
X6.6339Y-3.0496
X6.6339Y-3.1496
X6.6339Y-3.2496
X6.6339Y-3.3496
X6.6339Y-3.4496
X6.6339Y-3.5496
X6.6339Y-3.6496
X6.6339Y-3.7496
T3
X7.0945Y-2.8504
X7.0945Y-2.9504
X7.0945Y-3.0504
X7.0945Y-3.1504
X7.0945Y-3.2504
X7.0945Y-3.3504
X7.0945Y-3.4504
X7.0945Y-3.5504
X7.0945Y-3.6504
X7.0945Y-3.7504
X7.0945Y-3.8504
X7.0945Y-3.9504
X7.2913Y-2.8504
X7.2913Y-2.9504
X7.2913Y-3.0504
X7.2913Y-3.1504
X7.2913Y-3.2504
X7.2913Y-3.3504
X7.2913Y-3.4504
X7.2913Y-3.5504
X7.2913Y-3.6504
X7.2913Y-3.7504
X7.2913Y-3.8504
X7.2913Y-3.9504
T4
X7.5394Y-2.5984
X7.5394Y-4.1732
M30
