%TF.GenerationSoftware,KiCad,Pcbnew,8.0.4*%
%TF.CreationDate,2024-08-10T21:18:51+02:00*%
%TF.ProjectId,breakout,62726561-6b6f-4757-942e-6b696361645f,rev?*%
%TF.SameCoordinates,Original*%
%TF.FileFunction,Copper,L2,Bot*%
%TF.FilePolarity,Positive*%
%FSLAX46Y46*%
G04 Gerber Fmt 4.6, Leading zero omitted, Abs format (unit mm)*
G04 Created by KiCad (PCBNEW 8.0.4) date 2024-08-10 21:18:51*
%MOMM*%
%LPD*%
G01*
G04 APERTURE LIST*
%TA.AperFunction,ComponentPad*%
%ADD10R,1.700000X1.700000*%
%TD*%
%TA.AperFunction,ComponentPad*%
%ADD11O,1.700000X1.700000*%
%TD*%
%TA.AperFunction,ComponentPad*%
%ADD12C,5.400000*%
%TD*%
%TA.AperFunction,ComponentPad*%
%ADD13R,2.200000X2.200000*%
%TD*%
%TA.AperFunction,ComponentPad*%
%ADD14C,2.200000*%
%TD*%
%TA.AperFunction,ViaPad*%
%ADD15C,0.600000*%
%TD*%
G04 APERTURE END LIST*
D10*
%TO.P,J9,1,Pin_1*%
%TO.N,/D0*%
X129500000Y-81500000D03*
D11*
%TO.P,J9,2,Pin_2*%
%TO.N,/D1*%
X126960000Y-81500000D03*
%TO.P,J9,3,Pin_3*%
%TO.N,/D2*%
X129500000Y-84040000D03*
%TO.P,J9,4,Pin_4*%
%TO.N,/D3*%
X126960000Y-84040000D03*
%TO.P,J9,5,Pin_5*%
%TO.N,/D4*%
X129500000Y-86580000D03*
%TO.P,J9,6,Pin_6*%
%TO.N,/D5*%
X126960000Y-86580000D03*
%TO.P,J9,7,Pin_7*%
%TO.N,/D6*%
X129500000Y-89120000D03*
%TO.P,J9,8,Pin_8*%
%TO.N,/D7*%
X126960000Y-89120000D03*
%TO.P,J9,9,Pin_9*%
%TO.N,GND*%
X129500000Y-91660000D03*
%TO.P,J9,10,Pin_10*%
X126960000Y-91660000D03*
%TD*%
D10*
%TO.P,J5,1,Pin_1*%
%TO.N,VBUS*%
X153500000Y-74960000D03*
D11*
%TO.P,J5,2,Pin_2*%
%TO.N,/D0*%
X153500000Y-77500000D03*
%TO.P,J5,3,Pin_3*%
%TO.N,/D1*%
X153500000Y-80040000D03*
%TO.P,J5,4,Pin_4*%
%TO.N,/D2*%
X153500000Y-82580000D03*
%TO.P,J5,5,Pin_5*%
%TO.N,/D3*%
X153500000Y-85120000D03*
%TO.P,J5,6,Pin_6*%
%TO.N,/D4*%
X153500000Y-87660000D03*
%TO.P,J5,7,Pin_7*%
%TO.N,/D5*%
X153500000Y-90200000D03*
%TO.P,J5,8,Pin_8*%
%TO.N,/D6*%
X153500000Y-92740000D03*
%TO.P,J5,9,Pin_9*%
%TO.N,/D7*%
X153500000Y-95280000D03*
%TO.P,J5,10,Pin_10*%
%TO.N,GND*%
X153500000Y-97820000D03*
%TD*%
D12*
%TO.P,H1,1,1*%
%TO.N,GND*%
X189000000Y-66000000D03*
%TD*%
D10*
%TO.P,J4,1,Pin_1*%
%TO.N,VBUS*%
X143500000Y-74920000D03*
D11*
%TO.P,J4,2,Pin_2*%
%TO.N,/D0*%
X143500000Y-77460000D03*
%TO.P,J4,3,Pin_3*%
%TO.N,/D1*%
X143500000Y-80000000D03*
%TO.P,J4,4,Pin_4*%
%TO.N,/D2*%
X143500000Y-82540000D03*
%TO.P,J4,5,Pin_5*%
%TO.N,/D3*%
X143500000Y-85080000D03*
%TO.P,J4,6,Pin_6*%
%TO.N,/D4*%
X143500000Y-87620000D03*
%TO.P,J4,7,Pin_7*%
%TO.N,/D5*%
X143500000Y-90160000D03*
%TO.P,J4,8,Pin_8*%
%TO.N,/D6*%
X143500000Y-92700000D03*
%TO.P,J4,9,Pin_9*%
%TO.N,/D7*%
X143500000Y-95240000D03*
%TO.P,J4,10,Pin_10*%
%TO.N,GND*%
X143500000Y-97780000D03*
%TD*%
D10*
%TO.P,J3,1,Pin_1*%
%TO.N,VBUS*%
X148500000Y-74920000D03*
D11*
%TO.P,J3,2,Pin_2*%
%TO.N,/D0*%
X148500000Y-77460000D03*
%TO.P,J3,3,Pin_3*%
%TO.N,/D1*%
X148500000Y-80000000D03*
%TO.P,J3,4,Pin_4*%
%TO.N,/D2*%
X148500000Y-82540000D03*
%TO.P,J3,5,Pin_5*%
%TO.N,/D3*%
X148500000Y-85080000D03*
%TO.P,J3,6,Pin_6*%
%TO.N,/D4*%
X148500000Y-87620000D03*
%TO.P,J3,7,Pin_7*%
%TO.N,/D5*%
X148500000Y-90160000D03*
%TO.P,J3,8,Pin_8*%
%TO.N,/D6*%
X148500000Y-92700000D03*
%TO.P,J3,9,Pin_9*%
%TO.N,/D7*%
X148500000Y-95240000D03*
%TO.P,J3,10,Pin_10*%
%TO.N,GND*%
X148500000Y-97780000D03*
%TD*%
D12*
%TO.P,H2,1,1*%
%TO.N,GND*%
X189000000Y-106000000D03*
%TD*%
D10*
%TO.P,J7,1,Pin_1*%
%TO.N,/D0*%
X168500000Y-77460000D03*
D11*
%TO.P,J7,2,Pin_2*%
%TO.N,/D1*%
X168500000Y-80000000D03*
%TO.P,J7,3,Pin_3*%
%TO.N,/D2*%
X168500000Y-82540000D03*
%TO.P,J7,4,Pin_4*%
%TO.N,/D3*%
X168500000Y-85080000D03*
%TO.P,J7,5,Pin_5*%
%TO.N,/D4*%
X168500000Y-87620000D03*
%TO.P,J7,6,Pin_6*%
%TO.N,/D5*%
X168500000Y-90160000D03*
%TO.P,J7,7,Pin_7*%
%TO.N,/D6*%
X168500000Y-92700000D03*
%TO.P,J7,8,Pin_8*%
%TO.N,/D7*%
X168500000Y-95240000D03*
%TD*%
D13*
%TO.P,J2,1,Pin_1*%
%TO.N,/VSENSE*%
X181000000Y-72340000D03*
D14*
%TO.P,J2,2,Pin_2*%
%TO.N,VBUS*%
X181000000Y-74880000D03*
%TO.P,J2,3,Pin_3*%
%TO.N,/D0*%
X181000000Y-77419999D03*
%TO.P,J2,4,Pin_4*%
%TO.N,/D1*%
X181000000Y-79960000D03*
%TO.P,J2,5,Pin_5*%
%TO.N,/D2*%
X181000000Y-82500000D03*
%TO.P,J2,6,Pin_6*%
%TO.N,/D3*%
X181000000Y-85040000D03*
%TO.P,J2,7,Pin_7*%
%TO.N,/D4*%
X181000000Y-87580000D03*
%TO.P,J2,8,Pin_8*%
%TO.N,/D5*%
X181000000Y-90120001D03*
%TO.P,J2,9,Pin_9*%
%TO.N,/D6*%
X181000000Y-92660000D03*
%TO.P,J2,10,Pin_10*%
%TO.N,/D7*%
X181000000Y-95200000D03*
%TO.P,J2,11,Pin_11*%
%TO.N,GND*%
X181000000Y-97740000D03*
%TO.P,J2,12,Pin_12*%
X181000000Y-100279999D03*
%TD*%
D10*
%TO.P,J6,1,Pin_1*%
%TO.N,VBUS*%
X158500000Y-74920000D03*
D11*
%TO.P,J6,2,Pin_2*%
%TO.N,/D0*%
X158500000Y-77460000D03*
%TO.P,J6,3,Pin_3*%
%TO.N,/D1*%
X158500000Y-80000000D03*
%TO.P,J6,4,Pin_4*%
%TO.N,/D2*%
X158500000Y-82540000D03*
%TO.P,J6,5,Pin_5*%
%TO.N,/D3*%
X158500000Y-85080000D03*
%TO.P,J6,6,Pin_6*%
%TO.N,/D4*%
X158500000Y-87620000D03*
%TO.P,J6,7,Pin_7*%
%TO.N,/D5*%
X158500000Y-90160000D03*
%TO.P,J6,8,Pin_8*%
%TO.N,/D6*%
X158500000Y-92700000D03*
%TO.P,J6,9,Pin_9*%
%TO.N,/D7*%
X158500000Y-95240000D03*
%TO.P,J6,10,Pin_10*%
%TO.N,GND*%
X158500000Y-97780000D03*
%TD*%
D10*
%TO.P,J1,1,Pin_1*%
%TO.N,/VSENSE*%
X133500000Y-74960000D03*
D11*
%TO.P,J1,2,Pin_2*%
%TO.N,VBUS*%
X136040000Y-74960000D03*
%TO.P,J1,3,Pin_3*%
%TO.N,/D0*%
X133500000Y-77500000D03*
%TO.P,J1,4,Pin_4*%
%TO.N,GND*%
X136040000Y-77500000D03*
%TO.P,J1,5,Pin_5*%
%TO.N,/D1*%
X133500000Y-80040000D03*
%TO.P,J1,6,Pin_6*%
%TO.N,GND*%
X136040000Y-80040000D03*
%TO.P,J1,7,Pin_7*%
%TO.N,/D2*%
X133500000Y-82580000D03*
%TO.P,J1,8,Pin_8*%
%TO.N,GND*%
X136040000Y-82580000D03*
%TO.P,J1,9,Pin_9*%
%TO.N,/D3*%
X133500000Y-85120000D03*
%TO.P,J1,10,Pin_10*%
%TO.N,GND*%
X136040000Y-85120000D03*
%TO.P,J1,11,Pin_11*%
%TO.N,/D4*%
X133500000Y-87660000D03*
%TO.P,J1,12,Pin_12*%
%TO.N,GND*%
X136040000Y-87660000D03*
%TO.P,J1,13,Pin_13*%
%TO.N,/D5*%
X133500000Y-90200000D03*
%TO.P,J1,14,Pin_14*%
%TO.N,GND*%
X136040000Y-90200000D03*
%TO.P,J1,15,Pin_15*%
%TO.N,/D6*%
X133500000Y-92740000D03*
%TO.P,J1,16,Pin_16*%
%TO.N,GND*%
X136040000Y-92740000D03*
%TO.P,J1,17,Pin_17*%
%TO.N,/D7*%
X133500000Y-95280000D03*
%TO.P,J1,18,Pin_18*%
%TO.N,GND*%
X136040000Y-95280000D03*
%TO.P,J1,19,Pin_19*%
%TO.N,unconnected-(J1-Pin_19-Pad19)*%
X133500000Y-97820000D03*
%TO.P,J1,20,Pin_20*%
%TO.N,unconnected-(J1-Pin_20-Pad20)*%
X136040000Y-97820000D03*
%TD*%
D15*
%TO.N,GND*%
X160500000Y-79000000D03*
X176000000Y-69000000D03*
X156000000Y-101000000D03*
X163500000Y-71000000D03*
X138000000Y-80000000D03*
X166000000Y-71000000D03*
X146000000Y-76000000D03*
X146000000Y-84000000D03*
X166000000Y-89000000D03*
X141500000Y-90000000D03*
X151000000Y-84000000D03*
X151000000Y-94000000D03*
X141500000Y-80000000D03*
X148500000Y-103000000D03*
X166000000Y-97000000D03*
X143500000Y-71000000D03*
X151000000Y-71000000D03*
X179000000Y-97000000D03*
X151000000Y-101000000D03*
X166000000Y-101000000D03*
X173500000Y-71000000D03*
X138000000Y-77500000D03*
X156000000Y-86500000D03*
X161000000Y-103000000D03*
X132000000Y-81500000D03*
X163500000Y-101000000D03*
X179000000Y-76000000D03*
X168500000Y-69000000D03*
X171000000Y-79000000D03*
X171000000Y-86500000D03*
X161000000Y-101000000D03*
X158500000Y-71000000D03*
X156000000Y-79000000D03*
X151000000Y-86500000D03*
X171000000Y-103000000D03*
X146000000Y-69000000D03*
X166000000Y-91500000D03*
X141500000Y-82500000D03*
X156000000Y-76000000D03*
X146000000Y-81500000D03*
X146000000Y-91500000D03*
X156000000Y-89000000D03*
X138000000Y-72600000D03*
X141500000Y-87500000D03*
X171000000Y-101000000D03*
X141500000Y-85000000D03*
X183000000Y-76000000D03*
X176000000Y-71000000D03*
X141500000Y-92500000D03*
X173500000Y-69000000D03*
X146000000Y-89000000D03*
X166000000Y-86500000D03*
X138000000Y-85000000D03*
X151000000Y-76000000D03*
X171000000Y-69000000D03*
X160500000Y-86500000D03*
X156000000Y-69000000D03*
X132000000Y-76000000D03*
X179000000Y-79000000D03*
X183000000Y-89000000D03*
X151000000Y-79000000D03*
X171000000Y-81500000D03*
X183000000Y-94000000D03*
X183000000Y-79000000D03*
X143500000Y-101000000D03*
X171000000Y-84000000D03*
X156000000Y-94000000D03*
X163500000Y-69000000D03*
X151000000Y-81500000D03*
X156000000Y-81500000D03*
X173500000Y-103000000D03*
X141500000Y-77500000D03*
X146000000Y-94000000D03*
X138000000Y-87500000D03*
X141500000Y-72600000D03*
X166000000Y-103000000D03*
X171000000Y-91500000D03*
X153500000Y-103000000D03*
X160500000Y-91500000D03*
X160500000Y-89000000D03*
X138000000Y-82500000D03*
X158500000Y-69000000D03*
X146000000Y-71000000D03*
X179000000Y-91500000D03*
X179000000Y-89000000D03*
X166000000Y-81500000D03*
X183000000Y-81500000D03*
X171000000Y-76000000D03*
X156000000Y-97000000D03*
X183000000Y-86500000D03*
X171000000Y-71000000D03*
X146000000Y-97000000D03*
X166000000Y-79000000D03*
X179000000Y-94000000D03*
X132000000Y-94000000D03*
X132000000Y-84000000D03*
X158500000Y-103000000D03*
X156000000Y-84000000D03*
X166000000Y-94000000D03*
X183000000Y-91500000D03*
X160500000Y-81500000D03*
X132000000Y-79000000D03*
X171000000Y-97000000D03*
X138000000Y-90000000D03*
X148500000Y-71000000D03*
X163500000Y-103000000D03*
X166000000Y-76000000D03*
X156000000Y-71000000D03*
X158500000Y-101000000D03*
X151000000Y-89000000D03*
X138000000Y-95000000D03*
X168500000Y-71000000D03*
X168500000Y-103000000D03*
X171000000Y-89000000D03*
X153500000Y-69000000D03*
X153500000Y-71000000D03*
X183000000Y-84000000D03*
X173500000Y-101000000D03*
X153500000Y-101000000D03*
X166000000Y-69000000D03*
X146000000Y-101000000D03*
X160500000Y-76000000D03*
X132000000Y-86500000D03*
X161000000Y-71000000D03*
X160500000Y-84000000D03*
X146000000Y-103000000D03*
X156000000Y-103000000D03*
X143500000Y-69000000D03*
X183000000Y-97000000D03*
X151000000Y-91500000D03*
X148500000Y-69000000D03*
X143500000Y-103000000D03*
X179000000Y-86500000D03*
X161000000Y-69000000D03*
X171000000Y-94000000D03*
X148500000Y-101000000D03*
X179000000Y-84000000D03*
X141500000Y-95000000D03*
X138000000Y-92500000D03*
X146000000Y-79000000D03*
X132000000Y-89000000D03*
X179000000Y-81500000D03*
X179000000Y-71400000D03*
X166000000Y-84000000D03*
X160500000Y-94000000D03*
X168500000Y-101000000D03*
X151000000Y-69000000D03*
X151000000Y-103000000D03*
X160500000Y-97000000D03*
X132000000Y-97000000D03*
X176000000Y-101000000D03*
X146000000Y-86500000D03*
X156000000Y-91500000D03*
X176000000Y-103000000D03*
X151000000Y-97000000D03*
%TD*%
%TA.AperFunction,Conductor*%
%TO.N,GND*%
G36*
X197004474Y-62500820D02*
G01*
X197204451Y-62515122D01*
X197222164Y-62517669D01*
X197413690Y-62559332D01*
X197430869Y-62564377D01*
X197614502Y-62632869D01*
X197630790Y-62640307D01*
X197802812Y-62734238D01*
X197817875Y-62743919D01*
X197974779Y-62861376D01*
X197988312Y-62873102D01*
X198126897Y-63011687D01*
X198138623Y-63025220D01*
X198256080Y-63182124D01*
X198265761Y-63197187D01*
X198359692Y-63369209D01*
X198367130Y-63385497D01*
X198435622Y-63569130D01*
X198440667Y-63586311D01*
X198482329Y-63777830D01*
X198484877Y-63795553D01*
X198499180Y-63995524D01*
X198499500Y-64004478D01*
X198499500Y-107995521D01*
X198499180Y-108004475D01*
X198484877Y-108204446D01*
X198482329Y-108222169D01*
X198440667Y-108413688D01*
X198435622Y-108430869D01*
X198367130Y-108614502D01*
X198359692Y-108630790D01*
X198265761Y-108802812D01*
X198256080Y-108817875D01*
X198138623Y-108974779D01*
X198126897Y-108988312D01*
X197988312Y-109126897D01*
X197974779Y-109138623D01*
X197817875Y-109256080D01*
X197802812Y-109265761D01*
X197630790Y-109359692D01*
X197614502Y-109367130D01*
X197430869Y-109435622D01*
X197413688Y-109440667D01*
X197222169Y-109482329D01*
X197204446Y-109484877D01*
X197027702Y-109497518D01*
X197004473Y-109499180D01*
X196995521Y-109499500D01*
X182004479Y-109499500D01*
X181995526Y-109499180D01*
X181968817Y-109497269D01*
X181795553Y-109484877D01*
X181777830Y-109482329D01*
X181586311Y-109440667D01*
X181569130Y-109435622D01*
X181385497Y-109367130D01*
X181369209Y-109359692D01*
X181197187Y-109265761D01*
X181182124Y-109256080D01*
X181025220Y-109138623D01*
X181011687Y-109126897D01*
X180873102Y-108988312D01*
X180861376Y-108974779D01*
X180743919Y-108817875D01*
X180734238Y-108802812D01*
X180640307Y-108630790D01*
X180632869Y-108614502D01*
X180564377Y-108430869D01*
X180559332Y-108413688D01*
X180517670Y-108222169D01*
X180515122Y-108204451D01*
X180500820Y-108004474D01*
X180500500Y-107995521D01*
X180500500Y-106848748D01*
X180483356Y-106707554D01*
X180464037Y-106548449D01*
X180456586Y-106518220D01*
X180391647Y-106254749D01*
X180391644Y-106254739D01*
X180391643Y-106254734D01*
X180295035Y-106000000D01*
X186041996Y-106000000D01*
X186061997Y-106343407D01*
X186121727Y-106682153D01*
X186121729Y-106682162D01*
X186220386Y-107011700D01*
X186356627Y-107327541D01*
X186356635Y-107327558D01*
X186528623Y-107625449D01*
X186734043Y-107901375D01*
X186734043Y-107901376D01*
X186824182Y-107996917D01*
X187958224Y-106862875D01*
X187970278Y-106879466D01*
X188120534Y-107029722D01*
X188137122Y-107041774D01*
X187001212Y-108177684D01*
X187001212Y-108177686D01*
X187233586Y-108372672D01*
X187233603Y-108372684D01*
X187521001Y-108561708D01*
X187521005Y-108561711D01*
X187828390Y-108716085D01*
X188151624Y-108833732D01*
X188151649Y-108833740D01*
X188486341Y-108913063D01*
X188486355Y-108913065D01*
X188828007Y-108953000D01*
X189171993Y-108953000D01*
X189513644Y-108913065D01*
X189513658Y-108913063D01*
X189848350Y-108833740D01*
X189848375Y-108833732D01*
X190171609Y-108716085D01*
X190478994Y-108561711D01*
X190478998Y-108561708D01*
X190766396Y-108372684D01*
X190766413Y-108372672D01*
X190998786Y-108177686D01*
X190998786Y-108177684D01*
X189862876Y-107041774D01*
X189879466Y-107029722D01*
X190029722Y-106879466D01*
X190041775Y-106862876D01*
X191175816Y-107996917D01*
X191175817Y-107996917D01*
X191265955Y-107901375D01*
X191265963Y-107901366D01*
X191471376Y-107625449D01*
X191643364Y-107327558D01*
X191643372Y-107327541D01*
X191779613Y-107011700D01*
X191878270Y-106682162D01*
X191878272Y-106682153D01*
X191938002Y-106343407D01*
X191958003Y-106000000D01*
X191938002Y-105656592D01*
X191878272Y-105317846D01*
X191878270Y-105317837D01*
X191779613Y-104988299D01*
X191643372Y-104672458D01*
X191643364Y-104672441D01*
X191471376Y-104374550D01*
X191265956Y-104098624D01*
X191265956Y-104098623D01*
X191175816Y-104003081D01*
X190041774Y-105137122D01*
X190029722Y-105120534D01*
X189879466Y-104970278D01*
X189862875Y-104958224D01*
X190998786Y-103822314D01*
X190998786Y-103822312D01*
X190766413Y-103627327D01*
X190766396Y-103627315D01*
X190478998Y-103438291D01*
X190478994Y-103438288D01*
X190171609Y-103283914D01*
X189848375Y-103166267D01*
X189848350Y-103166259D01*
X189513658Y-103086936D01*
X189513644Y-103086934D01*
X189171993Y-103047000D01*
X188828007Y-103047000D01*
X188486355Y-103086934D01*
X188486341Y-103086936D01*
X188151649Y-103166259D01*
X188151624Y-103166267D01*
X187828390Y-103283914D01*
X187521005Y-103438288D01*
X187521001Y-103438291D01*
X187233604Y-103627314D01*
X187001212Y-103822314D01*
X188137123Y-104958225D01*
X188120534Y-104970278D01*
X187970278Y-105120534D01*
X187958225Y-105137123D01*
X186824183Y-104003081D01*
X186824182Y-104003081D01*
X186734045Y-104098623D01*
X186734035Y-104098634D01*
X186528623Y-104374550D01*
X186356635Y-104672441D01*
X186356627Y-104672458D01*
X186220386Y-104988299D01*
X186121729Y-105317837D01*
X186121727Y-105317846D01*
X186061997Y-105656592D01*
X186041996Y-106000000D01*
X180295035Y-106000000D01*
X180284373Y-105971887D01*
X180143792Y-105704033D01*
X179971950Y-105455076D01*
X179771352Y-105228648D01*
X179544924Y-105028050D01*
X179295967Y-104856208D01*
X179028113Y-104715627D01*
X179028112Y-104715626D01*
X179028111Y-104715626D01*
X178855069Y-104650000D01*
X178745266Y-104608357D01*
X178745263Y-104608356D01*
X178745260Y-104608355D01*
X178745250Y-104608352D01*
X178451560Y-104535964D01*
X178451546Y-104535962D01*
X178222146Y-104508108D01*
X178151252Y-104499500D01*
X178151251Y-104499500D01*
X124626000Y-104499500D01*
X124558150Y-104479577D01*
X124511841Y-104426135D01*
X124500500Y-104374000D01*
X124500500Y-97820000D01*
X132391772Y-97820000D01*
X132410642Y-98023639D01*
X132410643Y-98023640D01*
X132466608Y-98220338D01*
X132466610Y-98220342D01*
X132557766Y-98403408D01*
X132681007Y-98566605D01*
X132681010Y-98566608D01*
X132832143Y-98704385D01*
X132832146Y-98704387D01*
X132832150Y-98704390D01*
X133005288Y-98811592D01*
X133006020Y-98812045D01*
X133196719Y-98885922D01*
X133397746Y-98923500D01*
X133602254Y-98923500D01*
X133803281Y-98885922D01*
X133993980Y-98812045D01*
X134167857Y-98704385D01*
X134318990Y-98566608D01*
X134442234Y-98403407D01*
X134533392Y-98220338D01*
X134589358Y-98023636D01*
X134608228Y-97820000D01*
X134931772Y-97820000D01*
X134950642Y-98023639D01*
X134950643Y-98023640D01*
X135006608Y-98220338D01*
X135006610Y-98220342D01*
X135097766Y-98403408D01*
X135221007Y-98566605D01*
X135221010Y-98566608D01*
X135372143Y-98704385D01*
X135372146Y-98704387D01*
X135372150Y-98704390D01*
X135545288Y-98811592D01*
X135546020Y-98812045D01*
X135736719Y-98885922D01*
X135937746Y-98923500D01*
X136142254Y-98923500D01*
X136343281Y-98885922D01*
X136533980Y-98812045D01*
X136707857Y-98704385D01*
X136858990Y-98566608D01*
X136982234Y-98403407D01*
X137073392Y-98220338D01*
X137129358Y-98023636D01*
X137148228Y-97820000D01*
X137132799Y-97653500D01*
X142403998Y-97653500D01*
X143016258Y-97653500D01*
X143000000Y-97714174D01*
X143000000Y-97845826D01*
X143016258Y-97906500D01*
X142403998Y-97906500D01*
X142411136Y-97983546D01*
X142411137Y-97983548D01*
X142467076Y-98180151D01*
X142467079Y-98180160D01*
X142558192Y-98363141D01*
X142558194Y-98363144D01*
X142681377Y-98526266D01*
X142832446Y-98663983D01*
X143006239Y-98771592D01*
X143006250Y-98771597D01*
X143196852Y-98845436D01*
X143196860Y-98845438D01*
X143373499Y-98878458D01*
X143373500Y-98878458D01*
X143373500Y-98263742D01*
X143434174Y-98280000D01*
X143565826Y-98280000D01*
X143626500Y-98263742D01*
X143626500Y-98878458D01*
X143803139Y-98845438D01*
X143803147Y-98845436D01*
X143993749Y-98771597D01*
X143993760Y-98771592D01*
X144167553Y-98663983D01*
X144318622Y-98526266D01*
X144441805Y-98363144D01*
X144441807Y-98363141D01*
X144532920Y-98180160D01*
X144532923Y-98180151D01*
X144588862Y-97983548D01*
X144588863Y-97983546D01*
X144596002Y-97906500D01*
X143983742Y-97906500D01*
X144000000Y-97845826D01*
X144000000Y-97714174D01*
X143983742Y-97653500D01*
X144596002Y-97653500D01*
X147403998Y-97653500D01*
X148016258Y-97653500D01*
X148000000Y-97714174D01*
X148000000Y-97845826D01*
X148016258Y-97906500D01*
X147403998Y-97906500D01*
X147411136Y-97983546D01*
X147411137Y-97983548D01*
X147467076Y-98180151D01*
X147467079Y-98180160D01*
X147558192Y-98363141D01*
X147558194Y-98363144D01*
X147681377Y-98526266D01*
X147832446Y-98663983D01*
X148006239Y-98771592D01*
X148006250Y-98771597D01*
X148196852Y-98845436D01*
X148196860Y-98845438D01*
X148373499Y-98878458D01*
X148373500Y-98878458D01*
X148373500Y-98263742D01*
X148434174Y-98280000D01*
X148565826Y-98280000D01*
X148626500Y-98263742D01*
X148626500Y-98878458D01*
X148803139Y-98845438D01*
X148803147Y-98845436D01*
X148993749Y-98771597D01*
X148993760Y-98771592D01*
X149167553Y-98663983D01*
X149318622Y-98526266D01*
X149441805Y-98363144D01*
X149441807Y-98363141D01*
X149532920Y-98180160D01*
X149532923Y-98180151D01*
X149588862Y-97983548D01*
X149588863Y-97983546D01*
X149596002Y-97906500D01*
X148983742Y-97906500D01*
X149000000Y-97845826D01*
X149000000Y-97714174D01*
X148994460Y-97693500D01*
X152403998Y-97693500D01*
X153016258Y-97693500D01*
X153000000Y-97754174D01*
X153000000Y-97885826D01*
X153016258Y-97946500D01*
X152403998Y-97946500D01*
X152411136Y-98023546D01*
X152411137Y-98023548D01*
X152467076Y-98220151D01*
X152467079Y-98220160D01*
X152558192Y-98403141D01*
X152558194Y-98403144D01*
X152681377Y-98566266D01*
X152832446Y-98703983D01*
X153006239Y-98811592D01*
X153006250Y-98811597D01*
X153196852Y-98885436D01*
X153196860Y-98885438D01*
X153373499Y-98918458D01*
X153373500Y-98918458D01*
X153373500Y-98303742D01*
X153434174Y-98320000D01*
X153565826Y-98320000D01*
X153626500Y-98303742D01*
X153626500Y-98918458D01*
X153803139Y-98885438D01*
X153803147Y-98885436D01*
X153993749Y-98811597D01*
X153993760Y-98811592D01*
X154167553Y-98703983D01*
X154318622Y-98566266D01*
X154441805Y-98403144D01*
X154441807Y-98403141D01*
X154532920Y-98220160D01*
X154532923Y-98220151D01*
X154588862Y-98023548D01*
X154588863Y-98023546D01*
X154596002Y-97946500D01*
X153983742Y-97946500D01*
X154000000Y-97885826D01*
X154000000Y-97754174D01*
X153983742Y-97693500D01*
X154596002Y-97693500D01*
X154592296Y-97653500D01*
X157403998Y-97653500D01*
X158016258Y-97653500D01*
X158000000Y-97714174D01*
X158000000Y-97845826D01*
X158016258Y-97906500D01*
X157403998Y-97906500D01*
X157411136Y-97983546D01*
X157411137Y-97983548D01*
X157467076Y-98180151D01*
X157467079Y-98180160D01*
X157558192Y-98363141D01*
X157558194Y-98363144D01*
X157681377Y-98526266D01*
X157832446Y-98663983D01*
X158006239Y-98771592D01*
X158006250Y-98771597D01*
X158196852Y-98845436D01*
X158196860Y-98845438D01*
X158373499Y-98878458D01*
X158373500Y-98878458D01*
X158373500Y-98263742D01*
X158434174Y-98280000D01*
X158565826Y-98280000D01*
X158626500Y-98263742D01*
X158626500Y-98878458D01*
X158803139Y-98845438D01*
X158803147Y-98845436D01*
X158993749Y-98771597D01*
X158993760Y-98771592D01*
X159167553Y-98663983D01*
X159318622Y-98526266D01*
X159441805Y-98363144D01*
X159441807Y-98363141D01*
X159532920Y-98180160D01*
X159532923Y-98180151D01*
X159588862Y-97983548D01*
X159588863Y-97983546D01*
X159596002Y-97906500D01*
X158983742Y-97906500D01*
X159000000Y-97845826D01*
X159000000Y-97714174D01*
X158983742Y-97653500D01*
X159596002Y-97653500D01*
X159588863Y-97576453D01*
X159588862Y-97576451D01*
X159532923Y-97379848D01*
X159532920Y-97379839D01*
X159441807Y-97196858D01*
X159441805Y-97196855D01*
X159318622Y-97033733D01*
X159167553Y-96896016D01*
X158993760Y-96788407D01*
X158993749Y-96788402D01*
X158803147Y-96714563D01*
X158803139Y-96714561D01*
X158626500Y-96681540D01*
X158626500Y-97296257D01*
X158565826Y-97280000D01*
X158434174Y-97280000D01*
X158373500Y-97296257D01*
X158373500Y-96681540D01*
X158196860Y-96714561D01*
X158196852Y-96714563D01*
X158006250Y-96788402D01*
X158006239Y-96788407D01*
X157832446Y-96896016D01*
X157681377Y-97033733D01*
X157558194Y-97196855D01*
X157558192Y-97196858D01*
X157467079Y-97379839D01*
X157467076Y-97379848D01*
X157411137Y-97576451D01*
X157411136Y-97576453D01*
X157403998Y-97653500D01*
X154592296Y-97653500D01*
X154588863Y-97616453D01*
X154588862Y-97616451D01*
X154532923Y-97419848D01*
X154532920Y-97419839D01*
X154441807Y-97236858D01*
X154441805Y-97236855D01*
X154318622Y-97073733D01*
X154167553Y-96936016D01*
X153993760Y-96828407D01*
X153993749Y-96828402D01*
X153803147Y-96754563D01*
X153803139Y-96754561D01*
X153626500Y-96721540D01*
X153626500Y-97336257D01*
X153565826Y-97320000D01*
X153434174Y-97320000D01*
X153373500Y-97336257D01*
X153373500Y-96721540D01*
X153196860Y-96754561D01*
X153196852Y-96754563D01*
X153006250Y-96828402D01*
X153006239Y-96828407D01*
X152832446Y-96936016D01*
X152681377Y-97073733D01*
X152558194Y-97236855D01*
X152558192Y-97236858D01*
X152467079Y-97419839D01*
X152467076Y-97419848D01*
X152411137Y-97616451D01*
X152411136Y-97616453D01*
X152403998Y-97693500D01*
X148994460Y-97693500D01*
X148983742Y-97653500D01*
X149596002Y-97653500D01*
X149588863Y-97576453D01*
X149588862Y-97576451D01*
X149532923Y-97379848D01*
X149532920Y-97379839D01*
X149441807Y-97196858D01*
X149441805Y-97196855D01*
X149318622Y-97033733D01*
X149167553Y-96896016D01*
X148993760Y-96788407D01*
X148993749Y-96788402D01*
X148803147Y-96714563D01*
X148803139Y-96714561D01*
X148626500Y-96681540D01*
X148626500Y-97296257D01*
X148565826Y-97280000D01*
X148434174Y-97280000D01*
X148373500Y-97296257D01*
X148373500Y-96681540D01*
X148196860Y-96714561D01*
X148196852Y-96714563D01*
X148006250Y-96788402D01*
X148006239Y-96788407D01*
X147832446Y-96896016D01*
X147681377Y-97033733D01*
X147558194Y-97196855D01*
X147558192Y-97196858D01*
X147467079Y-97379839D01*
X147467076Y-97379848D01*
X147411137Y-97576451D01*
X147411136Y-97576453D01*
X147403998Y-97653500D01*
X144596002Y-97653500D01*
X144588863Y-97576453D01*
X144588862Y-97576451D01*
X144532923Y-97379848D01*
X144532920Y-97379839D01*
X144441807Y-97196858D01*
X144441805Y-97196855D01*
X144318622Y-97033733D01*
X144167553Y-96896016D01*
X143993760Y-96788407D01*
X143993749Y-96788402D01*
X143803147Y-96714563D01*
X143803139Y-96714561D01*
X143626500Y-96681540D01*
X143626500Y-97296257D01*
X143565826Y-97280000D01*
X143434174Y-97280000D01*
X143373500Y-97296257D01*
X143373500Y-96681540D01*
X143196860Y-96714561D01*
X143196852Y-96714563D01*
X143006250Y-96788402D01*
X143006239Y-96788407D01*
X142832446Y-96896016D01*
X142681377Y-97033733D01*
X142558194Y-97196855D01*
X142558192Y-97196858D01*
X142467079Y-97379839D01*
X142467076Y-97379848D01*
X142411137Y-97576451D01*
X142411136Y-97576453D01*
X142403998Y-97653500D01*
X137132799Y-97653500D01*
X137129358Y-97616364D01*
X137073392Y-97419662D01*
X136982234Y-97236593D01*
X136982233Y-97236592D01*
X136982233Y-97236591D01*
X136858992Y-97073394D01*
X136858989Y-97073391D01*
X136707860Y-96935618D01*
X136707857Y-96935615D01*
X136707854Y-96935613D01*
X136707849Y-96935609D01*
X136533989Y-96827960D01*
X136533976Y-96827953D01*
X136343281Y-96754078D01*
X136343275Y-96754076D01*
X136142254Y-96716500D01*
X135937746Y-96716500D01*
X135736724Y-96754076D01*
X135736718Y-96754078D01*
X135546023Y-96827953D01*
X135546010Y-96827960D01*
X135372150Y-96935609D01*
X135372139Y-96935618D01*
X135221010Y-97073391D01*
X135221007Y-97073394D01*
X135097766Y-97236591D01*
X135006610Y-97419657D01*
X135006607Y-97419666D01*
X134950643Y-97616359D01*
X134950642Y-97616360D01*
X134931772Y-97820000D01*
X134608228Y-97820000D01*
X134589358Y-97616364D01*
X134533392Y-97419662D01*
X134442234Y-97236593D01*
X134442233Y-97236592D01*
X134442233Y-97236591D01*
X134318992Y-97073394D01*
X134318989Y-97073391D01*
X134167860Y-96935618D01*
X134167857Y-96935615D01*
X134167854Y-96935613D01*
X134167849Y-96935609D01*
X133993989Y-96827960D01*
X133993976Y-96827953D01*
X133803281Y-96754078D01*
X133803275Y-96754076D01*
X133602254Y-96716500D01*
X133397746Y-96716500D01*
X133196724Y-96754076D01*
X133196718Y-96754078D01*
X133006023Y-96827953D01*
X133006010Y-96827960D01*
X132832150Y-96935609D01*
X132832139Y-96935618D01*
X132681010Y-97073391D01*
X132681007Y-97073394D01*
X132557766Y-97236591D01*
X132466610Y-97419657D01*
X132466607Y-97419666D01*
X132410643Y-97616359D01*
X132410642Y-97616360D01*
X132391772Y-97820000D01*
X124500500Y-97820000D01*
X124500500Y-95280000D01*
X132391772Y-95280000D01*
X132410642Y-95483639D01*
X132410643Y-95483640D01*
X132466608Y-95680338D01*
X132466610Y-95680342D01*
X132557766Y-95863408D01*
X132681007Y-96026605D01*
X132681010Y-96026608D01*
X132832143Y-96164385D01*
X132832146Y-96164387D01*
X132832150Y-96164390D01*
X132941419Y-96232046D01*
X133006020Y-96272045D01*
X133196719Y-96345922D01*
X133196723Y-96345922D01*
X133196724Y-96345923D01*
X133260459Y-96357837D01*
X133397746Y-96383500D01*
X133602254Y-96383500D01*
X133803281Y-96345922D01*
X133993980Y-96272045D01*
X134167857Y-96164385D01*
X134318990Y-96026608D01*
X134442234Y-95863407D01*
X134533392Y-95680338D01*
X134589358Y-95483636D01*
X134608228Y-95280000D01*
X134596506Y-95153500D01*
X134943998Y-95153500D01*
X135556258Y-95153500D01*
X135540000Y-95214174D01*
X135540000Y-95345826D01*
X135556258Y-95406500D01*
X134943998Y-95406500D01*
X134951136Y-95483546D01*
X134951137Y-95483548D01*
X135007076Y-95680151D01*
X135007079Y-95680160D01*
X135098192Y-95863141D01*
X135098194Y-95863144D01*
X135221377Y-96026266D01*
X135372446Y-96163983D01*
X135546239Y-96271592D01*
X135546250Y-96271597D01*
X135736852Y-96345436D01*
X135736860Y-96345438D01*
X135913499Y-96378458D01*
X135913500Y-96378458D01*
X135913500Y-95763742D01*
X135974174Y-95780000D01*
X136105826Y-95780000D01*
X136166500Y-95763742D01*
X136166500Y-96378458D01*
X136343139Y-96345438D01*
X136343147Y-96345436D01*
X136533749Y-96271597D01*
X136533760Y-96271592D01*
X136707553Y-96163983D01*
X136858622Y-96026266D01*
X136981805Y-95863144D01*
X136981807Y-95863141D01*
X137072920Y-95680160D01*
X137072923Y-95680151D01*
X137128862Y-95483548D01*
X137128863Y-95483546D01*
X137136002Y-95406500D01*
X136523742Y-95406500D01*
X136540000Y-95345826D01*
X136540000Y-95240000D01*
X142391772Y-95240000D01*
X142410642Y-95443639D01*
X142410643Y-95443640D01*
X142466608Y-95640338D01*
X142466610Y-95640342D01*
X142557766Y-95823408D01*
X142681007Y-95986605D01*
X142681010Y-95986608D01*
X142832143Y-96124385D01*
X142832146Y-96124387D01*
X142832150Y-96124390D01*
X142998376Y-96227312D01*
X143006020Y-96232045D01*
X143196719Y-96305922D01*
X143397746Y-96343500D01*
X143602254Y-96343500D01*
X143803281Y-96305922D01*
X143993980Y-96232045D01*
X144167857Y-96124385D01*
X144318990Y-95986608D01*
X144442234Y-95823407D01*
X144533392Y-95640338D01*
X144589358Y-95443636D01*
X144608228Y-95240000D01*
X147391772Y-95240000D01*
X147410642Y-95443639D01*
X147410643Y-95443640D01*
X147466608Y-95640338D01*
X147466610Y-95640342D01*
X147557766Y-95823408D01*
X147681007Y-95986605D01*
X147681010Y-95986608D01*
X147832143Y-96124385D01*
X147832146Y-96124387D01*
X147832150Y-96124390D01*
X147998376Y-96227312D01*
X148006020Y-96232045D01*
X148196719Y-96305922D01*
X148397746Y-96343500D01*
X148602254Y-96343500D01*
X148803281Y-96305922D01*
X148993980Y-96232045D01*
X149167857Y-96124385D01*
X149318990Y-95986608D01*
X149442234Y-95823407D01*
X149533392Y-95640338D01*
X149589358Y-95443636D01*
X149604521Y-95280000D01*
X152391772Y-95280000D01*
X152410642Y-95483639D01*
X152410643Y-95483640D01*
X152466608Y-95680338D01*
X152466610Y-95680342D01*
X152557766Y-95863408D01*
X152681007Y-96026605D01*
X152681010Y-96026608D01*
X152832143Y-96164385D01*
X152832146Y-96164387D01*
X152832150Y-96164390D01*
X152941419Y-96232046D01*
X153006020Y-96272045D01*
X153196719Y-96345922D01*
X153196723Y-96345922D01*
X153196724Y-96345923D01*
X153260459Y-96357837D01*
X153397746Y-96383500D01*
X153602254Y-96383500D01*
X153803281Y-96345922D01*
X153993980Y-96272045D01*
X154167857Y-96164385D01*
X154318990Y-96026608D01*
X154442234Y-95863407D01*
X154533392Y-95680338D01*
X154589358Y-95483636D01*
X154608228Y-95280000D01*
X154604521Y-95240000D01*
X157391772Y-95240000D01*
X157410642Y-95443639D01*
X157410643Y-95443640D01*
X157466608Y-95640338D01*
X157466610Y-95640342D01*
X157557766Y-95823408D01*
X157681007Y-95986605D01*
X157681010Y-95986608D01*
X157832143Y-96124385D01*
X157832146Y-96124387D01*
X157832150Y-96124390D01*
X157998376Y-96227312D01*
X158006020Y-96232045D01*
X158196719Y-96305922D01*
X158397746Y-96343500D01*
X158602254Y-96343500D01*
X158803281Y-96305922D01*
X158993980Y-96232045D01*
X159167857Y-96124385D01*
X159318990Y-95986608D01*
X159442234Y-95823407D01*
X159533392Y-95640338D01*
X159589358Y-95443636D01*
X159608228Y-95240000D01*
X167391772Y-95240000D01*
X167410642Y-95443639D01*
X167410643Y-95443640D01*
X167466608Y-95640338D01*
X167466610Y-95640342D01*
X167557766Y-95823408D01*
X167681007Y-95986605D01*
X167681010Y-95986608D01*
X167832143Y-96124385D01*
X167832146Y-96124387D01*
X167832150Y-96124390D01*
X167998376Y-96227312D01*
X168006020Y-96232045D01*
X168196719Y-96305922D01*
X168397746Y-96343500D01*
X168602254Y-96343500D01*
X168803281Y-96305922D01*
X168993980Y-96232045D01*
X169167857Y-96124385D01*
X169318990Y-95986608D01*
X169442234Y-95823407D01*
X169533392Y-95640338D01*
X169589358Y-95443636D01*
X169608228Y-95240000D01*
X169589358Y-95036364D01*
X169533392Y-94839662D01*
X169442234Y-94656593D01*
X169442233Y-94656592D01*
X169442233Y-94656591D01*
X169318992Y-94493394D01*
X169318989Y-94493391D01*
X169211738Y-94395618D01*
X169167857Y-94355615D01*
X169167854Y-94355613D01*
X169167849Y-94355609D01*
X168993989Y-94247960D01*
X168993976Y-94247953D01*
X168803281Y-94174078D01*
X168803275Y-94174076D01*
X168602254Y-94136500D01*
X168397746Y-94136500D01*
X168196724Y-94174076D01*
X168196718Y-94174078D01*
X168006023Y-94247953D01*
X168006010Y-94247960D01*
X167832150Y-94355609D01*
X167832139Y-94355618D01*
X167681010Y-94493391D01*
X167681007Y-94493394D01*
X167557766Y-94656591D01*
X167466610Y-94839657D01*
X167466607Y-94839666D01*
X167410643Y-95036359D01*
X167410642Y-95036360D01*
X167391772Y-95240000D01*
X159608228Y-95240000D01*
X159589358Y-95036364D01*
X159533392Y-94839662D01*
X159442234Y-94656593D01*
X159442233Y-94656592D01*
X159442233Y-94656591D01*
X159318992Y-94493394D01*
X159318989Y-94493391D01*
X159211738Y-94395618D01*
X159167857Y-94355615D01*
X159167854Y-94355613D01*
X159167849Y-94355609D01*
X158993989Y-94247960D01*
X158993976Y-94247953D01*
X158803281Y-94174078D01*
X158803275Y-94174076D01*
X158602254Y-94136500D01*
X158397746Y-94136500D01*
X158196724Y-94174076D01*
X158196718Y-94174078D01*
X158006023Y-94247953D01*
X158006010Y-94247960D01*
X157832150Y-94355609D01*
X157832139Y-94355618D01*
X157681010Y-94493391D01*
X157681007Y-94493394D01*
X157557766Y-94656591D01*
X157466610Y-94839657D01*
X157466607Y-94839666D01*
X157410643Y-95036359D01*
X157410642Y-95036360D01*
X157391772Y-95240000D01*
X154604521Y-95240000D01*
X154589358Y-95076364D01*
X154533392Y-94879662D01*
X154442234Y-94696593D01*
X154442233Y-94696592D01*
X154442233Y-94696591D01*
X154318992Y-94533394D01*
X154318989Y-94533391D01*
X154167860Y-94395618D01*
X154167857Y-94395615D01*
X154167854Y-94395613D01*
X154167849Y-94395609D01*
X153993989Y-94287960D01*
X153993976Y-94287953D01*
X153803281Y-94214078D01*
X153803275Y-94214076D01*
X153602254Y-94176500D01*
X153397746Y-94176500D01*
X153196724Y-94214076D01*
X153196718Y-94214078D01*
X153006023Y-94287953D01*
X153006010Y-94287960D01*
X152832150Y-94395609D01*
X152832139Y-94395618D01*
X152681010Y-94533391D01*
X152681007Y-94533394D01*
X152557766Y-94696591D01*
X152466610Y-94879657D01*
X152466607Y-94879666D01*
X152410643Y-95076359D01*
X152410642Y-95076360D01*
X152391772Y-95280000D01*
X149604521Y-95280000D01*
X149608228Y-95240000D01*
X149589358Y-95036364D01*
X149533392Y-94839662D01*
X149442234Y-94656593D01*
X149442233Y-94656592D01*
X149442233Y-94656591D01*
X149318992Y-94493394D01*
X149318989Y-94493391D01*
X149211738Y-94395618D01*
X149167857Y-94355615D01*
X149167854Y-94355613D01*
X149167849Y-94355609D01*
X148993989Y-94247960D01*
X148993976Y-94247953D01*
X148803281Y-94174078D01*
X148803275Y-94174076D01*
X148602254Y-94136500D01*
X148397746Y-94136500D01*
X148196724Y-94174076D01*
X148196718Y-94174078D01*
X148006023Y-94247953D01*
X148006010Y-94247960D01*
X147832150Y-94355609D01*
X147832139Y-94355618D01*
X147681010Y-94493391D01*
X147681007Y-94493394D01*
X147557766Y-94656591D01*
X147466610Y-94839657D01*
X147466607Y-94839666D01*
X147410643Y-95036359D01*
X147410642Y-95036360D01*
X147391772Y-95240000D01*
X144608228Y-95240000D01*
X144589358Y-95036364D01*
X144533392Y-94839662D01*
X144442234Y-94656593D01*
X144442233Y-94656592D01*
X144442233Y-94656591D01*
X144318992Y-94493394D01*
X144318989Y-94493391D01*
X144211738Y-94395618D01*
X144167857Y-94355615D01*
X144167854Y-94355613D01*
X144167849Y-94355609D01*
X143993989Y-94247960D01*
X143993976Y-94247953D01*
X143803281Y-94174078D01*
X143803275Y-94174076D01*
X143602254Y-94136500D01*
X143397746Y-94136500D01*
X143196724Y-94174076D01*
X143196718Y-94174078D01*
X143006023Y-94247953D01*
X143006010Y-94247960D01*
X142832150Y-94355609D01*
X142832139Y-94355618D01*
X142681010Y-94493391D01*
X142681007Y-94493394D01*
X142557766Y-94656591D01*
X142466610Y-94839657D01*
X142466607Y-94839666D01*
X142410643Y-95036359D01*
X142410642Y-95036360D01*
X142391772Y-95240000D01*
X136540000Y-95240000D01*
X136540000Y-95214174D01*
X136523742Y-95153500D01*
X137136002Y-95153500D01*
X137128863Y-95076453D01*
X137128862Y-95076451D01*
X137072923Y-94879848D01*
X137072920Y-94879839D01*
X136981807Y-94696858D01*
X136981805Y-94696855D01*
X136858622Y-94533733D01*
X136707553Y-94396016D01*
X136533760Y-94288407D01*
X136533749Y-94288402D01*
X136343147Y-94214563D01*
X136343139Y-94214561D01*
X136166500Y-94181540D01*
X136166500Y-94796257D01*
X136105826Y-94780000D01*
X135974174Y-94780000D01*
X135913500Y-94796257D01*
X135913500Y-94181540D01*
X135736860Y-94214561D01*
X135736852Y-94214563D01*
X135546250Y-94288402D01*
X135546239Y-94288407D01*
X135372446Y-94396016D01*
X135221377Y-94533733D01*
X135098194Y-94696855D01*
X135098192Y-94696858D01*
X135007079Y-94879839D01*
X135007076Y-94879848D01*
X134951137Y-95076451D01*
X134951136Y-95076453D01*
X134943998Y-95153500D01*
X134596506Y-95153500D01*
X134589358Y-95076364D01*
X134533392Y-94879662D01*
X134442234Y-94696593D01*
X134442233Y-94696592D01*
X134442233Y-94696591D01*
X134318992Y-94533394D01*
X134318989Y-94533391D01*
X134167860Y-94395618D01*
X134167857Y-94395615D01*
X134167854Y-94395613D01*
X134167849Y-94395609D01*
X133993989Y-94287960D01*
X133993976Y-94287953D01*
X133803281Y-94214078D01*
X133803275Y-94214076D01*
X133602254Y-94176500D01*
X133397746Y-94176500D01*
X133196724Y-94214076D01*
X133196718Y-94214078D01*
X133006023Y-94287953D01*
X133006010Y-94287960D01*
X132832150Y-94395609D01*
X132832139Y-94395618D01*
X132681010Y-94533391D01*
X132681007Y-94533394D01*
X132557766Y-94696591D01*
X132466610Y-94879657D01*
X132466607Y-94879666D01*
X132410643Y-95076359D01*
X132410642Y-95076360D01*
X132391772Y-95280000D01*
X124500500Y-95280000D01*
X124500500Y-91533500D01*
X125863998Y-91533500D01*
X126476258Y-91533500D01*
X126460000Y-91594174D01*
X126460000Y-91725826D01*
X126476258Y-91786500D01*
X125863998Y-91786500D01*
X125871136Y-91863546D01*
X125871137Y-91863548D01*
X125927076Y-92060151D01*
X125927079Y-92060160D01*
X126018192Y-92243141D01*
X126018194Y-92243144D01*
X126141377Y-92406266D01*
X126292446Y-92543983D01*
X126466239Y-92651592D01*
X126466250Y-92651597D01*
X126656852Y-92725436D01*
X126656860Y-92725438D01*
X126833499Y-92758458D01*
X126833500Y-92758458D01*
X126833500Y-92143742D01*
X126894174Y-92160000D01*
X127025826Y-92160000D01*
X127086500Y-92143742D01*
X127086500Y-92758458D01*
X127263139Y-92725438D01*
X127263147Y-92725436D01*
X127453749Y-92651597D01*
X127453760Y-92651592D01*
X127627553Y-92543983D01*
X127778622Y-92406266D01*
X127901805Y-92243144D01*
X127901807Y-92243141D01*
X127992920Y-92060160D01*
X127992923Y-92060151D01*
X128048862Y-91863548D01*
X128048863Y-91863546D01*
X128056002Y-91786500D01*
X127443742Y-91786500D01*
X127460000Y-91725826D01*
X127460000Y-91594174D01*
X127443742Y-91533500D01*
X128056002Y-91533500D01*
X128403998Y-91533500D01*
X129016258Y-91533500D01*
X129000000Y-91594174D01*
X129000000Y-91725826D01*
X129016258Y-91786500D01*
X128403998Y-91786500D01*
X128411136Y-91863546D01*
X128411137Y-91863548D01*
X128467076Y-92060151D01*
X128467079Y-92060160D01*
X128558192Y-92243141D01*
X128558194Y-92243144D01*
X128681377Y-92406266D01*
X128832446Y-92543983D01*
X129006239Y-92651592D01*
X129006250Y-92651597D01*
X129196852Y-92725436D01*
X129196860Y-92725438D01*
X129373499Y-92758458D01*
X129373500Y-92758458D01*
X129373500Y-92143742D01*
X129434174Y-92160000D01*
X129565826Y-92160000D01*
X129626500Y-92143742D01*
X129626500Y-92758458D01*
X129725240Y-92740000D01*
X132391772Y-92740000D01*
X132410642Y-92943639D01*
X132410643Y-92943640D01*
X132466608Y-93140338D01*
X132466610Y-93140342D01*
X132557766Y-93323408D01*
X132681007Y-93486605D01*
X132681010Y-93486608D01*
X132832143Y-93624385D01*
X132832146Y-93624387D01*
X132832150Y-93624390D01*
X132941419Y-93692046D01*
X133006020Y-93732045D01*
X133196719Y-93805922D01*
X133397746Y-93843500D01*
X133602254Y-93843500D01*
X133803281Y-93805922D01*
X133993980Y-93732045D01*
X134167857Y-93624385D01*
X134318990Y-93486608D01*
X134442234Y-93323407D01*
X134533392Y-93140338D01*
X134589358Y-92943636D01*
X134608228Y-92740000D01*
X134596506Y-92613500D01*
X134943998Y-92613500D01*
X135556258Y-92613500D01*
X135540000Y-92674174D01*
X135540000Y-92805826D01*
X135556258Y-92866500D01*
X134943998Y-92866500D01*
X134951136Y-92943546D01*
X134951137Y-92943548D01*
X135007076Y-93140151D01*
X135007079Y-93140160D01*
X135098192Y-93323141D01*
X135098194Y-93323144D01*
X135221377Y-93486266D01*
X135372446Y-93623983D01*
X135546239Y-93731592D01*
X135546250Y-93731597D01*
X135736852Y-93805436D01*
X135736860Y-93805438D01*
X135913499Y-93838458D01*
X135913500Y-93838458D01*
X135913500Y-93223742D01*
X135974174Y-93240000D01*
X136105826Y-93240000D01*
X136166500Y-93223742D01*
X136166500Y-93838458D01*
X136343139Y-93805438D01*
X136343147Y-93805436D01*
X136533749Y-93731597D01*
X136533760Y-93731592D01*
X136707553Y-93623983D01*
X136858622Y-93486266D01*
X136981805Y-93323144D01*
X136981807Y-93323141D01*
X137072920Y-93140160D01*
X137072923Y-93140151D01*
X137128862Y-92943548D01*
X137128863Y-92943546D01*
X137136002Y-92866500D01*
X136523742Y-92866500D01*
X136540000Y-92805826D01*
X136540000Y-92700000D01*
X142391772Y-92700000D01*
X142410642Y-92903639D01*
X142410643Y-92903640D01*
X142414614Y-92917596D01*
X142466608Y-93100338D01*
X142466610Y-93100342D01*
X142557766Y-93283408D01*
X142681007Y-93446605D01*
X142681010Y-93446608D01*
X142832143Y-93584385D01*
X142832146Y-93584387D01*
X142832150Y-93584390D01*
X143004250Y-93690949D01*
X143006020Y-93692045D01*
X143196719Y-93765922D01*
X143397746Y-93803500D01*
X143602254Y-93803500D01*
X143803281Y-93765922D01*
X143993980Y-93692045D01*
X144167857Y-93584385D01*
X144318990Y-93446608D01*
X144442234Y-93283407D01*
X144533392Y-93100338D01*
X144589358Y-92903636D01*
X144608228Y-92700000D01*
X147391772Y-92700000D01*
X147410642Y-92903639D01*
X147410643Y-92903640D01*
X147414614Y-92917596D01*
X147466608Y-93100338D01*
X147466610Y-93100342D01*
X147557766Y-93283408D01*
X147681007Y-93446605D01*
X147681010Y-93446608D01*
X147832143Y-93584385D01*
X147832146Y-93584387D01*
X147832150Y-93584390D01*
X148004250Y-93690949D01*
X148006020Y-93692045D01*
X148196719Y-93765922D01*
X148397746Y-93803500D01*
X148602254Y-93803500D01*
X148803281Y-93765922D01*
X148993980Y-93692045D01*
X149167857Y-93584385D01*
X149318990Y-93446608D01*
X149442234Y-93283407D01*
X149533392Y-93100338D01*
X149589358Y-92903636D01*
X149604521Y-92740000D01*
X152391772Y-92740000D01*
X152410642Y-92943639D01*
X152410643Y-92943640D01*
X152466608Y-93140338D01*
X152466610Y-93140342D01*
X152557766Y-93323408D01*
X152681007Y-93486605D01*
X152681010Y-93486608D01*
X152832143Y-93624385D01*
X152832146Y-93624387D01*
X152832150Y-93624390D01*
X152941419Y-93692046D01*
X153006020Y-93732045D01*
X153196719Y-93805922D01*
X153397746Y-93843500D01*
X153602254Y-93843500D01*
X153803281Y-93805922D01*
X153993980Y-93732045D01*
X154167857Y-93624385D01*
X154318990Y-93486608D01*
X154442234Y-93323407D01*
X154533392Y-93140338D01*
X154589358Y-92943636D01*
X154608228Y-92740000D01*
X154604521Y-92700000D01*
X157391772Y-92700000D01*
X157410642Y-92903639D01*
X157410643Y-92903640D01*
X157414614Y-92917596D01*
X157466608Y-93100338D01*
X157466610Y-93100342D01*
X157557766Y-93283408D01*
X157681007Y-93446605D01*
X157681010Y-93446608D01*
X157832143Y-93584385D01*
X157832146Y-93584387D01*
X157832150Y-93584390D01*
X158004250Y-93690949D01*
X158006020Y-93692045D01*
X158196719Y-93765922D01*
X158397746Y-93803500D01*
X158602254Y-93803500D01*
X158803281Y-93765922D01*
X158993980Y-93692045D01*
X159167857Y-93584385D01*
X159318990Y-93446608D01*
X159442234Y-93283407D01*
X159533392Y-93100338D01*
X159589358Y-92903636D01*
X159608228Y-92700000D01*
X167391772Y-92700000D01*
X167410642Y-92903639D01*
X167410643Y-92903640D01*
X167414614Y-92917596D01*
X167466608Y-93100338D01*
X167466610Y-93100342D01*
X167557766Y-93283408D01*
X167681007Y-93446605D01*
X167681010Y-93446608D01*
X167832143Y-93584385D01*
X167832146Y-93584387D01*
X167832150Y-93584390D01*
X168004250Y-93690949D01*
X168006020Y-93692045D01*
X168196719Y-93765922D01*
X168397746Y-93803500D01*
X168602254Y-93803500D01*
X168803281Y-93765922D01*
X168993980Y-93692045D01*
X169167857Y-93584385D01*
X169318990Y-93446608D01*
X169442234Y-93283407D01*
X169533392Y-93100338D01*
X169589358Y-92903636D01*
X169608228Y-92700000D01*
X169589358Y-92496364D01*
X169533392Y-92299662D01*
X169442234Y-92116593D01*
X169442233Y-92116592D01*
X169442233Y-92116591D01*
X169318992Y-91953394D01*
X169318989Y-91953391D01*
X169281206Y-91918947D01*
X169167857Y-91815615D01*
X169167854Y-91815613D01*
X169167849Y-91815609D01*
X168993989Y-91707960D01*
X168993976Y-91707953D01*
X168803281Y-91634078D01*
X168803275Y-91634076D01*
X168602254Y-91596500D01*
X168397746Y-91596500D01*
X168196724Y-91634076D01*
X168196718Y-91634078D01*
X168006023Y-91707953D01*
X168006010Y-91707960D01*
X167832150Y-91815609D01*
X167832139Y-91815618D01*
X167681010Y-91953391D01*
X167681007Y-91953394D01*
X167557766Y-92116591D01*
X167466610Y-92299657D01*
X167466607Y-92299666D01*
X167410643Y-92496359D01*
X167410642Y-92496360D01*
X167391772Y-92700000D01*
X159608228Y-92700000D01*
X159589358Y-92496364D01*
X159533392Y-92299662D01*
X159442234Y-92116593D01*
X159442233Y-92116592D01*
X159442233Y-92116591D01*
X159318992Y-91953394D01*
X159318989Y-91953391D01*
X159281206Y-91918947D01*
X159167857Y-91815615D01*
X159167854Y-91815613D01*
X159167849Y-91815609D01*
X158993989Y-91707960D01*
X158993976Y-91707953D01*
X158803281Y-91634078D01*
X158803275Y-91634076D01*
X158602254Y-91596500D01*
X158397746Y-91596500D01*
X158196724Y-91634076D01*
X158196718Y-91634078D01*
X158006023Y-91707953D01*
X158006010Y-91707960D01*
X157832150Y-91815609D01*
X157832139Y-91815618D01*
X157681010Y-91953391D01*
X157681007Y-91953394D01*
X157557766Y-92116591D01*
X157466610Y-92299657D01*
X157466607Y-92299666D01*
X157410643Y-92496359D01*
X157410642Y-92496360D01*
X157391772Y-92700000D01*
X154604521Y-92700000D01*
X154589358Y-92536364D01*
X154533392Y-92339662D01*
X154442234Y-92156593D01*
X154442233Y-92156592D01*
X154442233Y-92156591D01*
X154318992Y-91993394D01*
X154318989Y-91993391D01*
X154167860Y-91855618D01*
X154167857Y-91855615D01*
X154167854Y-91855613D01*
X154167849Y-91855609D01*
X153993989Y-91747960D01*
X153993976Y-91747953D01*
X153803281Y-91674078D01*
X153803275Y-91674076D01*
X153602254Y-91636500D01*
X153397746Y-91636500D01*
X153196724Y-91674076D01*
X153196718Y-91674078D01*
X153006023Y-91747953D01*
X153006010Y-91747960D01*
X152832150Y-91855609D01*
X152832139Y-91855618D01*
X152681010Y-91993391D01*
X152681007Y-91993394D01*
X152557766Y-92156591D01*
X152466610Y-92339657D01*
X152466607Y-92339666D01*
X152410643Y-92536359D01*
X152410642Y-92536360D01*
X152391772Y-92740000D01*
X149604521Y-92740000D01*
X149608228Y-92700000D01*
X149589358Y-92496364D01*
X149533392Y-92299662D01*
X149442234Y-92116593D01*
X149442233Y-92116592D01*
X149442233Y-92116591D01*
X149318992Y-91953394D01*
X149318989Y-91953391D01*
X149281206Y-91918947D01*
X149167857Y-91815615D01*
X149167854Y-91815613D01*
X149167849Y-91815609D01*
X148993989Y-91707960D01*
X148993976Y-91707953D01*
X148803281Y-91634078D01*
X148803275Y-91634076D01*
X148602254Y-91596500D01*
X148397746Y-91596500D01*
X148196724Y-91634076D01*
X148196718Y-91634078D01*
X148006023Y-91707953D01*
X148006010Y-91707960D01*
X147832150Y-91815609D01*
X147832139Y-91815618D01*
X147681010Y-91953391D01*
X147681007Y-91953394D01*
X147557766Y-92116591D01*
X147466610Y-92299657D01*
X147466607Y-92299666D01*
X147410643Y-92496359D01*
X147410642Y-92496360D01*
X147391772Y-92700000D01*
X144608228Y-92700000D01*
X144589358Y-92496364D01*
X144533392Y-92299662D01*
X144442234Y-92116593D01*
X144442233Y-92116592D01*
X144442233Y-92116591D01*
X144318992Y-91953394D01*
X144318989Y-91953391D01*
X144281206Y-91918947D01*
X144167857Y-91815615D01*
X144167854Y-91815613D01*
X144167849Y-91815609D01*
X143993989Y-91707960D01*
X143993976Y-91707953D01*
X143803281Y-91634078D01*
X143803275Y-91634076D01*
X143602254Y-91596500D01*
X143397746Y-91596500D01*
X143196724Y-91634076D01*
X143196718Y-91634078D01*
X143006023Y-91707953D01*
X143006010Y-91707960D01*
X142832150Y-91815609D01*
X142832139Y-91815618D01*
X142681010Y-91953391D01*
X142681007Y-91953394D01*
X142557766Y-92116591D01*
X142466610Y-92299657D01*
X142466607Y-92299666D01*
X142410643Y-92496359D01*
X142410642Y-92496360D01*
X142391772Y-92700000D01*
X136540000Y-92700000D01*
X136540000Y-92674174D01*
X136523742Y-92613500D01*
X137136002Y-92613500D01*
X137128863Y-92536453D01*
X137128862Y-92536451D01*
X137072923Y-92339848D01*
X137072920Y-92339839D01*
X136981807Y-92156858D01*
X136981805Y-92156855D01*
X136858622Y-91993733D01*
X136707553Y-91856016D01*
X136533760Y-91748407D01*
X136533749Y-91748402D01*
X136343147Y-91674563D01*
X136343139Y-91674561D01*
X136166500Y-91641540D01*
X136166500Y-92256257D01*
X136105826Y-92240000D01*
X135974174Y-92240000D01*
X135913500Y-92256257D01*
X135913500Y-91641540D01*
X135736860Y-91674561D01*
X135736852Y-91674563D01*
X135546250Y-91748402D01*
X135546239Y-91748407D01*
X135372446Y-91856016D01*
X135221377Y-91993733D01*
X135098194Y-92156855D01*
X135098192Y-92156858D01*
X135007079Y-92339839D01*
X135007076Y-92339848D01*
X134951137Y-92536451D01*
X134951136Y-92536453D01*
X134943998Y-92613500D01*
X134596506Y-92613500D01*
X134589358Y-92536364D01*
X134533392Y-92339662D01*
X134442234Y-92156593D01*
X134442233Y-92156592D01*
X134442233Y-92156591D01*
X134318992Y-91993394D01*
X134318989Y-91993391D01*
X134167860Y-91855618D01*
X134167857Y-91855615D01*
X134167854Y-91855613D01*
X134167849Y-91855609D01*
X133993989Y-91747960D01*
X133993976Y-91747953D01*
X133803281Y-91674078D01*
X133803275Y-91674076D01*
X133602254Y-91636500D01*
X133397746Y-91636500D01*
X133196724Y-91674076D01*
X133196718Y-91674078D01*
X133006023Y-91747953D01*
X133006010Y-91747960D01*
X132832150Y-91855609D01*
X132832139Y-91855618D01*
X132681010Y-91993391D01*
X132681007Y-91993394D01*
X132557766Y-92156591D01*
X132466610Y-92339657D01*
X132466607Y-92339666D01*
X132410643Y-92536359D01*
X132410642Y-92536360D01*
X132391772Y-92740000D01*
X129725240Y-92740000D01*
X129803139Y-92725438D01*
X129803147Y-92725436D01*
X129993749Y-92651597D01*
X129993760Y-92651592D01*
X130167553Y-92543983D01*
X130318622Y-92406266D01*
X130441805Y-92243144D01*
X130441807Y-92243141D01*
X130532920Y-92060160D01*
X130532923Y-92060151D01*
X130588862Y-91863548D01*
X130588863Y-91863546D01*
X130596002Y-91786500D01*
X129983742Y-91786500D01*
X130000000Y-91725826D01*
X130000000Y-91594174D01*
X129983742Y-91533500D01*
X130596002Y-91533500D01*
X130588863Y-91456453D01*
X130588862Y-91456451D01*
X130532923Y-91259848D01*
X130532918Y-91259834D01*
X130441807Y-91076858D01*
X130441805Y-91076855D01*
X130318622Y-90913733D01*
X130167553Y-90776016D01*
X129993760Y-90668407D01*
X129993749Y-90668402D01*
X129803147Y-90594563D01*
X129803139Y-90594561D01*
X129626500Y-90561540D01*
X129626500Y-91176257D01*
X129565826Y-91160000D01*
X129434174Y-91160000D01*
X129373500Y-91176257D01*
X129373500Y-90561540D01*
X129196860Y-90594561D01*
X129196852Y-90594563D01*
X129006250Y-90668402D01*
X129006239Y-90668407D01*
X128832446Y-90776016D01*
X128681377Y-90913733D01*
X128558194Y-91076855D01*
X128558192Y-91076858D01*
X128467082Y-91259834D01*
X128467076Y-91259848D01*
X128411137Y-91456451D01*
X128411136Y-91456453D01*
X128403998Y-91533500D01*
X128056002Y-91533500D01*
X128048863Y-91456453D01*
X128048862Y-91456451D01*
X127992923Y-91259848D01*
X127992918Y-91259834D01*
X127901807Y-91076858D01*
X127901805Y-91076855D01*
X127778622Y-90913733D01*
X127627553Y-90776016D01*
X127453760Y-90668407D01*
X127453749Y-90668402D01*
X127263147Y-90594563D01*
X127263139Y-90594561D01*
X127086500Y-90561540D01*
X127086500Y-91176257D01*
X127025826Y-91160000D01*
X126894174Y-91160000D01*
X126833500Y-91176257D01*
X126833500Y-90561540D01*
X126656860Y-90594561D01*
X126656852Y-90594563D01*
X126466250Y-90668402D01*
X126466239Y-90668407D01*
X126292446Y-90776016D01*
X126141377Y-90913733D01*
X126018194Y-91076855D01*
X126018192Y-91076858D01*
X125927082Y-91259834D01*
X125927076Y-91259848D01*
X125871137Y-91456451D01*
X125871136Y-91456453D01*
X125863998Y-91533500D01*
X124500500Y-91533500D01*
X124500500Y-89120000D01*
X125851772Y-89120000D01*
X125870642Y-89323639D01*
X125870643Y-89323640D01*
X125926608Y-89520338D01*
X125926610Y-89520342D01*
X126017766Y-89703408D01*
X126141007Y-89866605D01*
X126141010Y-89866608D01*
X126292143Y-90004385D01*
X126292146Y-90004387D01*
X126292150Y-90004390D01*
X126466010Y-90112039D01*
X126466020Y-90112045D01*
X126656719Y-90185922D01*
X126656723Y-90185922D01*
X126656724Y-90185923D01*
X126857746Y-90223500D01*
X127062254Y-90223500D01*
X127263281Y-90185922D01*
X127453980Y-90112045D01*
X127627857Y-90004385D01*
X127778990Y-89866608D01*
X127902234Y-89703407D01*
X127993392Y-89520338D01*
X128049358Y-89323636D01*
X128068228Y-89120000D01*
X128391772Y-89120000D01*
X128410642Y-89323639D01*
X128410643Y-89323640D01*
X128466608Y-89520338D01*
X128466610Y-89520342D01*
X128557766Y-89703408D01*
X128681007Y-89866605D01*
X128681010Y-89866608D01*
X128832143Y-90004385D01*
X128832146Y-90004387D01*
X128832150Y-90004390D01*
X129006010Y-90112039D01*
X129006020Y-90112045D01*
X129196719Y-90185922D01*
X129196723Y-90185922D01*
X129196724Y-90185923D01*
X129397746Y-90223500D01*
X129602254Y-90223500D01*
X129727969Y-90200000D01*
X132391772Y-90200000D01*
X132410642Y-90403639D01*
X132410643Y-90403640D01*
X132466608Y-90600338D01*
X132466610Y-90600342D01*
X132557766Y-90783408D01*
X132681007Y-90946605D01*
X132681010Y-90946608D01*
X132832143Y-91084385D01*
X132832146Y-91084387D01*
X132832150Y-91084390D01*
X133005288Y-91191592D01*
X133006020Y-91192045D01*
X133196719Y-91265922D01*
X133196723Y-91265922D01*
X133196724Y-91265923D01*
X133299372Y-91285111D01*
X133397746Y-91303500D01*
X133602254Y-91303500D01*
X133803281Y-91265922D01*
X133993980Y-91192045D01*
X134167857Y-91084385D01*
X134318990Y-90946608D01*
X134442234Y-90783407D01*
X134533392Y-90600338D01*
X134589358Y-90403636D01*
X134608228Y-90200000D01*
X134596506Y-90073500D01*
X134943998Y-90073500D01*
X135556258Y-90073500D01*
X135540000Y-90134174D01*
X135540000Y-90265826D01*
X135556258Y-90326500D01*
X134943998Y-90326500D01*
X134951136Y-90403546D01*
X134951137Y-90403548D01*
X135007076Y-90600151D01*
X135007079Y-90600160D01*
X135098192Y-90783141D01*
X135098194Y-90783144D01*
X135221377Y-90946266D01*
X135372446Y-91083983D01*
X135546239Y-91191592D01*
X135546250Y-91191597D01*
X135736852Y-91265436D01*
X135736860Y-91265438D01*
X135913499Y-91298458D01*
X135913500Y-91298458D01*
X135913500Y-90683742D01*
X135974174Y-90700000D01*
X136105826Y-90700000D01*
X136166500Y-90683742D01*
X136166500Y-91298458D01*
X136343139Y-91265438D01*
X136343147Y-91265436D01*
X136533749Y-91191597D01*
X136533760Y-91191592D01*
X136707553Y-91083983D01*
X136858622Y-90946266D01*
X136981805Y-90783144D01*
X136981807Y-90783141D01*
X137072920Y-90600160D01*
X137072923Y-90600151D01*
X137128862Y-90403548D01*
X137128863Y-90403546D01*
X137136002Y-90326500D01*
X136523742Y-90326500D01*
X136540000Y-90265826D01*
X136540000Y-90160000D01*
X142391772Y-90160000D01*
X142410642Y-90363639D01*
X142410643Y-90363640D01*
X142466608Y-90560338D01*
X142466610Y-90560342D01*
X142557766Y-90743408D01*
X142681007Y-90906605D01*
X142681010Y-90906608D01*
X142832143Y-91044385D01*
X142832146Y-91044387D01*
X142832150Y-91044390D01*
X142896753Y-91084390D01*
X143006020Y-91152045D01*
X143196719Y-91225922D01*
X143196723Y-91225922D01*
X143196724Y-91225923D01*
X143378134Y-91259834D01*
X143397746Y-91263500D01*
X143602254Y-91263500D01*
X143803281Y-91225922D01*
X143993980Y-91152045D01*
X144167857Y-91044385D01*
X144318990Y-90906608D01*
X144442234Y-90743407D01*
X144533392Y-90560338D01*
X144589358Y-90363636D01*
X144608228Y-90160000D01*
X147391772Y-90160000D01*
X147410642Y-90363639D01*
X147410643Y-90363640D01*
X147466608Y-90560338D01*
X147466610Y-90560342D01*
X147557766Y-90743408D01*
X147681007Y-90906605D01*
X147681010Y-90906608D01*
X147832143Y-91044385D01*
X147832146Y-91044387D01*
X147832150Y-91044390D01*
X147896753Y-91084390D01*
X148006020Y-91152045D01*
X148196719Y-91225922D01*
X148196723Y-91225922D01*
X148196724Y-91225923D01*
X148378134Y-91259834D01*
X148397746Y-91263500D01*
X148602254Y-91263500D01*
X148803281Y-91225922D01*
X148993980Y-91152045D01*
X149167857Y-91044385D01*
X149318990Y-90906608D01*
X149442234Y-90743407D01*
X149533392Y-90560338D01*
X149589358Y-90363636D01*
X149604521Y-90200000D01*
X152391772Y-90200000D01*
X152410642Y-90403639D01*
X152410643Y-90403640D01*
X152466608Y-90600338D01*
X152466610Y-90600342D01*
X152557766Y-90783408D01*
X152681007Y-90946605D01*
X152681010Y-90946608D01*
X152832143Y-91084385D01*
X152832146Y-91084387D01*
X152832150Y-91084390D01*
X153005288Y-91191592D01*
X153006020Y-91192045D01*
X153196719Y-91265922D01*
X153196723Y-91265922D01*
X153196724Y-91265923D01*
X153299372Y-91285111D01*
X153397746Y-91303500D01*
X153602254Y-91303500D01*
X153803281Y-91265922D01*
X153993980Y-91192045D01*
X154167857Y-91084385D01*
X154318990Y-90946608D01*
X154442234Y-90783407D01*
X154533392Y-90600338D01*
X154589358Y-90403636D01*
X154608228Y-90200000D01*
X154604521Y-90160000D01*
X157391772Y-90160000D01*
X157410642Y-90363639D01*
X157410643Y-90363640D01*
X157466608Y-90560338D01*
X157466610Y-90560342D01*
X157557766Y-90743408D01*
X157681007Y-90906605D01*
X157681010Y-90906608D01*
X157832143Y-91044385D01*
X157832146Y-91044387D01*
X157832150Y-91044390D01*
X157896753Y-91084390D01*
X158006020Y-91152045D01*
X158196719Y-91225922D01*
X158196723Y-91225922D01*
X158196724Y-91225923D01*
X158378134Y-91259834D01*
X158397746Y-91263500D01*
X158602254Y-91263500D01*
X158803281Y-91225922D01*
X158993980Y-91152045D01*
X159167857Y-91044385D01*
X159318990Y-90906608D01*
X159442234Y-90743407D01*
X159533392Y-90560338D01*
X159589358Y-90363636D01*
X159608228Y-90160000D01*
X167391772Y-90160000D01*
X167410642Y-90363639D01*
X167410643Y-90363640D01*
X167466608Y-90560338D01*
X167466610Y-90560342D01*
X167557766Y-90743408D01*
X167681007Y-90906605D01*
X167681010Y-90906608D01*
X167832143Y-91044385D01*
X167832146Y-91044387D01*
X167832150Y-91044390D01*
X167896753Y-91084390D01*
X168006020Y-91152045D01*
X168196719Y-91225922D01*
X168196723Y-91225922D01*
X168196724Y-91225923D01*
X168378134Y-91259834D01*
X168397746Y-91263500D01*
X168602254Y-91263500D01*
X168803281Y-91225922D01*
X168993980Y-91152045D01*
X169167857Y-91044385D01*
X169318990Y-90906608D01*
X169442234Y-90743407D01*
X169533392Y-90560338D01*
X169589358Y-90363636D01*
X169608228Y-90160000D01*
X169589358Y-89956364D01*
X169533392Y-89759662D01*
X169442234Y-89576593D01*
X169442233Y-89576592D01*
X169442233Y-89576591D01*
X169318992Y-89413394D01*
X169318989Y-89413391D01*
X169281206Y-89378947D01*
X169167857Y-89275615D01*
X169167854Y-89275613D01*
X169167849Y-89275609D01*
X168993989Y-89167960D01*
X168993976Y-89167953D01*
X168803281Y-89094078D01*
X168803275Y-89094076D01*
X168602254Y-89056500D01*
X168397746Y-89056500D01*
X168196724Y-89094076D01*
X168196718Y-89094078D01*
X168006023Y-89167953D01*
X168006010Y-89167960D01*
X167832150Y-89275609D01*
X167832139Y-89275618D01*
X167681010Y-89413391D01*
X167681007Y-89413394D01*
X167557766Y-89576591D01*
X167466610Y-89759657D01*
X167466607Y-89759666D01*
X167410643Y-89956359D01*
X167410642Y-89956360D01*
X167391772Y-90160000D01*
X159608228Y-90160000D01*
X159589358Y-89956364D01*
X159533392Y-89759662D01*
X159442234Y-89576593D01*
X159442233Y-89576592D01*
X159442233Y-89576591D01*
X159318992Y-89413394D01*
X159318989Y-89413391D01*
X159281206Y-89378947D01*
X159167857Y-89275615D01*
X159167854Y-89275613D01*
X159167849Y-89275609D01*
X158993989Y-89167960D01*
X158993976Y-89167953D01*
X158803281Y-89094078D01*
X158803275Y-89094076D01*
X158602254Y-89056500D01*
X158397746Y-89056500D01*
X158196724Y-89094076D01*
X158196718Y-89094078D01*
X158006023Y-89167953D01*
X158006010Y-89167960D01*
X157832150Y-89275609D01*
X157832139Y-89275618D01*
X157681010Y-89413391D01*
X157681007Y-89413394D01*
X157557766Y-89576591D01*
X157466610Y-89759657D01*
X157466607Y-89759666D01*
X157410643Y-89956359D01*
X157410642Y-89956360D01*
X157391772Y-90160000D01*
X154604521Y-90160000D01*
X154589358Y-89996364D01*
X154533392Y-89799662D01*
X154442234Y-89616593D01*
X154442233Y-89616592D01*
X154442233Y-89616591D01*
X154318992Y-89453394D01*
X154318989Y-89453391D01*
X154176659Y-89323639D01*
X154167857Y-89315615D01*
X154167854Y-89315613D01*
X154167849Y-89315609D01*
X153993989Y-89207960D01*
X153993976Y-89207953D01*
X153803281Y-89134078D01*
X153803275Y-89134076D01*
X153602254Y-89096500D01*
X153397746Y-89096500D01*
X153196724Y-89134076D01*
X153196718Y-89134078D01*
X153006023Y-89207953D01*
X153006010Y-89207960D01*
X152832150Y-89315609D01*
X152832139Y-89315618D01*
X152681010Y-89453391D01*
X152681007Y-89453394D01*
X152557766Y-89616591D01*
X152466610Y-89799657D01*
X152466607Y-89799666D01*
X152410643Y-89996359D01*
X152410642Y-89996360D01*
X152391772Y-90200000D01*
X149604521Y-90200000D01*
X149608228Y-90160000D01*
X149589358Y-89956364D01*
X149533392Y-89759662D01*
X149442234Y-89576593D01*
X149442233Y-89576592D01*
X149442233Y-89576591D01*
X149318992Y-89413394D01*
X149318989Y-89413391D01*
X149281206Y-89378947D01*
X149167857Y-89275615D01*
X149167854Y-89275613D01*
X149167849Y-89275609D01*
X148993989Y-89167960D01*
X148993976Y-89167953D01*
X148803281Y-89094078D01*
X148803275Y-89094076D01*
X148602254Y-89056500D01*
X148397746Y-89056500D01*
X148196724Y-89094076D01*
X148196718Y-89094078D01*
X148006023Y-89167953D01*
X148006010Y-89167960D01*
X147832150Y-89275609D01*
X147832139Y-89275618D01*
X147681010Y-89413391D01*
X147681007Y-89413394D01*
X147557766Y-89576591D01*
X147466610Y-89759657D01*
X147466607Y-89759666D01*
X147410643Y-89956359D01*
X147410642Y-89956360D01*
X147391772Y-90160000D01*
X144608228Y-90160000D01*
X144589358Y-89956364D01*
X144533392Y-89759662D01*
X144442234Y-89576593D01*
X144442233Y-89576592D01*
X144442233Y-89576591D01*
X144318992Y-89413394D01*
X144318989Y-89413391D01*
X144281206Y-89378947D01*
X144167857Y-89275615D01*
X144167854Y-89275613D01*
X144167849Y-89275609D01*
X143993989Y-89167960D01*
X143993976Y-89167953D01*
X143803281Y-89094078D01*
X143803275Y-89094076D01*
X143602254Y-89056500D01*
X143397746Y-89056500D01*
X143196724Y-89094076D01*
X143196718Y-89094078D01*
X143006023Y-89167953D01*
X143006010Y-89167960D01*
X142832150Y-89275609D01*
X142832139Y-89275618D01*
X142681010Y-89413391D01*
X142681007Y-89413394D01*
X142557766Y-89576591D01*
X142466610Y-89759657D01*
X142466607Y-89759666D01*
X142410643Y-89956359D01*
X142410642Y-89956360D01*
X142391772Y-90160000D01*
X136540000Y-90160000D01*
X136540000Y-90134174D01*
X136523742Y-90073500D01*
X137136002Y-90073500D01*
X137128863Y-89996453D01*
X137128862Y-89996451D01*
X137072923Y-89799848D01*
X137072920Y-89799839D01*
X136981807Y-89616858D01*
X136981805Y-89616855D01*
X136858622Y-89453733D01*
X136707553Y-89316016D01*
X136533760Y-89208407D01*
X136533749Y-89208402D01*
X136343147Y-89134563D01*
X136343139Y-89134561D01*
X136166500Y-89101540D01*
X136166500Y-89716257D01*
X136105826Y-89700000D01*
X135974174Y-89700000D01*
X135913500Y-89716257D01*
X135913500Y-89101540D01*
X135736860Y-89134561D01*
X135736852Y-89134563D01*
X135546250Y-89208402D01*
X135546239Y-89208407D01*
X135372446Y-89316016D01*
X135221377Y-89453733D01*
X135098194Y-89616855D01*
X135098192Y-89616858D01*
X135007079Y-89799839D01*
X135007076Y-89799848D01*
X134951137Y-89996451D01*
X134951136Y-89996453D01*
X134943998Y-90073500D01*
X134596506Y-90073500D01*
X134589358Y-89996364D01*
X134533392Y-89799662D01*
X134442234Y-89616593D01*
X134442233Y-89616592D01*
X134442233Y-89616591D01*
X134318992Y-89453394D01*
X134318989Y-89453391D01*
X134176659Y-89323639D01*
X134167857Y-89315615D01*
X134167854Y-89315613D01*
X134167849Y-89315609D01*
X133993989Y-89207960D01*
X133993976Y-89207953D01*
X133803281Y-89134078D01*
X133803275Y-89134076D01*
X133602254Y-89096500D01*
X133397746Y-89096500D01*
X133196724Y-89134076D01*
X133196718Y-89134078D01*
X133006023Y-89207953D01*
X133006010Y-89207960D01*
X132832150Y-89315609D01*
X132832139Y-89315618D01*
X132681010Y-89453391D01*
X132681007Y-89453394D01*
X132557766Y-89616591D01*
X132466610Y-89799657D01*
X132466607Y-89799666D01*
X132410643Y-89996359D01*
X132410642Y-89996360D01*
X132391772Y-90200000D01*
X129727969Y-90200000D01*
X129803281Y-90185922D01*
X129993980Y-90112045D01*
X130167857Y-90004385D01*
X130318990Y-89866608D01*
X130442234Y-89703407D01*
X130533392Y-89520338D01*
X130589358Y-89323636D01*
X130608228Y-89120000D01*
X130589358Y-88916364D01*
X130533392Y-88719662D01*
X130442234Y-88536593D01*
X130442233Y-88536592D01*
X130442233Y-88536591D01*
X130318992Y-88373394D01*
X130318989Y-88373391D01*
X130281206Y-88338947D01*
X130167857Y-88235615D01*
X130167854Y-88235613D01*
X130167849Y-88235609D01*
X129993989Y-88127960D01*
X129993976Y-88127953D01*
X129803281Y-88054078D01*
X129803275Y-88054076D01*
X129602254Y-88016500D01*
X129397746Y-88016500D01*
X129196724Y-88054076D01*
X129196718Y-88054078D01*
X129006023Y-88127953D01*
X129006010Y-88127960D01*
X128832150Y-88235609D01*
X128832139Y-88235618D01*
X128681010Y-88373391D01*
X128681007Y-88373394D01*
X128557766Y-88536591D01*
X128466610Y-88719657D01*
X128466607Y-88719666D01*
X128410643Y-88916359D01*
X128410642Y-88916360D01*
X128391772Y-89120000D01*
X128068228Y-89120000D01*
X128049358Y-88916364D01*
X127993392Y-88719662D01*
X127902234Y-88536593D01*
X127902233Y-88536592D01*
X127902233Y-88536591D01*
X127778992Y-88373394D01*
X127778989Y-88373391D01*
X127741206Y-88338947D01*
X127627857Y-88235615D01*
X127627854Y-88235613D01*
X127627849Y-88235609D01*
X127453989Y-88127960D01*
X127453976Y-88127953D01*
X127263281Y-88054078D01*
X127263275Y-88054076D01*
X127062254Y-88016500D01*
X126857746Y-88016500D01*
X126656724Y-88054076D01*
X126656718Y-88054078D01*
X126466023Y-88127953D01*
X126466010Y-88127960D01*
X126292150Y-88235609D01*
X126292139Y-88235618D01*
X126141010Y-88373391D01*
X126141007Y-88373394D01*
X126017766Y-88536591D01*
X125926610Y-88719657D01*
X125926607Y-88719666D01*
X125870643Y-88916359D01*
X125870642Y-88916360D01*
X125851772Y-89120000D01*
X124500500Y-89120000D01*
X124500500Y-86580000D01*
X125851772Y-86580000D01*
X125870642Y-86783639D01*
X125870643Y-86783640D01*
X125926608Y-86980338D01*
X125926610Y-86980342D01*
X126017766Y-87163408D01*
X126141007Y-87326605D01*
X126141010Y-87326608D01*
X126292143Y-87464385D01*
X126292146Y-87464387D01*
X126292150Y-87464390D01*
X126466010Y-87572039D01*
X126466020Y-87572045D01*
X126656719Y-87645922D01*
X126656723Y-87645922D01*
X126656724Y-87645923D01*
X126857746Y-87683500D01*
X127062254Y-87683500D01*
X127263281Y-87645922D01*
X127453980Y-87572045D01*
X127627857Y-87464385D01*
X127778990Y-87326608D01*
X127902234Y-87163407D01*
X127993392Y-86980338D01*
X128049358Y-86783636D01*
X128068228Y-86580000D01*
X128391772Y-86580000D01*
X128410642Y-86783639D01*
X128410643Y-86783640D01*
X128466608Y-86980338D01*
X128466610Y-86980342D01*
X128557766Y-87163408D01*
X128681007Y-87326605D01*
X128681010Y-87326608D01*
X128832143Y-87464385D01*
X128832146Y-87464387D01*
X128832150Y-87464390D01*
X129006010Y-87572039D01*
X129006020Y-87572045D01*
X129196719Y-87645922D01*
X129196723Y-87645922D01*
X129196724Y-87645923D01*
X129397746Y-87683500D01*
X129602254Y-87683500D01*
X129727969Y-87660000D01*
X132391772Y-87660000D01*
X132410642Y-87863639D01*
X132410643Y-87863640D01*
X132466608Y-88060338D01*
X132466610Y-88060342D01*
X132557766Y-88243408D01*
X132681007Y-88406605D01*
X132681010Y-88406608D01*
X132832143Y-88544385D01*
X132832146Y-88544387D01*
X132832150Y-88544390D01*
X133005288Y-88651592D01*
X133006020Y-88652045D01*
X133196719Y-88725922D01*
X133397746Y-88763500D01*
X133602254Y-88763500D01*
X133803281Y-88725922D01*
X133993980Y-88652045D01*
X134167857Y-88544385D01*
X134318990Y-88406608D01*
X134442234Y-88243407D01*
X134533392Y-88060338D01*
X134589358Y-87863636D01*
X134608228Y-87660000D01*
X134596506Y-87533500D01*
X134943998Y-87533500D01*
X135556258Y-87533500D01*
X135540000Y-87594174D01*
X135540000Y-87725826D01*
X135556258Y-87786500D01*
X134943998Y-87786500D01*
X134951136Y-87863546D01*
X134951137Y-87863548D01*
X135007076Y-88060151D01*
X135007079Y-88060160D01*
X135098192Y-88243141D01*
X135098194Y-88243144D01*
X135221377Y-88406266D01*
X135372446Y-88543983D01*
X135546239Y-88651592D01*
X135546250Y-88651597D01*
X135736852Y-88725436D01*
X135736860Y-88725438D01*
X135913499Y-88758458D01*
X135913500Y-88758458D01*
X135913500Y-88143742D01*
X135974174Y-88160000D01*
X136105826Y-88160000D01*
X136166500Y-88143742D01*
X136166500Y-88758458D01*
X136343139Y-88725438D01*
X136343147Y-88725436D01*
X136533749Y-88651597D01*
X136533760Y-88651592D01*
X136707553Y-88543983D01*
X136858622Y-88406266D01*
X136981805Y-88243144D01*
X136981807Y-88243141D01*
X137072920Y-88060160D01*
X137072923Y-88060151D01*
X137128862Y-87863548D01*
X137128863Y-87863546D01*
X137136002Y-87786500D01*
X136523742Y-87786500D01*
X136540000Y-87725826D01*
X136540000Y-87620000D01*
X142391772Y-87620000D01*
X142410642Y-87823639D01*
X142410643Y-87823640D01*
X142418995Y-87852993D01*
X142466608Y-88020338D01*
X142466610Y-88020342D01*
X142557766Y-88203408D01*
X142681007Y-88366605D01*
X142681010Y-88366608D01*
X142832143Y-88504385D01*
X142832146Y-88504387D01*
X142832150Y-88504390D01*
X143006010Y-88612039D01*
X143006020Y-88612045D01*
X143196719Y-88685922D01*
X143196723Y-88685922D01*
X143196724Y-88685923D01*
X143377214Y-88719662D01*
X143397746Y-88723500D01*
X143602254Y-88723500D01*
X143803281Y-88685922D01*
X143993980Y-88612045D01*
X144167857Y-88504385D01*
X144318990Y-88366608D01*
X144442234Y-88203407D01*
X144533392Y-88020338D01*
X144589358Y-87823636D01*
X144608228Y-87620000D01*
X147391772Y-87620000D01*
X147410642Y-87823639D01*
X147410643Y-87823640D01*
X147418995Y-87852993D01*
X147466608Y-88020338D01*
X147466610Y-88020342D01*
X147557766Y-88203408D01*
X147681007Y-88366605D01*
X147681010Y-88366608D01*
X147832143Y-88504385D01*
X147832146Y-88504387D01*
X147832150Y-88504390D01*
X148006010Y-88612039D01*
X148006020Y-88612045D01*
X148196719Y-88685922D01*
X148196723Y-88685922D01*
X148196724Y-88685923D01*
X148377214Y-88719662D01*
X148397746Y-88723500D01*
X148602254Y-88723500D01*
X148803281Y-88685922D01*
X148993980Y-88612045D01*
X149167857Y-88504385D01*
X149318990Y-88366608D01*
X149442234Y-88203407D01*
X149533392Y-88020338D01*
X149589358Y-87823636D01*
X149604521Y-87660000D01*
X152391772Y-87660000D01*
X152410642Y-87863639D01*
X152410643Y-87863640D01*
X152466608Y-88060338D01*
X152466610Y-88060342D01*
X152557766Y-88243408D01*
X152681007Y-88406605D01*
X152681010Y-88406608D01*
X152832143Y-88544385D01*
X152832146Y-88544387D01*
X152832150Y-88544390D01*
X153005288Y-88651592D01*
X153006020Y-88652045D01*
X153196719Y-88725922D01*
X153397746Y-88763500D01*
X153602254Y-88763500D01*
X153803281Y-88725922D01*
X153993980Y-88652045D01*
X154167857Y-88544385D01*
X154318990Y-88406608D01*
X154442234Y-88243407D01*
X154533392Y-88060338D01*
X154589358Y-87863636D01*
X154608228Y-87660000D01*
X154604521Y-87620000D01*
X157391772Y-87620000D01*
X157410642Y-87823639D01*
X157410643Y-87823640D01*
X157418995Y-87852993D01*
X157466608Y-88020338D01*
X157466610Y-88020342D01*
X157557766Y-88203408D01*
X157681007Y-88366605D01*
X157681010Y-88366608D01*
X157832143Y-88504385D01*
X157832146Y-88504387D01*
X157832150Y-88504390D01*
X158006010Y-88612039D01*
X158006020Y-88612045D01*
X158196719Y-88685922D01*
X158196723Y-88685922D01*
X158196724Y-88685923D01*
X158377214Y-88719662D01*
X158397746Y-88723500D01*
X158602254Y-88723500D01*
X158803281Y-88685922D01*
X158993980Y-88612045D01*
X159167857Y-88504385D01*
X159318990Y-88366608D01*
X159442234Y-88203407D01*
X159533392Y-88020338D01*
X159589358Y-87823636D01*
X159608228Y-87620000D01*
X167391772Y-87620000D01*
X167410642Y-87823639D01*
X167410643Y-87823640D01*
X167418995Y-87852993D01*
X167466608Y-88020338D01*
X167466610Y-88020342D01*
X167557766Y-88203408D01*
X167681007Y-88366605D01*
X167681010Y-88366608D01*
X167832143Y-88504385D01*
X167832146Y-88504387D01*
X167832150Y-88504390D01*
X168006010Y-88612039D01*
X168006020Y-88612045D01*
X168196719Y-88685922D01*
X168196723Y-88685922D01*
X168196724Y-88685923D01*
X168377214Y-88719662D01*
X168397746Y-88723500D01*
X168602254Y-88723500D01*
X168803281Y-88685922D01*
X168993980Y-88612045D01*
X169167857Y-88504385D01*
X169318990Y-88366608D01*
X169442234Y-88203407D01*
X169533392Y-88020338D01*
X169589358Y-87823636D01*
X169608228Y-87620000D01*
X169589358Y-87416364D01*
X169533392Y-87219662D01*
X169442234Y-87036593D01*
X169442233Y-87036592D01*
X169442233Y-87036591D01*
X169318992Y-86873394D01*
X169318989Y-86873391D01*
X169281206Y-86838947D01*
X169167857Y-86735615D01*
X169167854Y-86735613D01*
X169167849Y-86735609D01*
X168993989Y-86627960D01*
X168993976Y-86627953D01*
X168803281Y-86554078D01*
X168803275Y-86554076D01*
X168602254Y-86516500D01*
X168397746Y-86516500D01*
X168196724Y-86554076D01*
X168196718Y-86554078D01*
X168006023Y-86627953D01*
X168006010Y-86627960D01*
X167832150Y-86735609D01*
X167832139Y-86735618D01*
X167681010Y-86873391D01*
X167681007Y-86873394D01*
X167557766Y-87036591D01*
X167466610Y-87219657D01*
X167466607Y-87219666D01*
X167410643Y-87416359D01*
X167410642Y-87416360D01*
X167391772Y-87620000D01*
X159608228Y-87620000D01*
X159589358Y-87416364D01*
X159533392Y-87219662D01*
X159442234Y-87036593D01*
X159442233Y-87036592D01*
X159442233Y-87036591D01*
X159318992Y-86873394D01*
X159318989Y-86873391D01*
X159281206Y-86838947D01*
X159167857Y-86735615D01*
X159167854Y-86735613D01*
X159167849Y-86735609D01*
X158993989Y-86627960D01*
X158993976Y-86627953D01*
X158803281Y-86554078D01*
X158803275Y-86554076D01*
X158602254Y-86516500D01*
X158397746Y-86516500D01*
X158196724Y-86554076D01*
X158196718Y-86554078D01*
X158006023Y-86627953D01*
X158006010Y-86627960D01*
X157832150Y-86735609D01*
X157832139Y-86735618D01*
X157681010Y-86873391D01*
X157681007Y-86873394D01*
X157557766Y-87036591D01*
X157466610Y-87219657D01*
X157466607Y-87219666D01*
X157410643Y-87416359D01*
X157410642Y-87416360D01*
X157391772Y-87620000D01*
X154604521Y-87620000D01*
X154589358Y-87456364D01*
X154533392Y-87259662D01*
X154442234Y-87076593D01*
X154442233Y-87076592D01*
X154442233Y-87076591D01*
X154318992Y-86913394D01*
X154318989Y-86913391D01*
X154176659Y-86783639D01*
X154167857Y-86775615D01*
X154167854Y-86775613D01*
X154167849Y-86775609D01*
X153993989Y-86667960D01*
X153993976Y-86667953D01*
X153803281Y-86594078D01*
X153803275Y-86594076D01*
X153602254Y-86556500D01*
X153397746Y-86556500D01*
X153196724Y-86594076D01*
X153196718Y-86594078D01*
X153006023Y-86667953D01*
X153006010Y-86667960D01*
X152832150Y-86775609D01*
X152832139Y-86775618D01*
X152681010Y-86913391D01*
X152681007Y-86913394D01*
X152557766Y-87076591D01*
X152466610Y-87259657D01*
X152466607Y-87259666D01*
X152410643Y-87456359D01*
X152410642Y-87456360D01*
X152391772Y-87660000D01*
X149604521Y-87660000D01*
X149608228Y-87620000D01*
X149589358Y-87416364D01*
X149533392Y-87219662D01*
X149442234Y-87036593D01*
X149442233Y-87036592D01*
X149442233Y-87036591D01*
X149318992Y-86873394D01*
X149318989Y-86873391D01*
X149281206Y-86838947D01*
X149167857Y-86735615D01*
X149167854Y-86735613D01*
X149167849Y-86735609D01*
X148993989Y-86627960D01*
X148993976Y-86627953D01*
X148803281Y-86554078D01*
X148803275Y-86554076D01*
X148602254Y-86516500D01*
X148397746Y-86516500D01*
X148196724Y-86554076D01*
X148196718Y-86554078D01*
X148006023Y-86627953D01*
X148006010Y-86627960D01*
X147832150Y-86735609D01*
X147832139Y-86735618D01*
X147681010Y-86873391D01*
X147681007Y-86873394D01*
X147557766Y-87036591D01*
X147466610Y-87219657D01*
X147466607Y-87219666D01*
X147410643Y-87416359D01*
X147410642Y-87416360D01*
X147391772Y-87620000D01*
X144608228Y-87620000D01*
X144589358Y-87416364D01*
X144533392Y-87219662D01*
X144442234Y-87036593D01*
X144442233Y-87036592D01*
X144442233Y-87036591D01*
X144318992Y-86873394D01*
X144318989Y-86873391D01*
X144281206Y-86838947D01*
X144167857Y-86735615D01*
X144167854Y-86735613D01*
X144167849Y-86735609D01*
X143993989Y-86627960D01*
X143993976Y-86627953D01*
X143803281Y-86554078D01*
X143803275Y-86554076D01*
X143602254Y-86516500D01*
X143397746Y-86516500D01*
X143196724Y-86554076D01*
X143196718Y-86554078D01*
X143006023Y-86627953D01*
X143006010Y-86627960D01*
X142832150Y-86735609D01*
X142832139Y-86735618D01*
X142681010Y-86873391D01*
X142681007Y-86873394D01*
X142557766Y-87036591D01*
X142466610Y-87219657D01*
X142466607Y-87219666D01*
X142410643Y-87416359D01*
X142410642Y-87416360D01*
X142391772Y-87620000D01*
X136540000Y-87620000D01*
X136540000Y-87594174D01*
X136523742Y-87533500D01*
X137136002Y-87533500D01*
X137128863Y-87456453D01*
X137128862Y-87456451D01*
X137072923Y-87259848D01*
X137072920Y-87259839D01*
X136981807Y-87076858D01*
X136981805Y-87076855D01*
X136858622Y-86913733D01*
X136707553Y-86776016D01*
X136533760Y-86668407D01*
X136533749Y-86668402D01*
X136343147Y-86594563D01*
X136343139Y-86594561D01*
X136166500Y-86561540D01*
X136166500Y-87176257D01*
X136105826Y-87160000D01*
X135974174Y-87160000D01*
X135913500Y-87176257D01*
X135913500Y-86561540D01*
X135736860Y-86594561D01*
X135736852Y-86594563D01*
X135546250Y-86668402D01*
X135546239Y-86668407D01*
X135372446Y-86776016D01*
X135221377Y-86913733D01*
X135098194Y-87076855D01*
X135098192Y-87076858D01*
X135007079Y-87259839D01*
X135007076Y-87259848D01*
X134951137Y-87456451D01*
X134951136Y-87456453D01*
X134943998Y-87533500D01*
X134596506Y-87533500D01*
X134589358Y-87456364D01*
X134533392Y-87259662D01*
X134442234Y-87076593D01*
X134442233Y-87076592D01*
X134442233Y-87076591D01*
X134318992Y-86913394D01*
X134318989Y-86913391D01*
X134176659Y-86783639D01*
X134167857Y-86775615D01*
X134167854Y-86775613D01*
X134167849Y-86775609D01*
X133993989Y-86667960D01*
X133993976Y-86667953D01*
X133803281Y-86594078D01*
X133803275Y-86594076D01*
X133602254Y-86556500D01*
X133397746Y-86556500D01*
X133196724Y-86594076D01*
X133196718Y-86594078D01*
X133006023Y-86667953D01*
X133006010Y-86667960D01*
X132832150Y-86775609D01*
X132832139Y-86775618D01*
X132681010Y-86913391D01*
X132681007Y-86913394D01*
X132557766Y-87076591D01*
X132466610Y-87259657D01*
X132466607Y-87259666D01*
X132410643Y-87456359D01*
X132410642Y-87456360D01*
X132391772Y-87660000D01*
X129727969Y-87660000D01*
X129803281Y-87645922D01*
X129993980Y-87572045D01*
X130167857Y-87464385D01*
X130318990Y-87326608D01*
X130442234Y-87163407D01*
X130533392Y-86980338D01*
X130589358Y-86783636D01*
X130608228Y-86580000D01*
X130589358Y-86376364D01*
X130533392Y-86179662D01*
X130442234Y-85996593D01*
X130442233Y-85996592D01*
X130442233Y-85996591D01*
X130318992Y-85833394D01*
X130318989Y-85833391D01*
X130176116Y-85703144D01*
X130167857Y-85695615D01*
X130167854Y-85695613D01*
X130167849Y-85695609D01*
X129993989Y-85587960D01*
X129993976Y-85587953D01*
X129803281Y-85514078D01*
X129803275Y-85514076D01*
X129602254Y-85476500D01*
X129397746Y-85476500D01*
X129196724Y-85514076D01*
X129196718Y-85514078D01*
X129006023Y-85587953D01*
X129006010Y-85587960D01*
X128832150Y-85695609D01*
X128832139Y-85695618D01*
X128681010Y-85833391D01*
X128681007Y-85833394D01*
X128557766Y-85996591D01*
X128466610Y-86179657D01*
X128466607Y-86179666D01*
X128410643Y-86376359D01*
X128410642Y-86376360D01*
X128391772Y-86580000D01*
X128068228Y-86580000D01*
X128049358Y-86376364D01*
X127993392Y-86179662D01*
X127902234Y-85996593D01*
X127902233Y-85996592D01*
X127902233Y-85996591D01*
X127778992Y-85833394D01*
X127778989Y-85833391D01*
X127636116Y-85703144D01*
X127627857Y-85695615D01*
X127627854Y-85695613D01*
X127627849Y-85695609D01*
X127453989Y-85587960D01*
X127453976Y-85587953D01*
X127263281Y-85514078D01*
X127263275Y-85514076D01*
X127062254Y-85476500D01*
X126857746Y-85476500D01*
X126656724Y-85514076D01*
X126656718Y-85514078D01*
X126466023Y-85587953D01*
X126466010Y-85587960D01*
X126292150Y-85695609D01*
X126292139Y-85695618D01*
X126141010Y-85833391D01*
X126141007Y-85833394D01*
X126017766Y-85996591D01*
X125926610Y-86179657D01*
X125926607Y-86179666D01*
X125870643Y-86376359D01*
X125870642Y-86376360D01*
X125851772Y-86580000D01*
X124500500Y-86580000D01*
X124500500Y-84040000D01*
X125851772Y-84040000D01*
X125870642Y-84243639D01*
X125870643Y-84243640D01*
X125926608Y-84440338D01*
X125926610Y-84440342D01*
X126017766Y-84623408D01*
X126141007Y-84786605D01*
X126141010Y-84786608D01*
X126292143Y-84924385D01*
X126292146Y-84924387D01*
X126292150Y-84924390D01*
X126466010Y-85032039D01*
X126466020Y-85032045D01*
X126656719Y-85105922D01*
X126656723Y-85105922D01*
X126656724Y-85105923D01*
X126857746Y-85143500D01*
X127062254Y-85143500D01*
X127263281Y-85105922D01*
X127453980Y-85032045D01*
X127627857Y-84924385D01*
X127778990Y-84786608D01*
X127902234Y-84623407D01*
X127993392Y-84440338D01*
X128049358Y-84243636D01*
X128068228Y-84040000D01*
X128391772Y-84040000D01*
X128410642Y-84243639D01*
X128410643Y-84243640D01*
X128466608Y-84440338D01*
X128466610Y-84440342D01*
X128557766Y-84623408D01*
X128681007Y-84786605D01*
X128681010Y-84786608D01*
X128832143Y-84924385D01*
X128832146Y-84924387D01*
X128832150Y-84924390D01*
X129006010Y-85032039D01*
X129006020Y-85032045D01*
X129196719Y-85105922D01*
X129196723Y-85105922D01*
X129196724Y-85105923D01*
X129397746Y-85143500D01*
X129602254Y-85143500D01*
X129727969Y-85120000D01*
X132391772Y-85120000D01*
X132410642Y-85323639D01*
X132410643Y-85323640D01*
X132466608Y-85520338D01*
X132466610Y-85520342D01*
X132557766Y-85703408D01*
X132681007Y-85866605D01*
X132681010Y-85866608D01*
X132832143Y-86004385D01*
X132832146Y-86004387D01*
X132832150Y-86004390D01*
X133005288Y-86111592D01*
X133006020Y-86112045D01*
X133196719Y-86185922D01*
X133196723Y-86185922D01*
X133196724Y-86185923D01*
X133338285Y-86212385D01*
X133397746Y-86223500D01*
X133602254Y-86223500D01*
X133803281Y-86185922D01*
X133993980Y-86112045D01*
X134167857Y-86004385D01*
X134318990Y-85866608D01*
X134442234Y-85703407D01*
X134533392Y-85520338D01*
X134589358Y-85323636D01*
X134608228Y-85120000D01*
X134596506Y-84993500D01*
X134943998Y-84993500D01*
X135556258Y-84993500D01*
X135540000Y-85054174D01*
X135540000Y-85185826D01*
X135556258Y-85246500D01*
X134943998Y-85246500D01*
X134951136Y-85323546D01*
X134951137Y-85323548D01*
X135007076Y-85520151D01*
X135007079Y-85520160D01*
X135098192Y-85703141D01*
X135098194Y-85703144D01*
X135221377Y-85866266D01*
X135372446Y-86003983D01*
X135546239Y-86111592D01*
X135546250Y-86111597D01*
X135736852Y-86185436D01*
X135736860Y-86185438D01*
X135913499Y-86218458D01*
X135913500Y-86218458D01*
X135913500Y-85603742D01*
X135974174Y-85620000D01*
X136105826Y-85620000D01*
X136166500Y-85603742D01*
X136166500Y-86218458D01*
X136343139Y-86185438D01*
X136343147Y-86185436D01*
X136533749Y-86111597D01*
X136533760Y-86111592D01*
X136707553Y-86003983D01*
X136858622Y-85866266D01*
X136981805Y-85703144D01*
X136981807Y-85703141D01*
X137072920Y-85520160D01*
X137072923Y-85520151D01*
X137128862Y-85323548D01*
X137128863Y-85323546D01*
X137136002Y-85246500D01*
X136523742Y-85246500D01*
X136540000Y-85185826D01*
X136540000Y-85080000D01*
X142391772Y-85080000D01*
X142410642Y-85283639D01*
X142410643Y-85283640D01*
X142466608Y-85480338D01*
X142466610Y-85480342D01*
X142557766Y-85663408D01*
X142681007Y-85826605D01*
X142681010Y-85826608D01*
X142832143Y-85964385D01*
X142832146Y-85964387D01*
X142832150Y-85964390D01*
X143006010Y-86072039D01*
X143006020Y-86072045D01*
X143196719Y-86145922D01*
X143196723Y-86145922D01*
X143196724Y-86145923D01*
X143377214Y-86179662D01*
X143397746Y-86183500D01*
X143602254Y-86183500D01*
X143803281Y-86145922D01*
X143993980Y-86072045D01*
X144167857Y-85964385D01*
X144318990Y-85826608D01*
X144442234Y-85663407D01*
X144533392Y-85480338D01*
X144589358Y-85283636D01*
X144608228Y-85080000D01*
X147391772Y-85080000D01*
X147410642Y-85283639D01*
X147410643Y-85283640D01*
X147466608Y-85480338D01*
X147466610Y-85480342D01*
X147557766Y-85663408D01*
X147681007Y-85826605D01*
X147681010Y-85826608D01*
X147832143Y-85964385D01*
X147832146Y-85964387D01*
X147832150Y-85964390D01*
X148006010Y-86072039D01*
X148006020Y-86072045D01*
X148196719Y-86145922D01*
X148196723Y-86145922D01*
X148196724Y-86145923D01*
X148377214Y-86179662D01*
X148397746Y-86183500D01*
X148602254Y-86183500D01*
X148803281Y-86145922D01*
X148993980Y-86072045D01*
X149167857Y-85964385D01*
X149318990Y-85826608D01*
X149442234Y-85663407D01*
X149533392Y-85480338D01*
X149589358Y-85283636D01*
X149604521Y-85120000D01*
X152391772Y-85120000D01*
X152410642Y-85323639D01*
X152410643Y-85323640D01*
X152466608Y-85520338D01*
X152466610Y-85520342D01*
X152557766Y-85703408D01*
X152681007Y-85866605D01*
X152681010Y-85866608D01*
X152832143Y-86004385D01*
X152832146Y-86004387D01*
X152832150Y-86004390D01*
X153005288Y-86111592D01*
X153006020Y-86112045D01*
X153196719Y-86185922D01*
X153196723Y-86185922D01*
X153196724Y-86185923D01*
X153338285Y-86212385D01*
X153397746Y-86223500D01*
X153602254Y-86223500D01*
X153803281Y-86185922D01*
X153993980Y-86112045D01*
X154167857Y-86004385D01*
X154318990Y-85866608D01*
X154442234Y-85703407D01*
X154533392Y-85520338D01*
X154589358Y-85323636D01*
X154608228Y-85120000D01*
X154604521Y-85080000D01*
X157391772Y-85080000D01*
X157410642Y-85283639D01*
X157410643Y-85283640D01*
X157466608Y-85480338D01*
X157466610Y-85480342D01*
X157557766Y-85663408D01*
X157681007Y-85826605D01*
X157681010Y-85826608D01*
X157832143Y-85964385D01*
X157832146Y-85964387D01*
X157832150Y-85964390D01*
X158006010Y-86072039D01*
X158006020Y-86072045D01*
X158196719Y-86145922D01*
X158196723Y-86145922D01*
X158196724Y-86145923D01*
X158377214Y-86179662D01*
X158397746Y-86183500D01*
X158602254Y-86183500D01*
X158803281Y-86145922D01*
X158993980Y-86072045D01*
X159167857Y-85964385D01*
X159318990Y-85826608D01*
X159442234Y-85663407D01*
X159533392Y-85480338D01*
X159589358Y-85283636D01*
X159608228Y-85080000D01*
X167391772Y-85080000D01*
X167410642Y-85283639D01*
X167410643Y-85283640D01*
X167466608Y-85480338D01*
X167466610Y-85480342D01*
X167557766Y-85663408D01*
X167681007Y-85826605D01*
X167681010Y-85826608D01*
X167832143Y-85964385D01*
X167832146Y-85964387D01*
X167832150Y-85964390D01*
X168006010Y-86072039D01*
X168006020Y-86072045D01*
X168196719Y-86145922D01*
X168196723Y-86145922D01*
X168196724Y-86145923D01*
X168377214Y-86179662D01*
X168397746Y-86183500D01*
X168602254Y-86183500D01*
X168803281Y-86145922D01*
X168993980Y-86072045D01*
X169167857Y-85964385D01*
X169318990Y-85826608D01*
X169442234Y-85663407D01*
X169533392Y-85480338D01*
X169589358Y-85283636D01*
X169608228Y-85080000D01*
X169589358Y-84876364D01*
X169533392Y-84679662D01*
X169442234Y-84496593D01*
X169442233Y-84496592D01*
X169442233Y-84496591D01*
X169318992Y-84333394D01*
X169318989Y-84333391D01*
X169281206Y-84298947D01*
X169167857Y-84195615D01*
X169167854Y-84195613D01*
X169167849Y-84195609D01*
X168993989Y-84087960D01*
X168993976Y-84087953D01*
X168803281Y-84014078D01*
X168803275Y-84014076D01*
X168602254Y-83976500D01*
X168397746Y-83976500D01*
X168196724Y-84014076D01*
X168196718Y-84014078D01*
X168006023Y-84087953D01*
X168006010Y-84087960D01*
X167832150Y-84195609D01*
X167832139Y-84195618D01*
X167681010Y-84333391D01*
X167681007Y-84333394D01*
X167557766Y-84496591D01*
X167466610Y-84679657D01*
X167466607Y-84679666D01*
X167410643Y-84876359D01*
X167410642Y-84876360D01*
X167391772Y-85080000D01*
X159608228Y-85080000D01*
X159589358Y-84876364D01*
X159533392Y-84679662D01*
X159442234Y-84496593D01*
X159442233Y-84496592D01*
X159442233Y-84496591D01*
X159318992Y-84333394D01*
X159318989Y-84333391D01*
X159281206Y-84298947D01*
X159167857Y-84195615D01*
X159167854Y-84195613D01*
X159167849Y-84195609D01*
X158993989Y-84087960D01*
X158993976Y-84087953D01*
X158803281Y-84014078D01*
X158803275Y-84014076D01*
X158602254Y-83976500D01*
X158397746Y-83976500D01*
X158196724Y-84014076D01*
X158196718Y-84014078D01*
X158006023Y-84087953D01*
X158006010Y-84087960D01*
X157832150Y-84195609D01*
X157832139Y-84195618D01*
X157681010Y-84333391D01*
X157681007Y-84333394D01*
X157557766Y-84496591D01*
X157466610Y-84679657D01*
X157466607Y-84679666D01*
X157410643Y-84876359D01*
X157410642Y-84876360D01*
X157391772Y-85080000D01*
X154604521Y-85080000D01*
X154589358Y-84916364D01*
X154533392Y-84719662D01*
X154442234Y-84536593D01*
X154442233Y-84536592D01*
X154442233Y-84536591D01*
X154318992Y-84373394D01*
X154318989Y-84373391D01*
X154176659Y-84243639D01*
X154167857Y-84235615D01*
X154167854Y-84235613D01*
X154167849Y-84235609D01*
X153993989Y-84127960D01*
X153993976Y-84127953D01*
X153803281Y-84054078D01*
X153803275Y-84054076D01*
X153602254Y-84016500D01*
X153397746Y-84016500D01*
X153196724Y-84054076D01*
X153196718Y-84054078D01*
X153006023Y-84127953D01*
X153006010Y-84127960D01*
X152832150Y-84235609D01*
X152832139Y-84235618D01*
X152681010Y-84373391D01*
X152681007Y-84373394D01*
X152557766Y-84536591D01*
X152466610Y-84719657D01*
X152466607Y-84719666D01*
X152410643Y-84916359D01*
X152410642Y-84916360D01*
X152391772Y-85120000D01*
X149604521Y-85120000D01*
X149608228Y-85080000D01*
X149589358Y-84876364D01*
X149533392Y-84679662D01*
X149442234Y-84496593D01*
X149442233Y-84496592D01*
X149442233Y-84496591D01*
X149318992Y-84333394D01*
X149318989Y-84333391D01*
X149281206Y-84298947D01*
X149167857Y-84195615D01*
X149167854Y-84195613D01*
X149167849Y-84195609D01*
X148993989Y-84087960D01*
X148993976Y-84087953D01*
X148803281Y-84014078D01*
X148803275Y-84014076D01*
X148602254Y-83976500D01*
X148397746Y-83976500D01*
X148196724Y-84014076D01*
X148196718Y-84014078D01*
X148006023Y-84087953D01*
X148006010Y-84087960D01*
X147832150Y-84195609D01*
X147832139Y-84195618D01*
X147681010Y-84333391D01*
X147681007Y-84333394D01*
X147557766Y-84496591D01*
X147466610Y-84679657D01*
X147466607Y-84679666D01*
X147410643Y-84876359D01*
X147410642Y-84876360D01*
X147391772Y-85080000D01*
X144608228Y-85080000D01*
X144589358Y-84876364D01*
X144533392Y-84679662D01*
X144442234Y-84496593D01*
X144442233Y-84496592D01*
X144442233Y-84496591D01*
X144318992Y-84333394D01*
X144318989Y-84333391D01*
X144281206Y-84298947D01*
X144167857Y-84195615D01*
X144167854Y-84195613D01*
X144167849Y-84195609D01*
X143993989Y-84087960D01*
X143993976Y-84087953D01*
X143803281Y-84014078D01*
X143803275Y-84014076D01*
X143602254Y-83976500D01*
X143397746Y-83976500D01*
X143196724Y-84014076D01*
X143196718Y-84014078D01*
X143006023Y-84087953D01*
X143006010Y-84087960D01*
X142832150Y-84195609D01*
X142832139Y-84195618D01*
X142681010Y-84333391D01*
X142681007Y-84333394D01*
X142557766Y-84496591D01*
X142466610Y-84679657D01*
X142466607Y-84679666D01*
X142410643Y-84876359D01*
X142410642Y-84876360D01*
X142391772Y-85080000D01*
X136540000Y-85080000D01*
X136540000Y-85054174D01*
X136523742Y-84993500D01*
X137136002Y-84993500D01*
X137128863Y-84916453D01*
X137128862Y-84916451D01*
X137072923Y-84719848D01*
X137072920Y-84719839D01*
X136981807Y-84536858D01*
X136981805Y-84536855D01*
X136858622Y-84373733D01*
X136707553Y-84236016D01*
X136533760Y-84128407D01*
X136533749Y-84128402D01*
X136343147Y-84054563D01*
X136343139Y-84054561D01*
X136166500Y-84021540D01*
X136166500Y-84636257D01*
X136105826Y-84620000D01*
X135974174Y-84620000D01*
X135913500Y-84636257D01*
X135913500Y-84021540D01*
X135736860Y-84054561D01*
X135736852Y-84054563D01*
X135546250Y-84128402D01*
X135546239Y-84128407D01*
X135372446Y-84236016D01*
X135221377Y-84373733D01*
X135098194Y-84536855D01*
X135098192Y-84536858D01*
X135007079Y-84719839D01*
X135007076Y-84719848D01*
X134951137Y-84916451D01*
X134951136Y-84916453D01*
X134943998Y-84993500D01*
X134596506Y-84993500D01*
X134589358Y-84916364D01*
X134533392Y-84719662D01*
X134442234Y-84536593D01*
X134442233Y-84536592D01*
X134442233Y-84536591D01*
X134318992Y-84373394D01*
X134318989Y-84373391D01*
X134176659Y-84243639D01*
X134167857Y-84235615D01*
X134167854Y-84235613D01*
X134167849Y-84235609D01*
X133993989Y-84127960D01*
X133993976Y-84127953D01*
X133803281Y-84054078D01*
X133803275Y-84054076D01*
X133602254Y-84016500D01*
X133397746Y-84016500D01*
X133196724Y-84054076D01*
X133196718Y-84054078D01*
X133006023Y-84127953D01*
X133006010Y-84127960D01*
X132832150Y-84235609D01*
X132832139Y-84235618D01*
X132681010Y-84373391D01*
X132681007Y-84373394D01*
X132557766Y-84536591D01*
X132466610Y-84719657D01*
X132466607Y-84719666D01*
X132410643Y-84916359D01*
X132410642Y-84916360D01*
X132391772Y-85120000D01*
X129727969Y-85120000D01*
X129803281Y-85105922D01*
X129993980Y-85032045D01*
X130167857Y-84924385D01*
X130318990Y-84786608D01*
X130442234Y-84623407D01*
X130533392Y-84440338D01*
X130589358Y-84243636D01*
X130608228Y-84040000D01*
X130589358Y-83836364D01*
X130533392Y-83639662D01*
X130442234Y-83456593D01*
X130442233Y-83456592D01*
X130442233Y-83456591D01*
X130318992Y-83293394D01*
X130318989Y-83293391D01*
X130176116Y-83163144D01*
X130167857Y-83155615D01*
X130167854Y-83155613D01*
X130167849Y-83155609D01*
X129993989Y-83047960D01*
X129993976Y-83047953D01*
X129803281Y-82974078D01*
X129803275Y-82974076D01*
X129602254Y-82936500D01*
X129397746Y-82936500D01*
X129196724Y-82974076D01*
X129196718Y-82974078D01*
X129006023Y-83047953D01*
X129006010Y-83047960D01*
X128832150Y-83155609D01*
X128832139Y-83155618D01*
X128681010Y-83293391D01*
X128681007Y-83293394D01*
X128557766Y-83456591D01*
X128466610Y-83639657D01*
X128466607Y-83639666D01*
X128410643Y-83836359D01*
X128410642Y-83836360D01*
X128391772Y-84040000D01*
X128068228Y-84040000D01*
X128049358Y-83836364D01*
X127993392Y-83639662D01*
X127902234Y-83456593D01*
X127902233Y-83456592D01*
X127902233Y-83456591D01*
X127778992Y-83293394D01*
X127778989Y-83293391D01*
X127636116Y-83163144D01*
X127627857Y-83155615D01*
X127627854Y-83155613D01*
X127627849Y-83155609D01*
X127453989Y-83047960D01*
X127453976Y-83047953D01*
X127263281Y-82974078D01*
X127263275Y-82974076D01*
X127062254Y-82936500D01*
X126857746Y-82936500D01*
X126656724Y-82974076D01*
X126656718Y-82974078D01*
X126466023Y-83047953D01*
X126466010Y-83047960D01*
X126292150Y-83155609D01*
X126292139Y-83155618D01*
X126141010Y-83293391D01*
X126141007Y-83293394D01*
X126017766Y-83456591D01*
X125926610Y-83639657D01*
X125926607Y-83639666D01*
X125870643Y-83836359D01*
X125870642Y-83836360D01*
X125851772Y-84040000D01*
X124500500Y-84040000D01*
X124500500Y-81500000D01*
X125851772Y-81500000D01*
X125870642Y-81703639D01*
X125870643Y-81703640D01*
X125926608Y-81900338D01*
X125926610Y-81900342D01*
X126017766Y-82083408D01*
X126141007Y-82246605D01*
X126141010Y-82246608D01*
X126292143Y-82384385D01*
X126292146Y-82384387D01*
X126292150Y-82384390D01*
X126466010Y-82492039D01*
X126466020Y-82492045D01*
X126656719Y-82565922D01*
X126656723Y-82565922D01*
X126656724Y-82565923D01*
X126779048Y-82588789D01*
X126857746Y-82603500D01*
X127062254Y-82603500D01*
X127263281Y-82565922D01*
X127453980Y-82492045D01*
X127627857Y-82384385D01*
X127778990Y-82246608D01*
X127902234Y-82083407D01*
X127993392Y-81900338D01*
X128049358Y-81703636D01*
X128068228Y-81500000D01*
X128049358Y-81296364D01*
X127993392Y-81099662D01*
X127902234Y-80916593D01*
X127902233Y-80916592D01*
X127902233Y-80916591D01*
X127778992Y-80753394D01*
X127778989Y-80753391D01*
X127678544Y-80661823D01*
X127638190Y-80625035D01*
X128396500Y-80625035D01*
X128396500Y-80625038D01*
X128396500Y-80625039D01*
X128396500Y-82374963D01*
X128398896Y-82387007D01*
X128411209Y-82448911D01*
X128454816Y-82514174D01*
X128467238Y-82532764D01*
X128551085Y-82588789D01*
X128551086Y-82588789D01*
X128551089Y-82588791D01*
X128625035Y-82603500D01*
X130374964Y-82603499D01*
X130448911Y-82588791D01*
X130462068Y-82580000D01*
X132391772Y-82580000D01*
X132410642Y-82783639D01*
X132410643Y-82783640D01*
X132466608Y-82980338D01*
X132466610Y-82980342D01*
X132557766Y-83163408D01*
X132681007Y-83326605D01*
X132681010Y-83326608D01*
X132832143Y-83464385D01*
X132832146Y-83464387D01*
X132832150Y-83464390D01*
X133005288Y-83571592D01*
X133006020Y-83572045D01*
X133196719Y-83645922D01*
X133397746Y-83683500D01*
X133602254Y-83683500D01*
X133803281Y-83645922D01*
X133993980Y-83572045D01*
X134167857Y-83464385D01*
X134318990Y-83326608D01*
X134442234Y-83163407D01*
X134533392Y-82980338D01*
X134589358Y-82783636D01*
X134608228Y-82580000D01*
X134596506Y-82453500D01*
X134943998Y-82453500D01*
X135556258Y-82453500D01*
X135540000Y-82514174D01*
X135540000Y-82645826D01*
X135556258Y-82706500D01*
X134943998Y-82706500D01*
X134951136Y-82783546D01*
X134951137Y-82783548D01*
X135007076Y-82980151D01*
X135007079Y-82980160D01*
X135098192Y-83163141D01*
X135098194Y-83163144D01*
X135221377Y-83326266D01*
X135372446Y-83463983D01*
X135546239Y-83571592D01*
X135546250Y-83571597D01*
X135736852Y-83645436D01*
X135736860Y-83645438D01*
X135913499Y-83678458D01*
X135913500Y-83678458D01*
X135913500Y-83063742D01*
X135974174Y-83080000D01*
X136105826Y-83080000D01*
X136166500Y-83063742D01*
X136166500Y-83678458D01*
X136343139Y-83645438D01*
X136343147Y-83645436D01*
X136533749Y-83571597D01*
X136533760Y-83571592D01*
X136707553Y-83463983D01*
X136858622Y-83326266D01*
X136981805Y-83163144D01*
X136981807Y-83163141D01*
X137072920Y-82980160D01*
X137072923Y-82980151D01*
X137128862Y-82783548D01*
X137128863Y-82783546D01*
X137136002Y-82706500D01*
X136523742Y-82706500D01*
X136540000Y-82645826D01*
X136540000Y-82540000D01*
X142391772Y-82540000D01*
X142410642Y-82743639D01*
X142410643Y-82743640D01*
X142466608Y-82940338D01*
X142466610Y-82940342D01*
X142557766Y-83123408D01*
X142681007Y-83286605D01*
X142681010Y-83286608D01*
X142832143Y-83424385D01*
X142832146Y-83424387D01*
X142832150Y-83424390D01*
X143006010Y-83532039D01*
X143006020Y-83532045D01*
X143196719Y-83605922D01*
X143196723Y-83605922D01*
X143196724Y-83605923D01*
X143377214Y-83639662D01*
X143397746Y-83643500D01*
X143602254Y-83643500D01*
X143803281Y-83605922D01*
X143993980Y-83532045D01*
X144167857Y-83424385D01*
X144318990Y-83286608D01*
X144442234Y-83123407D01*
X144533392Y-82940338D01*
X144589358Y-82743636D01*
X144608228Y-82540000D01*
X147391772Y-82540000D01*
X147410642Y-82743639D01*
X147410643Y-82743640D01*
X147466608Y-82940338D01*
X147466610Y-82940342D01*
X147557766Y-83123408D01*
X147681007Y-83286605D01*
X147681010Y-83286608D01*
X147832143Y-83424385D01*
X147832146Y-83424387D01*
X147832150Y-83424390D01*
X148006010Y-83532039D01*
X148006020Y-83532045D01*
X148196719Y-83605922D01*
X148196723Y-83605922D01*
X148196724Y-83605923D01*
X148377214Y-83639662D01*
X148397746Y-83643500D01*
X148602254Y-83643500D01*
X148803281Y-83605922D01*
X148993980Y-83532045D01*
X149167857Y-83424385D01*
X149318990Y-83286608D01*
X149442234Y-83123407D01*
X149533392Y-82940338D01*
X149589358Y-82743636D01*
X149604521Y-82580000D01*
X152391772Y-82580000D01*
X152410642Y-82783639D01*
X152410643Y-82783640D01*
X152466608Y-82980338D01*
X152466610Y-82980342D01*
X152557766Y-83163408D01*
X152681007Y-83326605D01*
X152681010Y-83326608D01*
X152832143Y-83464385D01*
X152832146Y-83464387D01*
X152832150Y-83464390D01*
X153005288Y-83571592D01*
X153006020Y-83572045D01*
X153196719Y-83645922D01*
X153397746Y-83683500D01*
X153602254Y-83683500D01*
X153803281Y-83645922D01*
X153993980Y-83572045D01*
X154167857Y-83464385D01*
X154318990Y-83326608D01*
X154442234Y-83163407D01*
X154533392Y-82980338D01*
X154589358Y-82783636D01*
X154608228Y-82580000D01*
X154604521Y-82540000D01*
X157391772Y-82540000D01*
X157410642Y-82743639D01*
X157410643Y-82743640D01*
X157466608Y-82940338D01*
X157466610Y-82940342D01*
X157557766Y-83123408D01*
X157681007Y-83286605D01*
X157681010Y-83286608D01*
X157832143Y-83424385D01*
X157832146Y-83424387D01*
X157832150Y-83424390D01*
X158006010Y-83532039D01*
X158006020Y-83532045D01*
X158196719Y-83605922D01*
X158196723Y-83605922D01*
X158196724Y-83605923D01*
X158377214Y-83639662D01*
X158397746Y-83643500D01*
X158602254Y-83643500D01*
X158803281Y-83605922D01*
X158993980Y-83532045D01*
X159167857Y-83424385D01*
X159318990Y-83286608D01*
X159442234Y-83123407D01*
X159533392Y-82940338D01*
X159589358Y-82743636D01*
X159608228Y-82540000D01*
X167391772Y-82540000D01*
X167410642Y-82743639D01*
X167410643Y-82743640D01*
X167466608Y-82940338D01*
X167466610Y-82940342D01*
X167557766Y-83123408D01*
X167681007Y-83286605D01*
X167681010Y-83286608D01*
X167832143Y-83424385D01*
X167832146Y-83424387D01*
X167832150Y-83424390D01*
X168006010Y-83532039D01*
X168006020Y-83532045D01*
X168196719Y-83605922D01*
X168196723Y-83605922D01*
X168196724Y-83605923D01*
X168377214Y-83639662D01*
X168397746Y-83643500D01*
X168602254Y-83643500D01*
X168803281Y-83605922D01*
X168993980Y-83532045D01*
X169167857Y-83424385D01*
X169318990Y-83286608D01*
X169442234Y-83123407D01*
X169533392Y-82940338D01*
X169589358Y-82743636D01*
X169608228Y-82540000D01*
X169589358Y-82336364D01*
X169533392Y-82139662D01*
X169442234Y-81956593D01*
X169442233Y-81956592D01*
X169442233Y-81956591D01*
X169318992Y-81793394D01*
X169318989Y-81793391D01*
X169281206Y-81758947D01*
X169167857Y-81655615D01*
X169167854Y-81655613D01*
X169167849Y-81655609D01*
X168993989Y-81547960D01*
X168993976Y-81547953D01*
X168803281Y-81474078D01*
X168803275Y-81474076D01*
X168602254Y-81436500D01*
X168397746Y-81436500D01*
X168196724Y-81474076D01*
X168196718Y-81474078D01*
X168006023Y-81547953D01*
X168006010Y-81547960D01*
X167832150Y-81655609D01*
X167832139Y-81655618D01*
X167681010Y-81793391D01*
X167681007Y-81793394D01*
X167557766Y-81956591D01*
X167466610Y-82139657D01*
X167466607Y-82139666D01*
X167410643Y-82336359D01*
X167410642Y-82336360D01*
X167391772Y-82540000D01*
X159608228Y-82540000D01*
X159589358Y-82336364D01*
X159533392Y-82139662D01*
X159442234Y-81956593D01*
X159442233Y-81956592D01*
X159442233Y-81956591D01*
X159318992Y-81793394D01*
X159318989Y-81793391D01*
X159281206Y-81758947D01*
X159167857Y-81655615D01*
X159167854Y-81655613D01*
X159167849Y-81655609D01*
X158993989Y-81547960D01*
X158993976Y-81547953D01*
X158803281Y-81474078D01*
X158803275Y-81474076D01*
X158602254Y-81436500D01*
X158397746Y-81436500D01*
X158196724Y-81474076D01*
X158196718Y-81474078D01*
X158006023Y-81547953D01*
X158006010Y-81547960D01*
X157832150Y-81655609D01*
X157832139Y-81655618D01*
X157681010Y-81793391D01*
X157681007Y-81793394D01*
X157557766Y-81956591D01*
X157466610Y-82139657D01*
X157466607Y-82139666D01*
X157410643Y-82336359D01*
X157410642Y-82336360D01*
X157391772Y-82540000D01*
X154604521Y-82540000D01*
X154589358Y-82376364D01*
X154533392Y-82179662D01*
X154442234Y-81996593D01*
X154442233Y-81996592D01*
X154442233Y-81996591D01*
X154318992Y-81833394D01*
X154318989Y-81833391D01*
X154176659Y-81703639D01*
X154167857Y-81695615D01*
X154167854Y-81695613D01*
X154167849Y-81695609D01*
X153993989Y-81587960D01*
X153993976Y-81587953D01*
X153803281Y-81514078D01*
X153803275Y-81514076D01*
X153602254Y-81476500D01*
X153397746Y-81476500D01*
X153196724Y-81514076D01*
X153196718Y-81514078D01*
X153006023Y-81587953D01*
X153006010Y-81587960D01*
X152832150Y-81695609D01*
X152832139Y-81695618D01*
X152681010Y-81833391D01*
X152681007Y-81833394D01*
X152557766Y-81996591D01*
X152466610Y-82179657D01*
X152466607Y-82179666D01*
X152410643Y-82376359D01*
X152410642Y-82376360D01*
X152391772Y-82580000D01*
X149604521Y-82580000D01*
X149608228Y-82540000D01*
X149589358Y-82336364D01*
X149533392Y-82139662D01*
X149442234Y-81956593D01*
X149442233Y-81956592D01*
X149442233Y-81956591D01*
X149318992Y-81793394D01*
X149318989Y-81793391D01*
X149281206Y-81758947D01*
X149167857Y-81655615D01*
X149167854Y-81655613D01*
X149167849Y-81655609D01*
X148993989Y-81547960D01*
X148993976Y-81547953D01*
X148803281Y-81474078D01*
X148803275Y-81474076D01*
X148602254Y-81436500D01*
X148397746Y-81436500D01*
X148196724Y-81474076D01*
X148196718Y-81474078D01*
X148006023Y-81547953D01*
X148006010Y-81547960D01*
X147832150Y-81655609D01*
X147832139Y-81655618D01*
X147681010Y-81793391D01*
X147681007Y-81793394D01*
X147557766Y-81956591D01*
X147466610Y-82139657D01*
X147466607Y-82139666D01*
X147410643Y-82336359D01*
X147410642Y-82336360D01*
X147391772Y-82540000D01*
X144608228Y-82540000D01*
X144589358Y-82336364D01*
X144533392Y-82139662D01*
X144442234Y-81956593D01*
X144442233Y-81956592D01*
X144442233Y-81956591D01*
X144318992Y-81793394D01*
X144318989Y-81793391D01*
X144281206Y-81758947D01*
X144167857Y-81655615D01*
X144167854Y-81655613D01*
X144167849Y-81655609D01*
X143993989Y-81547960D01*
X143993976Y-81547953D01*
X143803281Y-81474078D01*
X143803275Y-81474076D01*
X143602254Y-81436500D01*
X143397746Y-81436500D01*
X143196724Y-81474076D01*
X143196718Y-81474078D01*
X143006023Y-81547953D01*
X143006010Y-81547960D01*
X142832150Y-81655609D01*
X142832139Y-81655618D01*
X142681010Y-81793391D01*
X142681007Y-81793394D01*
X142557766Y-81956591D01*
X142466610Y-82139657D01*
X142466607Y-82139666D01*
X142410643Y-82336359D01*
X142410642Y-82336360D01*
X142391772Y-82540000D01*
X136540000Y-82540000D01*
X136540000Y-82514174D01*
X136523742Y-82453500D01*
X137136002Y-82453500D01*
X137128863Y-82376453D01*
X137128862Y-82376451D01*
X137072923Y-82179848D01*
X137072920Y-82179839D01*
X136981807Y-81996858D01*
X136981805Y-81996855D01*
X136858622Y-81833733D01*
X136707553Y-81696016D01*
X136533760Y-81588407D01*
X136533749Y-81588402D01*
X136343147Y-81514563D01*
X136343139Y-81514561D01*
X136166500Y-81481540D01*
X136166500Y-82096257D01*
X136105826Y-82080000D01*
X135974174Y-82080000D01*
X135913500Y-82096257D01*
X135913500Y-81481540D01*
X135736860Y-81514561D01*
X135736852Y-81514563D01*
X135546250Y-81588402D01*
X135546239Y-81588407D01*
X135372446Y-81696016D01*
X135221377Y-81833733D01*
X135098194Y-81996855D01*
X135098192Y-81996858D01*
X135007079Y-82179839D01*
X135007076Y-82179848D01*
X134951137Y-82376451D01*
X134951136Y-82376453D01*
X134943998Y-82453500D01*
X134596506Y-82453500D01*
X134589358Y-82376364D01*
X134533392Y-82179662D01*
X134442234Y-81996593D01*
X134442233Y-81996592D01*
X134442233Y-81996591D01*
X134318992Y-81833394D01*
X134318989Y-81833391D01*
X134176659Y-81703639D01*
X134167857Y-81695615D01*
X134167854Y-81695613D01*
X134167849Y-81695609D01*
X133993989Y-81587960D01*
X133993976Y-81587953D01*
X133803281Y-81514078D01*
X133803275Y-81514076D01*
X133602254Y-81476500D01*
X133397746Y-81476500D01*
X133196724Y-81514076D01*
X133196718Y-81514078D01*
X133006023Y-81587953D01*
X133006010Y-81587960D01*
X132832150Y-81695609D01*
X132832139Y-81695618D01*
X132681010Y-81833391D01*
X132681007Y-81833394D01*
X132557766Y-81996591D01*
X132466610Y-82179657D01*
X132466607Y-82179666D01*
X132410643Y-82376359D01*
X132410642Y-82376360D01*
X132391772Y-82580000D01*
X130462068Y-82580000D01*
X130532763Y-82532763D01*
X130588791Y-82448911D01*
X130603500Y-82374965D01*
X130603499Y-80625036D01*
X130588791Y-80551089D01*
X130532763Y-80467237D01*
X130532761Y-80467236D01*
X130532761Y-80467235D01*
X130448914Y-80411210D01*
X130448911Y-80411209D01*
X130374965Y-80396500D01*
X130374960Y-80396500D01*
X128625036Y-80396500D01*
X128551088Y-80411209D01*
X128467235Y-80467238D01*
X128411210Y-80551085D01*
X128411209Y-80551088D01*
X128411209Y-80551089D01*
X128396500Y-80625035D01*
X127638190Y-80625035D01*
X127627857Y-80615615D01*
X127627854Y-80615613D01*
X127627849Y-80615609D01*
X127453989Y-80507960D01*
X127453976Y-80507953D01*
X127263281Y-80434078D01*
X127263275Y-80434076D01*
X127062254Y-80396500D01*
X126857746Y-80396500D01*
X126656724Y-80434076D01*
X126656718Y-80434078D01*
X126466023Y-80507953D01*
X126466010Y-80507960D01*
X126292150Y-80615609D01*
X126292139Y-80615618D01*
X126141010Y-80753391D01*
X126141007Y-80753394D01*
X126017766Y-80916591D01*
X125926610Y-81099657D01*
X125926607Y-81099666D01*
X125870643Y-81296359D01*
X125870642Y-81296360D01*
X125851772Y-81500000D01*
X124500500Y-81500000D01*
X124500500Y-80040000D01*
X132391772Y-80040000D01*
X132410642Y-80243639D01*
X132410643Y-80243640D01*
X132466608Y-80440338D01*
X132466610Y-80440342D01*
X132557766Y-80623408D01*
X132681007Y-80786605D01*
X132681010Y-80786608D01*
X132832143Y-80924385D01*
X132832146Y-80924387D01*
X132832150Y-80924390D01*
X133005288Y-81031592D01*
X133006020Y-81032045D01*
X133196719Y-81105922D01*
X133196723Y-81105922D01*
X133196724Y-81105923D01*
X133377198Y-81139659D01*
X133397746Y-81143500D01*
X133602254Y-81143500D01*
X133803281Y-81105922D01*
X133993980Y-81032045D01*
X134167857Y-80924385D01*
X134318990Y-80786608D01*
X134442234Y-80623407D01*
X134533392Y-80440338D01*
X134589358Y-80243636D01*
X134608228Y-80040000D01*
X134596506Y-79913500D01*
X134943998Y-79913500D01*
X135556258Y-79913500D01*
X135540000Y-79974174D01*
X135540000Y-80105826D01*
X135556258Y-80166500D01*
X134943998Y-80166500D01*
X134951136Y-80243546D01*
X134951137Y-80243548D01*
X135007076Y-80440151D01*
X135007079Y-80440160D01*
X135098192Y-80623141D01*
X135098194Y-80623144D01*
X135221377Y-80786266D01*
X135372446Y-80923983D01*
X135546239Y-81031592D01*
X135546250Y-81031597D01*
X135736852Y-81105436D01*
X135736860Y-81105438D01*
X135913499Y-81138458D01*
X135913500Y-81138458D01*
X135913500Y-80523742D01*
X135974174Y-80540000D01*
X136105826Y-80540000D01*
X136166500Y-80523742D01*
X136166500Y-81138458D01*
X136343139Y-81105438D01*
X136343147Y-81105436D01*
X136533749Y-81031597D01*
X136533760Y-81031592D01*
X136707553Y-80923983D01*
X136858622Y-80786266D01*
X136981805Y-80623144D01*
X136981807Y-80623141D01*
X137072920Y-80440160D01*
X137072923Y-80440151D01*
X137128862Y-80243548D01*
X137128863Y-80243546D01*
X137136002Y-80166500D01*
X136523742Y-80166500D01*
X136540000Y-80105826D01*
X136540000Y-80000000D01*
X142391772Y-80000000D01*
X142410642Y-80203639D01*
X142410643Y-80203640D01*
X142419788Y-80235781D01*
X142466608Y-80400338D01*
X142466610Y-80400342D01*
X142557766Y-80583408D01*
X142681007Y-80746605D01*
X142681010Y-80746608D01*
X142832143Y-80884385D01*
X142832146Y-80884387D01*
X142832150Y-80884390D01*
X143006010Y-80992039D01*
X143006020Y-80992045D01*
X143196719Y-81065922D01*
X143196723Y-81065922D01*
X143196724Y-81065923D01*
X143377214Y-81099662D01*
X143397746Y-81103500D01*
X143602254Y-81103500D01*
X143803281Y-81065922D01*
X143993980Y-80992045D01*
X144167857Y-80884385D01*
X144318990Y-80746608D01*
X144442234Y-80583407D01*
X144533392Y-80400338D01*
X144589358Y-80203636D01*
X144608228Y-80000000D01*
X147391772Y-80000000D01*
X147410642Y-80203639D01*
X147410643Y-80203640D01*
X147419788Y-80235781D01*
X147466608Y-80400338D01*
X147466610Y-80400342D01*
X147557766Y-80583408D01*
X147681007Y-80746605D01*
X147681010Y-80746608D01*
X147832143Y-80884385D01*
X147832146Y-80884387D01*
X147832150Y-80884390D01*
X148006010Y-80992039D01*
X148006020Y-80992045D01*
X148196719Y-81065922D01*
X148196723Y-81065922D01*
X148196724Y-81065923D01*
X148377214Y-81099662D01*
X148397746Y-81103500D01*
X148602254Y-81103500D01*
X148803281Y-81065922D01*
X148993980Y-80992045D01*
X149167857Y-80884385D01*
X149318990Y-80746608D01*
X149442234Y-80583407D01*
X149533392Y-80400338D01*
X149589358Y-80203636D01*
X149604521Y-80040000D01*
X152391772Y-80040000D01*
X152410642Y-80243639D01*
X152410643Y-80243640D01*
X152466608Y-80440338D01*
X152466610Y-80440342D01*
X152557766Y-80623408D01*
X152681007Y-80786605D01*
X152681010Y-80786608D01*
X152832143Y-80924385D01*
X152832146Y-80924387D01*
X152832150Y-80924390D01*
X153005288Y-81031592D01*
X153006020Y-81032045D01*
X153196719Y-81105922D01*
X153196723Y-81105922D01*
X153196724Y-81105923D01*
X153377198Y-81139659D01*
X153397746Y-81143500D01*
X153602254Y-81143500D01*
X153803281Y-81105922D01*
X153993980Y-81032045D01*
X154167857Y-80924385D01*
X154318990Y-80786608D01*
X154442234Y-80623407D01*
X154533392Y-80440338D01*
X154589358Y-80243636D01*
X154608228Y-80040000D01*
X154604521Y-80000000D01*
X157391772Y-80000000D01*
X157410642Y-80203639D01*
X157410643Y-80203640D01*
X157419788Y-80235781D01*
X157466608Y-80400338D01*
X157466610Y-80400342D01*
X157557766Y-80583408D01*
X157681007Y-80746605D01*
X157681010Y-80746608D01*
X157832143Y-80884385D01*
X157832146Y-80884387D01*
X157832150Y-80884390D01*
X158006010Y-80992039D01*
X158006020Y-80992045D01*
X158196719Y-81065922D01*
X158196723Y-81065922D01*
X158196724Y-81065923D01*
X158377214Y-81099662D01*
X158397746Y-81103500D01*
X158602254Y-81103500D01*
X158803281Y-81065922D01*
X158993980Y-80992045D01*
X159167857Y-80884385D01*
X159318990Y-80746608D01*
X159442234Y-80583407D01*
X159533392Y-80400338D01*
X159589358Y-80203636D01*
X159608228Y-80000000D01*
X167391772Y-80000000D01*
X167410642Y-80203639D01*
X167410643Y-80203640D01*
X167419788Y-80235781D01*
X167466608Y-80400338D01*
X167466610Y-80400342D01*
X167557766Y-80583408D01*
X167681007Y-80746605D01*
X167681010Y-80746608D01*
X167832143Y-80884385D01*
X167832146Y-80884387D01*
X167832150Y-80884390D01*
X168006010Y-80992039D01*
X168006020Y-80992045D01*
X168196719Y-81065922D01*
X168196723Y-81065922D01*
X168196724Y-81065923D01*
X168377214Y-81099662D01*
X168397746Y-81103500D01*
X168602254Y-81103500D01*
X168803281Y-81065922D01*
X168993980Y-80992045D01*
X169167857Y-80884385D01*
X169318990Y-80746608D01*
X169442234Y-80583407D01*
X169533392Y-80400338D01*
X169589358Y-80203636D01*
X169608228Y-80000000D01*
X169589358Y-79796364D01*
X169533392Y-79599662D01*
X169442234Y-79416593D01*
X169442233Y-79416592D01*
X169442233Y-79416591D01*
X169318992Y-79253394D01*
X169318989Y-79253391D01*
X169211738Y-79155618D01*
X169167857Y-79115615D01*
X169167854Y-79115613D01*
X169167849Y-79115609D01*
X168993989Y-79007960D01*
X168993976Y-79007953D01*
X168803281Y-78934078D01*
X168803275Y-78934076D01*
X168602254Y-78896500D01*
X168397746Y-78896500D01*
X168196724Y-78934076D01*
X168196718Y-78934078D01*
X168006023Y-79007953D01*
X168006010Y-79007960D01*
X167832150Y-79115609D01*
X167832139Y-79115618D01*
X167681010Y-79253391D01*
X167681007Y-79253394D01*
X167557766Y-79416591D01*
X167466610Y-79599657D01*
X167466607Y-79599666D01*
X167410643Y-79796359D01*
X167410642Y-79796360D01*
X167391772Y-80000000D01*
X159608228Y-80000000D01*
X159589358Y-79796364D01*
X159533392Y-79599662D01*
X159442234Y-79416593D01*
X159442233Y-79416592D01*
X159442233Y-79416591D01*
X159318992Y-79253394D01*
X159318989Y-79253391D01*
X159211738Y-79155618D01*
X159167857Y-79115615D01*
X159167854Y-79115613D01*
X159167849Y-79115609D01*
X158993989Y-79007960D01*
X158993976Y-79007953D01*
X158803281Y-78934078D01*
X158803275Y-78934076D01*
X158602254Y-78896500D01*
X158397746Y-78896500D01*
X158196724Y-78934076D01*
X158196718Y-78934078D01*
X158006023Y-79007953D01*
X158006010Y-79007960D01*
X157832150Y-79115609D01*
X157832139Y-79115618D01*
X157681010Y-79253391D01*
X157681007Y-79253394D01*
X157557766Y-79416591D01*
X157466610Y-79599657D01*
X157466607Y-79599666D01*
X157410643Y-79796359D01*
X157410642Y-79796360D01*
X157391772Y-80000000D01*
X154604521Y-80000000D01*
X154589358Y-79836364D01*
X154533392Y-79639662D01*
X154442234Y-79456593D01*
X154442233Y-79456592D01*
X154442233Y-79456591D01*
X154318992Y-79293394D01*
X154318989Y-79293391D01*
X154275111Y-79253391D01*
X154167857Y-79155615D01*
X154167854Y-79155613D01*
X154167849Y-79155609D01*
X153993989Y-79047960D01*
X153993976Y-79047953D01*
X153803281Y-78974078D01*
X153803275Y-78974076D01*
X153602254Y-78936500D01*
X153397746Y-78936500D01*
X153196724Y-78974076D01*
X153196718Y-78974078D01*
X153006023Y-79047953D01*
X153006010Y-79047960D01*
X152832150Y-79155609D01*
X152832139Y-79155618D01*
X152681010Y-79293391D01*
X152681007Y-79293394D01*
X152557766Y-79456591D01*
X152466610Y-79639657D01*
X152466607Y-79639666D01*
X152410643Y-79836359D01*
X152410642Y-79836360D01*
X152391772Y-80040000D01*
X149604521Y-80040000D01*
X149608228Y-80000000D01*
X149589358Y-79796364D01*
X149533392Y-79599662D01*
X149442234Y-79416593D01*
X149442233Y-79416592D01*
X149442233Y-79416591D01*
X149318992Y-79253394D01*
X149318989Y-79253391D01*
X149211738Y-79155618D01*
X149167857Y-79115615D01*
X149167854Y-79115613D01*
X149167849Y-79115609D01*
X148993989Y-79007960D01*
X148993976Y-79007953D01*
X148803281Y-78934078D01*
X148803275Y-78934076D01*
X148602254Y-78896500D01*
X148397746Y-78896500D01*
X148196724Y-78934076D01*
X148196718Y-78934078D01*
X148006023Y-79007953D01*
X148006010Y-79007960D01*
X147832150Y-79115609D01*
X147832139Y-79115618D01*
X147681010Y-79253391D01*
X147681007Y-79253394D01*
X147557766Y-79416591D01*
X147466610Y-79599657D01*
X147466607Y-79599666D01*
X147410643Y-79796359D01*
X147410642Y-79796360D01*
X147391772Y-80000000D01*
X144608228Y-80000000D01*
X144589358Y-79796364D01*
X144533392Y-79599662D01*
X144442234Y-79416593D01*
X144442233Y-79416592D01*
X144442233Y-79416591D01*
X144318992Y-79253394D01*
X144318989Y-79253391D01*
X144211738Y-79155618D01*
X144167857Y-79115615D01*
X144167854Y-79115613D01*
X144167849Y-79115609D01*
X143993989Y-79007960D01*
X143993976Y-79007953D01*
X143803281Y-78934078D01*
X143803275Y-78934076D01*
X143602254Y-78896500D01*
X143397746Y-78896500D01*
X143196724Y-78934076D01*
X143196718Y-78934078D01*
X143006023Y-79007953D01*
X143006010Y-79007960D01*
X142832150Y-79115609D01*
X142832139Y-79115618D01*
X142681010Y-79253391D01*
X142681007Y-79253394D01*
X142557766Y-79416591D01*
X142466610Y-79599657D01*
X142466607Y-79599666D01*
X142410643Y-79796359D01*
X142410642Y-79796360D01*
X142391772Y-80000000D01*
X136540000Y-80000000D01*
X136540000Y-79974174D01*
X136523742Y-79913500D01*
X137136002Y-79913500D01*
X137128863Y-79836453D01*
X137128862Y-79836451D01*
X137072923Y-79639848D01*
X137072920Y-79639839D01*
X136981807Y-79456858D01*
X136981805Y-79456855D01*
X136858622Y-79293733D01*
X136707553Y-79156016D01*
X136533760Y-79048407D01*
X136533749Y-79048402D01*
X136343147Y-78974563D01*
X136343139Y-78974561D01*
X136166500Y-78941540D01*
X136166500Y-79556257D01*
X136105826Y-79540000D01*
X135974174Y-79540000D01*
X135913500Y-79556257D01*
X135913500Y-78941540D01*
X135736860Y-78974561D01*
X135736852Y-78974563D01*
X135546250Y-79048402D01*
X135546239Y-79048407D01*
X135372446Y-79156016D01*
X135221377Y-79293733D01*
X135098194Y-79456855D01*
X135098192Y-79456858D01*
X135007079Y-79639839D01*
X135007076Y-79639848D01*
X134951137Y-79836451D01*
X134951136Y-79836453D01*
X134943998Y-79913500D01*
X134596506Y-79913500D01*
X134589358Y-79836364D01*
X134533392Y-79639662D01*
X134442234Y-79456593D01*
X134442233Y-79456592D01*
X134442233Y-79456591D01*
X134318992Y-79293394D01*
X134318989Y-79293391D01*
X134275111Y-79253391D01*
X134167857Y-79155615D01*
X134167854Y-79155613D01*
X134167849Y-79155609D01*
X133993989Y-79047960D01*
X133993976Y-79047953D01*
X133803281Y-78974078D01*
X133803275Y-78974076D01*
X133602254Y-78936500D01*
X133397746Y-78936500D01*
X133196724Y-78974076D01*
X133196718Y-78974078D01*
X133006023Y-79047953D01*
X133006010Y-79047960D01*
X132832150Y-79155609D01*
X132832139Y-79155618D01*
X132681010Y-79293391D01*
X132681007Y-79293394D01*
X132557766Y-79456591D01*
X132466610Y-79639657D01*
X132466607Y-79639666D01*
X132410643Y-79836359D01*
X132410642Y-79836360D01*
X132391772Y-80040000D01*
X124500500Y-80040000D01*
X124500500Y-77500000D01*
X132391772Y-77500000D01*
X132410642Y-77703639D01*
X132410643Y-77703640D01*
X132466608Y-77900338D01*
X132466610Y-77900342D01*
X132557766Y-78083408D01*
X132681007Y-78246605D01*
X132681010Y-78246608D01*
X132832143Y-78384385D01*
X132832146Y-78384387D01*
X132832150Y-78384390D01*
X133005288Y-78491592D01*
X133006020Y-78492045D01*
X133196719Y-78565922D01*
X133397746Y-78603500D01*
X133602254Y-78603500D01*
X133803281Y-78565922D01*
X133993980Y-78492045D01*
X134167857Y-78384385D01*
X134318990Y-78246608D01*
X134442234Y-78083407D01*
X134533392Y-77900338D01*
X134589358Y-77703636D01*
X134608228Y-77500000D01*
X134596506Y-77373500D01*
X134943998Y-77373500D01*
X135556258Y-77373500D01*
X135540000Y-77434174D01*
X135540000Y-77565826D01*
X135556258Y-77626500D01*
X134943998Y-77626500D01*
X134951136Y-77703546D01*
X134951137Y-77703548D01*
X135007076Y-77900151D01*
X135007079Y-77900160D01*
X135098192Y-78083141D01*
X135098194Y-78083144D01*
X135221377Y-78246266D01*
X135372446Y-78383983D01*
X135546239Y-78491592D01*
X135546250Y-78491597D01*
X135736852Y-78565436D01*
X135736860Y-78565438D01*
X135913499Y-78598458D01*
X135913500Y-78598458D01*
X135913500Y-77983742D01*
X135974174Y-78000000D01*
X136105826Y-78000000D01*
X136166500Y-77983742D01*
X136166500Y-78598458D01*
X136343139Y-78565438D01*
X136343147Y-78565436D01*
X136533749Y-78491597D01*
X136533760Y-78491592D01*
X136707553Y-78383983D01*
X136858622Y-78246266D01*
X136981805Y-78083144D01*
X136981807Y-78083141D01*
X137072920Y-77900160D01*
X137072923Y-77900151D01*
X137128862Y-77703548D01*
X137128863Y-77703546D01*
X137136002Y-77626500D01*
X136523742Y-77626500D01*
X136540000Y-77565826D01*
X136540000Y-77460000D01*
X142391772Y-77460000D01*
X142410642Y-77663639D01*
X142410643Y-77663640D01*
X142466608Y-77860338D01*
X142466610Y-77860342D01*
X142557766Y-78043408D01*
X142681007Y-78206605D01*
X142681010Y-78206608D01*
X142832143Y-78344385D01*
X142832146Y-78344387D01*
X142832150Y-78344390D01*
X143006010Y-78452039D01*
X143006020Y-78452045D01*
X143196719Y-78525922D01*
X143397746Y-78563500D01*
X143602254Y-78563500D01*
X143803281Y-78525922D01*
X143993980Y-78452045D01*
X144167857Y-78344385D01*
X144318990Y-78206608D01*
X144442234Y-78043407D01*
X144533392Y-77860338D01*
X144589358Y-77663636D01*
X144608228Y-77460000D01*
X147391772Y-77460000D01*
X147410642Y-77663639D01*
X147410643Y-77663640D01*
X147466608Y-77860338D01*
X147466610Y-77860342D01*
X147557766Y-78043408D01*
X147681007Y-78206605D01*
X147681010Y-78206608D01*
X147832143Y-78344385D01*
X147832146Y-78344387D01*
X147832150Y-78344390D01*
X148006010Y-78452039D01*
X148006020Y-78452045D01*
X148196719Y-78525922D01*
X148397746Y-78563500D01*
X148602254Y-78563500D01*
X148803281Y-78525922D01*
X148993980Y-78452045D01*
X149167857Y-78344385D01*
X149318990Y-78206608D01*
X149442234Y-78043407D01*
X149533392Y-77860338D01*
X149589358Y-77663636D01*
X149604521Y-77500000D01*
X152391772Y-77500000D01*
X152410642Y-77703639D01*
X152410643Y-77703640D01*
X152466608Y-77900338D01*
X152466610Y-77900342D01*
X152557766Y-78083408D01*
X152681007Y-78246605D01*
X152681010Y-78246608D01*
X152832143Y-78384385D01*
X152832146Y-78384387D01*
X152832150Y-78384390D01*
X153005288Y-78491592D01*
X153006020Y-78492045D01*
X153196719Y-78565922D01*
X153397746Y-78603500D01*
X153602254Y-78603500D01*
X153803281Y-78565922D01*
X153993980Y-78492045D01*
X154167857Y-78384385D01*
X154318990Y-78246608D01*
X154442234Y-78083407D01*
X154533392Y-77900338D01*
X154589358Y-77703636D01*
X154608228Y-77500000D01*
X154604521Y-77460000D01*
X157391772Y-77460000D01*
X157410642Y-77663639D01*
X157410643Y-77663640D01*
X157466608Y-77860338D01*
X157466610Y-77860342D01*
X157557766Y-78043408D01*
X157681007Y-78206605D01*
X157681010Y-78206608D01*
X157832143Y-78344385D01*
X157832146Y-78344387D01*
X157832150Y-78344390D01*
X158006010Y-78452039D01*
X158006020Y-78452045D01*
X158196719Y-78525922D01*
X158397746Y-78563500D01*
X158602254Y-78563500D01*
X158803281Y-78525922D01*
X158993980Y-78452045D01*
X159167857Y-78344385D01*
X159318990Y-78206608D01*
X159442234Y-78043407D01*
X159533392Y-77860338D01*
X159589358Y-77663636D01*
X159608228Y-77460000D01*
X159589358Y-77256364D01*
X159533392Y-77059662D01*
X159442234Y-76876593D01*
X159442233Y-76876592D01*
X159442233Y-76876591D01*
X159318992Y-76713394D01*
X159318989Y-76713391D01*
X159231449Y-76633587D01*
X159178190Y-76585035D01*
X167396500Y-76585035D01*
X167396500Y-76585038D01*
X167396500Y-76585039D01*
X167396500Y-78334963D01*
X167406251Y-78383983D01*
X167411209Y-78408911D01*
X167466757Y-78492045D01*
X167467238Y-78492764D01*
X167551085Y-78548789D01*
X167551086Y-78548789D01*
X167551089Y-78548791D01*
X167625035Y-78563500D01*
X169374964Y-78563499D01*
X169448911Y-78548791D01*
X169532763Y-78492763D01*
X169588791Y-78408911D01*
X169603500Y-78334965D01*
X169603499Y-76585036D01*
X169588791Y-76511089D01*
X169532763Y-76427237D01*
X169532761Y-76427236D01*
X169532761Y-76427235D01*
X169448914Y-76371210D01*
X169448911Y-76371209D01*
X169374965Y-76356500D01*
X169374960Y-76356500D01*
X167625036Y-76356500D01*
X167551088Y-76371209D01*
X167467235Y-76427238D01*
X167411210Y-76511085D01*
X167411209Y-76511088D01*
X167411209Y-76511089D01*
X167396500Y-76585035D01*
X159178190Y-76585035D01*
X159167857Y-76575615D01*
X159167854Y-76575613D01*
X159167849Y-76575609D01*
X158993989Y-76467960D01*
X158993976Y-76467953D01*
X158803281Y-76394078D01*
X158803275Y-76394076D01*
X158602254Y-76356500D01*
X158397746Y-76356500D01*
X158196724Y-76394076D01*
X158196718Y-76394078D01*
X158006023Y-76467953D01*
X158006010Y-76467960D01*
X157832150Y-76575609D01*
X157832139Y-76575618D01*
X157681010Y-76713391D01*
X157681007Y-76713394D01*
X157557766Y-76876591D01*
X157466610Y-77059657D01*
X157466607Y-77059666D01*
X157410643Y-77256359D01*
X157410642Y-77256360D01*
X157391772Y-77460000D01*
X154604521Y-77460000D01*
X154589358Y-77296364D01*
X154533392Y-77099662D01*
X154442234Y-76916593D01*
X154442233Y-76916592D01*
X154442233Y-76916591D01*
X154318992Y-76753394D01*
X154318989Y-76753391D01*
X154167860Y-76615618D01*
X154167857Y-76615615D01*
X154167854Y-76615613D01*
X154167849Y-76615609D01*
X153993989Y-76507960D01*
X153993976Y-76507953D01*
X153803281Y-76434078D01*
X153803275Y-76434076D01*
X153602254Y-76396500D01*
X153397746Y-76396500D01*
X153196724Y-76434076D01*
X153196718Y-76434078D01*
X153006023Y-76507953D01*
X153006010Y-76507960D01*
X152832150Y-76615609D01*
X152832139Y-76615618D01*
X152681010Y-76753391D01*
X152681007Y-76753394D01*
X152557766Y-76916591D01*
X152466610Y-77099657D01*
X152466607Y-77099666D01*
X152410643Y-77296359D01*
X152410642Y-77296360D01*
X152391772Y-77500000D01*
X149604521Y-77500000D01*
X149608228Y-77460000D01*
X149589358Y-77256364D01*
X149533392Y-77059662D01*
X149442234Y-76876593D01*
X149442233Y-76876592D01*
X149442233Y-76876591D01*
X149318992Y-76713394D01*
X149318989Y-76713391D01*
X149231449Y-76633587D01*
X149167857Y-76575615D01*
X149167854Y-76575613D01*
X149167849Y-76575609D01*
X148993989Y-76467960D01*
X148993976Y-76467953D01*
X148803281Y-76394078D01*
X148803275Y-76394076D01*
X148602254Y-76356500D01*
X148397746Y-76356500D01*
X148196724Y-76394076D01*
X148196718Y-76394078D01*
X148006023Y-76467953D01*
X148006010Y-76467960D01*
X147832150Y-76575609D01*
X147832139Y-76575618D01*
X147681010Y-76713391D01*
X147681007Y-76713394D01*
X147557766Y-76876591D01*
X147466610Y-77059657D01*
X147466607Y-77059666D01*
X147410643Y-77256359D01*
X147410642Y-77256360D01*
X147391772Y-77460000D01*
X144608228Y-77460000D01*
X144589358Y-77256364D01*
X144533392Y-77059662D01*
X144442234Y-76876593D01*
X144442233Y-76876592D01*
X144442233Y-76876591D01*
X144318992Y-76713394D01*
X144318989Y-76713391D01*
X144231449Y-76633587D01*
X144167857Y-76575615D01*
X144167854Y-76575613D01*
X144167849Y-76575609D01*
X143993989Y-76467960D01*
X143993976Y-76467953D01*
X143803281Y-76394078D01*
X143803275Y-76394076D01*
X143602254Y-76356500D01*
X143397746Y-76356500D01*
X143196724Y-76394076D01*
X143196718Y-76394078D01*
X143006023Y-76467953D01*
X143006010Y-76467960D01*
X142832150Y-76575609D01*
X142832139Y-76575618D01*
X142681010Y-76713391D01*
X142681007Y-76713394D01*
X142557766Y-76876591D01*
X142466610Y-77059657D01*
X142466607Y-77059666D01*
X142410643Y-77256359D01*
X142410642Y-77256360D01*
X142391772Y-77460000D01*
X136540000Y-77460000D01*
X136540000Y-77434174D01*
X136523742Y-77373500D01*
X137136002Y-77373500D01*
X137128863Y-77296453D01*
X137128862Y-77296451D01*
X137072923Y-77099848D01*
X137072920Y-77099839D01*
X136981807Y-76916858D01*
X136981805Y-76916855D01*
X136858622Y-76753733D01*
X136707553Y-76616016D01*
X136533760Y-76508407D01*
X136533749Y-76508402D01*
X136343147Y-76434563D01*
X136343139Y-76434561D01*
X136166500Y-76401540D01*
X136166500Y-77016257D01*
X136105826Y-77000000D01*
X135974174Y-77000000D01*
X135913500Y-77016257D01*
X135913500Y-76401540D01*
X135736860Y-76434561D01*
X135736852Y-76434563D01*
X135546250Y-76508402D01*
X135546239Y-76508407D01*
X135372446Y-76616016D01*
X135221377Y-76753733D01*
X135098194Y-76916855D01*
X135098192Y-76916858D01*
X135007079Y-77099839D01*
X135007076Y-77099848D01*
X134951137Y-77296451D01*
X134951136Y-77296453D01*
X134943998Y-77373500D01*
X134596506Y-77373500D01*
X134589358Y-77296364D01*
X134533392Y-77099662D01*
X134442234Y-76916593D01*
X134442233Y-76916592D01*
X134442233Y-76916591D01*
X134318992Y-76753394D01*
X134318989Y-76753391D01*
X134167860Y-76615618D01*
X134167857Y-76615615D01*
X134167854Y-76615613D01*
X134167849Y-76615609D01*
X133993989Y-76507960D01*
X133993976Y-76507953D01*
X133803281Y-76434078D01*
X133803275Y-76434076D01*
X133602254Y-76396500D01*
X133397746Y-76396500D01*
X133196724Y-76434076D01*
X133196718Y-76434078D01*
X133006023Y-76507953D01*
X133006010Y-76507960D01*
X132832150Y-76615609D01*
X132832139Y-76615618D01*
X132681010Y-76753391D01*
X132681007Y-76753394D01*
X132557766Y-76916591D01*
X132466610Y-77099657D01*
X132466607Y-77099666D01*
X132410643Y-77296359D01*
X132410642Y-77296360D01*
X132391772Y-77500000D01*
X124500500Y-77500000D01*
X124500500Y-74085035D01*
X132396500Y-74085035D01*
X132396500Y-74085038D01*
X132396500Y-74085039D01*
X132396500Y-75834963D01*
X132411209Y-75908911D01*
X132467238Y-75992764D01*
X132551085Y-76048789D01*
X132551086Y-76048789D01*
X132551089Y-76048791D01*
X132625035Y-76063500D01*
X134374964Y-76063499D01*
X134448911Y-76048791D01*
X134532763Y-75992763D01*
X134588791Y-75908911D01*
X134603500Y-75834965D01*
X134603499Y-74960000D01*
X134931772Y-74960000D01*
X134950642Y-75163639D01*
X134950643Y-75163640D01*
X135006608Y-75360338D01*
X135006610Y-75360342D01*
X135097766Y-75543408D01*
X135221007Y-75706605D01*
X135221010Y-75706608D01*
X135372143Y-75844385D01*
X135372146Y-75844387D01*
X135372150Y-75844390D01*
X135546010Y-75952039D01*
X135546020Y-75952045D01*
X135736719Y-76025922D01*
X135937746Y-76063500D01*
X136142254Y-76063500D01*
X136343281Y-76025922D01*
X136533980Y-75952045D01*
X136707857Y-75844385D01*
X136858990Y-75706608D01*
X136982234Y-75543407D01*
X137073392Y-75360338D01*
X137129358Y-75163636D01*
X137148228Y-74960000D01*
X137129358Y-74756364D01*
X137073392Y-74559662D01*
X136982234Y-74376593D01*
X136982233Y-74376592D01*
X136982233Y-74376591D01*
X136858992Y-74213394D01*
X136858989Y-74213391D01*
X136731561Y-74097224D01*
X136707857Y-74075615D01*
X136707854Y-74075613D01*
X136707849Y-74075609D01*
X136658470Y-74045035D01*
X142396500Y-74045035D01*
X142396500Y-74045038D01*
X142396500Y-74045039D01*
X142396500Y-75794963D01*
X142404457Y-75834964D01*
X142411209Y-75868911D01*
X142466757Y-75952045D01*
X142467238Y-75952764D01*
X142551085Y-76008789D01*
X142551086Y-76008789D01*
X142551089Y-76008791D01*
X142625035Y-76023500D01*
X144374964Y-76023499D01*
X144448911Y-76008791D01*
X144532763Y-75952763D01*
X144588791Y-75868911D01*
X144603500Y-75794965D01*
X144603499Y-74045036D01*
X144603499Y-74045035D01*
X147396500Y-74045035D01*
X147396500Y-74045038D01*
X147396500Y-74045039D01*
X147396500Y-75794963D01*
X147404457Y-75834964D01*
X147411209Y-75868911D01*
X147466757Y-75952045D01*
X147467238Y-75952764D01*
X147551085Y-76008789D01*
X147551086Y-76008789D01*
X147551089Y-76008791D01*
X147625035Y-76023500D01*
X149374964Y-76023499D01*
X149448911Y-76008791D01*
X149532763Y-75952763D01*
X149588791Y-75868911D01*
X149603500Y-75794965D01*
X149603499Y-74085035D01*
X152396500Y-74085035D01*
X152396500Y-74085038D01*
X152396500Y-74085039D01*
X152396500Y-75834963D01*
X152411209Y-75908911D01*
X152467238Y-75992764D01*
X152551085Y-76048789D01*
X152551086Y-76048789D01*
X152551089Y-76048791D01*
X152625035Y-76063500D01*
X154374964Y-76063499D01*
X154448911Y-76048791D01*
X154532763Y-75992763D01*
X154588791Y-75908911D01*
X154603500Y-75834965D01*
X154603499Y-74085036D01*
X154595543Y-74045035D01*
X157396500Y-74045035D01*
X157396500Y-74045038D01*
X157396500Y-74045039D01*
X157396500Y-75794963D01*
X157404457Y-75834964D01*
X157411209Y-75868911D01*
X157466757Y-75952045D01*
X157467238Y-75952764D01*
X157551085Y-76008789D01*
X157551086Y-76008789D01*
X157551089Y-76008791D01*
X157625035Y-76023500D01*
X159374964Y-76023499D01*
X159448911Y-76008791D01*
X159532763Y-75952763D01*
X159588791Y-75868911D01*
X159603500Y-75794965D01*
X159603499Y-74879994D01*
X179641861Y-74879994D01*
X179641861Y-74880005D01*
X179660382Y-75103533D01*
X179660383Y-75103538D01*
X179660383Y-75103541D01*
X179660384Y-75103542D01*
X179692740Y-75231313D01*
X179715451Y-75320993D01*
X179742588Y-75382859D01*
X179805552Y-75526403D01*
X179923284Y-75706605D01*
X179928239Y-75714189D01*
X179928240Y-75714190D01*
X180080154Y-75879213D01*
X180080160Y-75879218D01*
X180174653Y-75952764D01*
X180257168Y-76016988D01*
X180257172Y-76016990D01*
X180298997Y-76039625D01*
X180349188Y-76089439D01*
X180364479Y-76158481D01*
X180340016Y-76224830D01*
X180298999Y-76260372D01*
X180257172Y-76283008D01*
X180257167Y-76283011D01*
X180080160Y-76420780D01*
X180080154Y-76420785D01*
X179928240Y-76585808D01*
X179928239Y-76585809D01*
X179864825Y-76682870D01*
X179805552Y-76773596D01*
X179805550Y-76773598D01*
X179805548Y-76773603D01*
X179715451Y-76979005D01*
X179715449Y-76979010D01*
X179715449Y-76979012D01*
X179688679Y-77084722D01*
X179660383Y-77196460D01*
X179660382Y-77196465D01*
X179641861Y-77419993D01*
X179641861Y-77420004D01*
X179660382Y-77643532D01*
X179660383Y-77643537D01*
X179660383Y-77643540D01*
X179660384Y-77643541D01*
X179675579Y-77703546D01*
X179715451Y-77860992D01*
X179805548Y-78066394D01*
X179805552Y-78066402D01*
X179923063Y-78246266D01*
X179928239Y-78254188D01*
X179928240Y-78254189D01*
X180080154Y-78419212D01*
X180080160Y-78419217D01*
X180174650Y-78492761D01*
X180257168Y-78556987D01*
X180257172Y-78556989D01*
X180298999Y-78579625D01*
X180349190Y-78629439D01*
X180364481Y-78698481D01*
X180340018Y-78764830D01*
X180299001Y-78800372D01*
X180257172Y-78823009D01*
X180257167Y-78823012D01*
X180080160Y-78960781D01*
X180080154Y-78960786D01*
X179928240Y-79125809D01*
X179928239Y-79125810D01*
X179899401Y-79169950D01*
X179805552Y-79313597D01*
X179805550Y-79313599D01*
X179805548Y-79313604D01*
X179715451Y-79519006D01*
X179715449Y-79519011D01*
X179715449Y-79519013D01*
X179704413Y-79562593D01*
X179660383Y-79736461D01*
X179660382Y-79736466D01*
X179641861Y-79959994D01*
X179641861Y-79960005D01*
X179660382Y-80183533D01*
X179660383Y-80183538D01*
X179660383Y-80183541D01*
X179660384Y-80183542D01*
X179715283Y-80400333D01*
X179715451Y-80400993D01*
X179805548Y-80606395D01*
X179805552Y-80606403D01*
X179923063Y-80786266D01*
X179928239Y-80794189D01*
X179928240Y-80794190D01*
X180080154Y-80959213D01*
X180080160Y-80959218D01*
X180173721Y-81032039D01*
X180257168Y-81096988D01*
X180257172Y-81096990D01*
X180298999Y-81119626D01*
X180349190Y-81169440D01*
X180364481Y-81238482D01*
X180340018Y-81304831D01*
X180298999Y-81340374D01*
X180257172Y-81363009D01*
X180257167Y-81363012D01*
X180080160Y-81500781D01*
X180080154Y-81500786D01*
X179928240Y-81665809D01*
X179928239Y-81665810D01*
X179864825Y-81762871D01*
X179805552Y-81853597D01*
X179805550Y-81853599D01*
X179805548Y-81853604D01*
X179715451Y-82059006D01*
X179715449Y-82059011D01*
X179715449Y-82059013D01*
X179709272Y-82083407D01*
X179660383Y-82276461D01*
X179660382Y-82276466D01*
X179641861Y-82499994D01*
X179641861Y-82500005D01*
X179660382Y-82723533D01*
X179660383Y-82723538D01*
X179660383Y-82723541D01*
X179660384Y-82723542D01*
X179715283Y-82940333D01*
X179715451Y-82940993D01*
X179805548Y-83146395D01*
X179805552Y-83146403D01*
X179923063Y-83326266D01*
X179928239Y-83334189D01*
X179928240Y-83334190D01*
X180080154Y-83499213D01*
X180080160Y-83499218D01*
X180173721Y-83572039D01*
X180257168Y-83636988D01*
X180257172Y-83636990D01*
X180298999Y-83659626D01*
X180349190Y-83709440D01*
X180364481Y-83778482D01*
X180340018Y-83844831D01*
X180298999Y-83880374D01*
X180257172Y-83903009D01*
X180257167Y-83903012D01*
X180080160Y-84040781D01*
X180080154Y-84040786D01*
X179928240Y-84205809D01*
X179928239Y-84205810D01*
X179903524Y-84243640D01*
X179805552Y-84393597D01*
X179805550Y-84393599D01*
X179805548Y-84393604D01*
X179715451Y-84599006D01*
X179715449Y-84599011D01*
X179715449Y-84599013D01*
X179709272Y-84623407D01*
X179660383Y-84816461D01*
X179660382Y-84816466D01*
X179641861Y-85039994D01*
X179641861Y-85040005D01*
X179660382Y-85263533D01*
X179660383Y-85263538D01*
X179660383Y-85263541D01*
X179660384Y-85263542D01*
X179715283Y-85480333D01*
X179715451Y-85480993D01*
X179805548Y-85686395D01*
X179805552Y-85686403D01*
X179923063Y-85866266D01*
X179928239Y-85874189D01*
X179928240Y-85874190D01*
X180080154Y-86039213D01*
X180080160Y-86039218D01*
X180173721Y-86112039D01*
X180257168Y-86176988D01*
X180257172Y-86176990D01*
X180298999Y-86199626D01*
X180349190Y-86249440D01*
X180364481Y-86318482D01*
X180340018Y-86384831D01*
X180298999Y-86420374D01*
X180257172Y-86443009D01*
X180257167Y-86443012D01*
X180080160Y-86580781D01*
X180080154Y-86580786D01*
X179928240Y-86745809D01*
X179928239Y-86745810D01*
X179903524Y-86783640D01*
X179805552Y-86933597D01*
X179805550Y-86933599D01*
X179805548Y-86933604D01*
X179715451Y-87139006D01*
X179715449Y-87139011D01*
X179715449Y-87139013D01*
X179709272Y-87163407D01*
X179660383Y-87356461D01*
X179660382Y-87356466D01*
X179641861Y-87579994D01*
X179641861Y-87580005D01*
X179660382Y-87803533D01*
X179660383Y-87803538D01*
X179660383Y-87803541D01*
X179660384Y-87803542D01*
X179715283Y-88020333D01*
X179715451Y-88020993D01*
X179805548Y-88226395D01*
X179805552Y-88226403D01*
X179923063Y-88406266D01*
X179928239Y-88414189D01*
X179928240Y-88414190D01*
X180080154Y-88579213D01*
X180080160Y-88579218D01*
X180173721Y-88652039D01*
X180257168Y-88716988D01*
X180257172Y-88716990D01*
X180298999Y-88739626D01*
X180349190Y-88789440D01*
X180364481Y-88858482D01*
X180340018Y-88924831D01*
X180299001Y-88960373D01*
X180257172Y-88983010D01*
X180257167Y-88983013D01*
X180080160Y-89120782D01*
X180080154Y-89120787D01*
X179928240Y-89285810D01*
X179928239Y-89285811D01*
X179864825Y-89382872D01*
X179805552Y-89473598D01*
X179805550Y-89473600D01*
X179805548Y-89473605D01*
X179715451Y-89679007D01*
X179660383Y-89896462D01*
X179660382Y-89896467D01*
X179641861Y-90119995D01*
X179641861Y-90120006D01*
X179660382Y-90343534D01*
X179660383Y-90343539D01*
X179660383Y-90343542D01*
X179660384Y-90343543D01*
X179715285Y-90560342D01*
X179715451Y-90560994D01*
X179795465Y-90743408D01*
X179805552Y-90766404D01*
X179923285Y-90946608D01*
X179928239Y-90954190D01*
X179928240Y-90954191D01*
X180080154Y-91119214D01*
X180080160Y-91119219D01*
X180132556Y-91160000D01*
X180257168Y-91256989D01*
X180257172Y-91256991D01*
X180298997Y-91279626D01*
X180349188Y-91329440D01*
X180364479Y-91398482D01*
X180340016Y-91464831D01*
X180298999Y-91500373D01*
X180257172Y-91523009D01*
X180257167Y-91523012D01*
X180080160Y-91660781D01*
X180080154Y-91660786D01*
X179928240Y-91825809D01*
X179928239Y-91825810D01*
X179908767Y-91855615D01*
X179805552Y-92013597D01*
X179805550Y-92013599D01*
X179805548Y-92013604D01*
X179715451Y-92219006D01*
X179715449Y-92219011D01*
X179715449Y-92219013D01*
X179709339Y-92243141D01*
X179660383Y-92436461D01*
X179660382Y-92436466D01*
X179641861Y-92659994D01*
X179641861Y-92660005D01*
X179660382Y-92883533D01*
X179660383Y-92883538D01*
X179660383Y-92883541D01*
X179660384Y-92883542D01*
X179715283Y-93100333D01*
X179715451Y-93100993D01*
X179805548Y-93306395D01*
X179805552Y-93306403D01*
X179897151Y-93446605D01*
X179928239Y-93494189D01*
X179928240Y-93494190D01*
X180080154Y-93659213D01*
X180080160Y-93659218D01*
X180173721Y-93732039D01*
X180257168Y-93796988D01*
X180257172Y-93796990D01*
X180298999Y-93819626D01*
X180349190Y-93869440D01*
X180364481Y-93938482D01*
X180340018Y-94004831D01*
X180298999Y-94040374D01*
X180257172Y-94063009D01*
X180257167Y-94063012D01*
X180080160Y-94200781D01*
X180080154Y-94200786D01*
X179928240Y-94365809D01*
X179928239Y-94365810D01*
X179908767Y-94395615D01*
X179805552Y-94553597D01*
X179805550Y-94553599D01*
X179805548Y-94553604D01*
X179715451Y-94759006D01*
X179715449Y-94759011D01*
X179715449Y-94759013D01*
X179701505Y-94814075D01*
X179660383Y-94976461D01*
X179660382Y-94976466D01*
X179641861Y-95199994D01*
X179641861Y-95200005D01*
X179660382Y-95423533D01*
X179660383Y-95423538D01*
X179660383Y-95423541D01*
X179660384Y-95423542D01*
X179715283Y-95640333D01*
X179715451Y-95640993D01*
X179805548Y-95846395D01*
X179805552Y-95846403D01*
X179897151Y-95986605D01*
X179928239Y-96034189D01*
X179928240Y-96034190D01*
X180080154Y-96199213D01*
X180080160Y-96199218D01*
X180173721Y-96272039D01*
X180257168Y-96336988D01*
X180279042Y-96348825D01*
X180299524Y-96359910D01*
X180349715Y-96409724D01*
X180365006Y-96478766D01*
X180340543Y-96545115D01*
X180299526Y-96580657D01*
X180257442Y-96603432D01*
X180257436Y-96603436D01*
X180136479Y-96697580D01*
X180710788Y-97271890D01*
X180662292Y-97299890D01*
X180559890Y-97402292D01*
X180531890Y-97450788D01*
X179956716Y-96875615D01*
X179928638Y-96906117D01*
X179928634Y-96906122D01*
X179805995Y-97093833D01*
X179805992Y-97093838D01*
X179715925Y-97299171D01*
X179660878Y-97516543D01*
X179660877Y-97516548D01*
X179642363Y-97739994D01*
X179642363Y-97740005D01*
X179660877Y-97963451D01*
X179660878Y-97963456D01*
X179715925Y-98180828D01*
X179805992Y-98386161D01*
X179805995Y-98386166D01*
X179928630Y-98573873D01*
X179928637Y-98573881D01*
X179956716Y-98604383D01*
X179956717Y-98604383D01*
X180531890Y-98029209D01*
X180559890Y-98077708D01*
X180662292Y-98180110D01*
X180710788Y-98208108D01*
X180136479Y-98782417D01*
X180136479Y-98782418D01*
X180257443Y-98876568D01*
X180300049Y-98899625D01*
X180350240Y-98949439D01*
X180365531Y-99018481D01*
X180341068Y-99084830D01*
X180300051Y-99120372D01*
X180257441Y-99143431D01*
X180257436Y-99143435D01*
X180136479Y-99237579D01*
X180710788Y-99811889D01*
X180662292Y-99839889D01*
X180559890Y-99942291D01*
X180531890Y-99990787D01*
X179956716Y-99415614D01*
X179928638Y-99446116D01*
X179928634Y-99446121D01*
X179805995Y-99633832D01*
X179805992Y-99633837D01*
X179715925Y-99839170D01*
X179660878Y-100056542D01*
X179660877Y-100056547D01*
X179642363Y-100279993D01*
X179642363Y-100280004D01*
X179660877Y-100503450D01*
X179660878Y-100503455D01*
X179715925Y-100720827D01*
X179805992Y-100926160D01*
X179805995Y-100926165D01*
X179928630Y-101113872D01*
X179928637Y-101113880D01*
X179956716Y-101144382D01*
X179956717Y-101144382D01*
X180531890Y-100569208D01*
X180559890Y-100617707D01*
X180662292Y-100720109D01*
X180710788Y-100748107D01*
X180136479Y-101322416D01*
X180136479Y-101322417D01*
X180257440Y-101416565D01*
X180454645Y-101523287D01*
X180454648Y-101523289D01*
X180666718Y-101596093D01*
X180887877Y-101632998D01*
X180887889Y-101632999D01*
X181112111Y-101632999D01*
X181112122Y-101632998D01*
X181333281Y-101596093D01*
X181545351Y-101523289D01*
X181545354Y-101523287D01*
X181742558Y-101416565D01*
X181863519Y-101322416D01*
X181289211Y-100748108D01*
X181337708Y-100720109D01*
X181440110Y-100617707D01*
X181468109Y-100569209D01*
X182043282Y-101144382D01*
X182071360Y-101113884D01*
X182071367Y-101113875D01*
X182194004Y-100926165D01*
X182194007Y-100926160D01*
X182284074Y-100720827D01*
X182339121Y-100503455D01*
X182339122Y-100503450D01*
X182357637Y-100280004D01*
X182357637Y-100279993D01*
X182339122Y-100056547D01*
X182339121Y-100056542D01*
X182284074Y-99839170D01*
X182194007Y-99633837D01*
X182194004Y-99633832D01*
X182071369Y-99446125D01*
X182071362Y-99446117D01*
X182043282Y-99415614D01*
X181468108Y-99990787D01*
X181440110Y-99942291D01*
X181337708Y-99839889D01*
X181289209Y-99811888D01*
X181863519Y-99237579D01*
X181742558Y-99143432D01*
X181742559Y-99143432D01*
X181699949Y-99120373D01*
X181649759Y-99070558D01*
X181634468Y-99001516D01*
X181658931Y-98935167D01*
X181699951Y-98899624D01*
X181742558Y-98876566D01*
X181863519Y-98782417D01*
X181289211Y-98208109D01*
X181337708Y-98180110D01*
X181440110Y-98077708D01*
X181468109Y-98029210D01*
X182043282Y-98604383D01*
X182071360Y-98573885D01*
X182071367Y-98573876D01*
X182194004Y-98386166D01*
X182194007Y-98386161D01*
X182284074Y-98180828D01*
X182339121Y-97963456D01*
X182339122Y-97963451D01*
X182357637Y-97740005D01*
X182357637Y-97739994D01*
X182339122Y-97516548D01*
X182339121Y-97516543D01*
X182284074Y-97299171D01*
X182194007Y-97093838D01*
X182194004Y-97093833D01*
X182071369Y-96906126D01*
X182071362Y-96906118D01*
X182043282Y-96875615D01*
X181468108Y-97450788D01*
X181440110Y-97402292D01*
X181337708Y-97299890D01*
X181289209Y-97271889D01*
X181863519Y-96697580D01*
X181742558Y-96603433D01*
X181742559Y-96603433D01*
X181700474Y-96580658D01*
X181650284Y-96530843D01*
X181634993Y-96461801D01*
X181659457Y-96395452D01*
X181700473Y-96359911D01*
X181742832Y-96336988D01*
X181919843Y-96199215D01*
X182071763Y-96034186D01*
X182194448Y-95846403D01*
X182284551Y-95640987D01*
X182339616Y-95423542D01*
X182354825Y-95240000D01*
X182358139Y-95200005D01*
X182358139Y-95199994D01*
X182339617Y-94976466D01*
X182339616Y-94976461D01*
X182339616Y-94976458D01*
X182284551Y-94759013D01*
X182194448Y-94553597D01*
X182071763Y-94365814D01*
X182071761Y-94365812D01*
X182071760Y-94365810D01*
X182071759Y-94365809D01*
X181919845Y-94200786D01*
X181919839Y-94200781D01*
X181742832Y-94063012D01*
X181742827Y-94063009D01*
X181701001Y-94040374D01*
X181650810Y-93990560D01*
X181635519Y-93921518D01*
X181659982Y-93855169D01*
X181701001Y-93819626D01*
X181712544Y-93813378D01*
X181742832Y-93796988D01*
X181919843Y-93659215D01*
X182071763Y-93494186D01*
X182194448Y-93306403D01*
X182284551Y-93100987D01*
X182339616Y-92883542D01*
X182346056Y-92805826D01*
X182358139Y-92660005D01*
X182358139Y-92659994D01*
X182339617Y-92436466D01*
X182339616Y-92436461D01*
X182339616Y-92436458D01*
X182284551Y-92219013D01*
X182194448Y-92013597D01*
X182071763Y-91825814D01*
X182071761Y-91825812D01*
X182071760Y-91825810D01*
X182071759Y-91825809D01*
X181919845Y-91660786D01*
X181919839Y-91660781D01*
X181742832Y-91523012D01*
X181701001Y-91500374D01*
X181650811Y-91450559D01*
X181635520Y-91381517D01*
X181659984Y-91315168D01*
X181701001Y-91279626D01*
X181742832Y-91256989D01*
X181919843Y-91119216D01*
X182071763Y-90954187D01*
X182194448Y-90766404D01*
X182284551Y-90560988D01*
X182339616Y-90343543D01*
X182349563Y-90223500D01*
X182358139Y-90120006D01*
X182358139Y-90119995D01*
X182339617Y-89896467D01*
X182339616Y-89896462D01*
X182339616Y-89896459D01*
X182284551Y-89679014D01*
X182194448Y-89473598D01*
X182071763Y-89285815D01*
X182071761Y-89285813D01*
X182071760Y-89285811D01*
X182071759Y-89285810D01*
X181919845Y-89120787D01*
X181919839Y-89120782D01*
X181742832Y-88983013D01*
X181700999Y-88960374D01*
X181650809Y-88910559D01*
X181635518Y-88841517D01*
X181659981Y-88775168D01*
X181700998Y-88739626D01*
X181742832Y-88716988D01*
X181919843Y-88579215D01*
X182071763Y-88414186D01*
X182194448Y-88226403D01*
X182284551Y-88020987D01*
X182339616Y-87803542D01*
X182354825Y-87620000D01*
X182358139Y-87580005D01*
X182358139Y-87579994D01*
X182339617Y-87356466D01*
X182339616Y-87356461D01*
X182339616Y-87356458D01*
X182284551Y-87139013D01*
X182194448Y-86933597D01*
X182071763Y-86745814D01*
X182071761Y-86745812D01*
X182071760Y-86745810D01*
X182071759Y-86745809D01*
X181919845Y-86580786D01*
X181919839Y-86580781D01*
X181742832Y-86443012D01*
X181742827Y-86443009D01*
X181701001Y-86420374D01*
X181650810Y-86370560D01*
X181635519Y-86301518D01*
X181659982Y-86235169D01*
X181701001Y-86199626D01*
X181712544Y-86193378D01*
X181742832Y-86176988D01*
X181919843Y-86039215D01*
X182071763Y-85874186D01*
X182194448Y-85686403D01*
X182284551Y-85480987D01*
X182339616Y-85263542D01*
X182346056Y-85185826D01*
X182358139Y-85040005D01*
X182358139Y-85039994D01*
X182339617Y-84816466D01*
X182339616Y-84816461D01*
X182339616Y-84816458D01*
X182284551Y-84599013D01*
X182194448Y-84393597D01*
X182071763Y-84205814D01*
X182071761Y-84205812D01*
X182071760Y-84205810D01*
X182071759Y-84205809D01*
X181919845Y-84040786D01*
X181919839Y-84040781D01*
X181742832Y-83903012D01*
X181742827Y-83903009D01*
X181701001Y-83880374D01*
X181650810Y-83830560D01*
X181635519Y-83761518D01*
X181659982Y-83695169D01*
X181701001Y-83659626D01*
X181712544Y-83653378D01*
X181742832Y-83636988D01*
X181919843Y-83499215D01*
X182071763Y-83334186D01*
X182194448Y-83146403D01*
X182284551Y-82940987D01*
X182339616Y-82723542D01*
X182352677Y-82565921D01*
X182358139Y-82500005D01*
X182358139Y-82499994D01*
X182339617Y-82276466D01*
X182339616Y-82276461D01*
X182339616Y-82276458D01*
X182284551Y-82059013D01*
X182194448Y-81853597D01*
X182071763Y-81665814D01*
X182071761Y-81665812D01*
X182071760Y-81665810D01*
X182071759Y-81665809D01*
X181919845Y-81500786D01*
X181919839Y-81500781D01*
X181742832Y-81363012D01*
X181742827Y-81363009D01*
X181701001Y-81340374D01*
X181650810Y-81290560D01*
X181635519Y-81221518D01*
X181659982Y-81155169D01*
X181701001Y-81119626D01*
X181712544Y-81113378D01*
X181742832Y-81096988D01*
X181919843Y-80959215D01*
X182071763Y-80794186D01*
X182194448Y-80606403D01*
X182284551Y-80400987D01*
X182339616Y-80183542D01*
X182354071Y-80009093D01*
X182358139Y-79960005D01*
X182358139Y-79959994D01*
X182339617Y-79736466D01*
X182339616Y-79736461D01*
X182339616Y-79736458D01*
X182284551Y-79519013D01*
X182194448Y-79313597D01*
X182071763Y-79125814D01*
X182071761Y-79125812D01*
X182071760Y-79125810D01*
X182071759Y-79125809D01*
X181919845Y-78960786D01*
X181919839Y-78960781D01*
X181742832Y-78823012D01*
X181700999Y-78800373D01*
X181650809Y-78750558D01*
X181635518Y-78681516D01*
X181659981Y-78615167D01*
X181700998Y-78579625D01*
X181742832Y-78556987D01*
X181919843Y-78419214D01*
X182071763Y-78254185D01*
X182194448Y-78066402D01*
X182284551Y-77860986D01*
X182339616Y-77643541D01*
X182353770Y-77472726D01*
X182358139Y-77420004D01*
X182358139Y-77419993D01*
X182339617Y-77196465D01*
X182339616Y-77196460D01*
X182339616Y-77196457D01*
X182284551Y-76979012D01*
X182194448Y-76773596D01*
X182071763Y-76585813D01*
X182071761Y-76585811D01*
X182071760Y-76585809D01*
X182071759Y-76585808D01*
X181919845Y-76420785D01*
X181919839Y-76420780D01*
X181742832Y-76283011D01*
X181701001Y-76260373D01*
X181650811Y-76210558D01*
X181635520Y-76141516D01*
X181659984Y-76075167D01*
X181701001Y-76039625D01*
X181742832Y-76016988D01*
X181919843Y-75879215D01*
X182071763Y-75714186D01*
X182194448Y-75526403D01*
X182284551Y-75320987D01*
X182339616Y-75103542D01*
X182351510Y-74960000D01*
X182358139Y-74880005D01*
X182358139Y-74879994D01*
X182339617Y-74656466D01*
X182339616Y-74656461D01*
X182339616Y-74656458D01*
X182284551Y-74439013D01*
X182194448Y-74233597D01*
X182071763Y-74045814D01*
X182071761Y-74045812D01*
X182071760Y-74045810D01*
X182071759Y-74045809D01*
X181941213Y-73903998D01*
X181909916Y-73840585D01*
X181917872Y-73770319D01*
X181962553Y-73715509D01*
X182029774Y-73693556D01*
X182033546Y-73693499D01*
X182124964Y-73693499D01*
X182198911Y-73678791D01*
X182282763Y-73622763D01*
X182338791Y-73538911D01*
X182353500Y-73464965D01*
X182353500Y-72399995D01*
X193194532Y-72399995D01*
X193194532Y-72400004D01*
X193214363Y-72626687D01*
X193267484Y-72824936D01*
X193273261Y-72846496D01*
X193369432Y-73052734D01*
X193499953Y-73239139D01*
X193660861Y-73400047D01*
X193847266Y-73530568D01*
X193898458Y-73554439D01*
X193951532Y-73601170D01*
X193970916Y-73669176D01*
X193950456Y-73736866D01*
X193898460Y-73781922D01*
X193847268Y-73805793D01*
X193660859Y-73936317D01*
X193499954Y-74097222D01*
X193369432Y-74283628D01*
X193273260Y-74489870D01*
X193214363Y-74709675D01*
X193194532Y-74936358D01*
X193194532Y-74936367D01*
X193214363Y-75163050D01*
X193256684Y-75320993D01*
X193273261Y-75382859D01*
X193369432Y-75589097D01*
X193499953Y-75775502D01*
X193660861Y-75936410D01*
X193847266Y-76066931D01*
X193898458Y-76090802D01*
X193951532Y-76137533D01*
X193970916Y-76205539D01*
X193950456Y-76273229D01*
X193898460Y-76318285D01*
X193847268Y-76342156D01*
X193660859Y-76472680D01*
X193499954Y-76633585D01*
X193369432Y-76819991D01*
X193369432Y-76819992D01*
X193285493Y-77000000D01*
X193273260Y-77026233D01*
X193214363Y-77246038D01*
X193194532Y-77472721D01*
X193194532Y-77472730D01*
X193214363Y-77699413D01*
X193243193Y-77807007D01*
X193273261Y-77919222D01*
X193369432Y-78125460D01*
X193499953Y-78311865D01*
X193660861Y-78472773D01*
X193847266Y-78603294D01*
X193898458Y-78627165D01*
X193951532Y-78673896D01*
X193970916Y-78741902D01*
X193950456Y-78809592D01*
X193898460Y-78854648D01*
X193847268Y-78878519D01*
X193660859Y-79009043D01*
X193499954Y-79169948D01*
X193369432Y-79356354D01*
X193369432Y-79356355D01*
X193283797Y-79540000D01*
X193273260Y-79562596D01*
X193214363Y-79782401D01*
X193194532Y-80009084D01*
X193194532Y-80009093D01*
X193214363Y-80235776D01*
X193261371Y-80411210D01*
X193273261Y-80455585D01*
X193369432Y-80661823D01*
X193499953Y-80848228D01*
X193660861Y-81009136D01*
X193847266Y-81139657D01*
X193898458Y-81163528D01*
X193951532Y-81210259D01*
X193970916Y-81278265D01*
X193950456Y-81345955D01*
X193898460Y-81391011D01*
X193847268Y-81414882D01*
X193660859Y-81545406D01*
X193499954Y-81706311D01*
X193369432Y-81892717D01*
X193339647Y-81956591D01*
X193280512Y-82083408D01*
X193273260Y-82098959D01*
X193214363Y-82318764D01*
X193194532Y-82545447D01*
X193194532Y-82545456D01*
X193214363Y-82772139D01*
X193245142Y-82887007D01*
X193273261Y-82991948D01*
X193369432Y-83198186D01*
X193499953Y-83384591D01*
X193660861Y-83545499D01*
X193847266Y-83676020D01*
X193898458Y-83699891D01*
X193951532Y-83746622D01*
X193970916Y-83814628D01*
X193950456Y-83882318D01*
X193898460Y-83927374D01*
X193847268Y-83951245D01*
X193660859Y-84081769D01*
X193499954Y-84242674D01*
X193369432Y-84429080D01*
X193337951Y-84496591D01*
X193278816Y-84623408D01*
X193273260Y-84635322D01*
X193214363Y-84855127D01*
X193194532Y-85081810D01*
X193194532Y-85081819D01*
X193214363Y-85308502D01*
X193246117Y-85427007D01*
X193273261Y-85528311D01*
X193369432Y-85734549D01*
X193499953Y-85920954D01*
X193660861Y-86081862D01*
X193847266Y-86212383D01*
X193898458Y-86236254D01*
X193951532Y-86282985D01*
X193970916Y-86350991D01*
X193950456Y-86418681D01*
X193898460Y-86463737D01*
X193847268Y-86487608D01*
X193660859Y-86618132D01*
X193499954Y-86779037D01*
X193369432Y-86965443D01*
X193336255Y-87036591D01*
X193277120Y-87163408D01*
X193273260Y-87171685D01*
X193214363Y-87391490D01*
X193194532Y-87618173D01*
X193194532Y-87618182D01*
X193214363Y-87844865D01*
X193247091Y-87967007D01*
X193273261Y-88064674D01*
X193369432Y-88270912D01*
X193499953Y-88457317D01*
X193660861Y-88618225D01*
X193847266Y-88748746D01*
X193898458Y-88772617D01*
X193951532Y-88819348D01*
X193970916Y-88887354D01*
X193950456Y-88955044D01*
X193898460Y-89000100D01*
X193847268Y-89023971D01*
X193660859Y-89154495D01*
X193499954Y-89315400D01*
X193369432Y-89501806D01*
X193360789Y-89520342D01*
X193275424Y-89703408D01*
X193273260Y-89708048D01*
X193214363Y-89927853D01*
X193194532Y-90154536D01*
X193194532Y-90154545D01*
X193214363Y-90381228D01*
X193248066Y-90507007D01*
X193273261Y-90601037D01*
X193369432Y-90807275D01*
X193499953Y-90993680D01*
X193660861Y-91154588D01*
X193847266Y-91285109D01*
X193898458Y-91308980D01*
X193951532Y-91355711D01*
X193970916Y-91423717D01*
X193950456Y-91491407D01*
X193898460Y-91536463D01*
X193847268Y-91560334D01*
X193660859Y-91690858D01*
X193499954Y-91851763D01*
X193369432Y-92038169D01*
X193328511Y-92125925D01*
X193273851Y-92243144D01*
X193273260Y-92244411D01*
X193214363Y-92464216D01*
X193194532Y-92690899D01*
X193194532Y-92690908D01*
X193214363Y-92917591D01*
X193249040Y-93047007D01*
X193273261Y-93137400D01*
X193369432Y-93343638D01*
X193499953Y-93530043D01*
X193660861Y-93690951D01*
X193847266Y-93821472D01*
X193898458Y-93845343D01*
X193951532Y-93892074D01*
X193970916Y-93960080D01*
X193950456Y-94027770D01*
X193898460Y-94072826D01*
X193847268Y-94096697D01*
X193660859Y-94227221D01*
X193499954Y-94388126D01*
X193369432Y-94574532D01*
X193317601Y-94685683D01*
X193283411Y-94759006D01*
X193273260Y-94780774D01*
X193214363Y-95000579D01*
X193194532Y-95227262D01*
X193194532Y-95227271D01*
X193214363Y-95453954D01*
X193264305Y-95640338D01*
X193273261Y-95673763D01*
X193369432Y-95880001D01*
X193499953Y-96066406D01*
X193660861Y-96227314D01*
X193847266Y-96357835D01*
X193898458Y-96381706D01*
X193951532Y-96428437D01*
X193970916Y-96496443D01*
X193950456Y-96564133D01*
X193898460Y-96609189D01*
X193847268Y-96633060D01*
X193660859Y-96763584D01*
X193499954Y-96924489D01*
X193369432Y-97110895D01*
X193369432Y-97110896D01*
X193274688Y-97314075D01*
X193273260Y-97317137D01*
X193214363Y-97536942D01*
X193194532Y-97763625D01*
X193194532Y-97763634D01*
X193214363Y-97990317D01*
X193250989Y-98127007D01*
X193273261Y-98210126D01*
X193369432Y-98416364D01*
X193499953Y-98602769D01*
X193660861Y-98763677D01*
X193835445Y-98885921D01*
X193847269Y-98894200D01*
X193898466Y-98918074D01*
X193951540Y-98964805D01*
X193970923Y-99032811D01*
X193950462Y-99100501D01*
X193898466Y-99145556D01*
X193847269Y-99169429D01*
X193660859Y-99299954D01*
X193499954Y-99460859D01*
X193369432Y-99647265D01*
X193273260Y-99853507D01*
X193214363Y-100073312D01*
X193194532Y-100299995D01*
X193194532Y-100300004D01*
X193214363Y-100526687D01*
X193238752Y-100617707D01*
X193273261Y-100746496D01*
X193369432Y-100952734D01*
X193499953Y-101139139D01*
X193660861Y-101300047D01*
X193847266Y-101430568D01*
X194053504Y-101526739D01*
X194273308Y-101585635D01*
X194273312Y-101585636D01*
X194499995Y-101605468D01*
X194500000Y-101605468D01*
X194500005Y-101605468D01*
X194726687Y-101585636D01*
X194726690Y-101585635D01*
X194726692Y-101585635D01*
X194946496Y-101526739D01*
X195152734Y-101430568D01*
X195339139Y-101300047D01*
X195500047Y-101139139D01*
X195630568Y-100952734D01*
X195726739Y-100746496D01*
X195785635Y-100526692D01*
X195785635Y-100526690D01*
X195785636Y-100526687D01*
X195805468Y-100300004D01*
X195805468Y-100299995D01*
X195785636Y-100073312D01*
X195781144Y-100056547D01*
X195726739Y-99853504D01*
X195630568Y-99647266D01*
X195500047Y-99460861D01*
X195339139Y-99299953D01*
X195152734Y-99169432D01*
X195101533Y-99145556D01*
X195048460Y-99098826D01*
X195029076Y-99030820D01*
X195049536Y-98963129D01*
X195101534Y-98918073D01*
X195152734Y-98894198D01*
X195339139Y-98763677D01*
X195500047Y-98602769D01*
X195630568Y-98416364D01*
X195726739Y-98210126D01*
X195785635Y-97990322D01*
X195785635Y-97990320D01*
X195785636Y-97990317D01*
X195805468Y-97763634D01*
X195805468Y-97763625D01*
X195785636Y-97536942D01*
X195783162Y-97527708D01*
X195726739Y-97317134D01*
X195630568Y-97110896D01*
X195500047Y-96924491D01*
X195339139Y-96763583D01*
X195152734Y-96633062D01*
X195101539Y-96609189D01*
X195048467Y-96562458D01*
X195029083Y-96494452D01*
X195049543Y-96426762D01*
X195101541Y-96381706D01*
X195148284Y-96359910D01*
X195152730Y-96357837D01*
X195152730Y-96357836D01*
X195152734Y-96357835D01*
X195339139Y-96227314D01*
X195500047Y-96066406D01*
X195630568Y-95880001D01*
X195726739Y-95673763D01*
X195785635Y-95453959D01*
X195785635Y-95453957D01*
X195785636Y-95453954D01*
X195805468Y-95227271D01*
X195805468Y-95227262D01*
X195785636Y-95000579D01*
X195778244Y-94972993D01*
X195726739Y-94780771D01*
X195630568Y-94574533D01*
X195500047Y-94388128D01*
X195339139Y-94227220D01*
X195152734Y-94096699D01*
X195101539Y-94072826D01*
X195048467Y-94026095D01*
X195029083Y-93958089D01*
X195049543Y-93890399D01*
X195101541Y-93845343D01*
X195152734Y-93821472D01*
X195339139Y-93690951D01*
X195500047Y-93530043D01*
X195630568Y-93343638D01*
X195726739Y-93137400D01*
X195785635Y-92917596D01*
X195785635Y-92917594D01*
X195785636Y-92917591D01*
X195805468Y-92690908D01*
X195805468Y-92690899D01*
X195785636Y-92464216D01*
X195785635Y-92464212D01*
X195726739Y-92244408D01*
X195630568Y-92038170D01*
X195500047Y-91851765D01*
X195339139Y-91690857D01*
X195152734Y-91560336D01*
X195101539Y-91536463D01*
X195048467Y-91489732D01*
X195029083Y-91421726D01*
X195049543Y-91354036D01*
X195101541Y-91308980D01*
X195152734Y-91285109D01*
X195339139Y-91154588D01*
X195500047Y-90993680D01*
X195630568Y-90807275D01*
X195726739Y-90601037D01*
X195785635Y-90381233D01*
X195785635Y-90381231D01*
X195785636Y-90381228D01*
X195805468Y-90154545D01*
X195805468Y-90154536D01*
X195785636Y-89927853D01*
X195777224Y-89896459D01*
X195726739Y-89708045D01*
X195630568Y-89501807D01*
X195500047Y-89315402D01*
X195339139Y-89154494D01*
X195152734Y-89023973D01*
X195101539Y-89000100D01*
X195048467Y-88953369D01*
X195029083Y-88885363D01*
X195049543Y-88817673D01*
X195101541Y-88772617D01*
X195152734Y-88748746D01*
X195339139Y-88618225D01*
X195500047Y-88457317D01*
X195630568Y-88270912D01*
X195726739Y-88064674D01*
X195785635Y-87844870D01*
X195785635Y-87844868D01*
X195785636Y-87844865D01*
X195805468Y-87618182D01*
X195805468Y-87618173D01*
X195785636Y-87391490D01*
X195785635Y-87391486D01*
X195726739Y-87171682D01*
X195630568Y-86965444D01*
X195500047Y-86779039D01*
X195339139Y-86618131D01*
X195152734Y-86487610D01*
X195101539Y-86463737D01*
X195048467Y-86417006D01*
X195029083Y-86349000D01*
X195049543Y-86281310D01*
X195101541Y-86236254D01*
X195152734Y-86212383D01*
X195339139Y-86081862D01*
X195500047Y-85920954D01*
X195630568Y-85734549D01*
X195726739Y-85528311D01*
X195785635Y-85308507D01*
X195785635Y-85308505D01*
X195785636Y-85308502D01*
X195805468Y-85081819D01*
X195805468Y-85081810D01*
X195785636Y-84855127D01*
X195785635Y-84855123D01*
X195726739Y-84635319D01*
X195630568Y-84429081D01*
X195500047Y-84242676D01*
X195339139Y-84081768D01*
X195152734Y-83951247D01*
X195101539Y-83927374D01*
X195048467Y-83880643D01*
X195029083Y-83812637D01*
X195049543Y-83744947D01*
X195101541Y-83699891D01*
X195152734Y-83676020D01*
X195339139Y-83545499D01*
X195500047Y-83384591D01*
X195630568Y-83198186D01*
X195726739Y-82991948D01*
X195785635Y-82772144D01*
X195785635Y-82772142D01*
X195785636Y-82772139D01*
X195805468Y-82545456D01*
X195805468Y-82545447D01*
X195785636Y-82318764D01*
X195785635Y-82318760D01*
X195726739Y-82098956D01*
X195630568Y-81892718D01*
X195500047Y-81706313D01*
X195339139Y-81545405D01*
X195152734Y-81414884D01*
X195101539Y-81391011D01*
X195048467Y-81344280D01*
X195029083Y-81276274D01*
X195049543Y-81208584D01*
X195101541Y-81163528D01*
X195152734Y-81139657D01*
X195339139Y-81009136D01*
X195500047Y-80848228D01*
X195630568Y-80661823D01*
X195726739Y-80455585D01*
X195785635Y-80235781D01*
X195785635Y-80235779D01*
X195785636Y-80235776D01*
X195805468Y-80009093D01*
X195805468Y-80009084D01*
X195785636Y-79782401D01*
X195785635Y-79782397D01*
X195726739Y-79562593D01*
X195630568Y-79356355D01*
X195500047Y-79169950D01*
X195339139Y-79009042D01*
X195152734Y-78878521D01*
X195101539Y-78854648D01*
X195048467Y-78807917D01*
X195029083Y-78739911D01*
X195049543Y-78672221D01*
X195101541Y-78627165D01*
X195139350Y-78609534D01*
X195152730Y-78603296D01*
X195152730Y-78603295D01*
X195152734Y-78603294D01*
X195339139Y-78472773D01*
X195500047Y-78311865D01*
X195630568Y-78125460D01*
X195726739Y-77919222D01*
X195785635Y-77699418D01*
X195785635Y-77699416D01*
X195785636Y-77699413D01*
X195805468Y-77472730D01*
X195805468Y-77472721D01*
X195785636Y-77246038D01*
X195785635Y-77246034D01*
X195726739Y-77026230D01*
X195630568Y-76819992D01*
X195500047Y-76633587D01*
X195339139Y-76472679D01*
X195152734Y-76342158D01*
X195101539Y-76318285D01*
X195048467Y-76271554D01*
X195029083Y-76203548D01*
X195049543Y-76135858D01*
X195101541Y-76090802D01*
X195152734Y-76066931D01*
X195339139Y-75936410D01*
X195500047Y-75775502D01*
X195630568Y-75589097D01*
X195726739Y-75382859D01*
X195785635Y-75163055D01*
X195785635Y-75163053D01*
X195785636Y-75163050D01*
X195805468Y-74936367D01*
X195805468Y-74936358D01*
X195785636Y-74709675D01*
X195785635Y-74709671D01*
X195726739Y-74489867D01*
X195630568Y-74283629D01*
X195500047Y-74097224D01*
X195339139Y-73936316D01*
X195152734Y-73805795D01*
X195101539Y-73781922D01*
X195048467Y-73735191D01*
X195029083Y-73667185D01*
X195049543Y-73599495D01*
X195101541Y-73554439D01*
X195152734Y-73530568D01*
X195339139Y-73400047D01*
X195500047Y-73239139D01*
X195630568Y-73052734D01*
X195726739Y-72846496D01*
X195785635Y-72626692D01*
X195785635Y-72626690D01*
X195785636Y-72626687D01*
X195805468Y-72400004D01*
X195805468Y-72399995D01*
X195785636Y-72173312D01*
X195785635Y-72173308D01*
X195726739Y-71953504D01*
X195630568Y-71747266D01*
X195500047Y-71560861D01*
X195339139Y-71399953D01*
X195152734Y-71269432D01*
X194946496Y-71173261D01*
X194924936Y-71167484D01*
X194726687Y-71114363D01*
X194500005Y-71094532D01*
X194499995Y-71094532D01*
X194273312Y-71114363D01*
X194053507Y-71173260D01*
X194053506Y-71173260D01*
X194053504Y-71173261D01*
X193963920Y-71215035D01*
X193847265Y-71269432D01*
X193660859Y-71399954D01*
X193499954Y-71560859D01*
X193369432Y-71747265D01*
X193273260Y-71953507D01*
X193214363Y-72173312D01*
X193194532Y-72399995D01*
X182353500Y-72399995D01*
X182353499Y-71215036D01*
X182338791Y-71141089D01*
X182282763Y-71057237D01*
X182282761Y-71057236D01*
X182282761Y-71057235D01*
X182198914Y-71001210D01*
X182198911Y-71001209D01*
X182124965Y-70986500D01*
X182124960Y-70986500D01*
X179875036Y-70986500D01*
X179801088Y-71001209D01*
X179717235Y-71057238D01*
X179661210Y-71141085D01*
X179661209Y-71141088D01*
X179661209Y-71141089D01*
X179646500Y-71215035D01*
X179646500Y-71215038D01*
X179646500Y-71215039D01*
X179646500Y-73464963D01*
X179659550Y-73530570D01*
X179661209Y-73538911D01*
X179671584Y-73554439D01*
X179717238Y-73622764D01*
X179801085Y-73678789D01*
X179801086Y-73678789D01*
X179801089Y-73678791D01*
X179875035Y-73693500D01*
X179966454Y-73693499D01*
X180034302Y-73713421D01*
X180080611Y-73766863D01*
X180090676Y-73836858D01*
X180061300Y-73901183D01*
X180058787Y-73903997D01*
X179928240Y-74045810D01*
X179928239Y-74045810D01*
X179902612Y-74085036D01*
X179805552Y-74233597D01*
X179805550Y-74233599D01*
X179805548Y-74233604D01*
X179715451Y-74439006D01*
X179660383Y-74656461D01*
X179660382Y-74656466D01*
X179641861Y-74879994D01*
X159603499Y-74879994D01*
X159603499Y-74045036D01*
X159588791Y-73971089D01*
X159532763Y-73887237D01*
X159532761Y-73887236D01*
X159532761Y-73887235D01*
X159448914Y-73831210D01*
X159448911Y-73831209D01*
X159374965Y-73816500D01*
X159374960Y-73816500D01*
X157625036Y-73816500D01*
X157551088Y-73831209D01*
X157467235Y-73887238D01*
X157411210Y-73971085D01*
X157411209Y-73971088D01*
X157411209Y-73971089D01*
X157396500Y-74045035D01*
X154595543Y-74045035D01*
X154588791Y-74011089D01*
X154532763Y-73927237D01*
X154532761Y-73927236D01*
X154532761Y-73927235D01*
X154448914Y-73871210D01*
X154448911Y-73871209D01*
X154374965Y-73856500D01*
X154374960Y-73856500D01*
X152625036Y-73856500D01*
X152551088Y-73871209D01*
X152467235Y-73927238D01*
X152411210Y-74011085D01*
X152411209Y-74011088D01*
X152411209Y-74011089D01*
X152396500Y-74085035D01*
X149603499Y-74085035D01*
X149603499Y-74045036D01*
X149588791Y-73971089D01*
X149532763Y-73887237D01*
X149532761Y-73887236D01*
X149532761Y-73887235D01*
X149448914Y-73831210D01*
X149448911Y-73831209D01*
X149374965Y-73816500D01*
X149374960Y-73816500D01*
X147625036Y-73816500D01*
X147551088Y-73831209D01*
X147467235Y-73887238D01*
X147411210Y-73971085D01*
X147411209Y-73971088D01*
X147411209Y-73971089D01*
X147396500Y-74045035D01*
X144603499Y-74045035D01*
X144588791Y-73971089D01*
X144532763Y-73887237D01*
X144532761Y-73887236D01*
X144532761Y-73887235D01*
X144448914Y-73831210D01*
X144448911Y-73831209D01*
X144374965Y-73816500D01*
X144374960Y-73816500D01*
X142625036Y-73816500D01*
X142551088Y-73831209D01*
X142467235Y-73887238D01*
X142411210Y-73971085D01*
X142411209Y-73971088D01*
X142411209Y-73971089D01*
X142396500Y-74045035D01*
X136658470Y-74045035D01*
X136533989Y-73967960D01*
X136533976Y-73967953D01*
X136343281Y-73894078D01*
X136343275Y-73894076D01*
X136142254Y-73856500D01*
X135937746Y-73856500D01*
X135736724Y-73894076D01*
X135736718Y-73894078D01*
X135546023Y-73967953D01*
X135546010Y-73967960D01*
X135372150Y-74075609D01*
X135372139Y-74075618D01*
X135221010Y-74213391D01*
X135221007Y-74213394D01*
X135097766Y-74376591D01*
X135006610Y-74559657D01*
X135006607Y-74559666D01*
X134950643Y-74756359D01*
X134950642Y-74756360D01*
X134931772Y-74960000D01*
X134603499Y-74960000D01*
X134603499Y-74085036D01*
X134588791Y-74011089D01*
X134532763Y-73927237D01*
X134532761Y-73927236D01*
X134532761Y-73927235D01*
X134448914Y-73871210D01*
X134448911Y-73871209D01*
X134374965Y-73856500D01*
X134374960Y-73856500D01*
X132625036Y-73856500D01*
X132551088Y-73871209D01*
X132467235Y-73927238D01*
X132411210Y-74011085D01*
X132411209Y-74011088D01*
X132411209Y-74011089D01*
X132396500Y-74085035D01*
X124500500Y-74085035D01*
X124500500Y-67626000D01*
X124520423Y-67558150D01*
X124573865Y-67511841D01*
X124626000Y-67500500D01*
X178151252Y-67500500D01*
X178451551Y-67464037D01*
X178451557Y-67464035D01*
X178451560Y-67464035D01*
X178745250Y-67391647D01*
X178745251Y-67391646D01*
X178745266Y-67391643D01*
X179028113Y-67284373D01*
X179295967Y-67143792D01*
X179544924Y-66971950D01*
X179771352Y-66771352D01*
X179971950Y-66544924D01*
X180143792Y-66295967D01*
X180284373Y-66028113D01*
X180295035Y-66000000D01*
X186041996Y-66000000D01*
X186061997Y-66343407D01*
X186121727Y-66682153D01*
X186121729Y-66682162D01*
X186220386Y-67011700D01*
X186356627Y-67327541D01*
X186356635Y-67327558D01*
X186528623Y-67625449D01*
X186734043Y-67901375D01*
X186734043Y-67901376D01*
X186824182Y-67996917D01*
X187958224Y-66862875D01*
X187970278Y-66879466D01*
X188120534Y-67029722D01*
X188137122Y-67041774D01*
X187001212Y-68177684D01*
X187001212Y-68177686D01*
X187233586Y-68372672D01*
X187233603Y-68372684D01*
X187521001Y-68561708D01*
X187521005Y-68561711D01*
X187828390Y-68716085D01*
X188151624Y-68833732D01*
X188151649Y-68833740D01*
X188486341Y-68913063D01*
X188486355Y-68913065D01*
X188828007Y-68953000D01*
X189171993Y-68953000D01*
X189513644Y-68913065D01*
X189513658Y-68913063D01*
X189848350Y-68833740D01*
X189848375Y-68833732D01*
X190171609Y-68716085D01*
X190478994Y-68561711D01*
X190478998Y-68561708D01*
X190766396Y-68372684D01*
X190766413Y-68372672D01*
X190998786Y-68177686D01*
X190998786Y-68177684D01*
X189862876Y-67041774D01*
X189879466Y-67029722D01*
X190029722Y-66879466D01*
X190041775Y-66862876D01*
X191175816Y-67996917D01*
X191175817Y-67996917D01*
X191265955Y-67901375D01*
X191265963Y-67901366D01*
X191471376Y-67625449D01*
X191643364Y-67327558D01*
X191643372Y-67327541D01*
X191779613Y-67011700D01*
X191878270Y-66682162D01*
X191878272Y-66682153D01*
X191938002Y-66343407D01*
X191958003Y-66000000D01*
X191938002Y-65656592D01*
X191878272Y-65317846D01*
X191878270Y-65317837D01*
X191779613Y-64988299D01*
X191643372Y-64672458D01*
X191643364Y-64672441D01*
X191471376Y-64374550D01*
X191265956Y-64098624D01*
X191265956Y-64098623D01*
X191175816Y-64003081D01*
X190041774Y-65137122D01*
X190029722Y-65120534D01*
X189879466Y-64970278D01*
X189862875Y-64958224D01*
X190998786Y-63822314D01*
X190998786Y-63822312D01*
X190766413Y-63627327D01*
X190766396Y-63627315D01*
X190478998Y-63438291D01*
X190478994Y-63438288D01*
X190171609Y-63283914D01*
X189848375Y-63166267D01*
X189848350Y-63166259D01*
X189513658Y-63086936D01*
X189513644Y-63086934D01*
X189171993Y-63047000D01*
X188828007Y-63047000D01*
X188486355Y-63086934D01*
X188486341Y-63086936D01*
X188151649Y-63166259D01*
X188151624Y-63166267D01*
X187828390Y-63283914D01*
X187521005Y-63438288D01*
X187521001Y-63438291D01*
X187233604Y-63627314D01*
X187001212Y-63822314D01*
X188137123Y-64958225D01*
X188120534Y-64970278D01*
X187970278Y-65120534D01*
X187958225Y-65137123D01*
X186824183Y-64003081D01*
X186824182Y-64003081D01*
X186734045Y-64098623D01*
X186734035Y-64098634D01*
X186528623Y-64374550D01*
X186356635Y-64672441D01*
X186356627Y-64672458D01*
X186220386Y-64988299D01*
X186121729Y-65317837D01*
X186121727Y-65317846D01*
X186061997Y-65656592D01*
X186041996Y-66000000D01*
X180295035Y-66000000D01*
X180391643Y-65745266D01*
X180464037Y-65451551D01*
X180500500Y-65151252D01*
X180500500Y-65000000D01*
X180500500Y-64934108D01*
X180500500Y-64004478D01*
X180500820Y-63995525D01*
X180511318Y-63848748D01*
X180515123Y-63795546D01*
X180517668Y-63777837D01*
X180559333Y-63586305D01*
X180564375Y-63569136D01*
X180632871Y-63385491D01*
X180640303Y-63369215D01*
X180734240Y-63197183D01*
X180743919Y-63182124D01*
X180861376Y-63025220D01*
X180873095Y-63011694D01*
X181011694Y-62873095D01*
X181025220Y-62861376D01*
X181182124Y-62743919D01*
X181197183Y-62734240D01*
X181369215Y-62640303D01*
X181385491Y-62632871D01*
X181569136Y-62564375D01*
X181586305Y-62559333D01*
X181777837Y-62517668D01*
X181795546Y-62515123D01*
X181995526Y-62500820D01*
X182004479Y-62500500D01*
X182065892Y-62500500D01*
X196934108Y-62500500D01*
X196995521Y-62500500D01*
X197004474Y-62500820D01*
G37*
%TD.AperFunction*%
%TD*%
M02*
