%TF.GenerationSoftware,KiCad,Pcbnew,8.0.4*%
%TF.CreationDate,2024-08-22T21:39:24+02:00*%
%TF.ProjectId,breakout,62726561-6b6f-4757-942e-6b696361645f,rev?*%
%TF.SameCoordinates,Original*%
%TF.FileFunction,Copper,L1,Top*%
%TF.FilePolarity,Positive*%
%FSLAX46Y46*%
G04 Gerber Fmt 4.6, Leading zero omitted, Abs format (unit mm)*
G04 Created by KiCad (PCBNEW 8.0.4) date 2024-08-22 21:39:24*
%MOMM*%
%LPD*%
G01*
G04 APERTURE LIST*
G04 Aperture macros list*
%AMRoundRect*
0 Rectangle with rounded corners*
0 $1 Rounding radius*
0 $2 $3 $4 $5 $6 $7 $8 $9 X,Y pos of 4 corners*
0 Add a 4 corners polygon primitive as box body*
4,1,4,$2,$3,$4,$5,$6,$7,$8,$9,$2,$3,0*
0 Add four circle primitives for the rounded corners*
1,1,$1+$1,$2,$3*
1,1,$1+$1,$4,$5*
1,1,$1+$1,$6,$7*
1,1,$1+$1,$8,$9*
0 Add four rect primitives between the rounded corners*
20,1,$1+$1,$2,$3,$4,$5,0*
20,1,$1+$1,$4,$5,$6,$7,0*
20,1,$1+$1,$6,$7,$8,$9,0*
20,1,$1+$1,$8,$9,$2,$3,0*%
G04 Aperture macros list end*
%TA.AperFunction,ComponentPad*%
%ADD10R,1.700000X1.700000*%
%TD*%
%TA.AperFunction,ComponentPad*%
%ADD11O,1.700000X1.700000*%
%TD*%
%TA.AperFunction,ComponentPad*%
%ADD12C,5.400000*%
%TD*%
%TA.AperFunction,ComponentPad*%
%ADD13RoundRect,0.250000X-1.350000X0.650000X-1.350000X-0.650000X1.350000X-0.650000X1.350000X0.650000X0*%
%TD*%
%TA.AperFunction,ComponentPad*%
%ADD14O,3.200000X1.800000*%
%TD*%
%TA.AperFunction,ViaPad*%
%ADD15C,0.600000*%
%TD*%
%TA.AperFunction,Conductor*%
%ADD16C,0.500000*%
%TD*%
%TA.AperFunction,Conductor*%
%ADD17C,0.400000*%
%TD*%
G04 APERTURE END LIST*
D10*
%TO.P,J9,1,Pin_1*%
%TO.N,/D0*%
X129500000Y-81500000D03*
D11*
%TO.P,J9,2,Pin_2*%
%TO.N,/D1*%
X126960000Y-81500000D03*
%TO.P,J9,3,Pin_3*%
%TO.N,/D2*%
X129500000Y-84040000D03*
%TO.P,J9,4,Pin_4*%
%TO.N,/D3*%
X126960000Y-84040000D03*
%TO.P,J9,5,Pin_5*%
%TO.N,/D4*%
X129500000Y-86580000D03*
%TO.P,J9,6,Pin_6*%
%TO.N,/D5*%
X126960000Y-86580000D03*
%TO.P,J9,7,Pin_7*%
%TO.N,/D6*%
X129500000Y-89120000D03*
%TO.P,J9,8,Pin_8*%
%TO.N,/D7*%
X126960000Y-89120000D03*
%TO.P,J9,9,Pin_9*%
%TO.N,GND*%
X129500000Y-91660000D03*
%TO.P,J9,10,Pin_10*%
X126960000Y-91660000D03*
%TD*%
D10*
%TO.P,J5,1,Pin_1*%
%TO.N,VBUS*%
X153500000Y-74960000D03*
D11*
%TO.P,J5,2,Pin_2*%
%TO.N,/D0*%
X153500000Y-77500000D03*
%TO.P,J5,3,Pin_3*%
%TO.N,/D1*%
X153500000Y-80040000D03*
%TO.P,J5,4,Pin_4*%
%TO.N,/D2*%
X153500000Y-82580000D03*
%TO.P,J5,5,Pin_5*%
%TO.N,/D3*%
X153500000Y-85120000D03*
%TO.P,J5,6,Pin_6*%
%TO.N,/D4*%
X153500000Y-87660000D03*
%TO.P,J5,7,Pin_7*%
%TO.N,/D5*%
X153500000Y-90200000D03*
%TO.P,J5,8,Pin_8*%
%TO.N,/D6*%
X153500000Y-92740000D03*
%TO.P,J5,9,Pin_9*%
%TO.N,/D7*%
X153500000Y-95280000D03*
%TO.P,J5,10,Pin_10*%
%TO.N,GND*%
X153500000Y-97820000D03*
%TD*%
D12*
%TO.P,H1,1,1*%
%TO.N,GND*%
X191500000Y-66000000D03*
%TD*%
D10*
%TO.P,J4,1,Pin_1*%
%TO.N,VBUS*%
X143500000Y-74920000D03*
D11*
%TO.P,J4,2,Pin_2*%
%TO.N,/D0*%
X143500000Y-77460000D03*
%TO.P,J4,3,Pin_3*%
%TO.N,/D1*%
X143500000Y-80000000D03*
%TO.P,J4,4,Pin_4*%
%TO.N,/D2*%
X143500000Y-82540000D03*
%TO.P,J4,5,Pin_5*%
%TO.N,/D3*%
X143500000Y-85080000D03*
%TO.P,J4,6,Pin_6*%
%TO.N,/D4*%
X143500000Y-87620000D03*
%TO.P,J4,7,Pin_7*%
%TO.N,/D5*%
X143500000Y-90160000D03*
%TO.P,J4,8,Pin_8*%
%TO.N,/D6*%
X143500000Y-92700000D03*
%TO.P,J4,9,Pin_9*%
%TO.N,/D7*%
X143500000Y-95240000D03*
%TO.P,J4,10,Pin_10*%
%TO.N,GND*%
X143500000Y-97780000D03*
%TD*%
D10*
%TO.P,J3,1,Pin_1*%
%TO.N,VBUS*%
X148500000Y-74920000D03*
D11*
%TO.P,J3,2,Pin_2*%
%TO.N,/D0*%
X148500000Y-77460000D03*
%TO.P,J3,3,Pin_3*%
%TO.N,/D1*%
X148500000Y-80000000D03*
%TO.P,J3,4,Pin_4*%
%TO.N,/D2*%
X148500000Y-82540000D03*
%TO.P,J3,5,Pin_5*%
%TO.N,/D3*%
X148500000Y-85080000D03*
%TO.P,J3,6,Pin_6*%
%TO.N,/D4*%
X148500000Y-87620000D03*
%TO.P,J3,7,Pin_7*%
%TO.N,/D5*%
X148500000Y-90160000D03*
%TO.P,J3,8,Pin_8*%
%TO.N,/D6*%
X148500000Y-92700000D03*
%TO.P,J3,9,Pin_9*%
%TO.N,/D7*%
X148500000Y-95240000D03*
%TO.P,J3,10,Pin_10*%
%TO.N,GND*%
X148500000Y-97780000D03*
%TD*%
D12*
%TO.P,H2,1,1*%
%TO.N,GND*%
X191500000Y-106000000D03*
%TD*%
D10*
%TO.P,J7,1,Pin_1*%
%TO.N,/D0*%
X168500000Y-77460000D03*
D11*
%TO.P,J7,2,Pin_2*%
%TO.N,/D1*%
X168500000Y-80000000D03*
%TO.P,J7,3,Pin_3*%
%TO.N,/D2*%
X168500000Y-82540000D03*
%TO.P,J7,4,Pin_4*%
%TO.N,/D3*%
X168500000Y-85080000D03*
%TO.P,J7,5,Pin_5*%
%TO.N,/D4*%
X168500000Y-87620000D03*
%TO.P,J7,6,Pin_6*%
%TO.N,/D5*%
X168500000Y-90160000D03*
%TO.P,J7,7,Pin_7*%
%TO.N,/D6*%
X168500000Y-92700000D03*
%TO.P,J7,8,Pin_8*%
%TO.N,/D7*%
X168500000Y-95240000D03*
%TD*%
D13*
%TO.P,J2,1,Pin_1*%
%TO.N,/VSENSE*%
X185200000Y-72400000D03*
X180200000Y-72400000D03*
D14*
%TO.P,J2,2,Pin_2*%
%TO.N,VBUS*%
X185200000Y-74940000D03*
X180200000Y-74940000D03*
%TO.P,J2,3,Pin_3*%
%TO.N,/D0*%
X185200000Y-77480000D03*
X180200000Y-77480000D03*
%TO.P,J2,4,Pin_4*%
%TO.N,/D1*%
X185200000Y-80020000D03*
X180200000Y-80020000D03*
%TO.P,J2,5,Pin_5*%
%TO.N,/D2*%
X185200000Y-82560000D03*
X180200000Y-82560000D03*
%TO.P,J2,6,Pin_6*%
%TO.N,/D3*%
X185200000Y-85100000D03*
X180200000Y-85100000D03*
%TO.P,J2,7,Pin_7*%
%TO.N,/D4*%
X185200000Y-87640000D03*
X180200000Y-87640000D03*
%TO.P,J2,8,Pin_8*%
%TO.N,/D5*%
X185200000Y-90180000D03*
X180200000Y-90180000D03*
%TO.P,J2,9,Pin_9*%
%TO.N,/D6*%
X185200000Y-92720000D03*
X180200000Y-92720000D03*
%TO.P,J2,10,Pin_10*%
%TO.N,/D7*%
X185200000Y-95260000D03*
X180200000Y-95260000D03*
%TO.P,J2,11,Pin_11*%
%TO.N,GND*%
X185200000Y-97800000D03*
X180200000Y-97800000D03*
%TO.P,J2,12,Pin_12*%
X185200000Y-100340000D03*
X180200000Y-100340000D03*
%TD*%
D10*
%TO.P,J6,1,Pin_1*%
%TO.N,VBUS*%
X158500000Y-74920000D03*
D11*
%TO.P,J6,2,Pin_2*%
%TO.N,/D0*%
X158500000Y-77460000D03*
%TO.P,J6,3,Pin_3*%
%TO.N,/D1*%
X158500000Y-80000000D03*
%TO.P,J6,4,Pin_4*%
%TO.N,/D2*%
X158500000Y-82540000D03*
%TO.P,J6,5,Pin_5*%
%TO.N,/D3*%
X158500000Y-85080000D03*
%TO.P,J6,6,Pin_6*%
%TO.N,/D4*%
X158500000Y-87620000D03*
%TO.P,J6,7,Pin_7*%
%TO.N,/D5*%
X158500000Y-90160000D03*
%TO.P,J6,8,Pin_8*%
%TO.N,/D6*%
X158500000Y-92700000D03*
%TO.P,J6,9,Pin_9*%
%TO.N,/D7*%
X158500000Y-95240000D03*
%TO.P,J6,10,Pin_10*%
%TO.N,GND*%
X158500000Y-97780000D03*
%TD*%
D10*
%TO.P,J1,1,Pin_1*%
%TO.N,/VSENSE*%
X133500000Y-74960000D03*
D11*
%TO.P,J1,2,Pin_2*%
%TO.N,VBUS*%
X136040000Y-74960000D03*
%TO.P,J1,3,Pin_3*%
%TO.N,/D0*%
X133500000Y-77500000D03*
%TO.P,J1,4,Pin_4*%
%TO.N,GND*%
X136040000Y-77500000D03*
%TO.P,J1,5,Pin_5*%
%TO.N,/D1*%
X133500000Y-80040000D03*
%TO.P,J1,6,Pin_6*%
%TO.N,GND*%
X136040000Y-80040000D03*
%TO.P,J1,7,Pin_7*%
%TO.N,/D2*%
X133500000Y-82580000D03*
%TO.P,J1,8,Pin_8*%
%TO.N,GND*%
X136040000Y-82580000D03*
%TO.P,J1,9,Pin_9*%
%TO.N,/D3*%
X133500000Y-85120000D03*
%TO.P,J1,10,Pin_10*%
%TO.N,GND*%
X136040000Y-85120000D03*
%TO.P,J1,11,Pin_11*%
%TO.N,/D4*%
X133500000Y-87660000D03*
%TO.P,J1,12,Pin_12*%
%TO.N,GND*%
X136040000Y-87660000D03*
%TO.P,J1,13,Pin_13*%
%TO.N,/D5*%
X133500000Y-90200000D03*
%TO.P,J1,14,Pin_14*%
%TO.N,GND*%
X136040000Y-90200000D03*
%TO.P,J1,15,Pin_15*%
%TO.N,/D6*%
X133500000Y-92740000D03*
%TO.P,J1,16,Pin_16*%
%TO.N,GND*%
X136040000Y-92740000D03*
%TO.P,J1,17,Pin_17*%
%TO.N,/D7*%
X133500000Y-95280000D03*
%TO.P,J1,18,Pin_18*%
%TO.N,GND*%
X136040000Y-95280000D03*
%TO.P,J1,19,Pin_19*%
%TO.N,unconnected-(J1-Pin_19-Pad19)*%
X133500000Y-97820000D03*
%TO.P,J1,20,Pin_20*%
%TO.N,unconnected-(J1-Pin_20-Pad20)*%
X136040000Y-97820000D03*
%TD*%
D15*
%TO.N,GND*%
X177200000Y-81200000D03*
X160500000Y-79000000D03*
X176000000Y-69000000D03*
X156000000Y-101000000D03*
X187200000Y-94000000D03*
X163500000Y-71000000D03*
X138000000Y-80000000D03*
X166000000Y-71000000D03*
X146000000Y-76000000D03*
X187200000Y-86400000D03*
X146000000Y-84000000D03*
X166000000Y-89000000D03*
X141500000Y-90000000D03*
X151000000Y-84000000D03*
X151000000Y-94000000D03*
X187200000Y-91400000D03*
X177200000Y-91400000D03*
X141500000Y-80000000D03*
X148500000Y-103000000D03*
X166000000Y-97000000D03*
X143500000Y-71000000D03*
X151000000Y-71000000D03*
X151000000Y-101000000D03*
X166000000Y-101000000D03*
X173500000Y-71000000D03*
X177200000Y-86400000D03*
X138000000Y-77500000D03*
X156000000Y-86500000D03*
X182800000Y-94000000D03*
X161000000Y-103000000D03*
X132000000Y-81500000D03*
X163500000Y-101000000D03*
X168500000Y-69000000D03*
X171000000Y-79000000D03*
X171000000Y-86500000D03*
X161000000Y-101000000D03*
X158500000Y-71000000D03*
X156000000Y-79000000D03*
X151000000Y-86500000D03*
X171000000Y-103000000D03*
X146000000Y-69000000D03*
X166000000Y-91500000D03*
X141500000Y-82500000D03*
X156000000Y-76000000D03*
X182800000Y-76200000D03*
X146000000Y-81500000D03*
X146000000Y-91500000D03*
X156000000Y-89000000D03*
X182800000Y-86400000D03*
X138000000Y-72600000D03*
X141500000Y-87500000D03*
X171000000Y-101000000D03*
X141500000Y-85000000D03*
X176000000Y-71000000D03*
X187200000Y-81400000D03*
X182800000Y-91400000D03*
X141500000Y-92500000D03*
X173500000Y-69000000D03*
X146000000Y-89000000D03*
X166000000Y-86500000D03*
X138000000Y-85000000D03*
X151000000Y-76000000D03*
X171000000Y-69000000D03*
X160500000Y-86500000D03*
X156000000Y-69000000D03*
X132000000Y-76000000D03*
X151000000Y-79000000D03*
X171000000Y-81500000D03*
X177200000Y-76200000D03*
X143500000Y-101000000D03*
X171000000Y-84000000D03*
X156000000Y-94000000D03*
X163500000Y-69000000D03*
X151000000Y-81500000D03*
X156000000Y-81500000D03*
X173500000Y-103000000D03*
X141500000Y-77500000D03*
X146000000Y-94000000D03*
X138000000Y-87500000D03*
X141500000Y-72600000D03*
X166000000Y-103000000D03*
X171000000Y-91500000D03*
X153500000Y-103000000D03*
X160500000Y-91500000D03*
X160500000Y-89000000D03*
X138000000Y-82500000D03*
X182800000Y-81400000D03*
X158500000Y-69000000D03*
X187200000Y-83800000D03*
X182800000Y-78800000D03*
X146000000Y-71000000D03*
X166000000Y-81500000D03*
X187200000Y-88800000D03*
X171000000Y-76000000D03*
X156000000Y-97000000D03*
X182800000Y-83800000D03*
X171000000Y-71000000D03*
X146000000Y-97000000D03*
X166000000Y-79000000D03*
X177200000Y-83800000D03*
X132000000Y-94000000D03*
X132000000Y-84000000D03*
X158500000Y-103000000D03*
X156000000Y-84000000D03*
X166000000Y-94000000D03*
X160500000Y-81500000D03*
X132000000Y-79000000D03*
X171000000Y-97000000D03*
X187200000Y-96600000D03*
X138000000Y-90000000D03*
X148500000Y-71000000D03*
X163500000Y-103000000D03*
X166000000Y-76000000D03*
X156000000Y-71000000D03*
X177200000Y-88800000D03*
X158500000Y-101000000D03*
X151000000Y-89000000D03*
X182800000Y-89000000D03*
X138000000Y-95000000D03*
X168500000Y-71000000D03*
X168500000Y-103000000D03*
X171000000Y-89000000D03*
X153500000Y-69000000D03*
X153500000Y-71000000D03*
X173500000Y-101000000D03*
X153500000Y-101000000D03*
X166000000Y-69000000D03*
X146000000Y-101000000D03*
X160500000Y-76000000D03*
X132000000Y-86500000D03*
X161000000Y-71000000D03*
X160500000Y-84000000D03*
X187200000Y-78800000D03*
X177200000Y-78800000D03*
X182800000Y-96600000D03*
X146000000Y-103000000D03*
X156000000Y-103000000D03*
X187200000Y-76200000D03*
X187200000Y-73600000D03*
X143500000Y-69000000D03*
X182800000Y-73600000D03*
X151000000Y-91500000D03*
X148500000Y-69000000D03*
X177200000Y-96600000D03*
X143500000Y-103000000D03*
X161000000Y-69000000D03*
X171000000Y-94000000D03*
X148500000Y-101000000D03*
X141500000Y-95000000D03*
X138000000Y-92500000D03*
X146000000Y-79000000D03*
X132000000Y-89000000D03*
X166000000Y-84000000D03*
X160500000Y-94000000D03*
X168500000Y-101000000D03*
X151000000Y-69000000D03*
X151000000Y-103000000D03*
X160500000Y-97000000D03*
X132000000Y-97000000D03*
X176000000Y-101000000D03*
X177200000Y-94000000D03*
X146000000Y-86500000D03*
X156000000Y-91500000D03*
X176000000Y-103000000D03*
X151000000Y-97000000D03*
%TD*%
D16*
%TO.N,VBUS*%
X158920000Y-74920000D02*
X158960000Y-74880000D01*
X143500000Y-74920000D02*
X148500000Y-74920000D01*
X158940000Y-74940000D02*
X180200000Y-74940000D01*
X136040000Y-74960000D02*
X143460000Y-74960000D01*
X180200000Y-74940000D02*
X185200000Y-74940000D01*
X148500000Y-74920000D02*
X148920000Y-74920000D01*
X153960000Y-74960000D02*
X154000000Y-74920000D01*
X158500000Y-74920000D02*
X158920000Y-74920000D01*
X153500000Y-74960000D02*
X153960000Y-74960000D01*
X154000000Y-74920000D02*
X158500000Y-74920000D01*
X136040000Y-74960000D02*
X135892994Y-74960000D01*
X148920000Y-74920000D02*
X148960000Y-74960000D01*
X143460000Y-74960000D02*
X143500000Y-74920000D01*
X158920000Y-74920000D02*
X158940000Y-74940000D01*
X148960000Y-74960000D02*
X153500000Y-74960000D01*
%TO.N,/D4*%
X148500000Y-87620000D02*
X153460000Y-87620000D01*
X180200000Y-87640000D02*
X185200000Y-87640000D01*
X158460000Y-87660000D02*
X158500000Y-87620000D01*
D17*
X129500000Y-86580000D02*
X130702081Y-86580000D01*
D16*
X168500000Y-87620000D02*
X180180000Y-87620000D01*
X158500000Y-87620000D02*
X168500000Y-87620000D01*
D17*
X133500000Y-87660000D02*
X134272233Y-87660000D01*
X142290000Y-86410000D02*
X143500000Y-87620000D01*
X135522233Y-86410000D02*
X142290000Y-86410000D01*
D16*
X180180000Y-87620000D02*
X180200000Y-87640000D01*
X153500000Y-87660000D02*
X158460000Y-87660000D01*
D17*
X130702081Y-86580000D02*
X131782081Y-87660000D01*
D16*
X153460000Y-87620000D02*
X153500000Y-87660000D01*
X143500000Y-87620000D02*
X148500000Y-87620000D01*
D17*
X134272233Y-87660000D02*
X135522233Y-86410000D01*
X131782081Y-87660000D02*
X133500000Y-87660000D01*
%TO.N,/D2*%
X133500000Y-82580000D02*
X134272233Y-82580000D01*
X132430050Y-82580000D02*
X133500000Y-82580000D01*
D16*
X180200000Y-82560000D02*
X185200000Y-82560000D01*
D17*
X135522233Y-81330000D02*
X142290000Y-81330000D01*
D16*
X180180000Y-82540000D02*
X180200000Y-82560000D01*
D17*
X129500000Y-84040000D02*
X130970050Y-84040000D01*
D16*
X158500000Y-82540000D02*
X168500000Y-82540000D01*
D17*
X142290000Y-81330000D02*
X143500000Y-82540000D01*
D16*
X153460000Y-82540000D02*
X153500000Y-82580000D01*
D17*
X134272233Y-82580000D02*
X135522233Y-81330000D01*
D16*
X168500000Y-82540000D02*
X180180000Y-82540000D01*
X158460000Y-82580000D02*
X158500000Y-82540000D01*
X143500000Y-82540000D02*
X148500000Y-82540000D01*
X153500000Y-82580000D02*
X158460000Y-82580000D01*
D17*
X130970050Y-84040000D02*
X132430050Y-82580000D01*
D16*
X148500000Y-82540000D02*
X153460000Y-82540000D01*
D17*
%TO.N,GND*%
X136040000Y-92740000D02*
X135760000Y-92740000D01*
X136040000Y-77500000D02*
X135963705Y-77500000D01*
X135960000Y-80040000D02*
X135000000Y-81000000D01*
X135880000Y-85120000D02*
X135000000Y-86000000D01*
X135760000Y-92740000D02*
X135000000Y-93500000D01*
X135840000Y-87660000D02*
X135000000Y-88500000D01*
X136040000Y-90200000D02*
X135800000Y-90200000D01*
X136040000Y-87660000D02*
X135840000Y-87660000D01*
X135920000Y-82580000D02*
X135000000Y-83500000D01*
X136040000Y-82580000D02*
X135920000Y-82580000D01*
X135963705Y-77500000D02*
X134981852Y-78481853D01*
X136040000Y-80040000D02*
X135960000Y-80040000D01*
X136040000Y-85120000D02*
X135880000Y-85120000D01*
X135800000Y-90200000D02*
X135000000Y-91000000D01*
%TO.N,/D7*%
X133500000Y-95280000D02*
X134220000Y-95280000D01*
D16*
X168960000Y-95240000D02*
X168980000Y-95260000D01*
X180200000Y-95260000D02*
X185200000Y-95260000D01*
D17*
X128250000Y-90410000D02*
X130017767Y-90410000D01*
X142290000Y-94030000D02*
X143500000Y-95240000D01*
X131000000Y-94000000D02*
X132280000Y-95280000D01*
D16*
X158460000Y-95280000D02*
X158500000Y-95240000D01*
X158500000Y-95240000D02*
X168500000Y-95240000D01*
D17*
X130017767Y-90410000D02*
X131000000Y-91392233D01*
X131000000Y-91392233D02*
X131000000Y-94000000D01*
X135470000Y-94030000D02*
X142290000Y-94030000D01*
D16*
X168500000Y-95240000D02*
X168960000Y-95240000D01*
X153500000Y-95280000D02*
X158460000Y-95280000D01*
X153460000Y-95240000D02*
X153500000Y-95280000D01*
X168980000Y-95260000D02*
X180200000Y-95260000D01*
X148500000Y-95240000D02*
X153460000Y-95240000D01*
D17*
X132280000Y-95280000D02*
X133500000Y-95280000D01*
D16*
X143500000Y-95240000D02*
X148500000Y-95240000D01*
D17*
X134220000Y-95280000D02*
X135470000Y-94030000D01*
X126960000Y-89120000D02*
X128250000Y-90410000D01*
%TO.N,/D0*%
X142290000Y-76250000D02*
X143500000Y-77460000D01*
D16*
X158500000Y-77460000D02*
X168500000Y-77460000D01*
D17*
X134272233Y-77500000D02*
X135522233Y-76250000D01*
D16*
X153460000Y-77460000D02*
X153500000Y-77500000D01*
D17*
X135522233Y-76250000D02*
X142290000Y-76250000D01*
D16*
X180200000Y-77480000D02*
X185200000Y-77480000D01*
X143500000Y-77460000D02*
X148500000Y-77460000D01*
D17*
X133500000Y-77500000D02*
X134272233Y-77500000D01*
X129500000Y-80297919D02*
X132297919Y-77500000D01*
D16*
X180180000Y-77460000D02*
X180200000Y-77480000D01*
X158460000Y-77500000D02*
X158500000Y-77460000D01*
D17*
X129500000Y-81500000D02*
X129500000Y-80297919D01*
D16*
X153500000Y-77500000D02*
X158460000Y-77500000D01*
X148500000Y-77460000D02*
X153460000Y-77460000D01*
D17*
X132297919Y-77500000D02*
X133500000Y-77500000D01*
D16*
X168500000Y-77460000D02*
X180180000Y-77460000D01*
%TO.N,/D1*%
X180200000Y-80020000D02*
X185200000Y-80020000D01*
X153500000Y-80040000D02*
X148540000Y-80040000D01*
X180180000Y-80000000D02*
X180200000Y-80020000D01*
D17*
X142290000Y-78790000D02*
X143500000Y-80000000D01*
D16*
X168500000Y-80000000D02*
X180180000Y-80000000D01*
X168500000Y-80000000D02*
X158500000Y-80000000D01*
D17*
X126960000Y-81500000D02*
X128210000Y-82750000D01*
X135522233Y-78790000D02*
X142290000Y-78790000D01*
D16*
X148500000Y-80000000D02*
X143500000Y-80000000D01*
X158500000Y-80000000D02*
X153540000Y-80000000D01*
D17*
X133500000Y-80040000D02*
X134272233Y-80040000D01*
D16*
X168540000Y-79960000D02*
X168500000Y-80000000D01*
D17*
X132470050Y-80040000D02*
X133500000Y-80040000D01*
X128210000Y-82750000D02*
X130790000Y-82750000D01*
X134272233Y-80040000D02*
X135522233Y-78790000D01*
X130790000Y-82750000D02*
X130790000Y-81720050D01*
X130790000Y-81720050D02*
X132470050Y-80040000D01*
D16*
X148540000Y-80040000D02*
X148500000Y-80000000D01*
X153540000Y-80000000D02*
X153500000Y-80040000D01*
%TO.N,/D3*%
X158500000Y-85080000D02*
X168500000Y-85080000D01*
D17*
X134272233Y-85120000D02*
X135522233Y-83870000D01*
X133330000Y-85290000D02*
X133500000Y-85120000D01*
D16*
X153500000Y-85120000D02*
X158460000Y-85120000D01*
D17*
X135522233Y-83870000D02*
X142290000Y-83870000D01*
D16*
X180180000Y-85080000D02*
X180200000Y-85100000D01*
X153460000Y-85080000D02*
X153500000Y-85120000D01*
X180200000Y-85100000D02*
X185200000Y-85100000D01*
D17*
X133500000Y-85120000D02*
X134272233Y-85120000D01*
X142290000Y-83870000D02*
X143500000Y-85080000D01*
X128210000Y-85290000D02*
X133330000Y-85290000D01*
D16*
X158460000Y-85120000D02*
X158500000Y-85080000D01*
X148500000Y-85080000D02*
X153460000Y-85080000D01*
X168500000Y-85080000D02*
X180180000Y-85080000D01*
D17*
X126960000Y-84040000D02*
X128210000Y-85290000D01*
D16*
X143500000Y-85080000D02*
X148500000Y-85080000D01*
%TO.N,/VSENSE*%
X178980000Y-73620000D02*
X180200000Y-72400000D01*
X133500000Y-74960000D02*
X134840000Y-73620000D01*
X134840000Y-73620000D02*
X178980000Y-73620000D01*
X180200000Y-72400000D02*
X185200000Y-72400000D01*
D17*
%TO.N,/D5*%
X142290000Y-88950000D02*
X143500000Y-90160000D01*
X134300000Y-90200000D02*
X134300000Y-90172233D01*
D16*
X143500000Y-90160000D02*
X148500000Y-90160000D01*
D17*
X131300000Y-89691472D02*
X131808528Y-90200000D01*
X130330000Y-87830000D02*
X131300000Y-88800000D01*
D16*
X168500000Y-90160000D02*
X180180000Y-90160000D01*
X153500000Y-90200000D02*
X158460000Y-90200000D01*
X148500000Y-90160000D02*
X153460000Y-90160000D01*
X158460000Y-90200000D02*
X158500000Y-90160000D01*
D17*
X128210000Y-87830000D02*
X130330000Y-87830000D01*
X126960000Y-86580000D02*
X128210000Y-87830000D01*
D16*
X158500000Y-90160000D02*
X168500000Y-90160000D01*
X180180000Y-90160000D02*
X180200000Y-90180000D01*
D17*
X131808528Y-90200000D02*
X133500000Y-90200000D01*
X131300000Y-88800000D02*
X131300000Y-89691472D01*
D16*
X153460000Y-90160000D02*
X153500000Y-90200000D01*
D17*
X134300000Y-90172233D02*
X135522233Y-88950000D01*
D16*
X180200000Y-90180000D02*
X185200000Y-90180000D01*
D17*
X135522233Y-88950000D02*
X142290000Y-88950000D01*
X133500000Y-90200000D02*
X134300000Y-90200000D01*
D16*
%TO.N,/D6*%
X158460000Y-92740000D02*
X158500000Y-92700000D01*
X153460000Y-92700000D02*
X153500000Y-92740000D01*
X153500000Y-92740000D02*
X158460000Y-92740000D01*
X169700000Y-92700000D02*
X169720000Y-92720000D01*
D17*
X142290000Y-91490000D02*
X143500000Y-92700000D01*
X129500000Y-89120000D02*
X129880000Y-89120000D01*
X133500000Y-92740000D02*
X134260000Y-92740000D01*
D16*
X169720000Y-92720000D02*
X180200000Y-92720000D01*
X158500000Y-92700000D02*
X168500000Y-92700000D01*
X148500000Y-92700000D02*
X153460000Y-92700000D01*
X143500000Y-92700000D02*
X148500000Y-92700000D01*
X180200000Y-92720000D02*
X185200000Y-92720000D01*
D17*
X134260000Y-92740000D02*
X135510000Y-91490000D01*
X129880000Y-89120000D02*
X133500000Y-92740000D01*
D16*
X168500000Y-92700000D02*
X169700000Y-92700000D01*
D17*
X135510000Y-91490000D02*
X142290000Y-91490000D01*
%TD*%
%TA.AperFunction,Conductor*%
%TO.N,GND*%
G36*
X147508121Y-93223423D02*
G01*
X147552615Y-93273063D01*
X147557763Y-93283403D01*
X147681007Y-93446605D01*
X147681010Y-93446608D01*
X147832143Y-93584385D01*
X147832146Y-93584387D01*
X147832150Y-93584390D01*
X148004250Y-93690949D01*
X148006020Y-93692045D01*
X148196719Y-93765922D01*
X148397746Y-93803500D01*
X148602254Y-93803500D01*
X148803281Y-93765922D01*
X148993980Y-93692045D01*
X149157769Y-93590631D01*
X149167849Y-93584390D01*
X149167849Y-93584389D01*
X149167857Y-93584385D01*
X149318990Y-93446608D01*
X149442234Y-93283407D01*
X149447385Y-93273063D01*
X149495461Y-93221205D01*
X149559729Y-93203500D01*
X152420353Y-93203500D01*
X152488203Y-93223423D01*
X152532696Y-93273060D01*
X152557766Y-93323408D01*
X152681007Y-93486605D01*
X152681010Y-93486608D01*
X152832143Y-93624385D01*
X152832146Y-93624387D01*
X152832150Y-93624390D01*
X152993043Y-93724010D01*
X153006020Y-93732045D01*
X153196719Y-93805922D01*
X153196723Y-93805922D01*
X153196724Y-93805923D01*
X153279905Y-93821472D01*
X153397746Y-93843500D01*
X153602254Y-93843500D01*
X153803281Y-93805922D01*
X153993980Y-93732045D01*
X154167857Y-93624385D01*
X154318990Y-93486608D01*
X154442234Y-93323407D01*
X154447385Y-93313063D01*
X154495461Y-93261205D01*
X154559729Y-93243500D01*
X157465138Y-93243500D01*
X157532988Y-93263423D01*
X157565289Y-93293369D01*
X157681007Y-93446605D01*
X157681010Y-93446608D01*
X157832143Y-93584385D01*
X157832146Y-93584387D01*
X157832150Y-93584390D01*
X158004250Y-93690949D01*
X158006020Y-93692045D01*
X158196719Y-93765922D01*
X158397746Y-93803500D01*
X158602254Y-93803500D01*
X158803281Y-93765922D01*
X158993980Y-93692045D01*
X159157769Y-93590631D01*
X159167849Y-93584390D01*
X159167849Y-93584389D01*
X159167857Y-93584385D01*
X159318990Y-93446608D01*
X159442234Y-93283407D01*
X159447385Y-93273063D01*
X159495461Y-93221205D01*
X159559729Y-93203500D01*
X167440271Y-93203500D01*
X167508121Y-93223423D01*
X167552615Y-93273063D01*
X167557763Y-93283403D01*
X167681007Y-93446605D01*
X167681010Y-93446608D01*
X167832143Y-93584385D01*
X167832146Y-93584387D01*
X167832150Y-93584390D01*
X168004250Y-93690949D01*
X168006020Y-93692045D01*
X168196719Y-93765922D01*
X168397746Y-93803500D01*
X168602254Y-93803500D01*
X168803281Y-93765922D01*
X168993980Y-93692045D01*
X169157769Y-93590631D01*
X169167849Y-93584390D01*
X169167849Y-93584389D01*
X169167857Y-93584385D01*
X169318990Y-93446608D01*
X169442234Y-93283407D01*
X169447385Y-93273063D01*
X169495461Y-93221205D01*
X169559729Y-93203500D01*
X169562547Y-93203500D01*
X169595028Y-93207776D01*
X169653712Y-93223500D01*
X169653713Y-93223500D01*
X178385036Y-93223500D01*
X178452886Y-93243423D01*
X178496856Y-93292023D01*
X178513438Y-93324566D01*
X178513440Y-93324569D01*
X178513443Y-93324574D01*
X178620155Y-93471451D01*
X178748548Y-93599844D01*
X178895425Y-93706556D01*
X178895428Y-93706557D01*
X178895434Y-93706562D01*
X179057210Y-93788991D01*
X179229888Y-93845097D01*
X179229891Y-93845097D01*
X179229893Y-93845098D01*
X179362149Y-93866045D01*
X179426048Y-93896336D01*
X179463426Y-93956365D01*
X179462416Y-94027073D01*
X179423340Y-94086010D01*
X179362149Y-94113955D01*
X179229894Y-94134901D01*
X179229893Y-94134901D01*
X179057208Y-94191009D01*
X178895439Y-94273435D01*
X178895425Y-94273443D01*
X178748548Y-94380155D01*
X178620155Y-94508548D01*
X178513443Y-94655425D01*
X178513438Y-94655434D01*
X178496856Y-94687976D01*
X178448303Y-94739386D01*
X178385036Y-94756500D01*
X169569688Y-94756500D01*
X169501838Y-94736577D01*
X169457345Y-94686939D01*
X169442235Y-94656593D01*
X169318992Y-94493394D01*
X169318989Y-94493391D01*
X169211738Y-94395618D01*
X169167857Y-94355615D01*
X169167854Y-94355613D01*
X169167849Y-94355609D01*
X168993989Y-94247960D01*
X168993976Y-94247953D01*
X168803281Y-94174078D01*
X168803275Y-94174076D01*
X168602254Y-94136500D01*
X168397746Y-94136500D01*
X168196724Y-94174076D01*
X168196718Y-94174078D01*
X168006023Y-94247953D01*
X168006010Y-94247960D01*
X167832150Y-94355609D01*
X167832139Y-94355618D01*
X167681010Y-94493391D01*
X167681007Y-94493394D01*
X167557763Y-94656596D01*
X167552615Y-94666937D01*
X167504539Y-94718795D01*
X167440271Y-94736500D01*
X159559729Y-94736500D01*
X159491879Y-94716577D01*
X159447385Y-94666937D01*
X159442236Y-94656596D01*
X159441362Y-94655439D01*
X159349196Y-94533391D01*
X159318992Y-94493394D01*
X159318989Y-94493391D01*
X159211738Y-94395618D01*
X159167857Y-94355615D01*
X159167854Y-94355613D01*
X159167849Y-94355609D01*
X158993989Y-94247960D01*
X158993976Y-94247953D01*
X158803281Y-94174078D01*
X158803275Y-94174076D01*
X158602254Y-94136500D01*
X158397746Y-94136500D01*
X158196724Y-94174076D01*
X158196718Y-94174078D01*
X158006023Y-94247953D01*
X158006010Y-94247960D01*
X157832150Y-94355609D01*
X157832139Y-94355618D01*
X157681010Y-94493391D01*
X157681007Y-94493394D01*
X157557766Y-94656591D01*
X157532696Y-94706940D01*
X157484619Y-94758797D01*
X157420353Y-94776500D01*
X154559729Y-94776500D01*
X154491879Y-94756577D01*
X154447385Y-94706937D01*
X154442236Y-94696596D01*
X154434943Y-94686939D01*
X154383243Y-94618476D01*
X154318992Y-94533394D01*
X154318989Y-94533391D01*
X154266497Y-94485538D01*
X154167857Y-94395615D01*
X154167854Y-94395613D01*
X154167849Y-94395609D01*
X153993989Y-94287960D01*
X153993976Y-94287953D01*
X153803281Y-94214078D01*
X153803275Y-94214076D01*
X153602254Y-94176500D01*
X153397746Y-94176500D01*
X153196724Y-94214076D01*
X153196718Y-94214078D01*
X153006023Y-94287953D01*
X153006010Y-94287960D01*
X152832150Y-94395609D01*
X152832139Y-94395618D01*
X152681010Y-94533391D01*
X152681007Y-94533394D01*
X152565289Y-94686631D01*
X152508502Y-94728770D01*
X152465138Y-94736500D01*
X149559729Y-94736500D01*
X149491879Y-94716577D01*
X149447385Y-94666937D01*
X149442236Y-94656596D01*
X149441362Y-94655439D01*
X149349196Y-94533391D01*
X149318992Y-94493394D01*
X149318989Y-94493391D01*
X149211738Y-94395618D01*
X149167857Y-94355615D01*
X149167854Y-94355613D01*
X149167849Y-94355609D01*
X148993989Y-94247960D01*
X148993976Y-94247953D01*
X148803281Y-94174078D01*
X148803275Y-94174076D01*
X148602254Y-94136500D01*
X148397746Y-94136500D01*
X148196724Y-94174076D01*
X148196718Y-94174078D01*
X148006023Y-94247953D01*
X148006010Y-94247960D01*
X147832150Y-94355609D01*
X147832139Y-94355618D01*
X147681010Y-94493391D01*
X147681007Y-94493394D01*
X147557763Y-94656596D01*
X147552615Y-94666937D01*
X147504539Y-94718795D01*
X147440271Y-94736500D01*
X144559729Y-94736500D01*
X144491879Y-94716577D01*
X144447385Y-94666937D01*
X144442236Y-94656596D01*
X144441362Y-94655439D01*
X144349196Y-94533391D01*
X144318992Y-94493394D01*
X144318989Y-94493391D01*
X144211738Y-94395618D01*
X144167857Y-94355615D01*
X144167854Y-94355613D01*
X144167849Y-94355609D01*
X143993989Y-94247960D01*
X143993976Y-94247953D01*
X143803281Y-94174078D01*
X143803275Y-94174076D01*
X143602254Y-94136500D01*
X143397746Y-94136500D01*
X143196721Y-94174077D01*
X143196712Y-94174080D01*
X143185539Y-94178408D01*
X143115073Y-94184337D01*
X143052588Y-94151228D01*
X143051468Y-94150122D01*
X142687421Y-93786075D01*
X142653531Y-93724010D01*
X142658576Y-93653475D01*
X142700954Y-93596865D01*
X142767210Y-93572153D01*
X142836309Y-93587184D01*
X142842230Y-93590631D01*
X143004250Y-93690949D01*
X143006020Y-93692045D01*
X143196719Y-93765922D01*
X143397746Y-93803500D01*
X143602254Y-93803500D01*
X143803281Y-93765922D01*
X143993980Y-93692045D01*
X144157769Y-93590631D01*
X144167849Y-93584390D01*
X144167849Y-93584389D01*
X144167857Y-93584385D01*
X144318990Y-93446608D01*
X144442234Y-93283407D01*
X144447385Y-93273063D01*
X144495461Y-93221205D01*
X144559729Y-93203500D01*
X147440271Y-93203500D01*
X147508121Y-93223423D01*
G37*
%TD.AperFunction*%
%TA.AperFunction,Conductor*%
G36*
X183452886Y-93243423D02*
G01*
X183496856Y-93292023D01*
X183513438Y-93324566D01*
X183513440Y-93324569D01*
X183513443Y-93324574D01*
X183620155Y-93471451D01*
X183748548Y-93599844D01*
X183895425Y-93706556D01*
X183895428Y-93706557D01*
X183895434Y-93706562D01*
X184057210Y-93788991D01*
X184229888Y-93845097D01*
X184229891Y-93845097D01*
X184229893Y-93845098D01*
X184362149Y-93866045D01*
X184426048Y-93896336D01*
X184463426Y-93956365D01*
X184462416Y-94027073D01*
X184423340Y-94086010D01*
X184362149Y-94113955D01*
X184229894Y-94134901D01*
X184229893Y-94134901D01*
X184057208Y-94191009D01*
X183895439Y-94273435D01*
X183895425Y-94273443D01*
X183748548Y-94380155D01*
X183620155Y-94508548D01*
X183513443Y-94655425D01*
X183513438Y-94655434D01*
X183496856Y-94687976D01*
X183448303Y-94739386D01*
X183385036Y-94756500D01*
X182014964Y-94756500D01*
X181947114Y-94736577D01*
X181903143Y-94687976D01*
X181886562Y-94655434D01*
X181886557Y-94655428D01*
X181886556Y-94655425D01*
X181779844Y-94508548D01*
X181651451Y-94380155D01*
X181504574Y-94273443D01*
X181504568Y-94273440D01*
X181504566Y-94273438D01*
X181454549Y-94247953D01*
X181342791Y-94191009D01*
X181170106Y-94134901D01*
X181057447Y-94117058D01*
X181037849Y-94113954D01*
X180973951Y-94083664D01*
X180936573Y-94023635D01*
X180937583Y-93952927D01*
X180976659Y-93893990D01*
X181037849Y-93866045D01*
X181170112Y-93845097D01*
X181342790Y-93788991D01*
X181504566Y-93706562D01*
X181602492Y-93635414D01*
X181651451Y-93599844D01*
X181651451Y-93599843D01*
X181651455Y-93599841D01*
X181779841Y-93471455D01*
X181886562Y-93324566D01*
X181903143Y-93292023D01*
X181951697Y-93240614D01*
X182014964Y-93223500D01*
X183385036Y-93223500D01*
X183452886Y-93243423D01*
G37*
%TD.AperFunction*%
%TA.AperFunction,Conductor*%
G36*
X131661185Y-91542983D02*
G01*
X131667742Y-91549088D01*
X132412621Y-92293967D01*
X132446511Y-92356032D01*
X132444588Y-92417053D01*
X132410643Y-92536356D01*
X132410642Y-92536360D01*
X132391772Y-92740000D01*
X132410642Y-92943639D01*
X132410643Y-92943640D01*
X132466608Y-93140338D01*
X132466610Y-93140342D01*
X132557766Y-93323408D01*
X132681007Y-93486605D01*
X132681010Y-93486608D01*
X132832143Y-93624385D01*
X132832146Y-93624387D01*
X132832150Y-93624390D01*
X132993043Y-93724010D01*
X133006020Y-93732045D01*
X133196719Y-93805922D01*
X133196723Y-93805922D01*
X133196724Y-93805923D01*
X133279905Y-93821472D01*
X133397746Y-93843500D01*
X133602254Y-93843500D01*
X133803281Y-93805922D01*
X133993980Y-93732045D01*
X134167857Y-93624385D01*
X134318990Y-93486608D01*
X134442234Y-93323407D01*
X134533392Y-93140338D01*
X134537350Y-93126428D01*
X134569316Y-93072028D01*
X134744017Y-92897327D01*
X134806078Y-92863440D01*
X134876612Y-92868485D01*
X134933223Y-92910862D01*
X134953464Y-92951727D01*
X135007076Y-93140151D01*
X135007079Y-93140160D01*
X135098192Y-93323141D01*
X135098194Y-93323144D01*
X135221848Y-93486890D01*
X135246839Y-93553042D01*
X135232097Y-93622203D01*
X135196577Y-93660159D01*
X135198069Y-93662103D01*
X135191545Y-93667108D01*
X134407004Y-94451648D01*
X134344939Y-94485538D01*
X134274404Y-94480493D01*
X134233713Y-94455651D01*
X134167860Y-94395618D01*
X134167857Y-94395615D01*
X134167854Y-94395613D01*
X134167849Y-94395609D01*
X133993989Y-94287960D01*
X133993976Y-94287953D01*
X133803281Y-94214078D01*
X133803275Y-94214076D01*
X133602254Y-94176500D01*
X133397746Y-94176500D01*
X133196724Y-94214076D01*
X133196718Y-94214078D01*
X133006023Y-94287953D01*
X133006010Y-94287960D01*
X132832150Y-94395609D01*
X132832139Y-94395618D01*
X132681010Y-94533391D01*
X132681007Y-94533394D01*
X132557758Y-94696602D01*
X132557104Y-94697660D01*
X132556659Y-94698058D01*
X132554269Y-94701224D01*
X132553649Y-94700755D01*
X132504441Y-94744853D01*
X132434624Y-94756083D01*
X132369818Y-94727784D01*
X132361668Y-94720322D01*
X131490258Y-93848912D01*
X131456368Y-93786847D01*
X131453500Y-93760170D01*
X131453500Y-91637830D01*
X131473423Y-91569980D01*
X131526865Y-91523671D01*
X131596861Y-91513607D01*
X131661185Y-91542983D01*
G37*
%TD.AperFunction*%
%TA.AperFunction,Conductor*%
G36*
X142118020Y-91963423D02*
G01*
X142138912Y-91980258D01*
X142412621Y-92253967D01*
X142446511Y-92316032D01*
X142444588Y-92377053D01*
X142410643Y-92496356D01*
X142410642Y-92496360D01*
X142391772Y-92700000D01*
X142410642Y-92903639D01*
X142410643Y-92903640D01*
X142414614Y-92917596D01*
X142466608Y-93100338D01*
X142466610Y-93100342D01*
X142557766Y-93283408D01*
X142681007Y-93446605D01*
X142684914Y-93450890D01*
X142683228Y-93452427D01*
X142714773Y-93504356D01*
X142712983Y-93575048D01*
X142673258Y-93633550D01*
X142608210Y-93661289D01*
X142538492Y-93649457D01*
X142530757Y-93645344D01*
X142465045Y-93607405D01*
X142434140Y-93599124D01*
X142434139Y-93599123D01*
X142349707Y-93576500D01*
X142349704Y-93576500D01*
X137042518Y-93576500D01*
X136974668Y-93556577D01*
X136928359Y-93503135D01*
X136918295Y-93433139D01*
X136942367Y-93375370D01*
X136981805Y-93323144D01*
X136981807Y-93323141D01*
X137072920Y-93140160D01*
X137072923Y-93140151D01*
X137128862Y-92943548D01*
X137128863Y-92943546D01*
X137136002Y-92866500D01*
X136523742Y-92866500D01*
X136540000Y-92805826D01*
X136540000Y-92674174D01*
X136523742Y-92613500D01*
X137136002Y-92613500D01*
X137128863Y-92536453D01*
X137128862Y-92536451D01*
X137072923Y-92339848D01*
X137072920Y-92339839D01*
X136981807Y-92156858D01*
X136972572Y-92144628D01*
X136947583Y-92078476D01*
X136962326Y-92009315D01*
X137012120Y-91959104D01*
X137072725Y-91943500D01*
X142050170Y-91943500D01*
X142118020Y-91963423D01*
G37*
%TD.AperFunction*%
%TA.AperFunction,Conductor*%
G36*
X147508121Y-90683423D02*
G01*
X147552615Y-90733063D01*
X147557763Y-90743403D01*
X147681007Y-90906605D01*
X147681010Y-90906608D01*
X147832143Y-91044385D01*
X147832146Y-91044387D01*
X147832150Y-91044390D01*
X148006010Y-91152039D01*
X148006020Y-91152045D01*
X148196719Y-91225922D01*
X148397746Y-91263500D01*
X148602254Y-91263500D01*
X148803281Y-91225922D01*
X148993980Y-91152045D01*
X149157769Y-91050631D01*
X149167849Y-91044390D01*
X149167849Y-91044389D01*
X149167857Y-91044385D01*
X149318990Y-90906608D01*
X149442234Y-90743407D01*
X149447385Y-90733063D01*
X149495461Y-90681205D01*
X149559729Y-90663500D01*
X152420353Y-90663500D01*
X152488203Y-90683423D01*
X152532696Y-90733060D01*
X152557766Y-90783408D01*
X152681007Y-90946605D01*
X152681010Y-90946608D01*
X152832143Y-91084385D01*
X152832146Y-91084387D01*
X152832150Y-91084390D01*
X152993043Y-91184010D01*
X153006020Y-91192045D01*
X153196719Y-91265922D01*
X153196723Y-91265922D01*
X153196724Y-91265923D01*
X153299372Y-91285111D01*
X153397746Y-91303500D01*
X153602254Y-91303500D01*
X153803281Y-91265922D01*
X153993980Y-91192045D01*
X154157769Y-91090631D01*
X154167849Y-91084390D01*
X154167849Y-91084389D01*
X154167857Y-91084385D01*
X154318990Y-90946608D01*
X154442234Y-90783407D01*
X154446040Y-90775764D01*
X154447385Y-90773063D01*
X154495461Y-90721205D01*
X154559729Y-90703500D01*
X157465138Y-90703500D01*
X157532988Y-90723423D01*
X157565289Y-90753369D01*
X157681007Y-90906605D01*
X157681010Y-90906608D01*
X157832143Y-91044385D01*
X157832146Y-91044387D01*
X157832150Y-91044390D01*
X158006010Y-91152039D01*
X158006020Y-91152045D01*
X158196719Y-91225922D01*
X158397746Y-91263500D01*
X158602254Y-91263500D01*
X158803281Y-91225922D01*
X158993980Y-91152045D01*
X159157769Y-91050631D01*
X159167849Y-91044390D01*
X159167849Y-91044389D01*
X159167857Y-91044385D01*
X159318990Y-90906608D01*
X159442234Y-90743407D01*
X159447385Y-90733063D01*
X159495461Y-90681205D01*
X159559729Y-90663500D01*
X167440271Y-90663500D01*
X167508121Y-90683423D01*
X167552615Y-90733063D01*
X167557763Y-90743403D01*
X167681007Y-90906605D01*
X167681010Y-90906608D01*
X167832143Y-91044385D01*
X167832146Y-91044387D01*
X167832150Y-91044390D01*
X168006010Y-91152039D01*
X168006020Y-91152045D01*
X168196719Y-91225922D01*
X168397746Y-91263500D01*
X168602254Y-91263500D01*
X168803281Y-91225922D01*
X168993980Y-91152045D01*
X169157769Y-91050631D01*
X169167849Y-91044390D01*
X169167849Y-91044389D01*
X169167857Y-91044385D01*
X169318990Y-90906608D01*
X169442234Y-90743407D01*
X169447385Y-90733063D01*
X169495461Y-90681205D01*
X169559729Y-90663500D01*
X178374845Y-90663500D01*
X178442695Y-90683423D01*
X178486666Y-90732024D01*
X178513434Y-90784560D01*
X178513443Y-90784574D01*
X178620155Y-90931451D01*
X178748548Y-91059844D01*
X178895425Y-91166556D01*
X178895428Y-91166557D01*
X178895434Y-91166562D01*
X179057210Y-91248991D01*
X179229888Y-91305097D01*
X179229891Y-91305097D01*
X179229893Y-91305098D01*
X179362149Y-91326045D01*
X179426048Y-91356336D01*
X179463426Y-91416365D01*
X179462416Y-91487073D01*
X179423340Y-91546010D01*
X179362149Y-91573955D01*
X179229894Y-91594901D01*
X179229893Y-91594901D01*
X179057208Y-91651009D01*
X178895439Y-91733435D01*
X178895425Y-91733443D01*
X178748548Y-91840155D01*
X178620155Y-91968548D01*
X178513443Y-92115425D01*
X178513438Y-92115434D01*
X178496856Y-92147976D01*
X178448303Y-92199386D01*
X178385036Y-92216500D01*
X169857452Y-92216500D01*
X169824972Y-92212224D01*
X169808453Y-92207798D01*
X169808450Y-92207797D01*
X169766291Y-92196500D01*
X169766288Y-92196500D01*
X169766287Y-92196500D01*
X169559729Y-92196500D01*
X169491879Y-92176577D01*
X169447385Y-92126937D01*
X169442236Y-92116596D01*
X169441362Y-92115439D01*
X169349196Y-91993391D01*
X169318992Y-91953394D01*
X169318989Y-91953391D01*
X169281206Y-91918947D01*
X169167857Y-91815615D01*
X169167854Y-91815613D01*
X169167849Y-91815609D01*
X168993989Y-91707960D01*
X168993976Y-91707953D01*
X168803281Y-91634078D01*
X168803275Y-91634076D01*
X168602254Y-91596500D01*
X168397746Y-91596500D01*
X168196724Y-91634076D01*
X168196718Y-91634078D01*
X168006023Y-91707953D01*
X168006010Y-91707960D01*
X167832150Y-91815609D01*
X167832139Y-91815618D01*
X167681010Y-91953391D01*
X167681007Y-91953394D01*
X167557763Y-92116596D01*
X167552615Y-92126937D01*
X167504539Y-92178795D01*
X167440271Y-92196500D01*
X159559729Y-92196500D01*
X159491879Y-92176577D01*
X159447385Y-92126937D01*
X159442236Y-92116596D01*
X159441362Y-92115439D01*
X159349196Y-91993391D01*
X159318992Y-91953394D01*
X159318989Y-91953391D01*
X159281206Y-91918947D01*
X159167857Y-91815615D01*
X159167854Y-91815613D01*
X159167849Y-91815609D01*
X158993989Y-91707960D01*
X158993976Y-91707953D01*
X158803281Y-91634078D01*
X158803275Y-91634076D01*
X158602254Y-91596500D01*
X158397746Y-91596500D01*
X158196724Y-91634076D01*
X158196718Y-91634078D01*
X158006023Y-91707953D01*
X158006010Y-91707960D01*
X157832150Y-91815609D01*
X157832139Y-91815618D01*
X157681010Y-91953391D01*
X157681007Y-91953394D01*
X157557766Y-92116591D01*
X157532696Y-92166940D01*
X157484619Y-92218797D01*
X157420353Y-92236500D01*
X154559729Y-92236500D01*
X154491879Y-92216577D01*
X154447385Y-92166937D01*
X154442236Y-92156596D01*
X154419074Y-92125925D01*
X154352804Y-92038169D01*
X154318992Y-91993394D01*
X154318989Y-91993391D01*
X154275111Y-91953391D01*
X154167857Y-91855615D01*
X154167854Y-91855613D01*
X154167849Y-91855609D01*
X153993989Y-91747960D01*
X153993976Y-91747953D01*
X153803281Y-91674078D01*
X153803275Y-91674076D01*
X153602254Y-91636500D01*
X153397746Y-91636500D01*
X153196724Y-91674076D01*
X153196718Y-91674078D01*
X153006023Y-91747953D01*
X153006010Y-91747960D01*
X152832150Y-91855609D01*
X152832139Y-91855618D01*
X152681010Y-91993391D01*
X152681007Y-91993394D01*
X152565289Y-92146631D01*
X152508502Y-92188770D01*
X152465138Y-92196500D01*
X149559729Y-92196500D01*
X149491879Y-92176577D01*
X149447385Y-92126937D01*
X149442236Y-92116596D01*
X149441362Y-92115439D01*
X149349196Y-91993391D01*
X149318992Y-91953394D01*
X149318989Y-91953391D01*
X149281206Y-91918947D01*
X149167857Y-91815615D01*
X149167854Y-91815613D01*
X149167849Y-91815609D01*
X148993989Y-91707960D01*
X148993976Y-91707953D01*
X148803281Y-91634078D01*
X148803275Y-91634076D01*
X148602254Y-91596500D01*
X148397746Y-91596500D01*
X148196724Y-91634076D01*
X148196718Y-91634078D01*
X148006023Y-91707953D01*
X148006010Y-91707960D01*
X147832150Y-91815609D01*
X147832139Y-91815618D01*
X147681010Y-91953391D01*
X147681007Y-91953394D01*
X147557763Y-92116596D01*
X147552615Y-92126937D01*
X147504539Y-92178795D01*
X147440271Y-92196500D01*
X144559729Y-92196500D01*
X144491879Y-92176577D01*
X144447385Y-92126937D01*
X144442236Y-92116596D01*
X144441362Y-92115439D01*
X144349196Y-91993391D01*
X144318992Y-91953394D01*
X144318989Y-91953391D01*
X144281206Y-91918947D01*
X144167857Y-91815615D01*
X144167854Y-91815613D01*
X144167849Y-91815609D01*
X143993989Y-91707960D01*
X143993976Y-91707953D01*
X143803281Y-91634078D01*
X143803275Y-91634076D01*
X143602254Y-91596500D01*
X143397746Y-91596500D01*
X143196721Y-91634077D01*
X143196712Y-91634080D01*
X143185539Y-91638408D01*
X143115073Y-91644337D01*
X143052588Y-91611228D01*
X143051468Y-91610122D01*
X142687421Y-91246075D01*
X142653531Y-91184010D01*
X142658576Y-91113475D01*
X142700954Y-91056865D01*
X142767210Y-91032153D01*
X142836309Y-91047184D01*
X142842230Y-91050631D01*
X143006010Y-91152039D01*
X143006020Y-91152045D01*
X143196719Y-91225922D01*
X143397746Y-91263500D01*
X143602254Y-91263500D01*
X143803281Y-91225922D01*
X143993980Y-91152045D01*
X144157769Y-91050631D01*
X144167849Y-91044390D01*
X144167849Y-91044389D01*
X144167857Y-91044385D01*
X144318990Y-90906608D01*
X144442234Y-90743407D01*
X144447385Y-90733063D01*
X144495461Y-90681205D01*
X144559729Y-90663500D01*
X147440271Y-90663500D01*
X147508121Y-90683423D01*
G37*
%TD.AperFunction*%
%TA.AperFunction,Conductor*%
G36*
X183452886Y-90703423D02*
G01*
X183496856Y-90752023D01*
X183513438Y-90784566D01*
X183513439Y-90784567D01*
X183513443Y-90784574D01*
X183620155Y-90931451D01*
X183748548Y-91059844D01*
X183895425Y-91166556D01*
X183895428Y-91166557D01*
X183895434Y-91166562D01*
X184057210Y-91248991D01*
X184229888Y-91305097D01*
X184229891Y-91305097D01*
X184229893Y-91305098D01*
X184362149Y-91326045D01*
X184426048Y-91356336D01*
X184463426Y-91416365D01*
X184462416Y-91487073D01*
X184423340Y-91546010D01*
X184362149Y-91573955D01*
X184229894Y-91594901D01*
X184229893Y-91594901D01*
X184057208Y-91651009D01*
X183895439Y-91733435D01*
X183895425Y-91733443D01*
X183748548Y-91840155D01*
X183620155Y-91968548D01*
X183513443Y-92115425D01*
X183513438Y-92115434D01*
X183496856Y-92147976D01*
X183448303Y-92199386D01*
X183385036Y-92216500D01*
X182014964Y-92216500D01*
X181947114Y-92196577D01*
X181903143Y-92147976D01*
X181886562Y-92115434D01*
X181886557Y-92115428D01*
X181886556Y-92115425D01*
X181779844Y-91968548D01*
X181651451Y-91840155D01*
X181504574Y-91733443D01*
X181504568Y-91733440D01*
X181504566Y-91733438D01*
X181454535Y-91707946D01*
X181342791Y-91651009D01*
X181170106Y-91594901D01*
X181057447Y-91577058D01*
X181037849Y-91573954D01*
X180973951Y-91543664D01*
X180936573Y-91483635D01*
X180937583Y-91412927D01*
X180976659Y-91353990D01*
X181037849Y-91326045D01*
X181170112Y-91305097D01*
X181342790Y-91248991D01*
X181504566Y-91166562D01*
X181602492Y-91095414D01*
X181651451Y-91059844D01*
X181651451Y-91059843D01*
X181651455Y-91059841D01*
X181779841Y-90931455D01*
X181807105Y-90893930D01*
X181851668Y-90832593D01*
X181886562Y-90784566D01*
X181903143Y-90752023D01*
X181951697Y-90700614D01*
X182014964Y-90683500D01*
X183385036Y-90683500D01*
X183452886Y-90703423D01*
G37*
%TD.AperFunction*%
%TA.AperFunction,Conductor*%
G36*
X134879323Y-90338009D02*
G01*
X134935933Y-90380387D01*
X134956174Y-90421251D01*
X135007076Y-90600151D01*
X135007079Y-90600160D01*
X135098192Y-90783141D01*
X135098194Y-90783144D01*
X135221376Y-90946266D01*
X135224158Y-90948801D01*
X135225099Y-90950349D01*
X135225290Y-90950559D01*
X135225249Y-90950596D01*
X135260883Y-91009232D01*
X135259106Y-91079924D01*
X135228358Y-91130295D01*
X134427929Y-91930724D01*
X134365864Y-91964614D01*
X134295329Y-91959569D01*
X134254638Y-91934727D01*
X134167860Y-91855618D01*
X134167857Y-91855615D01*
X134167854Y-91855613D01*
X134167849Y-91855609D01*
X133993989Y-91747960D01*
X133993976Y-91747953D01*
X133803281Y-91674078D01*
X133803275Y-91674076D01*
X133602254Y-91636500D01*
X133397746Y-91636500D01*
X133196721Y-91674077D01*
X133196712Y-91674080D01*
X133185539Y-91678408D01*
X133115073Y-91684337D01*
X133052588Y-91651228D01*
X133051468Y-91650122D01*
X132687421Y-91286075D01*
X132653531Y-91224010D01*
X132658576Y-91153475D01*
X132700954Y-91096865D01*
X132767210Y-91072153D01*
X132836309Y-91087184D01*
X132842230Y-91090631D01*
X132993043Y-91184010D01*
X133006020Y-91192045D01*
X133196719Y-91265922D01*
X133196723Y-91265922D01*
X133196724Y-91265923D01*
X133299372Y-91285111D01*
X133397746Y-91303500D01*
X133602254Y-91303500D01*
X133803281Y-91265922D01*
X133993980Y-91192045D01*
X134157769Y-91090631D01*
X134167849Y-91084390D01*
X134167849Y-91084389D01*
X134167857Y-91084385D01*
X134318990Y-90946608D01*
X134442234Y-90783407D01*
X134524529Y-90618136D01*
X134572605Y-90566281D01*
X134574126Y-90565389D01*
X134578455Y-90562890D01*
X134662890Y-90478455D01*
X134692561Y-90427061D01*
X134712498Y-90401079D01*
X134746725Y-90366852D01*
X134808788Y-90332964D01*
X134879323Y-90338009D01*
G37*
%TD.AperFunction*%
%TA.AperFunction,Conductor*%
G36*
X142118020Y-89423423D02*
G01*
X142138912Y-89440258D01*
X142412621Y-89713967D01*
X142446511Y-89776032D01*
X142444588Y-89837053D01*
X142410643Y-89956356D01*
X142410642Y-89956360D01*
X142391772Y-90160000D01*
X142410642Y-90363639D01*
X142410643Y-90363640D01*
X142415408Y-90380387D01*
X142466608Y-90560338D01*
X142466610Y-90560342D01*
X142557766Y-90743408D01*
X142681007Y-90906605D01*
X142684914Y-90910890D01*
X142683228Y-90912427D01*
X142714773Y-90964356D01*
X142712983Y-91035048D01*
X142673258Y-91093550D01*
X142608210Y-91121289D01*
X142538492Y-91109457D01*
X142530757Y-91105344D01*
X142465045Y-91067405D01*
X142434140Y-91059124D01*
X142434139Y-91059123D01*
X142349707Y-91036500D01*
X142349704Y-91036500D01*
X137042518Y-91036500D01*
X136974668Y-91016577D01*
X136928359Y-90963135D01*
X136918295Y-90893139D01*
X136942367Y-90835370D01*
X136981805Y-90783144D01*
X136981807Y-90783141D01*
X137072920Y-90600160D01*
X137072923Y-90600151D01*
X137128862Y-90403548D01*
X137128863Y-90403546D01*
X137136002Y-90326500D01*
X136523742Y-90326500D01*
X136540000Y-90265826D01*
X136540000Y-90134174D01*
X136523742Y-90073500D01*
X137136002Y-90073500D01*
X137128863Y-89996453D01*
X137128862Y-89996451D01*
X137072923Y-89799848D01*
X137072920Y-89799839D01*
X136981807Y-89616858D01*
X136972572Y-89604628D01*
X136947583Y-89538476D01*
X136962326Y-89469315D01*
X137012120Y-89419104D01*
X137072725Y-89403500D01*
X142050170Y-89403500D01*
X142118020Y-89423423D01*
G37*
%TD.AperFunction*%
%TA.AperFunction,Conductor*%
G36*
X134879323Y-87798010D02*
G01*
X134935933Y-87840388D01*
X134956174Y-87881252D01*
X135007076Y-88060151D01*
X135007079Y-88060160D01*
X135098192Y-88243141D01*
X135098194Y-88243144D01*
X135221374Y-88406262D01*
X135221380Y-88406269D01*
X135230563Y-88414640D01*
X135267284Y-88475073D01*
X135265504Y-88545765D01*
X135234758Y-88596129D01*
X134434328Y-89396557D01*
X134372263Y-89430447D01*
X134301728Y-89425402D01*
X134261038Y-89400562D01*
X134167857Y-89315615D01*
X134167854Y-89315613D01*
X134167849Y-89315609D01*
X133993989Y-89207960D01*
X133993976Y-89207953D01*
X133803281Y-89134078D01*
X133803275Y-89134076D01*
X133602254Y-89096500D01*
X133397746Y-89096500D01*
X133196724Y-89134076D01*
X133196718Y-89134078D01*
X133006023Y-89207953D01*
X133006010Y-89207960D01*
X132832150Y-89315609D01*
X132832139Y-89315618D01*
X132681010Y-89453391D01*
X132681007Y-89453394D01*
X132557763Y-89616596D01*
X132557763Y-89616597D01*
X132527717Y-89676939D01*
X132479640Y-89728797D01*
X132415374Y-89746500D01*
X132048358Y-89746500D01*
X131980508Y-89726577D01*
X131959616Y-89709742D01*
X131790258Y-89540384D01*
X131756368Y-89478319D01*
X131753500Y-89451642D01*
X131753500Y-88740297D01*
X131753500Y-88740296D01*
X131722595Y-88624956D01*
X131666274Y-88527406D01*
X131662890Y-88521544D01*
X131374684Y-88233338D01*
X131340794Y-88171273D01*
X131345839Y-88100738D01*
X131388217Y-88044128D01*
X131454473Y-88019416D01*
X131523572Y-88034447D01*
X131526142Y-88035890D01*
X131607036Y-88082595D01*
X131722377Y-88113500D01*
X132415374Y-88113500D01*
X132483224Y-88133423D01*
X132527717Y-88183061D01*
X132557763Y-88243402D01*
X132557763Y-88243403D01*
X132681007Y-88406605D01*
X132681010Y-88406608D01*
X132832143Y-88544385D01*
X132832146Y-88544387D01*
X132832150Y-88544390D01*
X132970710Y-88630182D01*
X133006020Y-88652045D01*
X133196719Y-88725922D01*
X133196723Y-88725922D01*
X133196724Y-88725923D01*
X133273614Y-88740296D01*
X133397746Y-88763500D01*
X133602254Y-88763500D01*
X133803281Y-88725922D01*
X133993980Y-88652045D01*
X134167857Y-88544385D01*
X134318990Y-88406608D01*
X134442234Y-88243407D01*
X134533392Y-88060338D01*
X134533394Y-88060328D01*
X134535491Y-88054921D01*
X134537164Y-88055569D01*
X134564451Y-88009127D01*
X134746725Y-87826853D01*
X134808788Y-87792965D01*
X134879323Y-87798010D01*
G37*
%TD.AperFunction*%
%TA.AperFunction,Conductor*%
G36*
X147508121Y-88143423D02*
G01*
X147552615Y-88193063D01*
X147557763Y-88203403D01*
X147681007Y-88366605D01*
X147681010Y-88366608D01*
X147832143Y-88504385D01*
X147832146Y-88504387D01*
X147832150Y-88504390D01*
X148006010Y-88612039D01*
X148006020Y-88612045D01*
X148196719Y-88685922D01*
X148196723Y-88685922D01*
X148196724Y-88685923D01*
X148377214Y-88719662D01*
X148397746Y-88723500D01*
X148602254Y-88723500D01*
X148803281Y-88685922D01*
X148993980Y-88612045D01*
X149157769Y-88510631D01*
X149167849Y-88504390D01*
X149167849Y-88504389D01*
X149167857Y-88504385D01*
X149318990Y-88366608D01*
X149442234Y-88203407D01*
X149447385Y-88193063D01*
X149495461Y-88141205D01*
X149559729Y-88123500D01*
X152420353Y-88123500D01*
X152488203Y-88143423D01*
X152532696Y-88193060D01*
X152557766Y-88243408D01*
X152681007Y-88406605D01*
X152681010Y-88406608D01*
X152832143Y-88544385D01*
X152832146Y-88544387D01*
X152832150Y-88544390D01*
X152970710Y-88630182D01*
X153006020Y-88652045D01*
X153196719Y-88725922D01*
X153196723Y-88725922D01*
X153196724Y-88725923D01*
X153273614Y-88740296D01*
X153397746Y-88763500D01*
X153602254Y-88763500D01*
X153803281Y-88725922D01*
X153993980Y-88652045D01*
X154167857Y-88544385D01*
X154318990Y-88406608D01*
X154442234Y-88243407D01*
X154442366Y-88243141D01*
X154447385Y-88233063D01*
X154495461Y-88181205D01*
X154559729Y-88163500D01*
X157465138Y-88163500D01*
X157532988Y-88183423D01*
X157565289Y-88213369D01*
X157681007Y-88366605D01*
X157681010Y-88366608D01*
X157832143Y-88504385D01*
X157832146Y-88504387D01*
X157832150Y-88504390D01*
X158006010Y-88612039D01*
X158006020Y-88612045D01*
X158196719Y-88685922D01*
X158196723Y-88685922D01*
X158196724Y-88685923D01*
X158377214Y-88719662D01*
X158397746Y-88723500D01*
X158602254Y-88723500D01*
X158803281Y-88685922D01*
X158993980Y-88612045D01*
X159157769Y-88510631D01*
X159167849Y-88504390D01*
X159167849Y-88504389D01*
X159167857Y-88504385D01*
X159318990Y-88366608D01*
X159442234Y-88203407D01*
X159447385Y-88193063D01*
X159495461Y-88141205D01*
X159559729Y-88123500D01*
X167440271Y-88123500D01*
X167508121Y-88143423D01*
X167552615Y-88193063D01*
X167557763Y-88203403D01*
X167681007Y-88366605D01*
X167681010Y-88366608D01*
X167832143Y-88504385D01*
X167832146Y-88504387D01*
X167832150Y-88504390D01*
X168006010Y-88612039D01*
X168006020Y-88612045D01*
X168196719Y-88685922D01*
X168196723Y-88685922D01*
X168196724Y-88685923D01*
X168377214Y-88719662D01*
X168397746Y-88723500D01*
X168602254Y-88723500D01*
X168803281Y-88685922D01*
X168993980Y-88612045D01*
X169157769Y-88510631D01*
X169167849Y-88504390D01*
X169167849Y-88504389D01*
X169167857Y-88504385D01*
X169318990Y-88366608D01*
X169442234Y-88203407D01*
X169447385Y-88193063D01*
X169495461Y-88141205D01*
X169559729Y-88123500D01*
X178374845Y-88123500D01*
X178442695Y-88143423D01*
X178486666Y-88192024D01*
X178513434Y-88244560D01*
X178513443Y-88244574D01*
X178620155Y-88391451D01*
X178748548Y-88519844D01*
X178895425Y-88626556D01*
X178895428Y-88626557D01*
X178895434Y-88626562D01*
X179057210Y-88708991D01*
X179229888Y-88765097D01*
X179229891Y-88765097D01*
X179229893Y-88765098D01*
X179362149Y-88786045D01*
X179426048Y-88816336D01*
X179463426Y-88876365D01*
X179462416Y-88947073D01*
X179423340Y-89006010D01*
X179362149Y-89033955D01*
X179229894Y-89054901D01*
X179229893Y-89054901D01*
X179057208Y-89111009D01*
X178895439Y-89193435D01*
X178895425Y-89193443D01*
X178748548Y-89300155D01*
X178620155Y-89428548D01*
X178513443Y-89575425D01*
X178513437Y-89575434D01*
X178507047Y-89587977D01*
X178458492Y-89639387D01*
X178395226Y-89656500D01*
X169559729Y-89656500D01*
X169491879Y-89636577D01*
X169447385Y-89586937D01*
X169442236Y-89576596D01*
X169441362Y-89575439D01*
X169342976Y-89445154D01*
X169318992Y-89413394D01*
X169318989Y-89413391D01*
X169281206Y-89378947D01*
X169167857Y-89275615D01*
X169167854Y-89275613D01*
X169167849Y-89275609D01*
X168993989Y-89167960D01*
X168993976Y-89167953D01*
X168803281Y-89094078D01*
X168803275Y-89094076D01*
X168602254Y-89056500D01*
X168397746Y-89056500D01*
X168196724Y-89094076D01*
X168196718Y-89094078D01*
X168006023Y-89167953D01*
X168006010Y-89167960D01*
X167832150Y-89275609D01*
X167832139Y-89275618D01*
X167681010Y-89413391D01*
X167681007Y-89413394D01*
X167557763Y-89576596D01*
X167552615Y-89586937D01*
X167504539Y-89638795D01*
X167440271Y-89656500D01*
X159559729Y-89656500D01*
X159491879Y-89636577D01*
X159447385Y-89586937D01*
X159442236Y-89576596D01*
X159441362Y-89575439D01*
X159342976Y-89445154D01*
X159318992Y-89413394D01*
X159318989Y-89413391D01*
X159281206Y-89378947D01*
X159167857Y-89275615D01*
X159167854Y-89275613D01*
X159167849Y-89275609D01*
X158993989Y-89167960D01*
X158993976Y-89167953D01*
X158803281Y-89094078D01*
X158803275Y-89094076D01*
X158602254Y-89056500D01*
X158397746Y-89056500D01*
X158196724Y-89094076D01*
X158196718Y-89094078D01*
X158006023Y-89167953D01*
X158006010Y-89167960D01*
X157832150Y-89275609D01*
X157832139Y-89275618D01*
X157681010Y-89413391D01*
X157681007Y-89413394D01*
X157557766Y-89576591D01*
X157532696Y-89626940D01*
X157484619Y-89678797D01*
X157420353Y-89696500D01*
X154559729Y-89696500D01*
X154491879Y-89676577D01*
X154447385Y-89626937D01*
X154442236Y-89616596D01*
X154318992Y-89453394D01*
X154318989Y-89453391D01*
X154275111Y-89413391D01*
X154167857Y-89315615D01*
X154167854Y-89315613D01*
X154167849Y-89315609D01*
X153993989Y-89207960D01*
X153993976Y-89207953D01*
X153803281Y-89134078D01*
X153803275Y-89134076D01*
X153602254Y-89096500D01*
X153397746Y-89096500D01*
X153196724Y-89134076D01*
X153196718Y-89134078D01*
X153006023Y-89207953D01*
X153006010Y-89207960D01*
X152832150Y-89315609D01*
X152832139Y-89315618D01*
X152681010Y-89453391D01*
X152681007Y-89453394D01*
X152565289Y-89606631D01*
X152508502Y-89648770D01*
X152465138Y-89656500D01*
X149559729Y-89656500D01*
X149491879Y-89636577D01*
X149447385Y-89586937D01*
X149442236Y-89576596D01*
X149441362Y-89575439D01*
X149342976Y-89445154D01*
X149318992Y-89413394D01*
X149318989Y-89413391D01*
X149281206Y-89378947D01*
X149167857Y-89275615D01*
X149167854Y-89275613D01*
X149167849Y-89275609D01*
X148993989Y-89167960D01*
X148993976Y-89167953D01*
X148803281Y-89094078D01*
X148803275Y-89094076D01*
X148602254Y-89056500D01*
X148397746Y-89056500D01*
X148196724Y-89094076D01*
X148196718Y-89094078D01*
X148006023Y-89167953D01*
X148006010Y-89167960D01*
X147832150Y-89275609D01*
X147832139Y-89275618D01*
X147681010Y-89413391D01*
X147681007Y-89413394D01*
X147557763Y-89576596D01*
X147552615Y-89586937D01*
X147504539Y-89638795D01*
X147440271Y-89656500D01*
X144559729Y-89656500D01*
X144491879Y-89636577D01*
X144447385Y-89586937D01*
X144442236Y-89576596D01*
X144441362Y-89575439D01*
X144342976Y-89445154D01*
X144318992Y-89413394D01*
X144318989Y-89413391D01*
X144281206Y-89378947D01*
X144167857Y-89275615D01*
X144167854Y-89275613D01*
X144167849Y-89275609D01*
X143993989Y-89167960D01*
X143993976Y-89167953D01*
X143803281Y-89094078D01*
X143803275Y-89094076D01*
X143602254Y-89056500D01*
X143397746Y-89056500D01*
X143196721Y-89094077D01*
X143196712Y-89094080D01*
X143185539Y-89098408D01*
X143115073Y-89104337D01*
X143052588Y-89071228D01*
X143051468Y-89070122D01*
X142687421Y-88706075D01*
X142653531Y-88644010D01*
X142658576Y-88573475D01*
X142700954Y-88516865D01*
X142767210Y-88492153D01*
X142836309Y-88507184D01*
X142842230Y-88510631D01*
X143006010Y-88612039D01*
X143006020Y-88612045D01*
X143196719Y-88685922D01*
X143196723Y-88685922D01*
X143196724Y-88685923D01*
X143377214Y-88719662D01*
X143397746Y-88723500D01*
X143602254Y-88723500D01*
X143803281Y-88685922D01*
X143993980Y-88612045D01*
X144157769Y-88510631D01*
X144167849Y-88504390D01*
X144167849Y-88504389D01*
X144167857Y-88504385D01*
X144318990Y-88366608D01*
X144442234Y-88203407D01*
X144447385Y-88193063D01*
X144495461Y-88141205D01*
X144559729Y-88123500D01*
X147440271Y-88123500D01*
X147508121Y-88143423D01*
G37*
%TD.AperFunction*%
%TA.AperFunction,Conductor*%
G36*
X183452886Y-88163423D02*
G01*
X183496856Y-88212023D01*
X183513438Y-88244566D01*
X183513440Y-88244569D01*
X183513443Y-88244574D01*
X183620155Y-88391451D01*
X183748548Y-88519844D01*
X183895425Y-88626556D01*
X183895428Y-88626557D01*
X183895434Y-88626562D01*
X184057210Y-88708991D01*
X184229888Y-88765097D01*
X184229891Y-88765097D01*
X184229893Y-88765098D01*
X184362149Y-88786045D01*
X184426048Y-88816336D01*
X184463426Y-88876365D01*
X184462416Y-88947073D01*
X184423340Y-89006010D01*
X184362149Y-89033955D01*
X184229894Y-89054901D01*
X184229893Y-89054901D01*
X184057208Y-89111009D01*
X183895439Y-89193435D01*
X183895425Y-89193443D01*
X183748548Y-89300155D01*
X183620155Y-89428548D01*
X183513443Y-89575425D01*
X183513438Y-89575434D01*
X183496856Y-89607976D01*
X183448303Y-89659386D01*
X183385036Y-89676500D01*
X182014964Y-89676500D01*
X181947114Y-89656577D01*
X181903143Y-89607976D01*
X181886562Y-89575434D01*
X181886557Y-89575428D01*
X181886556Y-89575425D01*
X181779844Y-89428548D01*
X181651451Y-89300155D01*
X181504574Y-89193443D01*
X181504568Y-89193440D01*
X181504566Y-89193438D01*
X181428136Y-89154495D01*
X181342791Y-89111009D01*
X181170106Y-89054901D01*
X181057447Y-89037058D01*
X181037849Y-89033954D01*
X180973951Y-89003664D01*
X180936573Y-88943635D01*
X180937583Y-88872927D01*
X180976659Y-88813990D01*
X181037849Y-88786045D01*
X181170112Y-88765097D01*
X181342790Y-88708991D01*
X181504566Y-88626562D01*
X181602492Y-88555414D01*
X181651451Y-88519844D01*
X181651451Y-88519843D01*
X181651455Y-88519841D01*
X181779841Y-88391455D01*
X181886562Y-88244566D01*
X181903143Y-88212023D01*
X181951697Y-88160614D01*
X182014964Y-88143500D01*
X183385036Y-88143500D01*
X183452886Y-88163423D01*
G37*
%TD.AperFunction*%
%TA.AperFunction,Conductor*%
G36*
X142118020Y-86883423D02*
G01*
X142138912Y-86900258D01*
X142412621Y-87173967D01*
X142446511Y-87236032D01*
X142444588Y-87297053D01*
X142410643Y-87416356D01*
X142410642Y-87416360D01*
X142391772Y-87620000D01*
X142410642Y-87823639D01*
X142410643Y-87823640D01*
X142418995Y-87852993D01*
X142466608Y-88020338D01*
X142466610Y-88020342D01*
X142557766Y-88203408D01*
X142681007Y-88366605D01*
X142684914Y-88370890D01*
X142683228Y-88372427D01*
X142714773Y-88424356D01*
X142712983Y-88495048D01*
X142673258Y-88553550D01*
X142608210Y-88581289D01*
X142538492Y-88569457D01*
X142530757Y-88565344D01*
X142465045Y-88527405D01*
X142434140Y-88519124D01*
X142434139Y-88519123D01*
X142349707Y-88496500D01*
X142349704Y-88496500D01*
X137042518Y-88496500D01*
X136974668Y-88476577D01*
X136928359Y-88423135D01*
X136918295Y-88353139D01*
X136942367Y-88295370D01*
X136981805Y-88243144D01*
X136981807Y-88243141D01*
X137072920Y-88060160D01*
X137072923Y-88060151D01*
X137128862Y-87863548D01*
X137128863Y-87863546D01*
X137136002Y-87786500D01*
X136523742Y-87786500D01*
X136540000Y-87725826D01*
X136540000Y-87594174D01*
X136523742Y-87533500D01*
X137136002Y-87533500D01*
X137128863Y-87456453D01*
X137128862Y-87456451D01*
X137072923Y-87259848D01*
X137072920Y-87259839D01*
X136981807Y-87076858D01*
X136972572Y-87064628D01*
X136947583Y-86998476D01*
X136962326Y-86929315D01*
X137012120Y-86879104D01*
X137072725Y-86863500D01*
X142050170Y-86863500D01*
X142118020Y-86883423D01*
G37*
%TD.AperFunction*%
%TA.AperFunction,Conductor*%
G36*
X134879323Y-85258010D02*
G01*
X134935933Y-85300388D01*
X134956174Y-85341252D01*
X135007076Y-85520151D01*
X135007079Y-85520160D01*
X135098192Y-85703141D01*
X135098194Y-85703144D01*
X135221378Y-85866268D01*
X135221379Y-85866269D01*
X135230562Y-85874640D01*
X135267283Y-85935073D01*
X135265503Y-86005765D01*
X135234757Y-86056129D01*
X134434328Y-86856557D01*
X134372263Y-86890447D01*
X134301728Y-86885402D01*
X134261038Y-86860562D01*
X134167857Y-86775615D01*
X134167854Y-86775613D01*
X134167849Y-86775609D01*
X133993989Y-86667960D01*
X133993976Y-86667953D01*
X133803281Y-86594078D01*
X133803275Y-86594076D01*
X133602254Y-86556500D01*
X133397746Y-86556500D01*
X133196724Y-86594076D01*
X133196718Y-86594078D01*
X133006023Y-86667953D01*
X133006010Y-86667960D01*
X132832150Y-86775609D01*
X132832139Y-86775618D01*
X132681010Y-86913391D01*
X132681007Y-86913394D01*
X132557763Y-87076596D01*
X132557763Y-87076597D01*
X132527717Y-87136939D01*
X132479640Y-87188797D01*
X132415374Y-87206500D01*
X132021911Y-87206500D01*
X131954061Y-87186577D01*
X131933169Y-87169742D01*
X130980538Y-86217111D01*
X130980537Y-86217110D01*
X130877126Y-86157405D01*
X130846221Y-86149124D01*
X130846220Y-86149123D01*
X130761788Y-86126500D01*
X130761785Y-86126500D01*
X130584626Y-86126500D01*
X130516776Y-86106577D01*
X130472283Y-86056939D01*
X130442236Y-85996597D01*
X130442236Y-85996596D01*
X130435295Y-85987405D01*
X130402993Y-85944630D01*
X130378003Y-85878479D01*
X130392745Y-85809317D01*
X130442537Y-85759105D01*
X130503145Y-85743500D01*
X132525551Y-85743500D01*
X132593401Y-85763423D01*
X132625702Y-85793369D01*
X132681007Y-85866605D01*
X132681010Y-85866608D01*
X132832143Y-86004385D01*
X132832146Y-86004387D01*
X132832150Y-86004390D01*
X132993043Y-86104010D01*
X133006020Y-86112045D01*
X133196719Y-86185922D01*
X133196723Y-86185922D01*
X133196724Y-86185923D01*
X133338285Y-86212385D01*
X133397746Y-86223500D01*
X133602254Y-86223500D01*
X133803281Y-86185922D01*
X133993980Y-86112045D01*
X134167857Y-86004385D01*
X134318990Y-85866608D01*
X134442234Y-85703407D01*
X134533392Y-85520338D01*
X134533394Y-85520328D01*
X134535491Y-85514921D01*
X134537164Y-85515569D01*
X134564451Y-85469127D01*
X134746725Y-85286853D01*
X134808788Y-85252965D01*
X134879323Y-85258010D01*
G37*
%TD.AperFunction*%
%TA.AperFunction,Conductor*%
G36*
X147508121Y-85603423D02*
G01*
X147552615Y-85653063D01*
X147557763Y-85663403D01*
X147681007Y-85826605D01*
X147681010Y-85826608D01*
X147832143Y-85964385D01*
X147832146Y-85964387D01*
X147832150Y-85964390D01*
X147981623Y-86056939D01*
X148006020Y-86072045D01*
X148196719Y-86145922D01*
X148196723Y-86145922D01*
X148196724Y-86145923D01*
X148377214Y-86179662D01*
X148397746Y-86183500D01*
X148602254Y-86183500D01*
X148803281Y-86145922D01*
X148993980Y-86072045D01*
X149157769Y-85970631D01*
X149167849Y-85964390D01*
X149167849Y-85964389D01*
X149167857Y-85964385D01*
X149318990Y-85826608D01*
X149442234Y-85663407D01*
X149447385Y-85653063D01*
X149495461Y-85601205D01*
X149559729Y-85583500D01*
X152420353Y-85583500D01*
X152488203Y-85603423D01*
X152532696Y-85653060D01*
X152557766Y-85703408D01*
X152681007Y-85866605D01*
X152681010Y-85866608D01*
X152832143Y-86004385D01*
X152832146Y-86004387D01*
X152832150Y-86004390D01*
X152993043Y-86104010D01*
X153006020Y-86112045D01*
X153196719Y-86185922D01*
X153196723Y-86185922D01*
X153196724Y-86185923D01*
X153338285Y-86212385D01*
X153397746Y-86223500D01*
X153602254Y-86223500D01*
X153803281Y-86185922D01*
X153993980Y-86112045D01*
X154167857Y-86004385D01*
X154318990Y-85866608D01*
X154442234Y-85703407D01*
X154442366Y-85703141D01*
X154447385Y-85693063D01*
X154495461Y-85641205D01*
X154559729Y-85623500D01*
X157465138Y-85623500D01*
X157532988Y-85643423D01*
X157565289Y-85673369D01*
X157681007Y-85826605D01*
X157681010Y-85826608D01*
X157832143Y-85964385D01*
X157832146Y-85964387D01*
X157832150Y-85964390D01*
X157981623Y-86056939D01*
X158006020Y-86072045D01*
X158196719Y-86145922D01*
X158196723Y-86145922D01*
X158196724Y-86145923D01*
X158377214Y-86179662D01*
X158397746Y-86183500D01*
X158602254Y-86183500D01*
X158803281Y-86145922D01*
X158993980Y-86072045D01*
X159157769Y-85970631D01*
X159167849Y-85964390D01*
X159167849Y-85964389D01*
X159167857Y-85964385D01*
X159318990Y-85826608D01*
X159442234Y-85663407D01*
X159447385Y-85653063D01*
X159495461Y-85601205D01*
X159559729Y-85583500D01*
X167440271Y-85583500D01*
X167508121Y-85603423D01*
X167552615Y-85653063D01*
X167557763Y-85663403D01*
X167681007Y-85826605D01*
X167681010Y-85826608D01*
X167832143Y-85964385D01*
X167832146Y-85964387D01*
X167832150Y-85964390D01*
X167981623Y-86056939D01*
X168006020Y-86072045D01*
X168196719Y-86145922D01*
X168196723Y-86145922D01*
X168196724Y-86145923D01*
X168377214Y-86179662D01*
X168397746Y-86183500D01*
X168602254Y-86183500D01*
X168803281Y-86145922D01*
X168993980Y-86072045D01*
X169157769Y-85970631D01*
X169167849Y-85964390D01*
X169167849Y-85964389D01*
X169167857Y-85964385D01*
X169318990Y-85826608D01*
X169442234Y-85663407D01*
X169447385Y-85653063D01*
X169495461Y-85601205D01*
X169559729Y-85583500D01*
X178374845Y-85583500D01*
X178442695Y-85603423D01*
X178486666Y-85652024D01*
X178513434Y-85704560D01*
X178513443Y-85704574D01*
X178620155Y-85851451D01*
X178748548Y-85979844D01*
X178895425Y-86086556D01*
X178895428Y-86086557D01*
X178895434Y-86086562D01*
X179057210Y-86168991D01*
X179229888Y-86225097D01*
X179229891Y-86225097D01*
X179229893Y-86225098D01*
X179362149Y-86246045D01*
X179426048Y-86276336D01*
X179463426Y-86336365D01*
X179462416Y-86407073D01*
X179423340Y-86466010D01*
X179362149Y-86493955D01*
X179229894Y-86514901D01*
X179229893Y-86514901D01*
X179057208Y-86571009D01*
X178895439Y-86653435D01*
X178895425Y-86653443D01*
X178748548Y-86760155D01*
X178620155Y-86888548D01*
X178513443Y-87035425D01*
X178513437Y-87035434D01*
X178507047Y-87047977D01*
X178458492Y-87099387D01*
X178395226Y-87116500D01*
X169559729Y-87116500D01*
X169491879Y-87096577D01*
X169447385Y-87046937D01*
X169442236Y-87036596D01*
X169441362Y-87035439D01*
X169349196Y-86913391D01*
X169318992Y-86873394D01*
X169318989Y-86873391D01*
X169281206Y-86838947D01*
X169167857Y-86735615D01*
X169167854Y-86735613D01*
X169167849Y-86735609D01*
X168993989Y-86627960D01*
X168993976Y-86627953D01*
X168803281Y-86554078D01*
X168803275Y-86554076D01*
X168602254Y-86516500D01*
X168397746Y-86516500D01*
X168196724Y-86554076D01*
X168196718Y-86554078D01*
X168006023Y-86627953D01*
X168006010Y-86627960D01*
X167832150Y-86735609D01*
X167832139Y-86735618D01*
X167681010Y-86873391D01*
X167681007Y-86873394D01*
X167557763Y-87036596D01*
X167552615Y-87046937D01*
X167504539Y-87098795D01*
X167440271Y-87116500D01*
X159559729Y-87116500D01*
X159491879Y-87096577D01*
X159447385Y-87046937D01*
X159442236Y-87036596D01*
X159441362Y-87035439D01*
X159349196Y-86913391D01*
X159318992Y-86873394D01*
X159318989Y-86873391D01*
X159281206Y-86838947D01*
X159167857Y-86735615D01*
X159167854Y-86735613D01*
X159167849Y-86735609D01*
X158993989Y-86627960D01*
X158993976Y-86627953D01*
X158803281Y-86554078D01*
X158803275Y-86554076D01*
X158602254Y-86516500D01*
X158397746Y-86516500D01*
X158196724Y-86554076D01*
X158196718Y-86554078D01*
X158006023Y-86627953D01*
X158006010Y-86627960D01*
X157832150Y-86735609D01*
X157832139Y-86735618D01*
X157681010Y-86873391D01*
X157681007Y-86873394D01*
X157557766Y-87036591D01*
X157532696Y-87086940D01*
X157484619Y-87138797D01*
X157420353Y-87156500D01*
X154559729Y-87156500D01*
X154491879Y-87136577D01*
X154447385Y-87086937D01*
X154442236Y-87076596D01*
X154318992Y-86913394D01*
X154318989Y-86913391D01*
X154275111Y-86873391D01*
X154167857Y-86775615D01*
X154167854Y-86775613D01*
X154167849Y-86775609D01*
X153993989Y-86667960D01*
X153993976Y-86667953D01*
X153803281Y-86594078D01*
X153803275Y-86594076D01*
X153602254Y-86556500D01*
X153397746Y-86556500D01*
X153196724Y-86594076D01*
X153196718Y-86594078D01*
X153006023Y-86667953D01*
X153006010Y-86667960D01*
X152832150Y-86775609D01*
X152832139Y-86775618D01*
X152681010Y-86913391D01*
X152681007Y-86913394D01*
X152565289Y-87066631D01*
X152508502Y-87108770D01*
X152465138Y-87116500D01*
X149559729Y-87116500D01*
X149491879Y-87096577D01*
X149447385Y-87046937D01*
X149442236Y-87036596D01*
X149441362Y-87035439D01*
X149349196Y-86913391D01*
X149318992Y-86873394D01*
X149318989Y-86873391D01*
X149281206Y-86838947D01*
X149167857Y-86735615D01*
X149167854Y-86735613D01*
X149167849Y-86735609D01*
X148993989Y-86627960D01*
X148993976Y-86627953D01*
X148803281Y-86554078D01*
X148803275Y-86554076D01*
X148602254Y-86516500D01*
X148397746Y-86516500D01*
X148196724Y-86554076D01*
X148196718Y-86554078D01*
X148006023Y-86627953D01*
X148006010Y-86627960D01*
X147832150Y-86735609D01*
X147832139Y-86735618D01*
X147681010Y-86873391D01*
X147681007Y-86873394D01*
X147557763Y-87036596D01*
X147552615Y-87046937D01*
X147504539Y-87098795D01*
X147440271Y-87116500D01*
X144559729Y-87116500D01*
X144491879Y-87096577D01*
X144447385Y-87046937D01*
X144442236Y-87036596D01*
X144441362Y-87035439D01*
X144349196Y-86913391D01*
X144318992Y-86873394D01*
X144318989Y-86873391D01*
X144281206Y-86838947D01*
X144167857Y-86735615D01*
X144167854Y-86735613D01*
X144167849Y-86735609D01*
X143993989Y-86627960D01*
X143993976Y-86627953D01*
X143803281Y-86554078D01*
X143803275Y-86554076D01*
X143602254Y-86516500D01*
X143397746Y-86516500D01*
X143196721Y-86554077D01*
X143196712Y-86554080D01*
X143185539Y-86558408D01*
X143115073Y-86564337D01*
X143052588Y-86531228D01*
X143051468Y-86530122D01*
X142687421Y-86166075D01*
X142653531Y-86104010D01*
X142658576Y-86033475D01*
X142700954Y-85976865D01*
X142767210Y-85952153D01*
X142836309Y-85967184D01*
X142842230Y-85970631D01*
X142981623Y-86056939D01*
X143006020Y-86072045D01*
X143196719Y-86145922D01*
X143196723Y-86145922D01*
X143196724Y-86145923D01*
X143377214Y-86179662D01*
X143397746Y-86183500D01*
X143602254Y-86183500D01*
X143803281Y-86145922D01*
X143993980Y-86072045D01*
X144157769Y-85970631D01*
X144167849Y-85964390D01*
X144167849Y-85964389D01*
X144167857Y-85964385D01*
X144318990Y-85826608D01*
X144442234Y-85663407D01*
X144447385Y-85653063D01*
X144495461Y-85601205D01*
X144559729Y-85583500D01*
X147440271Y-85583500D01*
X147508121Y-85603423D01*
G37*
%TD.AperFunction*%
%TA.AperFunction,Conductor*%
G36*
X183452886Y-85623423D02*
G01*
X183496856Y-85672023D01*
X183513438Y-85704566D01*
X183513440Y-85704569D01*
X183513443Y-85704574D01*
X183620155Y-85851451D01*
X183748548Y-85979844D01*
X183895425Y-86086556D01*
X183895428Y-86086557D01*
X183895434Y-86086562D01*
X184057210Y-86168991D01*
X184229888Y-86225097D01*
X184229891Y-86225097D01*
X184229893Y-86225098D01*
X184362149Y-86246045D01*
X184426048Y-86276336D01*
X184463426Y-86336365D01*
X184462416Y-86407073D01*
X184423340Y-86466010D01*
X184362149Y-86493955D01*
X184229894Y-86514901D01*
X184229893Y-86514901D01*
X184057208Y-86571009D01*
X183895439Y-86653435D01*
X183895425Y-86653443D01*
X183748548Y-86760155D01*
X183620155Y-86888548D01*
X183513443Y-87035425D01*
X183513438Y-87035434D01*
X183496856Y-87067976D01*
X183448303Y-87119386D01*
X183385036Y-87136500D01*
X182014964Y-87136500D01*
X181947114Y-87116577D01*
X181903143Y-87067976D01*
X181886562Y-87035434D01*
X181886557Y-87035428D01*
X181886556Y-87035425D01*
X181779844Y-86888548D01*
X181651451Y-86760155D01*
X181504574Y-86653443D01*
X181504568Y-86653440D01*
X181504566Y-86653438D01*
X181435272Y-86618131D01*
X181342791Y-86571009D01*
X181170106Y-86514901D01*
X181057447Y-86497058D01*
X181037849Y-86493954D01*
X180973951Y-86463664D01*
X180936573Y-86403635D01*
X180937583Y-86332927D01*
X180976659Y-86273990D01*
X181037849Y-86246045D01*
X181170112Y-86225097D01*
X181342790Y-86168991D01*
X181504566Y-86086562D01*
X181602492Y-86015414D01*
X181651451Y-85979844D01*
X181651451Y-85979843D01*
X181651455Y-85979841D01*
X181779841Y-85851455D01*
X181886562Y-85704566D01*
X181903143Y-85672023D01*
X181951697Y-85620614D01*
X182014964Y-85603500D01*
X183385036Y-85603500D01*
X183452886Y-85623423D01*
G37*
%TD.AperFunction*%
%TA.AperFunction,Conductor*%
G36*
X142118020Y-84343423D02*
G01*
X142138912Y-84360258D01*
X142412621Y-84633967D01*
X142446511Y-84696032D01*
X142444588Y-84757053D01*
X142410643Y-84876356D01*
X142410642Y-84876360D01*
X142391772Y-85080000D01*
X142410642Y-85283639D01*
X142410643Y-85283640D01*
X142466608Y-85480338D01*
X142466610Y-85480342D01*
X142557766Y-85663408D01*
X142681007Y-85826605D01*
X142684914Y-85830890D01*
X142683228Y-85832427D01*
X142714773Y-85884356D01*
X142712983Y-85955048D01*
X142673258Y-86013550D01*
X142608210Y-86041289D01*
X142538492Y-86029457D01*
X142530757Y-86025344D01*
X142465045Y-85987405D01*
X142434140Y-85979124D01*
X142434139Y-85979123D01*
X142349707Y-85956500D01*
X142349704Y-85956500D01*
X137042518Y-85956500D01*
X136974668Y-85936577D01*
X136928359Y-85883135D01*
X136918295Y-85813139D01*
X136942367Y-85755370D01*
X136981805Y-85703144D01*
X136981807Y-85703141D01*
X137072920Y-85520160D01*
X137072923Y-85520151D01*
X137128862Y-85323548D01*
X137128863Y-85323546D01*
X137136002Y-85246500D01*
X136523742Y-85246500D01*
X136540000Y-85185826D01*
X136540000Y-85054174D01*
X136523742Y-84993500D01*
X137136002Y-84993500D01*
X137128863Y-84916453D01*
X137128862Y-84916451D01*
X137072923Y-84719848D01*
X137072920Y-84719839D01*
X136981807Y-84536858D01*
X136972572Y-84524628D01*
X136947583Y-84458476D01*
X136962326Y-84389315D01*
X137012120Y-84339104D01*
X137072725Y-84323500D01*
X142050170Y-84323500D01*
X142118020Y-84343423D01*
G37*
%TD.AperFunction*%
%TA.AperFunction,Conductor*%
G36*
X134879323Y-82718010D02*
G01*
X134935933Y-82760388D01*
X134956174Y-82801252D01*
X135007076Y-82980151D01*
X135007079Y-82980160D01*
X135098192Y-83163141D01*
X135098194Y-83163144D01*
X135221378Y-83326268D01*
X135221379Y-83326269D01*
X135230562Y-83334640D01*
X135267283Y-83395073D01*
X135265503Y-83465765D01*
X135234757Y-83516129D01*
X134434328Y-84316557D01*
X134372263Y-84350447D01*
X134301728Y-84345402D01*
X134261038Y-84320562D01*
X134167857Y-84235615D01*
X134167854Y-84235613D01*
X134167849Y-84235609D01*
X133993989Y-84127960D01*
X133993976Y-84127953D01*
X133803281Y-84054078D01*
X133803275Y-84054076D01*
X133602254Y-84016500D01*
X133397746Y-84016500D01*
X133196724Y-84054076D01*
X133196718Y-84054078D01*
X133006023Y-84127953D01*
X133006010Y-84127960D01*
X132832150Y-84235609D01*
X132832139Y-84235618D01*
X132681010Y-84373391D01*
X132681007Y-84373394D01*
X132557766Y-84536591D01*
X132466610Y-84719657D01*
X132466606Y-84719669D01*
X132459301Y-84745344D01*
X132421571Y-84805153D01*
X132357496Y-84835068D01*
X132338592Y-84836500D01*
X130533352Y-84836500D01*
X130465502Y-84816577D01*
X130419193Y-84763135D01*
X130409129Y-84693139D01*
X130433200Y-84635371D01*
X130442233Y-84623408D01*
X130442232Y-84623408D01*
X130442234Y-84623407D01*
X130472283Y-84563061D01*
X130520360Y-84511203D01*
X130584626Y-84493500D01*
X131029754Y-84493500D01*
X131029760Y-84493499D01*
X131114189Y-84470876D01*
X131114192Y-84470874D01*
X131145095Y-84462595D01*
X131248506Y-84402890D01*
X132425765Y-83225629D01*
X132487828Y-83191741D01*
X132558363Y-83196786D01*
X132614656Y-83238742D01*
X132681007Y-83326605D01*
X132681010Y-83326608D01*
X132832143Y-83464385D01*
X132832146Y-83464387D01*
X132832150Y-83464390D01*
X132969999Y-83549742D01*
X133006020Y-83572045D01*
X133196719Y-83645922D01*
X133397746Y-83683500D01*
X133602254Y-83683500D01*
X133803281Y-83645922D01*
X133993980Y-83572045D01*
X134167857Y-83464385D01*
X134318990Y-83326608D01*
X134442234Y-83163407D01*
X134533392Y-82980338D01*
X134533394Y-82980328D01*
X134535491Y-82974921D01*
X134537164Y-82975569D01*
X134564451Y-82929127D01*
X134746725Y-82746853D01*
X134808788Y-82712965D01*
X134879323Y-82718010D01*
G37*
%TD.AperFunction*%
%TA.AperFunction,Conductor*%
G36*
X147508121Y-83063423D02*
G01*
X147552615Y-83113063D01*
X147557763Y-83123403D01*
X147681007Y-83286605D01*
X147681010Y-83286608D01*
X147832143Y-83424385D01*
X147832146Y-83424387D01*
X147832150Y-83424390D01*
X147981623Y-83516939D01*
X148006020Y-83532045D01*
X148196719Y-83605922D01*
X148196723Y-83605922D01*
X148196724Y-83605923D01*
X148377214Y-83639662D01*
X148397746Y-83643500D01*
X148602254Y-83643500D01*
X148803281Y-83605922D01*
X148993980Y-83532045D01*
X149157769Y-83430631D01*
X149167849Y-83424390D01*
X149167849Y-83424389D01*
X149167857Y-83424385D01*
X149318990Y-83286608D01*
X149442234Y-83123407D01*
X149442236Y-83123403D01*
X149447385Y-83113063D01*
X149495461Y-83061205D01*
X149559729Y-83043500D01*
X152420353Y-83043500D01*
X152488203Y-83063423D01*
X152532696Y-83113060D01*
X152557766Y-83163408D01*
X152681007Y-83326605D01*
X152681010Y-83326608D01*
X152832143Y-83464385D01*
X152832146Y-83464387D01*
X152832150Y-83464390D01*
X152969999Y-83549742D01*
X153006020Y-83572045D01*
X153196719Y-83645922D01*
X153397746Y-83683500D01*
X153602254Y-83683500D01*
X153803281Y-83645922D01*
X153993980Y-83572045D01*
X154167857Y-83464385D01*
X154318990Y-83326608D01*
X154442234Y-83163407D01*
X154442366Y-83163141D01*
X154447385Y-83153063D01*
X154495461Y-83101205D01*
X154559729Y-83083500D01*
X157465138Y-83083500D01*
X157532988Y-83103423D01*
X157565289Y-83133369D01*
X157681007Y-83286605D01*
X157681010Y-83286608D01*
X157832143Y-83424385D01*
X157832146Y-83424387D01*
X157832150Y-83424390D01*
X157981623Y-83516939D01*
X158006020Y-83532045D01*
X158196719Y-83605922D01*
X158196723Y-83605922D01*
X158196724Y-83605923D01*
X158377214Y-83639662D01*
X158397746Y-83643500D01*
X158602254Y-83643500D01*
X158803281Y-83605922D01*
X158993980Y-83532045D01*
X159157769Y-83430631D01*
X159167849Y-83424390D01*
X159167849Y-83424389D01*
X159167857Y-83424385D01*
X159318990Y-83286608D01*
X159442234Y-83123407D01*
X159442236Y-83123403D01*
X159447385Y-83113063D01*
X159495461Y-83061205D01*
X159559729Y-83043500D01*
X167440271Y-83043500D01*
X167508121Y-83063423D01*
X167552615Y-83113063D01*
X167557763Y-83123403D01*
X167681007Y-83286605D01*
X167681010Y-83286608D01*
X167832143Y-83424385D01*
X167832146Y-83424387D01*
X167832150Y-83424390D01*
X167981623Y-83516939D01*
X168006020Y-83532045D01*
X168196719Y-83605922D01*
X168196723Y-83605922D01*
X168196724Y-83605923D01*
X168377214Y-83639662D01*
X168397746Y-83643500D01*
X168602254Y-83643500D01*
X168803281Y-83605922D01*
X168993980Y-83532045D01*
X169157769Y-83430631D01*
X169167849Y-83424390D01*
X169167849Y-83424389D01*
X169167857Y-83424385D01*
X169318990Y-83286608D01*
X169442234Y-83123407D01*
X169442236Y-83123403D01*
X169447385Y-83113063D01*
X169495461Y-83061205D01*
X169559729Y-83043500D01*
X178374845Y-83043500D01*
X178442695Y-83063423D01*
X178486666Y-83112024D01*
X178513434Y-83164560D01*
X178513443Y-83164574D01*
X178620155Y-83311451D01*
X178748548Y-83439844D01*
X178895425Y-83546556D01*
X178895428Y-83546557D01*
X178895434Y-83546562D01*
X179057210Y-83628991D01*
X179229888Y-83685097D01*
X179229891Y-83685097D01*
X179229893Y-83685098D01*
X179362149Y-83706045D01*
X179426048Y-83736336D01*
X179463426Y-83796365D01*
X179462416Y-83867073D01*
X179423340Y-83926010D01*
X179362149Y-83953955D01*
X179229894Y-83974901D01*
X179229893Y-83974901D01*
X179057208Y-84031009D01*
X178895439Y-84113435D01*
X178895425Y-84113443D01*
X178748548Y-84220155D01*
X178620155Y-84348548D01*
X178513443Y-84495425D01*
X178513437Y-84495434D01*
X178507047Y-84507977D01*
X178458492Y-84559387D01*
X178395226Y-84576500D01*
X169559729Y-84576500D01*
X169491879Y-84556577D01*
X169447385Y-84506937D01*
X169442236Y-84496596D01*
X169441362Y-84495439D01*
X169349196Y-84373391D01*
X169318992Y-84333394D01*
X169318989Y-84333391D01*
X169281206Y-84298947D01*
X169167857Y-84195615D01*
X169167854Y-84195613D01*
X169167849Y-84195609D01*
X168993989Y-84087960D01*
X168993976Y-84087953D01*
X168803281Y-84014078D01*
X168803275Y-84014076D01*
X168602254Y-83976500D01*
X168397746Y-83976500D01*
X168196724Y-84014076D01*
X168196718Y-84014078D01*
X168006023Y-84087953D01*
X168006010Y-84087960D01*
X167832150Y-84195609D01*
X167832139Y-84195618D01*
X167681010Y-84333391D01*
X167681007Y-84333394D01*
X167557763Y-84496596D01*
X167552615Y-84506937D01*
X167504539Y-84558795D01*
X167440271Y-84576500D01*
X159559729Y-84576500D01*
X159491879Y-84556577D01*
X159447385Y-84506937D01*
X159442236Y-84496596D01*
X159441362Y-84495439D01*
X159349196Y-84373391D01*
X159318992Y-84333394D01*
X159318989Y-84333391D01*
X159281206Y-84298947D01*
X159167857Y-84195615D01*
X159167854Y-84195613D01*
X159167849Y-84195609D01*
X158993989Y-84087960D01*
X158993976Y-84087953D01*
X158803281Y-84014078D01*
X158803275Y-84014076D01*
X158602254Y-83976500D01*
X158397746Y-83976500D01*
X158196724Y-84014076D01*
X158196718Y-84014078D01*
X158006023Y-84087953D01*
X158006010Y-84087960D01*
X157832150Y-84195609D01*
X157832139Y-84195618D01*
X157681010Y-84333391D01*
X157681007Y-84333394D01*
X157557766Y-84496591D01*
X157532696Y-84546940D01*
X157484619Y-84598797D01*
X157420353Y-84616500D01*
X154559729Y-84616500D01*
X154491879Y-84596577D01*
X154447385Y-84546937D01*
X154442236Y-84536596D01*
X154318992Y-84373394D01*
X154318989Y-84373391D01*
X154275111Y-84333391D01*
X154167857Y-84235615D01*
X154167854Y-84235613D01*
X154167849Y-84235609D01*
X153993989Y-84127960D01*
X153993976Y-84127953D01*
X153803281Y-84054078D01*
X153803275Y-84054076D01*
X153602254Y-84016500D01*
X153397746Y-84016500D01*
X153196724Y-84054076D01*
X153196718Y-84054078D01*
X153006023Y-84127953D01*
X153006010Y-84127960D01*
X152832150Y-84235609D01*
X152832139Y-84235618D01*
X152681010Y-84373391D01*
X152681007Y-84373394D01*
X152565289Y-84526631D01*
X152508502Y-84568770D01*
X152465138Y-84576500D01*
X149559729Y-84576500D01*
X149491879Y-84556577D01*
X149447385Y-84506937D01*
X149442236Y-84496596D01*
X149441362Y-84495439D01*
X149349196Y-84373391D01*
X149318992Y-84333394D01*
X149318989Y-84333391D01*
X149281206Y-84298947D01*
X149167857Y-84195615D01*
X149167854Y-84195613D01*
X149167849Y-84195609D01*
X148993989Y-84087960D01*
X148993976Y-84087953D01*
X148803281Y-84014078D01*
X148803275Y-84014076D01*
X148602254Y-83976500D01*
X148397746Y-83976500D01*
X148196724Y-84014076D01*
X148196718Y-84014078D01*
X148006023Y-84087953D01*
X148006010Y-84087960D01*
X147832150Y-84195609D01*
X147832139Y-84195618D01*
X147681010Y-84333391D01*
X147681007Y-84333394D01*
X147557763Y-84496596D01*
X147552615Y-84506937D01*
X147504539Y-84558795D01*
X147440271Y-84576500D01*
X144559729Y-84576500D01*
X144491879Y-84556577D01*
X144447385Y-84506937D01*
X144442236Y-84496596D01*
X144441362Y-84495439D01*
X144349196Y-84373391D01*
X144318992Y-84333394D01*
X144318989Y-84333391D01*
X144281206Y-84298947D01*
X144167857Y-84195615D01*
X144167854Y-84195613D01*
X144167849Y-84195609D01*
X143993989Y-84087960D01*
X143993976Y-84087953D01*
X143803281Y-84014078D01*
X143803275Y-84014076D01*
X143602254Y-83976500D01*
X143397746Y-83976500D01*
X143196721Y-84014077D01*
X143196712Y-84014080D01*
X143185539Y-84018408D01*
X143115073Y-84024337D01*
X143052588Y-83991228D01*
X143051468Y-83990122D01*
X142687421Y-83626075D01*
X142653531Y-83564010D01*
X142658576Y-83493475D01*
X142700954Y-83436865D01*
X142767210Y-83412153D01*
X142836309Y-83427184D01*
X142842230Y-83430631D01*
X142981623Y-83516939D01*
X143006020Y-83532045D01*
X143196719Y-83605922D01*
X143196723Y-83605922D01*
X143196724Y-83605923D01*
X143377214Y-83639662D01*
X143397746Y-83643500D01*
X143602254Y-83643500D01*
X143803281Y-83605922D01*
X143993980Y-83532045D01*
X144157769Y-83430631D01*
X144167849Y-83424390D01*
X144167849Y-83424389D01*
X144167857Y-83424385D01*
X144318990Y-83286608D01*
X144442234Y-83123407D01*
X144442236Y-83123403D01*
X144447385Y-83113063D01*
X144495461Y-83061205D01*
X144559729Y-83043500D01*
X147440271Y-83043500D01*
X147508121Y-83063423D01*
G37*
%TD.AperFunction*%
%TA.AperFunction,Conductor*%
G36*
X183452886Y-83083423D02*
G01*
X183496856Y-83132023D01*
X183513438Y-83164566D01*
X183513440Y-83164569D01*
X183513443Y-83164574D01*
X183620155Y-83311451D01*
X183748548Y-83439844D01*
X183895425Y-83546556D01*
X183895428Y-83546557D01*
X183895434Y-83546562D01*
X184057210Y-83628991D01*
X184229888Y-83685097D01*
X184229891Y-83685097D01*
X184229893Y-83685098D01*
X184362149Y-83706045D01*
X184426048Y-83736336D01*
X184463426Y-83796365D01*
X184462416Y-83867073D01*
X184423340Y-83926010D01*
X184362149Y-83953955D01*
X184229894Y-83974901D01*
X184229893Y-83974901D01*
X184057208Y-84031009D01*
X183895439Y-84113435D01*
X183895425Y-84113443D01*
X183748548Y-84220155D01*
X183620155Y-84348548D01*
X183513443Y-84495425D01*
X183513438Y-84495434D01*
X183496856Y-84527976D01*
X183448303Y-84579386D01*
X183385036Y-84596500D01*
X182014964Y-84596500D01*
X181947114Y-84576577D01*
X181903143Y-84527976D01*
X181886562Y-84495434D01*
X181886557Y-84495428D01*
X181886556Y-84495425D01*
X181779844Y-84348548D01*
X181651451Y-84220155D01*
X181504574Y-84113443D01*
X181504568Y-84113440D01*
X181504566Y-84113438D01*
X181442410Y-84081768D01*
X181342791Y-84031009D01*
X181170106Y-83974901D01*
X181057447Y-83957058D01*
X181037849Y-83953954D01*
X180973951Y-83923664D01*
X180936573Y-83863635D01*
X180937583Y-83792927D01*
X180976659Y-83733990D01*
X181037849Y-83706045D01*
X181170112Y-83685097D01*
X181342790Y-83628991D01*
X181504566Y-83546562D01*
X181602492Y-83475414D01*
X181651451Y-83439844D01*
X181651451Y-83439843D01*
X181651455Y-83439841D01*
X181779841Y-83311455D01*
X181886562Y-83164566D01*
X181903143Y-83132023D01*
X181951697Y-83080614D01*
X182014964Y-83063500D01*
X183385036Y-83063500D01*
X183452886Y-83083423D01*
G37*
%TD.AperFunction*%
%TA.AperFunction,Conductor*%
G36*
X142118020Y-81803423D02*
G01*
X142138912Y-81820258D01*
X142412621Y-82093967D01*
X142446511Y-82156032D01*
X142444588Y-82217053D01*
X142410643Y-82336356D01*
X142410642Y-82336360D01*
X142391772Y-82540000D01*
X142410642Y-82743639D01*
X142410643Y-82743640D01*
X142466608Y-82940338D01*
X142466610Y-82940342D01*
X142557766Y-83123408D01*
X142681007Y-83286605D01*
X142684914Y-83290890D01*
X142683228Y-83292427D01*
X142714773Y-83344356D01*
X142712983Y-83415048D01*
X142673258Y-83473550D01*
X142608210Y-83501289D01*
X142538492Y-83489457D01*
X142530757Y-83485344D01*
X142465045Y-83447405D01*
X142434140Y-83439124D01*
X142434139Y-83439123D01*
X142349707Y-83416500D01*
X142349704Y-83416500D01*
X137042518Y-83416500D01*
X136974668Y-83396577D01*
X136928359Y-83343135D01*
X136918295Y-83273139D01*
X136942367Y-83215370D01*
X136981805Y-83163144D01*
X136981807Y-83163141D01*
X137072920Y-82980160D01*
X137072923Y-82980151D01*
X137128862Y-82783548D01*
X137128863Y-82783546D01*
X137136002Y-82706500D01*
X136523742Y-82706500D01*
X136540000Y-82645826D01*
X136540000Y-82514174D01*
X136523742Y-82453500D01*
X137136002Y-82453500D01*
X137128863Y-82376453D01*
X137128862Y-82376451D01*
X137072923Y-82179848D01*
X137072920Y-82179839D01*
X136981807Y-81996858D01*
X136972572Y-81984628D01*
X136947583Y-81918476D01*
X136962326Y-81849315D01*
X137012120Y-81799104D01*
X137072725Y-81783500D01*
X142050170Y-81783500D01*
X142118020Y-81803423D01*
G37*
%TD.AperFunction*%
%TA.AperFunction,Conductor*%
G36*
X134879323Y-80178010D02*
G01*
X134935933Y-80220388D01*
X134956174Y-80261252D01*
X135007076Y-80440151D01*
X135007079Y-80440160D01*
X135098192Y-80623141D01*
X135098194Y-80623144D01*
X135221378Y-80786268D01*
X135221379Y-80786269D01*
X135230562Y-80794640D01*
X135267283Y-80855073D01*
X135265503Y-80925765D01*
X135234757Y-80976129D01*
X134434328Y-81776557D01*
X134372263Y-81810447D01*
X134301728Y-81805402D01*
X134261038Y-81780562D01*
X134167857Y-81695615D01*
X134167854Y-81695613D01*
X134167849Y-81695609D01*
X133993989Y-81587960D01*
X133993976Y-81587953D01*
X133803281Y-81514078D01*
X133803275Y-81514076D01*
X133602254Y-81476500D01*
X133397746Y-81476500D01*
X133196724Y-81514076D01*
X133196718Y-81514078D01*
X133006023Y-81587953D01*
X133006010Y-81587960D01*
X132832150Y-81695609D01*
X132832139Y-81695618D01*
X132681010Y-81833391D01*
X132681007Y-81833394D01*
X132557763Y-81996596D01*
X132557763Y-81996597D01*
X132527717Y-82056939D01*
X132479640Y-82108797D01*
X132415374Y-82126500D01*
X132370342Y-82126500D01*
X132255005Y-82157404D01*
X132151592Y-82217111D01*
X131457091Y-82911612D01*
X131395026Y-82945502D01*
X131324491Y-82940457D01*
X131267881Y-82898079D01*
X131243169Y-82831823D01*
X131243583Y-82817930D01*
X131243500Y-82817930D01*
X131243500Y-81959879D01*
X131263423Y-81892029D01*
X131280253Y-81871142D01*
X132442975Y-80708419D01*
X132505038Y-80674531D01*
X132575573Y-80679576D01*
X132631866Y-80721532D01*
X132681007Y-80786605D01*
X132681010Y-80786608D01*
X132832143Y-80924385D01*
X132832146Y-80924387D01*
X132832150Y-80924390D01*
X132993043Y-81024010D01*
X133006020Y-81032045D01*
X133196719Y-81105922D01*
X133196723Y-81105922D01*
X133196724Y-81105923D01*
X133377198Y-81139659D01*
X133397746Y-81143500D01*
X133602254Y-81143500D01*
X133803281Y-81105922D01*
X133993980Y-81032045D01*
X134167857Y-80924385D01*
X134318990Y-80786608D01*
X134442234Y-80623407D01*
X134533392Y-80440338D01*
X134533394Y-80440328D01*
X134535491Y-80434921D01*
X134537164Y-80435569D01*
X134564451Y-80389127D01*
X134746725Y-80206853D01*
X134808788Y-80172965D01*
X134879323Y-80178010D01*
G37*
%TD.AperFunction*%
%TA.AperFunction,Conductor*%
G36*
X147508121Y-80523423D02*
G01*
X147552615Y-80573063D01*
X147557763Y-80583403D01*
X147681007Y-80746605D01*
X147681010Y-80746608D01*
X147832143Y-80884385D01*
X147832146Y-80884387D01*
X147832150Y-80884390D01*
X148006010Y-80992039D01*
X148006020Y-80992045D01*
X148196719Y-81065922D01*
X148196723Y-81065922D01*
X148196724Y-81065923D01*
X148377214Y-81099662D01*
X148397746Y-81103500D01*
X148602254Y-81103500D01*
X148803281Y-81065922D01*
X148993980Y-80992045D01*
X149157769Y-80890631D01*
X149167849Y-80884390D01*
X149167849Y-80884389D01*
X149167857Y-80884385D01*
X149318990Y-80746608D01*
X149434711Y-80593368D01*
X149491498Y-80551230D01*
X149534862Y-80543500D01*
X152440271Y-80543500D01*
X152508121Y-80563423D01*
X152552615Y-80613063D01*
X152557763Y-80623403D01*
X152681007Y-80786605D01*
X152681010Y-80786608D01*
X152832143Y-80924385D01*
X152832146Y-80924387D01*
X152832150Y-80924390D01*
X152993043Y-81024010D01*
X153006020Y-81032045D01*
X153196719Y-81105922D01*
X153196723Y-81105922D01*
X153196724Y-81105923D01*
X153377198Y-81139659D01*
X153397746Y-81143500D01*
X153602254Y-81143500D01*
X153803281Y-81105922D01*
X153993980Y-81032045D01*
X154167857Y-80924385D01*
X154318990Y-80786608D01*
X154442234Y-80623407D01*
X154467304Y-80573060D01*
X154515381Y-80521203D01*
X154579647Y-80503500D01*
X157440271Y-80503500D01*
X157508121Y-80523423D01*
X157552615Y-80573063D01*
X157557763Y-80583403D01*
X157681007Y-80746605D01*
X157681010Y-80746608D01*
X157832143Y-80884385D01*
X157832146Y-80884387D01*
X157832150Y-80884390D01*
X158006010Y-80992039D01*
X158006020Y-80992045D01*
X158196719Y-81065922D01*
X158196723Y-81065922D01*
X158196724Y-81065923D01*
X158377214Y-81099662D01*
X158397746Y-81103500D01*
X158602254Y-81103500D01*
X158803281Y-81065922D01*
X158993980Y-80992045D01*
X159157769Y-80890631D01*
X159167849Y-80884390D01*
X159167849Y-80884389D01*
X159167857Y-80884385D01*
X159318990Y-80746608D01*
X159442234Y-80583407D01*
X159447385Y-80573063D01*
X159495461Y-80521205D01*
X159559729Y-80503500D01*
X167440271Y-80503500D01*
X167508121Y-80523423D01*
X167552615Y-80573063D01*
X167557763Y-80583403D01*
X167681007Y-80746605D01*
X167681010Y-80746608D01*
X167832143Y-80884385D01*
X167832146Y-80884387D01*
X167832150Y-80884390D01*
X168006010Y-80992039D01*
X168006020Y-80992045D01*
X168196719Y-81065922D01*
X168196723Y-81065922D01*
X168196724Y-81065923D01*
X168377214Y-81099662D01*
X168397746Y-81103500D01*
X168602254Y-81103500D01*
X168803281Y-81065922D01*
X168993980Y-80992045D01*
X169157769Y-80890631D01*
X169167849Y-80884390D01*
X169167849Y-80884389D01*
X169167857Y-80884385D01*
X169318990Y-80746608D01*
X169442234Y-80583407D01*
X169447385Y-80573063D01*
X169495461Y-80521205D01*
X169559729Y-80503500D01*
X178374845Y-80503500D01*
X178442695Y-80523423D01*
X178486666Y-80572024D01*
X178513434Y-80624560D01*
X178513443Y-80624574D01*
X178620155Y-80771451D01*
X178748548Y-80899844D01*
X178895425Y-81006556D01*
X178895428Y-81006557D01*
X178895434Y-81006562D01*
X179057210Y-81088991D01*
X179229888Y-81145097D01*
X179229891Y-81145097D01*
X179229893Y-81145098D01*
X179362149Y-81166045D01*
X179426048Y-81196336D01*
X179463426Y-81256365D01*
X179462416Y-81327073D01*
X179423340Y-81386010D01*
X179362149Y-81413955D01*
X179229894Y-81434901D01*
X179229893Y-81434901D01*
X179057208Y-81491009D01*
X178895439Y-81573435D01*
X178895425Y-81573443D01*
X178748548Y-81680155D01*
X178620155Y-81808548D01*
X178513443Y-81955425D01*
X178513437Y-81955434D01*
X178507047Y-81967977D01*
X178458492Y-82019387D01*
X178395226Y-82036500D01*
X169559729Y-82036500D01*
X169491879Y-82016577D01*
X169447385Y-81966937D01*
X169442236Y-81956596D01*
X169441362Y-81955439D01*
X169387389Y-81883967D01*
X169318992Y-81793394D01*
X169318989Y-81793391D01*
X169281206Y-81758947D01*
X169167857Y-81655615D01*
X169167854Y-81655613D01*
X169167849Y-81655609D01*
X168993989Y-81547960D01*
X168993976Y-81547953D01*
X168803281Y-81474078D01*
X168803275Y-81474076D01*
X168602254Y-81436500D01*
X168397746Y-81436500D01*
X168196724Y-81474076D01*
X168196718Y-81474078D01*
X168006023Y-81547953D01*
X168006010Y-81547960D01*
X167832150Y-81655609D01*
X167832139Y-81655618D01*
X167681010Y-81793391D01*
X167681007Y-81793394D01*
X167557763Y-81956596D01*
X167552615Y-81966937D01*
X167504539Y-82018795D01*
X167440271Y-82036500D01*
X159559729Y-82036500D01*
X159491879Y-82016577D01*
X159447385Y-81966937D01*
X159442236Y-81956596D01*
X159441362Y-81955439D01*
X159387389Y-81883967D01*
X159318992Y-81793394D01*
X159318989Y-81793391D01*
X159281206Y-81758947D01*
X159167857Y-81655615D01*
X159167854Y-81655613D01*
X159167849Y-81655609D01*
X158993989Y-81547960D01*
X158993976Y-81547953D01*
X158803281Y-81474078D01*
X158803275Y-81474076D01*
X158602254Y-81436500D01*
X158397746Y-81436500D01*
X158196724Y-81474076D01*
X158196718Y-81474078D01*
X158006023Y-81547953D01*
X158006010Y-81547960D01*
X157832150Y-81655609D01*
X157832139Y-81655618D01*
X157681010Y-81793391D01*
X157681007Y-81793394D01*
X157557766Y-81956591D01*
X157532696Y-82006940D01*
X157484619Y-82058797D01*
X157420353Y-82076500D01*
X154559729Y-82076500D01*
X154491879Y-82056577D01*
X154447385Y-82006937D01*
X154442236Y-81996596D01*
X154318992Y-81833394D01*
X154318989Y-81833391D01*
X154275111Y-81793391D01*
X154167857Y-81695615D01*
X154167854Y-81695613D01*
X154167849Y-81695609D01*
X153993989Y-81587960D01*
X153993976Y-81587953D01*
X153803281Y-81514078D01*
X153803275Y-81514076D01*
X153602254Y-81476500D01*
X153397746Y-81476500D01*
X153196724Y-81514076D01*
X153196718Y-81514078D01*
X153006023Y-81587953D01*
X153006010Y-81587960D01*
X152832150Y-81695609D01*
X152832139Y-81695618D01*
X152681010Y-81833391D01*
X152681007Y-81833394D01*
X152565289Y-81986631D01*
X152508502Y-82028770D01*
X152465138Y-82036500D01*
X149559729Y-82036500D01*
X149491879Y-82016577D01*
X149447385Y-81966937D01*
X149442236Y-81956596D01*
X149441362Y-81955439D01*
X149387389Y-81883967D01*
X149318992Y-81793394D01*
X149318989Y-81793391D01*
X149281206Y-81758947D01*
X149167857Y-81655615D01*
X149167854Y-81655613D01*
X149167849Y-81655609D01*
X148993989Y-81547960D01*
X148993976Y-81547953D01*
X148803281Y-81474078D01*
X148803275Y-81474076D01*
X148602254Y-81436500D01*
X148397746Y-81436500D01*
X148196724Y-81474076D01*
X148196718Y-81474078D01*
X148006023Y-81547953D01*
X148006010Y-81547960D01*
X147832150Y-81655609D01*
X147832139Y-81655618D01*
X147681010Y-81793391D01*
X147681007Y-81793394D01*
X147557763Y-81956596D01*
X147552615Y-81966937D01*
X147504539Y-82018795D01*
X147440271Y-82036500D01*
X144559729Y-82036500D01*
X144491879Y-82016577D01*
X144447385Y-81966937D01*
X144442236Y-81956596D01*
X144441362Y-81955439D01*
X144387389Y-81883967D01*
X144318992Y-81793394D01*
X144318989Y-81793391D01*
X144281206Y-81758947D01*
X144167857Y-81655615D01*
X144167854Y-81655613D01*
X144167849Y-81655609D01*
X143993989Y-81547960D01*
X143993976Y-81547953D01*
X143803281Y-81474078D01*
X143803275Y-81474076D01*
X143602254Y-81436500D01*
X143397746Y-81436500D01*
X143196721Y-81474077D01*
X143196712Y-81474080D01*
X143185539Y-81478408D01*
X143115073Y-81484337D01*
X143052588Y-81451228D01*
X143051468Y-81450122D01*
X142687421Y-81086075D01*
X142653531Y-81024010D01*
X142658576Y-80953475D01*
X142700954Y-80896865D01*
X142767210Y-80872153D01*
X142836309Y-80887184D01*
X142842230Y-80890631D01*
X143006010Y-80992039D01*
X143006020Y-80992045D01*
X143196719Y-81065922D01*
X143196723Y-81065922D01*
X143196724Y-81065923D01*
X143377214Y-81099662D01*
X143397746Y-81103500D01*
X143602254Y-81103500D01*
X143803281Y-81065922D01*
X143993980Y-80992045D01*
X144157769Y-80890631D01*
X144167849Y-80884390D01*
X144167849Y-80884389D01*
X144167857Y-80884385D01*
X144318990Y-80746608D01*
X144442234Y-80583407D01*
X144447385Y-80573063D01*
X144495461Y-80521205D01*
X144559729Y-80503500D01*
X147440271Y-80503500D01*
X147508121Y-80523423D01*
G37*
%TD.AperFunction*%
%TA.AperFunction,Conductor*%
G36*
X183452886Y-80543423D02*
G01*
X183496856Y-80592023D01*
X183513438Y-80624566D01*
X183513440Y-80624569D01*
X183513443Y-80624574D01*
X183620155Y-80771451D01*
X183748548Y-80899844D01*
X183895425Y-81006556D01*
X183895428Y-81006557D01*
X183895434Y-81006562D01*
X184057210Y-81088991D01*
X184229888Y-81145097D01*
X184229891Y-81145097D01*
X184229893Y-81145098D01*
X184362149Y-81166045D01*
X184426048Y-81196336D01*
X184463426Y-81256365D01*
X184462416Y-81327073D01*
X184423340Y-81386010D01*
X184362149Y-81413955D01*
X184229894Y-81434901D01*
X184229893Y-81434901D01*
X184057208Y-81491009D01*
X183895439Y-81573435D01*
X183895425Y-81573443D01*
X183748548Y-81680155D01*
X183620155Y-81808548D01*
X183513443Y-81955425D01*
X183513438Y-81955434D01*
X183496856Y-81987976D01*
X183448303Y-82039386D01*
X183385036Y-82056500D01*
X182014964Y-82056500D01*
X181947114Y-82036577D01*
X181903143Y-81987976D01*
X181886562Y-81955434D01*
X181886557Y-81955428D01*
X181886556Y-81955425D01*
X181779844Y-81808548D01*
X181651451Y-81680155D01*
X181504574Y-81573443D01*
X181504568Y-81573440D01*
X181504566Y-81573438D01*
X181449548Y-81545405D01*
X181342791Y-81491009D01*
X181170106Y-81434901D01*
X181057447Y-81417058D01*
X181037849Y-81413954D01*
X180973951Y-81383664D01*
X180936573Y-81323635D01*
X180937583Y-81252927D01*
X180976659Y-81193990D01*
X181037849Y-81166045D01*
X181170112Y-81145097D01*
X181342790Y-81088991D01*
X181504566Y-81006562D01*
X181602492Y-80935414D01*
X181651451Y-80899844D01*
X181651451Y-80899843D01*
X181651455Y-80899841D01*
X181779841Y-80771455D01*
X181886562Y-80624566D01*
X181903143Y-80592023D01*
X181951697Y-80540614D01*
X182014964Y-80523500D01*
X183385036Y-80523500D01*
X183452886Y-80543423D01*
G37*
%TD.AperFunction*%
%TA.AperFunction,Conductor*%
G36*
X134879323Y-77638010D02*
G01*
X134935933Y-77680388D01*
X134956174Y-77721252D01*
X135007076Y-77900151D01*
X135007079Y-77900160D01*
X135098192Y-78083141D01*
X135098194Y-78083144D01*
X135221378Y-78246268D01*
X135221379Y-78246269D01*
X135230562Y-78254640D01*
X135267283Y-78315073D01*
X135265503Y-78385765D01*
X135234757Y-78436129D01*
X134434328Y-79236557D01*
X134372263Y-79270447D01*
X134301728Y-79265402D01*
X134261038Y-79240562D01*
X134167857Y-79155615D01*
X134167854Y-79155613D01*
X134167849Y-79155609D01*
X133993989Y-79047960D01*
X133993976Y-79047953D01*
X133803281Y-78974078D01*
X133803275Y-78974076D01*
X133602254Y-78936500D01*
X133397746Y-78936500D01*
X133196724Y-78974076D01*
X133196718Y-78974078D01*
X133006023Y-79047953D01*
X133006010Y-79047960D01*
X132832150Y-79155609D01*
X132832139Y-79155618D01*
X132681010Y-79293391D01*
X132681007Y-79293394D01*
X132557763Y-79456596D01*
X132557763Y-79456597D01*
X132527717Y-79516939D01*
X132479640Y-79568797D01*
X132415374Y-79586500D01*
X132410345Y-79586500D01*
X132295003Y-79617405D01*
X132256909Y-79639399D01*
X132256910Y-79639400D01*
X132191594Y-79677110D01*
X132191593Y-79677111D01*
X130817741Y-81050962D01*
X130755676Y-81084852D01*
X130685141Y-81079807D01*
X130628531Y-81037429D01*
X130603819Y-80971173D01*
X130603499Y-80962220D01*
X130603499Y-80625036D01*
X130601624Y-80615609D01*
X130588791Y-80551089D01*
X130532763Y-80467237D01*
X130532761Y-80467236D01*
X130532761Y-80467235D01*
X130448914Y-80411210D01*
X130448911Y-80411209D01*
X130374965Y-80396500D01*
X130374961Y-80396500D01*
X130345748Y-80396500D01*
X130277898Y-80376577D01*
X130231589Y-80323135D01*
X130221525Y-80253139D01*
X130250901Y-80188815D01*
X130257006Y-80182258D01*
X131202707Y-79236557D01*
X132368916Y-78070348D01*
X132430979Y-78036460D01*
X132501514Y-78041505D01*
X132557806Y-78083460D01*
X132558641Y-78084566D01*
X132681007Y-78246605D01*
X132681010Y-78246608D01*
X132832143Y-78384385D01*
X132832146Y-78384387D01*
X132832150Y-78384390D01*
X132993043Y-78484010D01*
X133006020Y-78492045D01*
X133196719Y-78565922D01*
X133397746Y-78603500D01*
X133602254Y-78603500D01*
X133803281Y-78565922D01*
X133993980Y-78492045D01*
X134167857Y-78384385D01*
X134318990Y-78246608D01*
X134442234Y-78083407D01*
X134533392Y-77900338D01*
X134533394Y-77900328D01*
X134535491Y-77894921D01*
X134537164Y-77895569D01*
X134564451Y-77849127D01*
X134746725Y-77666853D01*
X134808788Y-77632965D01*
X134879323Y-77638010D01*
G37*
%TD.AperFunction*%
%TA.AperFunction,Conductor*%
G36*
X142118020Y-79263423D02*
G01*
X142138912Y-79280258D01*
X142412621Y-79553967D01*
X142446511Y-79616032D01*
X142444588Y-79677053D01*
X142410643Y-79796356D01*
X142410642Y-79796360D01*
X142391772Y-80000000D01*
X142410642Y-80203639D01*
X142410643Y-80203640D01*
X142419788Y-80235781D01*
X142466608Y-80400338D01*
X142466610Y-80400342D01*
X142557766Y-80583408D01*
X142681007Y-80746605D01*
X142684914Y-80750890D01*
X142683228Y-80752427D01*
X142714773Y-80804356D01*
X142712983Y-80875048D01*
X142673258Y-80933550D01*
X142608210Y-80961289D01*
X142538492Y-80949457D01*
X142530757Y-80945344D01*
X142465045Y-80907405D01*
X142434140Y-80899124D01*
X142434139Y-80899123D01*
X142349707Y-80876500D01*
X142349704Y-80876500D01*
X137042518Y-80876500D01*
X136974668Y-80856577D01*
X136928359Y-80803135D01*
X136918295Y-80733139D01*
X136942367Y-80675370D01*
X136981805Y-80623144D01*
X136981807Y-80623141D01*
X137072920Y-80440160D01*
X137072923Y-80440151D01*
X137128862Y-80243548D01*
X137128863Y-80243546D01*
X137136002Y-80166500D01*
X136523742Y-80166500D01*
X136540000Y-80105826D01*
X136540000Y-79974174D01*
X136523742Y-79913500D01*
X137136002Y-79913500D01*
X137128863Y-79836453D01*
X137128862Y-79836451D01*
X137072923Y-79639848D01*
X137072920Y-79639839D01*
X136981807Y-79456858D01*
X136972572Y-79444628D01*
X136947583Y-79378476D01*
X136962326Y-79309315D01*
X137012120Y-79259104D01*
X137072725Y-79243500D01*
X142050170Y-79243500D01*
X142118020Y-79263423D01*
G37*
%TD.AperFunction*%
%TA.AperFunction,Conductor*%
G36*
X147508121Y-77983423D02*
G01*
X147552615Y-78033063D01*
X147557763Y-78043403D01*
X147681007Y-78206605D01*
X147681010Y-78206608D01*
X147832143Y-78344385D01*
X147832146Y-78344387D01*
X147832150Y-78344390D01*
X148006010Y-78452039D01*
X148006020Y-78452045D01*
X148196719Y-78525922D01*
X148397746Y-78563500D01*
X148602254Y-78563500D01*
X148803281Y-78525922D01*
X148993980Y-78452045D01*
X149157769Y-78350631D01*
X149167849Y-78344390D01*
X149167849Y-78344389D01*
X149167857Y-78344385D01*
X149318990Y-78206608D01*
X149442234Y-78043407D01*
X149447385Y-78033063D01*
X149495461Y-77981205D01*
X149559729Y-77963500D01*
X152420353Y-77963500D01*
X152488203Y-77983423D01*
X152532696Y-78033060D01*
X152557766Y-78083408D01*
X152681007Y-78246605D01*
X152681010Y-78246608D01*
X152832143Y-78384385D01*
X152832146Y-78384387D01*
X152832150Y-78384390D01*
X152993043Y-78484010D01*
X153006020Y-78492045D01*
X153196719Y-78565922D01*
X153397746Y-78603500D01*
X153602254Y-78603500D01*
X153803281Y-78565922D01*
X153993980Y-78492045D01*
X154167857Y-78384385D01*
X154318990Y-78246608D01*
X154442234Y-78083407D01*
X154447385Y-78073063D01*
X154495461Y-78021205D01*
X154559729Y-78003500D01*
X157465138Y-78003500D01*
X157532988Y-78023423D01*
X157565289Y-78053369D01*
X157681007Y-78206605D01*
X157681010Y-78206608D01*
X157832143Y-78344385D01*
X157832146Y-78344387D01*
X157832150Y-78344390D01*
X158006010Y-78452039D01*
X158006020Y-78452045D01*
X158196719Y-78525922D01*
X158397746Y-78563500D01*
X158602254Y-78563500D01*
X158803281Y-78525922D01*
X158993980Y-78452045D01*
X159157769Y-78350631D01*
X159167849Y-78344390D01*
X159167849Y-78344389D01*
X159167857Y-78344385D01*
X159318990Y-78206608D01*
X159442234Y-78043407D01*
X159447385Y-78033063D01*
X159495461Y-77981205D01*
X159559729Y-77963500D01*
X167271001Y-77963500D01*
X167338851Y-77983423D01*
X167385160Y-78036865D01*
X167396501Y-78089000D01*
X167396501Y-78334964D01*
X167411209Y-78408911D01*
X167466757Y-78492045D01*
X167467238Y-78492764D01*
X167551085Y-78548789D01*
X167551086Y-78548789D01*
X167551089Y-78548791D01*
X167625035Y-78563500D01*
X169374964Y-78563499D01*
X169448911Y-78548791D01*
X169532763Y-78492763D01*
X169588791Y-78408911D01*
X169603500Y-78334965D01*
X169603500Y-78089000D01*
X169623423Y-78021150D01*
X169676865Y-77974841D01*
X169729000Y-77963500D01*
X178374845Y-77963500D01*
X178442695Y-77983423D01*
X178486666Y-78032024D01*
X178513434Y-78084560D01*
X178513443Y-78084574D01*
X178620155Y-78231451D01*
X178748548Y-78359844D01*
X178895425Y-78466556D01*
X178895428Y-78466557D01*
X178895434Y-78466562D01*
X179011933Y-78525921D01*
X179056815Y-78548790D01*
X179057210Y-78548991D01*
X179229888Y-78605097D01*
X179229891Y-78605097D01*
X179229893Y-78605098D01*
X179362149Y-78626045D01*
X179426048Y-78656336D01*
X179463426Y-78716365D01*
X179462416Y-78787073D01*
X179423340Y-78846010D01*
X179362149Y-78873955D01*
X179229894Y-78894901D01*
X179229893Y-78894901D01*
X179057208Y-78951009D01*
X178895439Y-79033435D01*
X178895425Y-79033443D01*
X178748548Y-79140155D01*
X178620155Y-79268548D01*
X178513443Y-79415425D01*
X178513437Y-79415434D01*
X178507047Y-79427977D01*
X178458492Y-79479387D01*
X178395226Y-79496500D01*
X169559729Y-79496500D01*
X169491879Y-79476577D01*
X169447385Y-79426937D01*
X169442236Y-79416596D01*
X169441362Y-79415439D01*
X169396744Y-79356355D01*
X169318992Y-79253394D01*
X169318989Y-79253391D01*
X169211738Y-79155618D01*
X169167857Y-79115615D01*
X169167854Y-79115613D01*
X169167849Y-79115609D01*
X168993989Y-79007960D01*
X168993976Y-79007953D01*
X168803281Y-78934078D01*
X168803275Y-78934076D01*
X168602254Y-78896500D01*
X168397746Y-78896500D01*
X168196724Y-78934076D01*
X168196718Y-78934078D01*
X168006023Y-79007953D01*
X168006010Y-79007960D01*
X167832150Y-79115609D01*
X167832139Y-79115618D01*
X167681010Y-79253391D01*
X167681007Y-79253394D01*
X167557763Y-79416596D01*
X167552615Y-79426937D01*
X167504539Y-79478795D01*
X167440271Y-79496500D01*
X159559729Y-79496500D01*
X159491879Y-79476577D01*
X159447385Y-79426937D01*
X159442236Y-79416596D01*
X159441362Y-79415439D01*
X159396744Y-79356355D01*
X159318992Y-79253394D01*
X159318989Y-79253391D01*
X159211738Y-79155618D01*
X159167857Y-79115615D01*
X159167854Y-79115613D01*
X159167849Y-79115609D01*
X158993989Y-79007960D01*
X158993976Y-79007953D01*
X158803281Y-78934078D01*
X158803275Y-78934076D01*
X158602254Y-78896500D01*
X158397746Y-78896500D01*
X158196724Y-78934076D01*
X158196718Y-78934078D01*
X158006023Y-79007953D01*
X158006010Y-79007960D01*
X157832150Y-79115609D01*
X157832139Y-79115618D01*
X157681010Y-79253391D01*
X157681007Y-79253394D01*
X157557763Y-79416596D01*
X157552615Y-79426937D01*
X157504539Y-79478795D01*
X157440271Y-79496500D01*
X154534862Y-79496500D01*
X154467012Y-79476577D01*
X154434711Y-79446631D01*
X154318992Y-79293394D01*
X154318989Y-79293391D01*
X154275111Y-79253391D01*
X154167857Y-79155615D01*
X154167854Y-79155613D01*
X154167849Y-79155609D01*
X153993989Y-79047960D01*
X153993976Y-79047953D01*
X153803281Y-78974078D01*
X153803275Y-78974076D01*
X153602254Y-78936500D01*
X153397746Y-78936500D01*
X153196724Y-78974076D01*
X153196718Y-78974078D01*
X153006023Y-79047953D01*
X153006010Y-79047960D01*
X152832150Y-79155609D01*
X152832139Y-79155618D01*
X152681010Y-79293391D01*
X152681007Y-79293394D01*
X152557763Y-79456596D01*
X152552615Y-79466937D01*
X152504539Y-79518795D01*
X152440271Y-79536500D01*
X149579647Y-79536500D01*
X149511797Y-79516577D01*
X149467304Y-79466940D01*
X149442233Y-79416591D01*
X149318992Y-79253394D01*
X149318989Y-79253391D01*
X149211738Y-79155618D01*
X149167857Y-79115615D01*
X149167854Y-79115613D01*
X149167849Y-79115609D01*
X148993989Y-79007960D01*
X148993976Y-79007953D01*
X148803281Y-78934078D01*
X148803275Y-78934076D01*
X148602254Y-78896500D01*
X148397746Y-78896500D01*
X148196724Y-78934076D01*
X148196718Y-78934078D01*
X148006023Y-79007953D01*
X148006010Y-79007960D01*
X147832150Y-79115609D01*
X147832139Y-79115618D01*
X147681010Y-79253391D01*
X147681007Y-79253394D01*
X147557763Y-79416596D01*
X147552615Y-79426937D01*
X147504539Y-79478795D01*
X147440271Y-79496500D01*
X144559729Y-79496500D01*
X144491879Y-79476577D01*
X144447385Y-79426937D01*
X144442236Y-79416596D01*
X144441362Y-79415439D01*
X144396744Y-79356355D01*
X144318992Y-79253394D01*
X144318989Y-79253391D01*
X144211738Y-79155618D01*
X144167857Y-79115615D01*
X144167854Y-79115613D01*
X144167849Y-79115609D01*
X143993989Y-79007960D01*
X143993976Y-79007953D01*
X143803281Y-78934078D01*
X143803275Y-78934076D01*
X143602254Y-78896500D01*
X143397746Y-78896500D01*
X143196721Y-78934077D01*
X143196712Y-78934080D01*
X143185539Y-78938408D01*
X143115073Y-78944337D01*
X143052588Y-78911228D01*
X143051468Y-78910122D01*
X142687421Y-78546075D01*
X142653531Y-78484010D01*
X142658576Y-78413475D01*
X142700954Y-78356865D01*
X142767210Y-78332153D01*
X142836309Y-78347184D01*
X142842230Y-78350631D01*
X143006010Y-78452039D01*
X143006020Y-78452045D01*
X143196719Y-78525922D01*
X143397746Y-78563500D01*
X143602254Y-78563500D01*
X143803281Y-78525922D01*
X143993980Y-78452045D01*
X144157769Y-78350631D01*
X144167849Y-78344390D01*
X144167849Y-78344389D01*
X144167857Y-78344385D01*
X144318990Y-78206608D01*
X144442234Y-78043407D01*
X144447385Y-78033063D01*
X144495461Y-77981205D01*
X144559729Y-77963500D01*
X147440271Y-77963500D01*
X147508121Y-77983423D01*
G37*
%TD.AperFunction*%
%TA.AperFunction,Conductor*%
G36*
X183452886Y-78003423D02*
G01*
X183496856Y-78052023D01*
X183513438Y-78084566D01*
X183513440Y-78084569D01*
X183513443Y-78084574D01*
X183620155Y-78231451D01*
X183748548Y-78359844D01*
X183895425Y-78466556D01*
X183895428Y-78466557D01*
X183895434Y-78466562D01*
X184011933Y-78525921D01*
X184056815Y-78548790D01*
X184057210Y-78548991D01*
X184229888Y-78605097D01*
X184229891Y-78605097D01*
X184229893Y-78605098D01*
X184362149Y-78626045D01*
X184426048Y-78656336D01*
X184463426Y-78716365D01*
X184462416Y-78787073D01*
X184423340Y-78846010D01*
X184362149Y-78873955D01*
X184229894Y-78894901D01*
X184229893Y-78894901D01*
X184057208Y-78951009D01*
X183895439Y-79033435D01*
X183895425Y-79033443D01*
X183748548Y-79140155D01*
X183620155Y-79268548D01*
X183513443Y-79415425D01*
X183513438Y-79415434D01*
X183496856Y-79447976D01*
X183448303Y-79499386D01*
X183385036Y-79516500D01*
X182014964Y-79516500D01*
X181947114Y-79496577D01*
X181903143Y-79447976D01*
X181886562Y-79415434D01*
X181886557Y-79415428D01*
X181886556Y-79415425D01*
X181779844Y-79268548D01*
X181651451Y-79140155D01*
X181504574Y-79033443D01*
X181504568Y-79033440D01*
X181504566Y-79033438D01*
X181454549Y-79007953D01*
X181342791Y-78951009D01*
X181170106Y-78894901D01*
X181057447Y-78877058D01*
X181037849Y-78873954D01*
X180973951Y-78843664D01*
X180936573Y-78783635D01*
X180937583Y-78712927D01*
X180976659Y-78653990D01*
X181037849Y-78626045D01*
X181170112Y-78605097D01*
X181342790Y-78548991D01*
X181504566Y-78466562D01*
X181602492Y-78395414D01*
X181651451Y-78359844D01*
X181651451Y-78359843D01*
X181651455Y-78359841D01*
X181779841Y-78231455D01*
X181886562Y-78084566D01*
X181903143Y-78052023D01*
X181951697Y-78000614D01*
X182014964Y-77983500D01*
X183385036Y-77983500D01*
X183452886Y-78003423D01*
G37*
%TD.AperFunction*%
%TA.AperFunction,Conductor*%
G36*
X142118020Y-76723423D02*
G01*
X142138912Y-76740258D01*
X142412621Y-77013967D01*
X142446511Y-77076032D01*
X142444588Y-77137053D01*
X142410643Y-77256356D01*
X142410642Y-77256360D01*
X142391772Y-77460000D01*
X142410642Y-77663639D01*
X142410643Y-77663640D01*
X142466608Y-77860338D01*
X142466610Y-77860342D01*
X142557766Y-78043408D01*
X142681007Y-78206605D01*
X142684914Y-78210890D01*
X142683228Y-78212427D01*
X142714773Y-78264356D01*
X142712983Y-78335048D01*
X142673258Y-78393550D01*
X142608210Y-78421289D01*
X142538492Y-78409457D01*
X142530757Y-78405344D01*
X142465045Y-78367405D01*
X142434140Y-78359124D01*
X142434139Y-78359123D01*
X142349707Y-78336500D01*
X142349704Y-78336500D01*
X137042518Y-78336500D01*
X136974668Y-78316577D01*
X136928359Y-78263135D01*
X136918295Y-78193139D01*
X136942367Y-78135370D01*
X136981805Y-78083144D01*
X136981807Y-78083141D01*
X137072920Y-77900160D01*
X137072923Y-77900151D01*
X137128862Y-77703548D01*
X137128863Y-77703546D01*
X137136002Y-77626500D01*
X136523742Y-77626500D01*
X136540000Y-77565826D01*
X136540000Y-77434174D01*
X136523742Y-77373500D01*
X137136002Y-77373500D01*
X137128863Y-77296453D01*
X137128862Y-77296451D01*
X137072923Y-77099848D01*
X137072920Y-77099839D01*
X136981807Y-76916858D01*
X136972572Y-76904628D01*
X136947583Y-76838476D01*
X136962326Y-76769315D01*
X137012120Y-76719104D01*
X137072725Y-76703500D01*
X142050170Y-76703500D01*
X142118020Y-76723423D01*
G37*
%TD.AperFunction*%
%TA.AperFunction,Conductor*%
G36*
X147338851Y-75443423D02*
G01*
X147385160Y-75496865D01*
X147396501Y-75549000D01*
X147396501Y-75794964D01*
X147411209Y-75868911D01*
X147456310Y-75936410D01*
X147467238Y-75952764D01*
X147551085Y-76008789D01*
X147551086Y-76008789D01*
X147551089Y-76008791D01*
X147625035Y-76023500D01*
X149374964Y-76023499D01*
X149448911Y-76008791D01*
X149532763Y-75952763D01*
X149588791Y-75868911D01*
X149603500Y-75794965D01*
X149603500Y-75589000D01*
X149623423Y-75521150D01*
X149676865Y-75474841D01*
X149729000Y-75463500D01*
X152271001Y-75463500D01*
X152338851Y-75483423D01*
X152385160Y-75536865D01*
X152396501Y-75589000D01*
X152396501Y-75834963D01*
X152411209Y-75908911D01*
X152467238Y-75992764D01*
X152551085Y-76048789D01*
X152551086Y-76048789D01*
X152551089Y-76048791D01*
X152625035Y-76063500D01*
X154374964Y-76063499D01*
X154448911Y-76048791D01*
X154532763Y-75992763D01*
X154588791Y-75908911D01*
X154603500Y-75834965D01*
X154603500Y-75549000D01*
X154623423Y-75481150D01*
X154676865Y-75434841D01*
X154729000Y-75423500D01*
X157271001Y-75423500D01*
X157338851Y-75443423D01*
X157385160Y-75496865D01*
X157396501Y-75549000D01*
X157396501Y-75794964D01*
X157411209Y-75868911D01*
X157456310Y-75936410D01*
X157467238Y-75952764D01*
X157551085Y-76008789D01*
X157551086Y-76008789D01*
X157551089Y-76008791D01*
X157625035Y-76023500D01*
X159374964Y-76023499D01*
X159448911Y-76008791D01*
X159532763Y-75952763D01*
X159588791Y-75868911D01*
X159603500Y-75794965D01*
X159603500Y-75569000D01*
X159623423Y-75501150D01*
X159676865Y-75454841D01*
X159729000Y-75443500D01*
X178385036Y-75443500D01*
X178452886Y-75463423D01*
X178496856Y-75512023D01*
X178513438Y-75544566D01*
X178513440Y-75544569D01*
X178513443Y-75544574D01*
X178620155Y-75691451D01*
X178748548Y-75819844D01*
X178895425Y-75926556D01*
X178895428Y-75926557D01*
X178895434Y-75926562D01*
X179025357Y-75992761D01*
X179056815Y-76008790D01*
X179057210Y-76008991D01*
X179229888Y-76065097D01*
X179229891Y-76065097D01*
X179229893Y-76065098D01*
X179362149Y-76086045D01*
X179426048Y-76116336D01*
X179463426Y-76176365D01*
X179462416Y-76247073D01*
X179423340Y-76306010D01*
X179362149Y-76333955D01*
X179229894Y-76354901D01*
X179229893Y-76354901D01*
X179057208Y-76411009D01*
X178895439Y-76493435D01*
X178895425Y-76493443D01*
X178748548Y-76600155D01*
X178620155Y-76728548D01*
X178513443Y-76875425D01*
X178513437Y-76875434D01*
X178507047Y-76887977D01*
X178458492Y-76939387D01*
X178395226Y-76956500D01*
X169728999Y-76956500D01*
X169661149Y-76936577D01*
X169614840Y-76883135D01*
X169603499Y-76831000D01*
X169603499Y-76585036D01*
X169601624Y-76575609D01*
X169588791Y-76511089D01*
X169532763Y-76427237D01*
X169532761Y-76427236D01*
X169532761Y-76427235D01*
X169448914Y-76371210D01*
X169448911Y-76371209D01*
X169374965Y-76356500D01*
X169374960Y-76356500D01*
X167625036Y-76356500D01*
X167551088Y-76371209D01*
X167467235Y-76427238D01*
X167411210Y-76511085D01*
X167411209Y-76511088D01*
X167411209Y-76511089D01*
X167396500Y-76585035D01*
X167396500Y-76585039D01*
X167396500Y-76831000D01*
X167376577Y-76898850D01*
X167323135Y-76945159D01*
X167271000Y-76956500D01*
X159559729Y-76956500D01*
X159491879Y-76936577D01*
X159447385Y-76886937D01*
X159442236Y-76876596D01*
X159441362Y-76875439D01*
X159349196Y-76753391D01*
X159318992Y-76713394D01*
X159318989Y-76713391D01*
X159231449Y-76633587D01*
X159167857Y-76575615D01*
X159167854Y-76575613D01*
X159167849Y-76575609D01*
X158993989Y-76467960D01*
X158993976Y-76467953D01*
X158803281Y-76394078D01*
X158803275Y-76394076D01*
X158602254Y-76356500D01*
X158397746Y-76356500D01*
X158196724Y-76394076D01*
X158196718Y-76394078D01*
X158006023Y-76467953D01*
X158006010Y-76467960D01*
X157832150Y-76575609D01*
X157832139Y-76575618D01*
X157681010Y-76713391D01*
X157681007Y-76713394D01*
X157557766Y-76876591D01*
X157532696Y-76926940D01*
X157484619Y-76978797D01*
X157420353Y-76996500D01*
X154559729Y-76996500D01*
X154491879Y-76976577D01*
X154447385Y-76926937D01*
X154442236Y-76916596D01*
X154318992Y-76753394D01*
X154318989Y-76753391D01*
X154275111Y-76713391D01*
X154167857Y-76615615D01*
X154167854Y-76615613D01*
X154167849Y-76615609D01*
X153993989Y-76507960D01*
X153993976Y-76507953D01*
X153803281Y-76434078D01*
X153803275Y-76434076D01*
X153602254Y-76396500D01*
X153397746Y-76396500D01*
X153196724Y-76434076D01*
X153196718Y-76434078D01*
X153006023Y-76507953D01*
X153006010Y-76507960D01*
X152832150Y-76615609D01*
X152832139Y-76615618D01*
X152681010Y-76753391D01*
X152681007Y-76753394D01*
X152565289Y-76906631D01*
X152508502Y-76948770D01*
X152465138Y-76956500D01*
X149559729Y-76956500D01*
X149491879Y-76936577D01*
X149447385Y-76886937D01*
X149442236Y-76876596D01*
X149441362Y-76875439D01*
X149349196Y-76753391D01*
X149318992Y-76713394D01*
X149318989Y-76713391D01*
X149231449Y-76633587D01*
X149167857Y-76575615D01*
X149167854Y-76575613D01*
X149167849Y-76575609D01*
X148993989Y-76467960D01*
X148993976Y-76467953D01*
X148803281Y-76394078D01*
X148803275Y-76394076D01*
X148602254Y-76356500D01*
X148397746Y-76356500D01*
X148196724Y-76394076D01*
X148196718Y-76394078D01*
X148006023Y-76467953D01*
X148006010Y-76467960D01*
X147832150Y-76575609D01*
X147832139Y-76575618D01*
X147681010Y-76713391D01*
X147681007Y-76713394D01*
X147557763Y-76876596D01*
X147552615Y-76886937D01*
X147504539Y-76938795D01*
X147440271Y-76956500D01*
X144559729Y-76956500D01*
X144491879Y-76936577D01*
X144447385Y-76886937D01*
X144442236Y-76876596D01*
X144441362Y-76875439D01*
X144349196Y-76753391D01*
X144318992Y-76713394D01*
X144318989Y-76713391D01*
X144231449Y-76633587D01*
X144167857Y-76575615D01*
X144167854Y-76575613D01*
X144167849Y-76575609D01*
X143993989Y-76467960D01*
X143993976Y-76467953D01*
X143803281Y-76394078D01*
X143803275Y-76394076D01*
X143602254Y-76356500D01*
X143397746Y-76356500D01*
X143196721Y-76394077D01*
X143196712Y-76394080D01*
X143185539Y-76398408D01*
X143115073Y-76404337D01*
X143052588Y-76371228D01*
X143051468Y-76370122D01*
X142919087Y-76237741D01*
X142885197Y-76175676D01*
X142890242Y-76105141D01*
X142932620Y-76048531D01*
X142998876Y-76023819D01*
X143007829Y-76023499D01*
X144374964Y-76023499D01*
X144448911Y-76008791D01*
X144532763Y-75952763D01*
X144588791Y-75868911D01*
X144603500Y-75794965D01*
X144603500Y-75549000D01*
X144623423Y-75481150D01*
X144676865Y-75434841D01*
X144729000Y-75423500D01*
X147271001Y-75423500D01*
X147338851Y-75443423D01*
G37*
%TD.AperFunction*%
%TA.AperFunction,Conductor*%
G36*
X183452886Y-75463423D02*
G01*
X183496856Y-75512023D01*
X183513438Y-75544566D01*
X183513440Y-75544569D01*
X183513443Y-75544574D01*
X183620155Y-75691451D01*
X183748548Y-75819844D01*
X183895425Y-75926556D01*
X183895428Y-75926557D01*
X183895434Y-75926562D01*
X184025357Y-75992761D01*
X184056815Y-76008790D01*
X184057210Y-76008991D01*
X184229888Y-76065097D01*
X184229891Y-76065097D01*
X184229893Y-76065098D01*
X184362149Y-76086045D01*
X184426048Y-76116336D01*
X184463426Y-76176365D01*
X184462416Y-76247073D01*
X184423340Y-76306010D01*
X184362149Y-76333955D01*
X184229894Y-76354901D01*
X184229893Y-76354901D01*
X184057208Y-76411009D01*
X183895439Y-76493435D01*
X183895425Y-76493443D01*
X183748548Y-76600155D01*
X183620155Y-76728548D01*
X183513443Y-76875425D01*
X183513438Y-76875434D01*
X183496856Y-76907976D01*
X183448303Y-76959386D01*
X183385036Y-76976500D01*
X182014964Y-76976500D01*
X181947114Y-76956577D01*
X181903143Y-76907976D01*
X181886562Y-76875434D01*
X181886557Y-76875428D01*
X181886556Y-76875425D01*
X181779844Y-76728548D01*
X181651451Y-76600155D01*
X181504574Y-76493443D01*
X181504568Y-76493440D01*
X181504566Y-76493438D01*
X181454549Y-76467953D01*
X181342791Y-76411009D01*
X181170106Y-76354901D01*
X181057447Y-76337058D01*
X181037849Y-76333954D01*
X180973951Y-76303664D01*
X180936573Y-76243635D01*
X180937583Y-76172927D01*
X180976659Y-76113990D01*
X181037849Y-76086045D01*
X181170112Y-76065097D01*
X181342790Y-76008991D01*
X181504566Y-75926562D01*
X181630641Y-75834963D01*
X181651451Y-75819844D01*
X181651451Y-75819843D01*
X181651455Y-75819841D01*
X181779841Y-75691455D01*
X181886562Y-75544566D01*
X181903143Y-75512023D01*
X181951697Y-75460614D01*
X182014964Y-75443500D01*
X183385036Y-75443500D01*
X183452886Y-75463423D01*
G37*
%TD.AperFunction*%
%TA.AperFunction,Conductor*%
G36*
X183288850Y-72923423D02*
G01*
X183335159Y-72976865D01*
X183346500Y-73029000D01*
X183346500Y-73098162D01*
X183352946Y-73158127D01*
X183374942Y-73217099D01*
X183403544Y-73293783D01*
X183490310Y-73409690D01*
X183606217Y-73496456D01*
X183741873Y-73547053D01*
X183741871Y-73547053D01*
X183753513Y-73548304D01*
X183801838Y-73553500D01*
X183801842Y-73553500D01*
X184285692Y-73553500D01*
X184353542Y-73573423D01*
X184399851Y-73626865D01*
X184409915Y-73696861D01*
X184380539Y-73761185D01*
X184321049Y-73799416D01*
X184305324Y-73802955D01*
X184229893Y-73814901D01*
X184057208Y-73871009D01*
X183895439Y-73953435D01*
X183895425Y-73953443D01*
X183748548Y-74060155D01*
X183620155Y-74188548D01*
X183513443Y-74335425D01*
X183513438Y-74335434D01*
X183496856Y-74367976D01*
X183448303Y-74419386D01*
X183385036Y-74436500D01*
X182014964Y-74436500D01*
X181947114Y-74416577D01*
X181903143Y-74367976D01*
X181886562Y-74335434D01*
X181886557Y-74335428D01*
X181886556Y-74335425D01*
X181779844Y-74188548D01*
X181651451Y-74060155D01*
X181504574Y-73953443D01*
X181504568Y-73953440D01*
X181504566Y-73953438D01*
X181453144Y-73927237D01*
X181342791Y-73871009D01*
X181170106Y-73814901D01*
X181094676Y-73802955D01*
X181030777Y-73772664D01*
X180993399Y-73712635D01*
X180994409Y-73641927D01*
X181033485Y-73582990D01*
X181098223Y-73554535D01*
X181114308Y-73553500D01*
X181598158Y-73553500D01*
X181598162Y-73553500D01*
X181658127Y-73547053D01*
X181793783Y-73496456D01*
X181909690Y-73409690D01*
X181996456Y-73293783D01*
X182047053Y-73158127D01*
X182053500Y-73098162D01*
X182053500Y-73029000D01*
X182073423Y-72961150D01*
X182126865Y-72914841D01*
X182179000Y-72903500D01*
X183221000Y-72903500D01*
X183288850Y-72923423D01*
G37*
%TD.AperFunction*%
%TA.AperFunction,Conductor*%
G36*
X202004474Y-62500820D02*
G01*
X202204451Y-62515122D01*
X202222164Y-62517669D01*
X202413690Y-62559332D01*
X202430869Y-62564377D01*
X202614502Y-62632869D01*
X202630790Y-62640307D01*
X202802812Y-62734238D01*
X202817875Y-62743919D01*
X202974779Y-62861376D01*
X202988312Y-62873102D01*
X203126897Y-63011687D01*
X203138623Y-63025220D01*
X203256080Y-63182124D01*
X203265761Y-63197187D01*
X203359692Y-63369209D01*
X203367130Y-63385497D01*
X203435622Y-63569130D01*
X203440667Y-63586311D01*
X203482329Y-63777830D01*
X203484877Y-63795553D01*
X203499180Y-63995524D01*
X203499500Y-64004478D01*
X203499500Y-107995521D01*
X203499180Y-108004475D01*
X203484877Y-108204446D01*
X203482329Y-108222169D01*
X203440667Y-108413688D01*
X203435622Y-108430869D01*
X203367130Y-108614502D01*
X203359692Y-108630790D01*
X203265761Y-108802812D01*
X203256080Y-108817875D01*
X203138623Y-108974779D01*
X203126897Y-108988312D01*
X202988312Y-109126897D01*
X202974779Y-109138623D01*
X202817875Y-109256080D01*
X202802812Y-109265761D01*
X202630790Y-109359692D01*
X202614502Y-109367130D01*
X202430869Y-109435622D01*
X202413688Y-109440667D01*
X202222169Y-109482329D01*
X202204446Y-109484877D01*
X202027702Y-109497518D01*
X202004473Y-109499180D01*
X201995521Y-109499500D01*
X182004479Y-109499500D01*
X181995526Y-109499180D01*
X181968817Y-109497269D01*
X181795553Y-109484877D01*
X181777830Y-109482329D01*
X181586311Y-109440667D01*
X181569130Y-109435622D01*
X181385497Y-109367130D01*
X181369209Y-109359692D01*
X181197187Y-109265761D01*
X181182124Y-109256080D01*
X181025220Y-109138623D01*
X181011687Y-109126897D01*
X180873102Y-108988312D01*
X180861376Y-108974779D01*
X180743919Y-108817875D01*
X180734238Y-108802812D01*
X180640307Y-108630790D01*
X180632869Y-108614502D01*
X180564377Y-108430869D01*
X180559332Y-108413688D01*
X180517670Y-108222169D01*
X180515122Y-108204451D01*
X180500820Y-108004474D01*
X180500500Y-107995521D01*
X180500500Y-106848748D01*
X180483356Y-106707554D01*
X180464037Y-106548449D01*
X180456586Y-106518220D01*
X180391647Y-106254749D01*
X180391644Y-106254739D01*
X180391643Y-106254734D01*
X180295035Y-106000000D01*
X188541996Y-106000000D01*
X188561997Y-106343407D01*
X188621727Y-106682153D01*
X188621729Y-106682162D01*
X188720386Y-107011700D01*
X188856627Y-107327541D01*
X188856635Y-107327558D01*
X189028623Y-107625449D01*
X189234043Y-107901375D01*
X189234043Y-107901376D01*
X189324182Y-107996917D01*
X190458224Y-106862875D01*
X190470278Y-106879466D01*
X190620534Y-107029722D01*
X190637122Y-107041774D01*
X189501212Y-108177684D01*
X189501212Y-108177686D01*
X189733586Y-108372672D01*
X189733603Y-108372684D01*
X190021001Y-108561708D01*
X190021005Y-108561711D01*
X190328390Y-108716085D01*
X190651624Y-108833732D01*
X190651649Y-108833740D01*
X190986341Y-108913063D01*
X190986355Y-108913065D01*
X191328007Y-108953000D01*
X191671993Y-108953000D01*
X192013644Y-108913065D01*
X192013658Y-108913063D01*
X192348350Y-108833740D01*
X192348375Y-108833732D01*
X192671609Y-108716085D01*
X192978994Y-108561711D01*
X192978998Y-108561708D01*
X193266396Y-108372684D01*
X193266413Y-108372672D01*
X193498786Y-108177686D01*
X193498786Y-108177684D01*
X192362876Y-107041774D01*
X192379466Y-107029722D01*
X192529722Y-106879466D01*
X192541775Y-106862876D01*
X193675816Y-107996917D01*
X193675817Y-107996917D01*
X193765955Y-107901375D01*
X193765963Y-107901366D01*
X193971376Y-107625449D01*
X194143364Y-107327558D01*
X194143372Y-107327541D01*
X194279613Y-107011700D01*
X194378270Y-106682162D01*
X194378272Y-106682153D01*
X194438002Y-106343407D01*
X194458003Y-106000000D01*
X194438002Y-105656592D01*
X194378272Y-105317846D01*
X194378270Y-105317837D01*
X194279613Y-104988299D01*
X194143372Y-104672458D01*
X194143364Y-104672441D01*
X193971376Y-104374550D01*
X193765956Y-104098624D01*
X193765956Y-104098623D01*
X193675816Y-104003081D01*
X192541774Y-105137122D01*
X192529722Y-105120534D01*
X192379466Y-104970278D01*
X192362875Y-104958224D01*
X193498786Y-103822314D01*
X193498786Y-103822312D01*
X193266413Y-103627327D01*
X193266396Y-103627315D01*
X192978998Y-103438291D01*
X192978994Y-103438288D01*
X192671609Y-103283914D01*
X192348375Y-103166267D01*
X192348350Y-103166259D01*
X192013658Y-103086936D01*
X192013644Y-103086934D01*
X191671993Y-103047000D01*
X191328007Y-103047000D01*
X190986355Y-103086934D01*
X190986341Y-103086936D01*
X190651649Y-103166259D01*
X190651624Y-103166267D01*
X190328390Y-103283914D01*
X190021005Y-103438288D01*
X190021001Y-103438291D01*
X189733604Y-103627314D01*
X189501212Y-103822314D01*
X190637123Y-104958225D01*
X190620534Y-104970278D01*
X190470278Y-105120534D01*
X190458225Y-105137123D01*
X189324183Y-104003081D01*
X189324182Y-104003081D01*
X189234045Y-104098623D01*
X189234035Y-104098634D01*
X189028623Y-104374550D01*
X188856635Y-104672441D01*
X188856627Y-104672458D01*
X188720386Y-104988299D01*
X188621729Y-105317837D01*
X188621727Y-105317846D01*
X188561997Y-105656592D01*
X188541996Y-106000000D01*
X180295035Y-106000000D01*
X180284373Y-105971887D01*
X180143792Y-105704033D01*
X179971950Y-105455076D01*
X179771352Y-105228648D01*
X179544924Y-105028050D01*
X179295967Y-104856208D01*
X179028113Y-104715627D01*
X179028112Y-104715626D01*
X179028111Y-104715626D01*
X178855069Y-104650000D01*
X178745266Y-104608357D01*
X178745263Y-104608356D01*
X178745260Y-104608355D01*
X178745250Y-104608352D01*
X178451560Y-104535964D01*
X178451546Y-104535962D01*
X178222146Y-104508108D01*
X178151252Y-104499500D01*
X178151251Y-104499500D01*
X124626000Y-104499500D01*
X124558150Y-104479577D01*
X124511841Y-104426135D01*
X124500500Y-104374000D01*
X124500500Y-97820000D01*
X132391772Y-97820000D01*
X132410642Y-98023639D01*
X132410643Y-98023640D01*
X132466608Y-98220338D01*
X132466610Y-98220342D01*
X132557766Y-98403408D01*
X132681007Y-98566605D01*
X132681010Y-98566608D01*
X132832143Y-98704385D01*
X132832146Y-98704387D01*
X132832150Y-98704390D01*
X132964175Y-98786136D01*
X133006020Y-98812045D01*
X133196719Y-98885922D01*
X133397746Y-98923500D01*
X133602254Y-98923500D01*
X133803281Y-98885922D01*
X133993980Y-98812045D01*
X134167857Y-98704385D01*
X134318990Y-98566608D01*
X134442234Y-98403407D01*
X134533392Y-98220338D01*
X134589358Y-98023636D01*
X134608228Y-97820000D01*
X134931772Y-97820000D01*
X134950642Y-98023639D01*
X134950643Y-98023640D01*
X135006608Y-98220338D01*
X135006610Y-98220342D01*
X135097766Y-98403408D01*
X135221007Y-98566605D01*
X135221010Y-98566608D01*
X135372143Y-98704385D01*
X135372146Y-98704387D01*
X135372150Y-98704390D01*
X135504175Y-98786136D01*
X135546020Y-98812045D01*
X135736719Y-98885922D01*
X135937746Y-98923500D01*
X136142254Y-98923500D01*
X136343281Y-98885922D01*
X136533980Y-98812045D01*
X136707857Y-98704385D01*
X136858990Y-98566608D01*
X136982234Y-98403407D01*
X137073392Y-98220338D01*
X137129358Y-98023636D01*
X137148228Y-97820000D01*
X137132799Y-97653500D01*
X142403998Y-97653500D01*
X143016258Y-97653500D01*
X143000000Y-97714174D01*
X143000000Y-97845826D01*
X143016258Y-97906500D01*
X142403998Y-97906500D01*
X142411136Y-97983546D01*
X142411137Y-97983548D01*
X142467076Y-98180151D01*
X142467079Y-98180160D01*
X142558192Y-98363141D01*
X142558194Y-98363144D01*
X142681377Y-98526266D01*
X142832446Y-98663983D01*
X143006239Y-98771592D01*
X143006250Y-98771597D01*
X143196852Y-98845436D01*
X143196860Y-98845438D01*
X143373499Y-98878458D01*
X143373500Y-98878458D01*
X143373500Y-98263742D01*
X143434174Y-98280000D01*
X143565826Y-98280000D01*
X143626500Y-98263742D01*
X143626500Y-98878458D01*
X143803139Y-98845438D01*
X143803147Y-98845436D01*
X143993749Y-98771597D01*
X143993760Y-98771592D01*
X144167553Y-98663983D01*
X144318622Y-98526266D01*
X144441805Y-98363144D01*
X144441807Y-98363141D01*
X144532920Y-98180160D01*
X144532923Y-98180151D01*
X144588862Y-97983548D01*
X144588863Y-97983546D01*
X144596002Y-97906500D01*
X143983742Y-97906500D01*
X144000000Y-97845826D01*
X144000000Y-97714174D01*
X143983742Y-97653500D01*
X144596002Y-97653500D01*
X147403998Y-97653500D01*
X148016258Y-97653500D01*
X148000000Y-97714174D01*
X148000000Y-97845826D01*
X148016258Y-97906500D01*
X147403998Y-97906500D01*
X147411136Y-97983546D01*
X147411137Y-97983548D01*
X147467076Y-98180151D01*
X147467079Y-98180160D01*
X147558192Y-98363141D01*
X147558194Y-98363144D01*
X147681377Y-98526266D01*
X147832446Y-98663983D01*
X148006239Y-98771592D01*
X148006250Y-98771597D01*
X148196852Y-98845436D01*
X148196860Y-98845438D01*
X148373500Y-98878458D01*
X148373500Y-98263742D01*
X148434174Y-98280000D01*
X148565826Y-98280000D01*
X148626500Y-98263742D01*
X148626500Y-98878458D01*
X148803139Y-98845438D01*
X148803147Y-98845436D01*
X148993749Y-98771597D01*
X148993760Y-98771592D01*
X149167553Y-98663983D01*
X149318622Y-98526266D01*
X149441805Y-98363144D01*
X149441807Y-98363141D01*
X149532920Y-98180160D01*
X149532923Y-98180151D01*
X149588862Y-97983548D01*
X149588863Y-97983546D01*
X149596002Y-97906500D01*
X148983742Y-97906500D01*
X149000000Y-97845826D01*
X149000000Y-97714174D01*
X148994460Y-97693500D01*
X152403998Y-97693500D01*
X153016258Y-97693500D01*
X153000000Y-97754174D01*
X153000000Y-97885826D01*
X153016258Y-97946500D01*
X152403998Y-97946500D01*
X152411136Y-98023546D01*
X152411137Y-98023548D01*
X152467076Y-98220151D01*
X152467079Y-98220160D01*
X152558192Y-98403141D01*
X152558194Y-98403144D01*
X152681377Y-98566266D01*
X152832446Y-98703983D01*
X153006239Y-98811592D01*
X153006250Y-98811597D01*
X153196852Y-98885436D01*
X153196860Y-98885438D01*
X153373499Y-98918458D01*
X153373500Y-98918458D01*
X153373500Y-98303742D01*
X153434174Y-98320000D01*
X153565826Y-98320000D01*
X153626500Y-98303742D01*
X153626500Y-98918458D01*
X153803139Y-98885438D01*
X153803147Y-98885436D01*
X153993749Y-98811597D01*
X153993760Y-98811592D01*
X154167553Y-98703983D01*
X154318622Y-98566266D01*
X154441805Y-98403144D01*
X154441807Y-98403141D01*
X154532920Y-98220160D01*
X154532923Y-98220151D01*
X154588862Y-98023548D01*
X154588863Y-98023546D01*
X154596002Y-97946500D01*
X153983742Y-97946500D01*
X154000000Y-97885826D01*
X154000000Y-97754174D01*
X153983742Y-97693500D01*
X154596002Y-97693500D01*
X154592296Y-97653500D01*
X157403998Y-97653500D01*
X158016258Y-97653500D01*
X158000000Y-97714174D01*
X158000000Y-97845826D01*
X158016258Y-97906500D01*
X157403998Y-97906500D01*
X157411136Y-97983546D01*
X157411137Y-97983548D01*
X157467076Y-98180151D01*
X157467079Y-98180160D01*
X157558192Y-98363141D01*
X157558194Y-98363144D01*
X157681377Y-98526266D01*
X157832446Y-98663983D01*
X158006239Y-98771592D01*
X158006250Y-98771597D01*
X158196852Y-98845436D01*
X158196860Y-98845438D01*
X158373499Y-98878458D01*
X158373500Y-98878458D01*
X158373500Y-98263742D01*
X158434174Y-98280000D01*
X158565826Y-98280000D01*
X158626500Y-98263742D01*
X158626500Y-98878458D01*
X158803139Y-98845438D01*
X158803147Y-98845436D01*
X158993749Y-98771597D01*
X158993760Y-98771592D01*
X159167553Y-98663983D01*
X159318622Y-98526266D01*
X159441805Y-98363144D01*
X159441807Y-98363141D01*
X159532920Y-98180160D01*
X159532923Y-98180151D01*
X159588862Y-97983548D01*
X159588863Y-97983546D01*
X159596002Y-97906500D01*
X158983742Y-97906500D01*
X159000000Y-97845826D01*
X159000000Y-97714174D01*
X158983742Y-97653500D01*
X159596002Y-97653500D01*
X159588863Y-97576453D01*
X159588862Y-97576451D01*
X159532923Y-97379848D01*
X159532920Y-97379839D01*
X159441807Y-97196858D01*
X159441805Y-97196855D01*
X159318622Y-97033733D01*
X159167553Y-96896016D01*
X158993760Y-96788407D01*
X158993749Y-96788402D01*
X158803147Y-96714563D01*
X158803139Y-96714561D01*
X158626500Y-96681540D01*
X158626500Y-97296257D01*
X158565826Y-97280000D01*
X158434174Y-97280000D01*
X158373500Y-97296257D01*
X158373500Y-96681540D01*
X158196860Y-96714561D01*
X158196852Y-96714563D01*
X158006250Y-96788402D01*
X158006239Y-96788407D01*
X157832446Y-96896016D01*
X157681377Y-97033733D01*
X157558194Y-97196855D01*
X157558192Y-97196858D01*
X157467079Y-97379839D01*
X157467076Y-97379848D01*
X157411137Y-97576451D01*
X157411136Y-97576453D01*
X157403998Y-97653500D01*
X154592296Y-97653500D01*
X154588863Y-97616453D01*
X154588862Y-97616451D01*
X154532923Y-97419848D01*
X154532920Y-97419839D01*
X154441807Y-97236858D01*
X154441805Y-97236855D01*
X154318622Y-97073733D01*
X154167553Y-96936016D01*
X153993760Y-96828407D01*
X153993749Y-96828402D01*
X153803147Y-96754563D01*
X153803139Y-96754561D01*
X153626500Y-96721540D01*
X153626500Y-97336257D01*
X153565826Y-97320000D01*
X153434174Y-97320000D01*
X153373500Y-97336257D01*
X153373500Y-96721540D01*
X153196860Y-96754561D01*
X153196852Y-96754563D01*
X153006250Y-96828402D01*
X153006239Y-96828407D01*
X152832446Y-96936016D01*
X152681377Y-97073733D01*
X152558194Y-97236855D01*
X152558192Y-97236858D01*
X152467079Y-97419839D01*
X152467076Y-97419848D01*
X152411137Y-97616451D01*
X152411136Y-97616453D01*
X152403998Y-97693500D01*
X148994460Y-97693500D01*
X148983742Y-97653500D01*
X149596002Y-97653500D01*
X149588863Y-97576453D01*
X149588862Y-97576451D01*
X149532923Y-97379848D01*
X149532920Y-97379839D01*
X149441807Y-97196858D01*
X149441805Y-97196855D01*
X149318622Y-97033733D01*
X149167553Y-96896016D01*
X148993760Y-96788407D01*
X148993749Y-96788402D01*
X148803147Y-96714563D01*
X148803139Y-96714561D01*
X148626500Y-96681540D01*
X148626500Y-97296257D01*
X148565826Y-97280000D01*
X148434174Y-97280000D01*
X148373500Y-97296257D01*
X148373500Y-96681540D01*
X148196860Y-96714561D01*
X148196852Y-96714563D01*
X148006250Y-96788402D01*
X148006239Y-96788407D01*
X147832446Y-96896016D01*
X147681377Y-97033733D01*
X147558194Y-97196855D01*
X147558192Y-97196858D01*
X147467079Y-97379839D01*
X147467076Y-97379848D01*
X147411137Y-97576451D01*
X147411136Y-97576453D01*
X147403998Y-97653500D01*
X144596002Y-97653500D01*
X144588863Y-97576453D01*
X144588862Y-97576451D01*
X144532923Y-97379848D01*
X144532920Y-97379839D01*
X144441807Y-97196858D01*
X144441805Y-97196855D01*
X144318622Y-97033733D01*
X144167553Y-96896016D01*
X143993760Y-96788407D01*
X143993749Y-96788402D01*
X143803147Y-96714563D01*
X143803139Y-96714561D01*
X143626500Y-96681540D01*
X143626500Y-97296257D01*
X143565826Y-97280000D01*
X143434174Y-97280000D01*
X143373500Y-97296257D01*
X143373500Y-96681540D01*
X143196860Y-96714561D01*
X143196852Y-96714563D01*
X143006250Y-96788402D01*
X143006239Y-96788407D01*
X142832446Y-96896016D01*
X142681377Y-97033733D01*
X142558194Y-97196855D01*
X142558192Y-97196858D01*
X142467079Y-97379839D01*
X142467076Y-97379848D01*
X142411137Y-97576451D01*
X142411136Y-97576453D01*
X142403998Y-97653500D01*
X137132799Y-97653500D01*
X137129358Y-97616364D01*
X137073392Y-97419662D01*
X136982234Y-97236593D01*
X136982233Y-97236592D01*
X136982233Y-97236591D01*
X136858992Y-97073394D01*
X136858989Y-97073391D01*
X136707860Y-96935618D01*
X136707857Y-96935615D01*
X136707854Y-96935613D01*
X136707849Y-96935609D01*
X136533989Y-96827960D01*
X136533976Y-96827953D01*
X136343281Y-96754078D01*
X136343275Y-96754076D01*
X136142254Y-96716500D01*
X135937746Y-96716500D01*
X135736724Y-96754076D01*
X135736718Y-96754078D01*
X135546023Y-96827953D01*
X135546010Y-96827960D01*
X135372150Y-96935609D01*
X135372139Y-96935618D01*
X135221010Y-97073391D01*
X135221007Y-97073394D01*
X135097766Y-97236591D01*
X135006610Y-97419657D01*
X135006607Y-97419666D01*
X134950643Y-97616359D01*
X134950642Y-97616360D01*
X134931772Y-97820000D01*
X134608228Y-97820000D01*
X134589358Y-97616364D01*
X134533392Y-97419662D01*
X134442234Y-97236593D01*
X134442233Y-97236592D01*
X134442233Y-97236591D01*
X134318992Y-97073394D01*
X134318989Y-97073391D01*
X134167860Y-96935618D01*
X134167857Y-96935615D01*
X134167854Y-96935613D01*
X134167849Y-96935609D01*
X133993989Y-96827960D01*
X133993976Y-96827953D01*
X133803281Y-96754078D01*
X133803275Y-96754076D01*
X133602254Y-96716500D01*
X133397746Y-96716500D01*
X133196724Y-96754076D01*
X133196718Y-96754078D01*
X133006023Y-96827953D01*
X133006010Y-96827960D01*
X132832150Y-96935609D01*
X132832139Y-96935618D01*
X132681010Y-97073391D01*
X132681007Y-97073394D01*
X132557766Y-97236591D01*
X132466610Y-97419657D01*
X132466607Y-97419666D01*
X132410643Y-97616359D01*
X132410642Y-97616360D01*
X132391772Y-97820000D01*
X124500500Y-97820000D01*
X124500500Y-81500000D01*
X125851772Y-81500000D01*
X125870642Y-81703639D01*
X125870643Y-81703640D01*
X125926608Y-81900338D01*
X125926610Y-81900342D01*
X126017766Y-82083408D01*
X126141007Y-82246605D01*
X126141010Y-82246608D01*
X126292143Y-82384385D01*
X126292146Y-82384387D01*
X126292150Y-82384390D01*
X126466010Y-82492039D01*
X126466020Y-82492045D01*
X126656719Y-82565922D01*
X126857746Y-82603500D01*
X127062254Y-82603500D01*
X127263281Y-82565922D01*
X127274451Y-82561594D01*
X127344911Y-82555658D01*
X127407400Y-82588760D01*
X127408530Y-82589876D01*
X127772578Y-82953924D01*
X127806468Y-83015989D01*
X127801423Y-83086524D01*
X127759045Y-83143134D01*
X127692789Y-83167846D01*
X127623690Y-83152815D01*
X127617769Y-83149368D01*
X127453989Y-83047960D01*
X127453976Y-83047953D01*
X127263281Y-82974078D01*
X127263275Y-82974076D01*
X127062254Y-82936500D01*
X126857746Y-82936500D01*
X126656724Y-82974076D01*
X126656718Y-82974078D01*
X126466023Y-83047953D01*
X126466010Y-83047960D01*
X126292150Y-83155609D01*
X126292139Y-83155618D01*
X126141010Y-83293391D01*
X126141007Y-83293394D01*
X126017766Y-83456591D01*
X125926610Y-83639657D01*
X125926607Y-83639666D01*
X125870643Y-83836359D01*
X125870642Y-83836360D01*
X125851772Y-84040000D01*
X125870642Y-84243639D01*
X125870643Y-84243640D01*
X125926608Y-84440338D01*
X125926610Y-84440342D01*
X126017766Y-84623408D01*
X126141007Y-84786605D01*
X126141010Y-84786608D01*
X126292143Y-84924385D01*
X126292146Y-84924387D01*
X126292150Y-84924390D01*
X126466010Y-85032039D01*
X126466020Y-85032045D01*
X126656719Y-85105922D01*
X126857746Y-85143500D01*
X127062254Y-85143500D01*
X127263281Y-85105922D01*
X127274451Y-85101594D01*
X127344911Y-85095658D01*
X127407400Y-85128760D01*
X127408530Y-85129876D01*
X127772578Y-85493924D01*
X127806468Y-85555989D01*
X127801423Y-85626524D01*
X127759045Y-85683134D01*
X127692789Y-85707846D01*
X127623690Y-85692815D01*
X127617769Y-85689368D01*
X127453989Y-85587960D01*
X127453976Y-85587953D01*
X127263281Y-85514078D01*
X127263275Y-85514076D01*
X127062254Y-85476500D01*
X126857746Y-85476500D01*
X126656724Y-85514076D01*
X126656718Y-85514078D01*
X126466023Y-85587953D01*
X126466010Y-85587960D01*
X126292150Y-85695609D01*
X126292139Y-85695618D01*
X126141010Y-85833391D01*
X126141007Y-85833394D01*
X126017766Y-85996591D01*
X125926610Y-86179657D01*
X125926607Y-86179666D01*
X125870643Y-86376359D01*
X125870642Y-86376360D01*
X125851772Y-86580000D01*
X125870642Y-86783639D01*
X125870643Y-86783640D01*
X125926608Y-86980338D01*
X125926610Y-86980342D01*
X126017766Y-87163408D01*
X126141007Y-87326605D01*
X126141010Y-87326608D01*
X126292143Y-87464385D01*
X126292146Y-87464387D01*
X126292150Y-87464390D01*
X126466010Y-87572039D01*
X126466020Y-87572045D01*
X126656719Y-87645922D01*
X126857746Y-87683500D01*
X127062254Y-87683500D01*
X127263281Y-87645922D01*
X127274451Y-87641594D01*
X127344911Y-87635658D01*
X127407400Y-87668760D01*
X127408530Y-87669876D01*
X127772578Y-88033924D01*
X127806468Y-88095989D01*
X127801423Y-88166524D01*
X127759045Y-88223134D01*
X127692789Y-88247846D01*
X127623690Y-88232815D01*
X127617769Y-88229368D01*
X127453989Y-88127960D01*
X127453976Y-88127953D01*
X127263281Y-88054078D01*
X127263275Y-88054076D01*
X127062254Y-88016500D01*
X126857746Y-88016500D01*
X126656724Y-88054076D01*
X126656718Y-88054078D01*
X126466023Y-88127953D01*
X126466010Y-88127960D01*
X126292150Y-88235609D01*
X126292139Y-88235618D01*
X126141010Y-88373391D01*
X126141007Y-88373394D01*
X126017766Y-88536591D01*
X125926610Y-88719657D01*
X125926608Y-88719662D01*
X125920737Y-88740296D01*
X125870643Y-88916359D01*
X125870642Y-88916360D01*
X125851772Y-89120000D01*
X125870642Y-89323639D01*
X125870643Y-89323640D01*
X125926608Y-89520338D01*
X125926610Y-89520342D01*
X126017766Y-89703408D01*
X126141007Y-89866605D01*
X126141010Y-89866608D01*
X126292143Y-90004385D01*
X126292146Y-90004387D01*
X126292150Y-90004390D01*
X126466010Y-90112039D01*
X126466020Y-90112045D01*
X126656719Y-90185922D01*
X126857746Y-90223500D01*
X127062254Y-90223500D01*
X127263281Y-90185922D01*
X127274451Y-90181594D01*
X127344911Y-90175658D01*
X127407400Y-90208760D01*
X127408530Y-90209876D01*
X127774126Y-90575472D01*
X127808016Y-90637537D01*
X127802971Y-90708072D01*
X127760593Y-90764682D01*
X127694337Y-90789394D01*
X127625238Y-90774363D01*
X127619316Y-90770916D01*
X127453760Y-90668407D01*
X127453749Y-90668402D01*
X127263147Y-90594563D01*
X127263139Y-90594561D01*
X127086500Y-90561540D01*
X127086500Y-91176257D01*
X127025826Y-91160000D01*
X126894174Y-91160000D01*
X126833500Y-91176257D01*
X126833500Y-90561540D01*
X126656860Y-90594561D01*
X126656852Y-90594563D01*
X126466250Y-90668402D01*
X126466239Y-90668407D01*
X126292446Y-90776016D01*
X126141377Y-90913733D01*
X126018194Y-91076855D01*
X126018192Y-91076858D01*
X125927079Y-91259839D01*
X125927076Y-91259848D01*
X125871137Y-91456451D01*
X125871136Y-91456453D01*
X125863998Y-91533500D01*
X126476258Y-91533500D01*
X126460000Y-91594174D01*
X126460000Y-91725826D01*
X126476258Y-91786500D01*
X125863998Y-91786500D01*
X125871136Y-91863546D01*
X125871137Y-91863548D01*
X125927076Y-92060151D01*
X125927079Y-92060160D01*
X126018192Y-92243141D01*
X126018194Y-92243144D01*
X126141377Y-92406266D01*
X126292446Y-92543983D01*
X126466239Y-92651592D01*
X126466250Y-92651597D01*
X126656852Y-92725436D01*
X126656860Y-92725438D01*
X126833499Y-92758458D01*
X126833500Y-92758458D01*
X126833500Y-92143742D01*
X126894174Y-92160000D01*
X127025826Y-92160000D01*
X127086500Y-92143742D01*
X127086500Y-92758458D01*
X127263139Y-92725438D01*
X127263147Y-92725436D01*
X127453749Y-92651597D01*
X127453760Y-92651592D01*
X127627553Y-92543983D01*
X127778622Y-92406266D01*
X127901805Y-92243144D01*
X127901807Y-92243141D01*
X127992920Y-92060160D01*
X127992923Y-92060151D01*
X128048862Y-91863548D01*
X128048863Y-91863546D01*
X128056002Y-91786500D01*
X127443742Y-91786500D01*
X127460000Y-91725826D01*
X127460000Y-91594174D01*
X127443742Y-91533500D01*
X128056002Y-91533500D01*
X128048863Y-91456453D01*
X128048862Y-91456451D01*
X127992923Y-91259848D01*
X127992920Y-91259839D01*
X127901807Y-91076858D01*
X127901805Y-91076855D01*
X127813622Y-90960081D01*
X127788631Y-90893930D01*
X127803373Y-90824768D01*
X127853165Y-90774556D01*
X127922200Y-90759234D01*
X127976521Y-90775764D01*
X127991766Y-90784565D01*
X127991770Y-90784567D01*
X128074952Y-90832593D01*
X128074953Y-90832593D01*
X128074956Y-90832595D01*
X128190296Y-90863500D01*
X128467275Y-90863500D01*
X128535125Y-90883423D01*
X128581434Y-90936865D01*
X128591498Y-91006861D01*
X128567428Y-91064628D01*
X128558192Y-91076858D01*
X128467079Y-91259839D01*
X128467076Y-91259848D01*
X128411137Y-91456451D01*
X128411136Y-91456453D01*
X128403998Y-91533500D01*
X129016258Y-91533500D01*
X129000000Y-91594174D01*
X129000000Y-91725826D01*
X129016258Y-91786500D01*
X128403998Y-91786500D01*
X128411136Y-91863546D01*
X128411137Y-91863548D01*
X128467076Y-92060151D01*
X128467079Y-92060160D01*
X128558192Y-92243141D01*
X128558194Y-92243144D01*
X128681377Y-92406266D01*
X128832446Y-92543983D01*
X129006239Y-92651592D01*
X129006250Y-92651597D01*
X129196852Y-92725436D01*
X129196860Y-92725438D01*
X129373499Y-92758458D01*
X129373500Y-92758458D01*
X129373500Y-92143742D01*
X129434174Y-92160000D01*
X129565826Y-92160000D01*
X129626500Y-92143742D01*
X129626500Y-92758458D01*
X129803139Y-92725438D01*
X129803147Y-92725436D01*
X129993749Y-92651597D01*
X129993760Y-92651592D01*
X130167553Y-92543983D01*
X130318619Y-92406269D01*
X130320846Y-92403321D01*
X130322275Y-92402260D01*
X130322528Y-92401983D01*
X130322582Y-92402032D01*
X130377632Y-92361179D01*
X130448187Y-92356428D01*
X130510111Y-92390576D01*
X130543742Y-92452782D01*
X130546500Y-92478948D01*
X130546500Y-94059705D01*
X130554538Y-94089700D01*
X130554539Y-94089705D01*
X130577404Y-94175044D01*
X130634216Y-94273443D01*
X130637110Y-94278456D01*
X132001544Y-95642890D01*
X132055018Y-95673763D01*
X132104956Y-95702595D01*
X132220296Y-95733500D01*
X132415374Y-95733500D01*
X132483224Y-95753423D01*
X132527717Y-95803061D01*
X132557763Y-95863402D01*
X132557763Y-95863403D01*
X132681007Y-96026605D01*
X132681010Y-96026608D01*
X132832143Y-96164385D01*
X132832146Y-96164387D01*
X132832150Y-96164390D01*
X133005288Y-96271592D01*
X133006020Y-96272045D01*
X133196719Y-96345922D01*
X133196723Y-96345922D01*
X133196724Y-96345923D01*
X133260459Y-96357837D01*
X133397746Y-96383500D01*
X133602254Y-96383500D01*
X133803281Y-96345922D01*
X133993980Y-96272045D01*
X134167857Y-96164385D01*
X134318990Y-96026608D01*
X134442234Y-95863407D01*
X134533392Y-95680338D01*
X134553256Y-95610517D01*
X134585221Y-95556123D01*
X134737222Y-95404122D01*
X134799285Y-95370234D01*
X134869820Y-95375279D01*
X134926430Y-95417657D01*
X134949634Y-95477925D01*
X134950071Y-95477844D01*
X134950512Y-95480203D01*
X134950926Y-95481279D01*
X134951135Y-95483540D01*
X134951137Y-95483548D01*
X135007076Y-95680151D01*
X135007079Y-95680160D01*
X135098192Y-95863141D01*
X135098194Y-95863144D01*
X135221377Y-96026266D01*
X135372446Y-96163983D01*
X135546239Y-96271592D01*
X135546250Y-96271597D01*
X135736852Y-96345436D01*
X135736860Y-96345438D01*
X135913499Y-96378458D01*
X135913500Y-96378458D01*
X135913500Y-95763742D01*
X135974174Y-95780000D01*
X136105826Y-95780000D01*
X136166500Y-95763742D01*
X136166500Y-96378458D01*
X136343139Y-96345438D01*
X136343147Y-96345436D01*
X136533749Y-96271597D01*
X136533760Y-96271592D01*
X136707553Y-96163983D01*
X136858622Y-96026266D01*
X136981805Y-95863144D01*
X136981807Y-95863141D01*
X137072920Y-95680160D01*
X137072923Y-95680151D01*
X137128862Y-95483548D01*
X137128863Y-95483546D01*
X137136002Y-95406500D01*
X136523742Y-95406500D01*
X136540000Y-95345826D01*
X136540000Y-95214174D01*
X136523742Y-95153500D01*
X137136002Y-95153500D01*
X137128863Y-95076453D01*
X137128862Y-95076451D01*
X137072923Y-94879848D01*
X137072920Y-94879839D01*
X136981807Y-94696858D01*
X136972572Y-94684628D01*
X136947583Y-94618476D01*
X136962326Y-94549315D01*
X137012120Y-94499104D01*
X137072725Y-94483500D01*
X142050170Y-94483500D01*
X142118020Y-94503423D01*
X142138912Y-94520258D01*
X142412621Y-94793967D01*
X142446511Y-94856032D01*
X142444588Y-94917053D01*
X142410643Y-95036356D01*
X142410642Y-95036360D01*
X142391772Y-95240000D01*
X142410642Y-95443639D01*
X142410643Y-95443640D01*
X142466608Y-95640338D01*
X142466610Y-95640342D01*
X142557766Y-95823408D01*
X142681007Y-95986605D01*
X142681010Y-95986608D01*
X142832143Y-96124385D01*
X142832146Y-96124387D01*
X142832150Y-96124390D01*
X142896753Y-96164390D01*
X143006020Y-96232045D01*
X143196719Y-96305922D01*
X143397746Y-96343500D01*
X143602254Y-96343500D01*
X143803281Y-96305922D01*
X143993980Y-96232045D01*
X144167857Y-96124385D01*
X144318990Y-95986608D01*
X144442234Y-95823407D01*
X144447385Y-95813063D01*
X144495461Y-95761205D01*
X144559729Y-95743500D01*
X147440271Y-95743500D01*
X147508121Y-95763423D01*
X147552615Y-95813063D01*
X147557763Y-95823403D01*
X147681007Y-95986605D01*
X147681010Y-95986608D01*
X147832143Y-96124385D01*
X147832146Y-96124387D01*
X147832150Y-96124390D01*
X147896753Y-96164390D01*
X148006020Y-96232045D01*
X148196719Y-96305922D01*
X148397746Y-96343500D01*
X148602254Y-96343500D01*
X148803281Y-96305922D01*
X148993980Y-96232045D01*
X149167857Y-96124385D01*
X149318990Y-95986608D01*
X149442234Y-95823407D01*
X149447385Y-95813063D01*
X149495461Y-95761205D01*
X149559729Y-95743500D01*
X152420353Y-95743500D01*
X152488203Y-95763423D01*
X152532696Y-95813060D01*
X152557766Y-95863408D01*
X152681007Y-96026605D01*
X152681010Y-96026608D01*
X152832143Y-96164385D01*
X152832146Y-96164387D01*
X152832150Y-96164390D01*
X153005288Y-96271592D01*
X153006020Y-96272045D01*
X153196719Y-96345922D01*
X153196723Y-96345922D01*
X153196724Y-96345923D01*
X153260459Y-96357837D01*
X153397746Y-96383500D01*
X153602254Y-96383500D01*
X153803281Y-96345922D01*
X153993980Y-96272045D01*
X154167857Y-96164385D01*
X154318990Y-96026608D01*
X154442234Y-95863407D01*
X154447385Y-95853063D01*
X154495461Y-95801205D01*
X154559729Y-95783500D01*
X157465138Y-95783500D01*
X157532988Y-95803423D01*
X157565289Y-95833369D01*
X157681007Y-95986605D01*
X157681010Y-95986608D01*
X157832143Y-96124385D01*
X157832146Y-96124387D01*
X157832150Y-96124390D01*
X157896753Y-96164390D01*
X158006020Y-96232045D01*
X158196719Y-96305922D01*
X158397746Y-96343500D01*
X158602254Y-96343500D01*
X158803281Y-96305922D01*
X158993980Y-96232045D01*
X159167857Y-96124385D01*
X159318990Y-95986608D01*
X159442234Y-95823407D01*
X159447385Y-95813063D01*
X159495461Y-95761205D01*
X159559729Y-95743500D01*
X167440271Y-95743500D01*
X167508121Y-95763423D01*
X167552615Y-95813063D01*
X167557763Y-95823403D01*
X167681007Y-95986605D01*
X167681010Y-95986608D01*
X167832143Y-96124385D01*
X167832146Y-96124387D01*
X167832150Y-96124390D01*
X167896753Y-96164390D01*
X168006020Y-96232045D01*
X168196719Y-96305922D01*
X168397746Y-96343500D01*
X168602254Y-96343500D01*
X168803281Y-96305922D01*
X168993980Y-96232045D01*
X169167857Y-96124385D01*
X169318990Y-95986608D01*
X169442234Y-95823407D01*
X169442236Y-95823403D01*
X169442529Y-95822931D01*
X169442727Y-95822752D01*
X169445731Y-95818776D01*
X169446509Y-95819363D01*
X169495187Y-95775732D01*
X169549230Y-95763500D01*
X178385036Y-95763500D01*
X178452886Y-95783423D01*
X178496856Y-95832023D01*
X178513438Y-95864566D01*
X178513440Y-95864569D01*
X178513443Y-95864574D01*
X178620155Y-96011451D01*
X178748548Y-96139844D01*
X178895425Y-96246556D01*
X178895428Y-96246557D01*
X178895434Y-96246562D01*
X179057210Y-96328991D01*
X179229888Y-96385097D01*
X179229891Y-96385097D01*
X179229893Y-96385098D01*
X179286934Y-96394132D01*
X179363748Y-96406298D01*
X179427646Y-96436589D01*
X179465025Y-96496618D01*
X179464015Y-96567326D01*
X179424939Y-96626263D01*
X179363749Y-96654208D01*
X179230004Y-96675391D01*
X179230003Y-96675391D01*
X179057400Y-96731473D01*
X178895701Y-96813863D01*
X178895687Y-96813871D01*
X178748874Y-96920537D01*
X178620537Y-97048874D01*
X178513871Y-97195687D01*
X178513863Y-97195701D01*
X178431473Y-97357400D01*
X178375391Y-97530003D01*
X178375391Y-97530005D01*
X178352663Y-97673499D01*
X178352663Y-97673500D01*
X179664494Y-97673500D01*
X179650000Y-97727591D01*
X179650000Y-97872409D01*
X179664494Y-97926500D01*
X178352663Y-97926500D01*
X178375391Y-98069994D01*
X178375391Y-98069996D01*
X178431473Y-98242599D01*
X178513863Y-98404298D01*
X178513871Y-98404312D01*
X178620537Y-98551125D01*
X178748874Y-98679462D01*
X178895687Y-98786128D01*
X178895701Y-98786136D01*
X179057400Y-98868526D01*
X179230004Y-98924608D01*
X179365348Y-98946045D01*
X179429246Y-98976337D01*
X179466624Y-99036366D01*
X179465614Y-99107074D01*
X179426537Y-99166011D01*
X179365348Y-99193955D01*
X179230004Y-99215391D01*
X179230003Y-99215391D01*
X179057400Y-99271473D01*
X178895701Y-99353863D01*
X178895687Y-99353871D01*
X178748874Y-99460537D01*
X178620537Y-99588874D01*
X178513871Y-99735687D01*
X178513863Y-99735701D01*
X178431473Y-99897400D01*
X178375391Y-100070003D01*
X178375391Y-100070005D01*
X178352663Y-100213499D01*
X178352663Y-100213500D01*
X179664494Y-100213500D01*
X179650000Y-100267591D01*
X179650000Y-100412409D01*
X179664494Y-100466500D01*
X178352663Y-100466500D01*
X178375391Y-100609994D01*
X178375391Y-100609996D01*
X178431473Y-100782599D01*
X178513863Y-100944298D01*
X178513871Y-100944312D01*
X178620537Y-101091125D01*
X178748874Y-101219462D01*
X178895687Y-101326128D01*
X178895701Y-101326136D01*
X179057400Y-101408526D01*
X179230004Y-101464608D01*
X179409259Y-101492999D01*
X179409260Y-101493000D01*
X180073500Y-101493000D01*
X180073500Y-100875506D01*
X180127591Y-100890000D01*
X180272409Y-100890000D01*
X180326500Y-100875506D01*
X180326500Y-101493000D01*
X180990740Y-101493000D01*
X180990740Y-101492999D01*
X181169995Y-101464608D01*
X181169996Y-101464608D01*
X181342599Y-101408526D01*
X181504298Y-101326136D01*
X181504312Y-101326128D01*
X181651125Y-101219462D01*
X181779462Y-101091125D01*
X181886128Y-100944312D01*
X181886136Y-100944298D01*
X181968526Y-100782599D01*
X182024608Y-100609996D01*
X182024608Y-100609994D01*
X182047337Y-100466500D01*
X180735506Y-100466500D01*
X180750000Y-100412409D01*
X180750000Y-100267591D01*
X180735506Y-100213500D01*
X182047337Y-100213500D01*
X182047336Y-100213499D01*
X182024608Y-100070005D01*
X182024608Y-100070003D01*
X181968526Y-99897400D01*
X181886136Y-99735701D01*
X181886128Y-99735687D01*
X181779462Y-99588874D01*
X181651125Y-99460537D01*
X181504312Y-99353871D01*
X181504298Y-99353863D01*
X181342599Y-99271473D01*
X181169995Y-99215391D01*
X181034651Y-99193955D01*
X180970753Y-99163663D01*
X180933375Y-99103634D01*
X180934385Y-99032926D01*
X180973462Y-98973989D01*
X181034651Y-98946045D01*
X181169995Y-98924608D01*
X181169996Y-98924608D01*
X181342599Y-98868526D01*
X181504298Y-98786136D01*
X181504312Y-98786128D01*
X181651125Y-98679462D01*
X181779462Y-98551125D01*
X181886128Y-98404312D01*
X181886136Y-98404298D01*
X181968526Y-98242599D01*
X182024608Y-98069996D01*
X182024608Y-98069994D01*
X182047337Y-97926500D01*
X180735506Y-97926500D01*
X180750000Y-97872409D01*
X180750000Y-97727591D01*
X180735506Y-97673500D01*
X182047337Y-97673500D01*
X182047336Y-97673499D01*
X182024608Y-97530005D01*
X182024608Y-97530003D01*
X181968526Y-97357400D01*
X181886136Y-97195701D01*
X181886128Y-97195687D01*
X181779462Y-97048874D01*
X181651125Y-96920537D01*
X181504312Y-96813871D01*
X181504298Y-96813863D01*
X181342599Y-96731473D01*
X181169995Y-96675391D01*
X181036250Y-96654208D01*
X180972352Y-96623916D01*
X180934974Y-96563887D01*
X180935984Y-96493179D01*
X180975061Y-96434242D01*
X181036249Y-96406298D01*
X181170112Y-96385097D01*
X181342790Y-96328991D01*
X181504566Y-96246562D01*
X181651455Y-96139841D01*
X181779841Y-96011455D01*
X181886562Y-95864566D01*
X181903143Y-95832023D01*
X181951697Y-95780614D01*
X182014964Y-95763500D01*
X183385036Y-95763500D01*
X183452886Y-95783423D01*
X183496856Y-95832023D01*
X183513438Y-95864566D01*
X183513440Y-95864569D01*
X183513443Y-95864574D01*
X183620155Y-96011451D01*
X183748548Y-96139844D01*
X183895425Y-96246556D01*
X183895428Y-96246557D01*
X183895434Y-96246562D01*
X184057210Y-96328991D01*
X184229888Y-96385097D01*
X184229891Y-96385097D01*
X184229893Y-96385098D01*
X184286934Y-96394132D01*
X184363748Y-96406298D01*
X184427646Y-96436589D01*
X184465025Y-96496618D01*
X184464015Y-96567326D01*
X184424939Y-96626263D01*
X184363749Y-96654208D01*
X184230004Y-96675391D01*
X184230003Y-96675391D01*
X184057400Y-96731473D01*
X183895701Y-96813863D01*
X183895687Y-96813871D01*
X183748874Y-96920537D01*
X183620537Y-97048874D01*
X183513871Y-97195687D01*
X183513863Y-97195701D01*
X183431473Y-97357400D01*
X183375391Y-97530003D01*
X183375391Y-97530005D01*
X183352663Y-97673499D01*
X183352663Y-97673500D01*
X184664494Y-97673500D01*
X184650000Y-97727591D01*
X184650000Y-97872409D01*
X184664494Y-97926500D01*
X183352663Y-97926500D01*
X183375391Y-98069994D01*
X183375391Y-98069996D01*
X183431473Y-98242599D01*
X183513863Y-98404298D01*
X183513871Y-98404312D01*
X183620537Y-98551125D01*
X183748874Y-98679462D01*
X183895687Y-98786128D01*
X183895701Y-98786136D01*
X184057400Y-98868526D01*
X184230004Y-98924608D01*
X184365348Y-98946045D01*
X184429246Y-98976337D01*
X184466624Y-99036366D01*
X184465614Y-99107074D01*
X184426537Y-99166011D01*
X184365348Y-99193955D01*
X184230004Y-99215391D01*
X184230003Y-99215391D01*
X184057400Y-99271473D01*
X183895701Y-99353863D01*
X183895687Y-99353871D01*
X183748874Y-99460537D01*
X183620537Y-99588874D01*
X183513871Y-99735687D01*
X183513863Y-99735701D01*
X183431473Y-99897400D01*
X183375391Y-100070003D01*
X183375391Y-100070005D01*
X183352663Y-100213499D01*
X183352663Y-100213500D01*
X184664494Y-100213500D01*
X184650000Y-100267591D01*
X184650000Y-100412409D01*
X184664494Y-100466500D01*
X183352663Y-100466500D01*
X183375391Y-100609994D01*
X183375391Y-100609996D01*
X183431473Y-100782599D01*
X183513863Y-100944298D01*
X183513871Y-100944312D01*
X183620537Y-101091125D01*
X183748874Y-101219462D01*
X183895687Y-101326128D01*
X183895701Y-101326136D01*
X184057400Y-101408526D01*
X184230004Y-101464608D01*
X184409259Y-101492999D01*
X184409260Y-101493000D01*
X185073500Y-101493000D01*
X185073500Y-100875506D01*
X185127591Y-100890000D01*
X185272409Y-100890000D01*
X185326500Y-100875506D01*
X185326500Y-101493000D01*
X185990740Y-101493000D01*
X185990740Y-101492999D01*
X186169995Y-101464608D01*
X186169996Y-101464608D01*
X186342599Y-101408526D01*
X186504298Y-101326136D01*
X186504312Y-101326128D01*
X186651125Y-101219462D01*
X186779462Y-101091125D01*
X186886128Y-100944312D01*
X186886136Y-100944298D01*
X186968526Y-100782599D01*
X187024608Y-100609996D01*
X187024608Y-100609994D01*
X187047337Y-100466500D01*
X185735506Y-100466500D01*
X185750000Y-100412409D01*
X185750000Y-100267591D01*
X185735506Y-100213500D01*
X187047337Y-100213500D01*
X187047336Y-100213499D01*
X187024608Y-100070005D01*
X187024608Y-100070003D01*
X186968526Y-99897400D01*
X186886136Y-99735701D01*
X186886128Y-99735687D01*
X186779462Y-99588874D01*
X186651125Y-99460537D01*
X186504312Y-99353871D01*
X186504298Y-99353863D01*
X186342599Y-99271473D01*
X186169995Y-99215391D01*
X186034651Y-99193955D01*
X185970753Y-99163663D01*
X185933375Y-99103634D01*
X185934385Y-99032926D01*
X185973462Y-98973989D01*
X186034651Y-98946045D01*
X186169995Y-98924608D01*
X186169996Y-98924608D01*
X186342599Y-98868526D01*
X186504298Y-98786136D01*
X186504312Y-98786128D01*
X186651125Y-98679462D01*
X186779462Y-98551125D01*
X186886128Y-98404312D01*
X186886136Y-98404298D01*
X186968526Y-98242599D01*
X187024608Y-98069996D01*
X187024608Y-98069994D01*
X187047337Y-97926500D01*
X185735506Y-97926500D01*
X185750000Y-97872409D01*
X185750000Y-97727591D01*
X185735506Y-97673500D01*
X187047337Y-97673500D01*
X187047336Y-97673499D01*
X187024608Y-97530005D01*
X187024608Y-97530003D01*
X186968526Y-97357400D01*
X186886136Y-97195701D01*
X186886128Y-97195687D01*
X186779462Y-97048874D01*
X186651125Y-96920537D01*
X186504312Y-96813871D01*
X186504298Y-96813863D01*
X186342599Y-96731473D01*
X186169995Y-96675391D01*
X186036250Y-96654208D01*
X185972352Y-96623916D01*
X185934974Y-96563887D01*
X185935984Y-96493179D01*
X185975061Y-96434242D01*
X186036249Y-96406298D01*
X186170112Y-96385097D01*
X186342790Y-96328991D01*
X186504566Y-96246562D01*
X186651455Y-96139841D01*
X186779841Y-96011455D01*
X186886562Y-95864566D01*
X186968991Y-95702790D01*
X187025097Y-95530112D01*
X187053500Y-95350782D01*
X187053500Y-95169218D01*
X187025097Y-94989888D01*
X186968991Y-94817210D01*
X186886562Y-94655434D01*
X186886557Y-94655428D01*
X186886556Y-94655425D01*
X186779844Y-94508548D01*
X186651451Y-94380155D01*
X186504574Y-94273443D01*
X186504568Y-94273440D01*
X186504566Y-94273438D01*
X186454549Y-94247953D01*
X186342791Y-94191009D01*
X186170106Y-94134901D01*
X186057447Y-94117058D01*
X186037849Y-94113954D01*
X185973951Y-94083664D01*
X185936573Y-94023635D01*
X185937583Y-93952927D01*
X185976659Y-93893990D01*
X186037849Y-93866045D01*
X186170112Y-93845097D01*
X186342790Y-93788991D01*
X186504566Y-93706562D01*
X186602492Y-93635414D01*
X186651451Y-93599844D01*
X186651451Y-93599843D01*
X186651455Y-93599841D01*
X186779841Y-93471455D01*
X186886562Y-93324566D01*
X186968991Y-93162790D01*
X187025097Y-92990112D01*
X187053500Y-92810782D01*
X187053500Y-92629218D01*
X187027366Y-92464212D01*
X187025098Y-92449893D01*
X187025097Y-92449891D01*
X187025097Y-92449888D01*
X186968991Y-92277210D01*
X186886562Y-92115434D01*
X186886557Y-92115428D01*
X186886556Y-92115425D01*
X186779844Y-91968548D01*
X186651451Y-91840155D01*
X186504574Y-91733443D01*
X186504568Y-91733440D01*
X186504566Y-91733438D01*
X186454535Y-91707946D01*
X186342791Y-91651009D01*
X186170106Y-91594901D01*
X186057447Y-91577058D01*
X186037849Y-91573954D01*
X185973951Y-91543664D01*
X185936573Y-91483635D01*
X185937583Y-91412927D01*
X185976659Y-91353990D01*
X186037849Y-91326045D01*
X186170112Y-91305097D01*
X186342790Y-91248991D01*
X186504566Y-91166562D01*
X186602492Y-91095414D01*
X186651451Y-91059844D01*
X186651451Y-91059843D01*
X186651455Y-91059841D01*
X186779841Y-90931455D01*
X186807105Y-90893930D01*
X186851668Y-90832593D01*
X186886562Y-90784566D01*
X186968991Y-90622790D01*
X187025097Y-90450112D01*
X187053500Y-90270782D01*
X187053500Y-90089218D01*
X187025097Y-89909888D01*
X186968991Y-89737210D01*
X186886562Y-89575434D01*
X186886557Y-89575428D01*
X186886556Y-89575425D01*
X186779844Y-89428548D01*
X186651451Y-89300155D01*
X186504574Y-89193443D01*
X186504568Y-89193440D01*
X186504566Y-89193438D01*
X186428136Y-89154495D01*
X186342791Y-89111009D01*
X186170106Y-89054901D01*
X186057447Y-89037058D01*
X186037849Y-89033954D01*
X185973951Y-89003664D01*
X185936573Y-88943635D01*
X185937583Y-88872927D01*
X185976659Y-88813990D01*
X186037849Y-88786045D01*
X186170112Y-88765097D01*
X186342790Y-88708991D01*
X186504566Y-88626562D01*
X186602492Y-88555414D01*
X186651451Y-88519844D01*
X186651451Y-88519843D01*
X186651455Y-88519841D01*
X186779841Y-88391455D01*
X186886562Y-88244566D01*
X186968991Y-88082790D01*
X187025097Y-87910112D01*
X187053500Y-87730782D01*
X187053500Y-87549218D01*
X187025097Y-87369888D01*
X186968991Y-87197210D01*
X186886562Y-87035434D01*
X186886557Y-87035428D01*
X186886556Y-87035425D01*
X186779844Y-86888548D01*
X186651451Y-86760155D01*
X186504574Y-86653443D01*
X186504568Y-86653440D01*
X186504566Y-86653438D01*
X186435272Y-86618131D01*
X186342791Y-86571009D01*
X186170106Y-86514901D01*
X186057447Y-86497058D01*
X186037849Y-86493954D01*
X185973951Y-86463664D01*
X185936573Y-86403635D01*
X185937583Y-86332927D01*
X185976659Y-86273990D01*
X186037849Y-86246045D01*
X186170112Y-86225097D01*
X186342790Y-86168991D01*
X186504566Y-86086562D01*
X186602492Y-86015414D01*
X186651451Y-85979844D01*
X186651451Y-85979843D01*
X186651455Y-85979841D01*
X186779841Y-85851455D01*
X186886562Y-85704566D01*
X186968991Y-85542790D01*
X187025097Y-85370112D01*
X187053500Y-85190782D01*
X187053500Y-85009218D01*
X187026144Y-84836500D01*
X187025098Y-84829893D01*
X187025097Y-84829891D01*
X187025097Y-84829888D01*
X186968991Y-84657210D01*
X186886562Y-84495434D01*
X186886557Y-84495428D01*
X186886556Y-84495425D01*
X186779844Y-84348548D01*
X186651451Y-84220155D01*
X186504574Y-84113443D01*
X186504568Y-84113440D01*
X186504566Y-84113438D01*
X186442410Y-84081768D01*
X186342791Y-84031009D01*
X186170106Y-83974901D01*
X186057447Y-83957058D01*
X186037849Y-83953954D01*
X185973951Y-83923664D01*
X185936573Y-83863635D01*
X185937583Y-83792927D01*
X185976659Y-83733990D01*
X186037849Y-83706045D01*
X186170112Y-83685097D01*
X186342790Y-83628991D01*
X186504566Y-83546562D01*
X186602492Y-83475414D01*
X186651451Y-83439844D01*
X186651451Y-83439843D01*
X186651455Y-83439841D01*
X186779841Y-83311455D01*
X186886562Y-83164566D01*
X186968991Y-83002790D01*
X187025097Y-82830112D01*
X187053500Y-82650782D01*
X187053500Y-82469218D01*
X187029989Y-82320779D01*
X187025098Y-82289893D01*
X187025097Y-82289891D01*
X187025097Y-82289888D01*
X186968991Y-82117210D01*
X186886562Y-81955434D01*
X186886557Y-81955428D01*
X186886556Y-81955425D01*
X186779844Y-81808548D01*
X186651451Y-81680155D01*
X186504574Y-81573443D01*
X186504568Y-81573440D01*
X186504566Y-81573438D01*
X186449548Y-81545405D01*
X186342791Y-81491009D01*
X186170106Y-81434901D01*
X186057447Y-81417058D01*
X186037849Y-81413954D01*
X185973951Y-81383664D01*
X185936573Y-81323635D01*
X185937583Y-81252927D01*
X185976659Y-81193990D01*
X186037849Y-81166045D01*
X186170112Y-81145097D01*
X186342790Y-81088991D01*
X186504566Y-81006562D01*
X186602492Y-80935414D01*
X186651451Y-80899844D01*
X186651451Y-80899843D01*
X186651455Y-80899841D01*
X186779841Y-80771455D01*
X186886562Y-80624566D01*
X186968991Y-80462790D01*
X187025097Y-80290112D01*
X187053500Y-80110782D01*
X187053500Y-79929218D01*
X187025097Y-79749888D01*
X186968991Y-79577210D01*
X186886562Y-79415434D01*
X186886557Y-79415428D01*
X186886556Y-79415425D01*
X186779844Y-79268548D01*
X186651451Y-79140155D01*
X186504574Y-79033443D01*
X186504568Y-79033440D01*
X186504566Y-79033438D01*
X186454549Y-79007953D01*
X186342791Y-78951009D01*
X186170106Y-78894901D01*
X186057447Y-78877058D01*
X186037849Y-78873954D01*
X185973951Y-78843664D01*
X185936573Y-78783635D01*
X185937583Y-78712927D01*
X185976659Y-78653990D01*
X186037849Y-78626045D01*
X186170112Y-78605097D01*
X186342790Y-78548991D01*
X186504566Y-78466562D01*
X186602492Y-78395414D01*
X186651451Y-78359844D01*
X186651451Y-78359843D01*
X186651455Y-78359841D01*
X186779841Y-78231455D01*
X186886562Y-78084566D01*
X186968991Y-77922790D01*
X187025097Y-77750112D01*
X187053500Y-77570782D01*
X187053500Y-77389218D01*
X187029989Y-77240779D01*
X187025098Y-77209893D01*
X187025097Y-77209891D01*
X187025097Y-77209888D01*
X186968991Y-77037210D01*
X186886562Y-76875434D01*
X186886557Y-76875428D01*
X186886556Y-76875425D01*
X186779844Y-76728548D01*
X186651451Y-76600155D01*
X186504574Y-76493443D01*
X186504568Y-76493440D01*
X186504566Y-76493438D01*
X186454549Y-76467953D01*
X186342791Y-76411009D01*
X186170106Y-76354901D01*
X186057447Y-76337058D01*
X186037849Y-76333954D01*
X185973951Y-76303664D01*
X185936573Y-76243635D01*
X185937583Y-76172927D01*
X185976659Y-76113990D01*
X186037849Y-76086045D01*
X186170112Y-76065097D01*
X186342790Y-76008991D01*
X186504566Y-75926562D01*
X186630641Y-75834963D01*
X186651451Y-75819844D01*
X186651451Y-75819843D01*
X186651455Y-75819841D01*
X186779841Y-75691455D01*
X186886562Y-75544566D01*
X186968991Y-75382790D01*
X187025097Y-75210112D01*
X187053500Y-75030782D01*
X187053500Y-74849218D01*
X187025097Y-74669888D01*
X186968991Y-74497210D01*
X186886562Y-74335434D01*
X186886557Y-74335428D01*
X186886556Y-74335425D01*
X186779844Y-74188548D01*
X186651451Y-74060155D01*
X186504574Y-73953443D01*
X186504568Y-73953440D01*
X186504566Y-73953438D01*
X186453144Y-73927237D01*
X186342791Y-73871009D01*
X186170106Y-73814901D01*
X186094676Y-73802955D01*
X186030777Y-73772664D01*
X185993399Y-73712635D01*
X185994409Y-73641927D01*
X186033485Y-73582990D01*
X186098223Y-73554535D01*
X186114308Y-73553500D01*
X186598158Y-73553500D01*
X186598162Y-73553500D01*
X186658127Y-73547053D01*
X186793783Y-73496456D01*
X186909690Y-73409690D01*
X186996456Y-73293783D01*
X187047053Y-73158127D01*
X187053500Y-73098162D01*
X187053500Y-72399995D01*
X198194532Y-72399995D01*
X198194532Y-72400004D01*
X198214363Y-72626687D01*
X198267484Y-72824936D01*
X198273261Y-72846496D01*
X198369432Y-73052734D01*
X198499953Y-73239139D01*
X198660861Y-73400047D01*
X198847266Y-73530568D01*
X198898458Y-73554439D01*
X198951532Y-73601170D01*
X198970916Y-73669176D01*
X198950456Y-73736866D01*
X198898460Y-73781922D01*
X198847268Y-73805793D01*
X198660859Y-73936317D01*
X198499954Y-74097222D01*
X198369432Y-74283628D01*
X198326082Y-74376593D01*
X198288821Y-74456500D01*
X198273260Y-74489870D01*
X198214363Y-74709675D01*
X198194532Y-74936358D01*
X198194532Y-74936367D01*
X198214363Y-75163050D01*
X198267225Y-75360333D01*
X198273261Y-75382859D01*
X198369432Y-75589097D01*
X198499953Y-75775502D01*
X198660861Y-75936410D01*
X198847266Y-76066931D01*
X198898458Y-76090802D01*
X198951532Y-76137533D01*
X198970916Y-76205539D01*
X198950456Y-76273229D01*
X198898460Y-76318285D01*
X198847268Y-76342156D01*
X198660859Y-76472680D01*
X198499954Y-76633585D01*
X198369432Y-76819991D01*
X198324384Y-76916597D01*
X198278980Y-77013967D01*
X198273260Y-77026233D01*
X198214363Y-77246038D01*
X198194532Y-77472721D01*
X198194532Y-77472730D01*
X198214363Y-77699413D01*
X198243193Y-77807007D01*
X198273261Y-77919222D01*
X198369432Y-78125460D01*
X198499953Y-78311865D01*
X198660861Y-78472773D01*
X198847266Y-78603294D01*
X198898458Y-78627165D01*
X198951532Y-78673896D01*
X198970916Y-78741902D01*
X198950456Y-78809592D01*
X198898460Y-78854648D01*
X198847268Y-78878519D01*
X198660859Y-79009043D01*
X198499954Y-79169948D01*
X198369432Y-79356354D01*
X198322688Y-79456597D01*
X198277284Y-79553967D01*
X198273260Y-79562596D01*
X198214363Y-79782401D01*
X198194532Y-80009084D01*
X198194532Y-80009093D01*
X198214363Y-80235776D01*
X198261371Y-80411210D01*
X198273261Y-80455585D01*
X198369432Y-80661823D01*
X198499953Y-80848228D01*
X198660861Y-81009136D01*
X198847266Y-81139657D01*
X198898458Y-81163528D01*
X198951532Y-81210259D01*
X198970916Y-81278265D01*
X198950456Y-81345955D01*
X198898460Y-81391011D01*
X198847268Y-81414882D01*
X198660859Y-81545406D01*
X198499954Y-81706311D01*
X198369432Y-81892717D01*
X198339647Y-81956591D01*
X198275588Y-82093967D01*
X198273260Y-82098959D01*
X198214363Y-82318764D01*
X198194532Y-82545447D01*
X198194532Y-82545456D01*
X198214363Y-82772139D01*
X198267484Y-82970388D01*
X198273261Y-82991948D01*
X198369432Y-83198186D01*
X198499953Y-83384591D01*
X198660861Y-83545499D01*
X198847266Y-83676020D01*
X198898458Y-83699891D01*
X198951532Y-83746622D01*
X198970916Y-83814628D01*
X198950456Y-83882318D01*
X198898460Y-83927374D01*
X198847268Y-83951245D01*
X198660859Y-84081769D01*
X198499954Y-84242674D01*
X198369432Y-84429080D01*
X198337951Y-84496591D01*
X198273892Y-84633967D01*
X198273260Y-84635322D01*
X198214363Y-84855127D01*
X198194532Y-85081810D01*
X198194532Y-85081819D01*
X198214363Y-85308502D01*
X198262320Y-85487478D01*
X198273261Y-85528311D01*
X198369432Y-85734549D01*
X198499953Y-85920954D01*
X198660861Y-86081862D01*
X198847266Y-86212383D01*
X198898458Y-86236254D01*
X198951532Y-86282985D01*
X198970916Y-86350991D01*
X198950456Y-86418681D01*
X198898460Y-86463737D01*
X198847268Y-86487608D01*
X198660859Y-86618132D01*
X198499954Y-86779037D01*
X198369432Y-86965443D01*
X198336255Y-87036591D01*
X198277120Y-87163408D01*
X198273260Y-87171685D01*
X198214363Y-87391490D01*
X198194532Y-87618173D01*
X198194532Y-87618182D01*
X198214363Y-87844865D01*
X198247091Y-87967007D01*
X198273261Y-88064674D01*
X198369432Y-88270912D01*
X198499953Y-88457317D01*
X198660861Y-88618225D01*
X198847266Y-88748746D01*
X198898458Y-88772617D01*
X198951532Y-88819348D01*
X198970916Y-88887354D01*
X198950456Y-88955044D01*
X198898460Y-89000100D01*
X198847268Y-89023971D01*
X198660859Y-89154495D01*
X198499954Y-89315400D01*
X198369432Y-89501806D01*
X198334559Y-89576591D01*
X198275422Y-89703412D01*
X198273260Y-89708048D01*
X198214363Y-89927853D01*
X198194532Y-90154536D01*
X198194532Y-90154545D01*
X198214363Y-90381228D01*
X198248066Y-90507007D01*
X198273261Y-90601037D01*
X198369432Y-90807275D01*
X198499953Y-90993680D01*
X198660861Y-91154588D01*
X198847266Y-91285109D01*
X198898458Y-91308980D01*
X198951532Y-91355711D01*
X198970916Y-91423717D01*
X198950456Y-91491407D01*
X198898460Y-91536463D01*
X198847268Y-91560334D01*
X198660859Y-91690858D01*
X198499954Y-91851763D01*
X198369432Y-92038169D01*
X198332861Y-92116596D01*
X198273851Y-92243144D01*
X198273260Y-92244411D01*
X198214363Y-92464216D01*
X198194532Y-92690899D01*
X198194532Y-92690908D01*
X198214363Y-92917591D01*
X198249040Y-93047007D01*
X198273261Y-93137400D01*
X198369432Y-93343638D01*
X198499953Y-93530043D01*
X198660861Y-93690951D01*
X198847266Y-93821472D01*
X198898458Y-93845343D01*
X198951532Y-93892074D01*
X198970916Y-93960080D01*
X198950456Y-94027770D01*
X198898460Y-94072826D01*
X198847268Y-94096697D01*
X198660859Y-94227221D01*
X198499954Y-94388126D01*
X198369432Y-94574532D01*
X198331165Y-94656596D01*
X198284774Y-94756083D01*
X198273260Y-94780774D01*
X198214363Y-95000579D01*
X198194532Y-95227262D01*
X198194532Y-95227271D01*
X198214363Y-95453954D01*
X198264305Y-95640338D01*
X198273261Y-95673763D01*
X198369432Y-95880001D01*
X198499953Y-96066406D01*
X198660861Y-96227314D01*
X198847266Y-96357835D01*
X198898458Y-96381706D01*
X198951532Y-96428437D01*
X198970916Y-96496443D01*
X198950456Y-96564133D01*
X198898460Y-96609189D01*
X198847268Y-96633060D01*
X198660859Y-96763584D01*
X198499954Y-96924489D01*
X198369432Y-97110895D01*
X198329348Y-97196855D01*
X198274688Y-97314075D01*
X198273260Y-97317137D01*
X198214363Y-97536942D01*
X198194532Y-97763625D01*
X198194532Y-97763634D01*
X198214363Y-97990317D01*
X198250989Y-98127007D01*
X198273261Y-98210126D01*
X198369432Y-98416364D01*
X198499953Y-98602769D01*
X198660861Y-98763677D01*
X198835445Y-98885921D01*
X198847269Y-98894200D01*
X198898466Y-98918074D01*
X198951540Y-98964805D01*
X198970923Y-99032811D01*
X198950462Y-99100501D01*
X198898466Y-99145556D01*
X198847269Y-99169429D01*
X198660859Y-99299954D01*
X198499954Y-99460859D01*
X198369432Y-99647265D01*
X198369432Y-99647266D01*
X198285396Y-99827482D01*
X198273260Y-99853507D01*
X198214363Y-100073312D01*
X198194532Y-100299995D01*
X198194532Y-100300004D01*
X198214363Y-100526687D01*
X198236686Y-100609996D01*
X198273261Y-100746496D01*
X198369432Y-100952734D01*
X198499953Y-101139139D01*
X198660861Y-101300047D01*
X198847266Y-101430568D01*
X199053504Y-101526739D01*
X199273308Y-101585635D01*
X199273312Y-101585636D01*
X199499995Y-101605468D01*
X199500000Y-101605468D01*
X199500005Y-101605468D01*
X199726687Y-101585636D01*
X199726690Y-101585635D01*
X199726692Y-101585635D01*
X199946496Y-101526739D01*
X200152734Y-101430568D01*
X200339139Y-101300047D01*
X200500047Y-101139139D01*
X200630568Y-100952734D01*
X200726739Y-100746496D01*
X200785635Y-100526692D01*
X200785635Y-100526690D01*
X200785636Y-100526687D01*
X200805468Y-100300004D01*
X200805468Y-100299995D01*
X200785636Y-100073312D01*
X200784749Y-100070003D01*
X200726739Y-99853504D01*
X200630568Y-99647266D01*
X200500047Y-99460861D01*
X200339139Y-99299953D01*
X200152734Y-99169432D01*
X200101533Y-99145556D01*
X200048460Y-99098826D01*
X200029076Y-99030820D01*
X200049536Y-98963129D01*
X200101534Y-98918073D01*
X200152734Y-98894198D01*
X200339139Y-98763677D01*
X200500047Y-98602769D01*
X200630568Y-98416364D01*
X200726739Y-98210126D01*
X200785635Y-97990322D01*
X200785635Y-97990320D01*
X200785636Y-97990317D01*
X200805468Y-97763634D01*
X200805468Y-97763625D01*
X200785636Y-97536942D01*
X200779219Y-97512993D01*
X200726739Y-97317134D01*
X200630568Y-97110896D01*
X200500047Y-96924491D01*
X200339139Y-96763583D01*
X200152734Y-96633062D01*
X200101539Y-96609189D01*
X200048467Y-96562458D01*
X200029083Y-96494452D01*
X200049543Y-96426762D01*
X200101541Y-96381706D01*
X200152734Y-96357835D01*
X200339139Y-96227314D01*
X200500047Y-96066406D01*
X200630568Y-95880001D01*
X200726739Y-95673763D01*
X200785635Y-95453959D01*
X200785635Y-95453957D01*
X200785636Y-95453954D01*
X200805468Y-95227271D01*
X200805468Y-95227262D01*
X200785636Y-95000579D01*
X200778244Y-94972993D01*
X200726739Y-94780771D01*
X200630568Y-94574533D01*
X200500047Y-94388128D01*
X200339139Y-94227220D01*
X200152734Y-94096699D01*
X200101539Y-94072826D01*
X200048467Y-94026095D01*
X200029083Y-93958089D01*
X200049543Y-93890399D01*
X200101541Y-93845343D01*
X200152734Y-93821472D01*
X200339139Y-93690951D01*
X200500047Y-93530043D01*
X200630568Y-93343638D01*
X200726739Y-93137400D01*
X200785635Y-92917596D01*
X200785635Y-92917594D01*
X200785636Y-92917591D01*
X200805468Y-92690908D01*
X200805468Y-92690899D01*
X200785636Y-92464216D01*
X200777270Y-92432993D01*
X200726739Y-92244408D01*
X200630568Y-92038170D01*
X200500047Y-91851765D01*
X200339139Y-91690857D01*
X200152734Y-91560336D01*
X200101539Y-91536463D01*
X200048467Y-91489732D01*
X200029083Y-91421726D01*
X200049543Y-91354036D01*
X200101541Y-91308980D01*
X200139350Y-91291349D01*
X200152730Y-91285111D01*
X200152730Y-91285110D01*
X200152734Y-91285109D01*
X200339139Y-91154588D01*
X200500047Y-90993680D01*
X200630568Y-90807275D01*
X200726739Y-90601037D01*
X200785635Y-90381233D01*
X200785635Y-90381231D01*
X200785636Y-90381228D01*
X200805468Y-90154545D01*
X200805468Y-90154536D01*
X200785636Y-89927853D01*
X200780822Y-89909888D01*
X200726739Y-89708045D01*
X200630568Y-89501807D01*
X200500047Y-89315402D01*
X200339139Y-89154494D01*
X200152734Y-89023973D01*
X200101539Y-89000100D01*
X200048467Y-88953369D01*
X200029083Y-88885363D01*
X200049543Y-88817673D01*
X200101541Y-88772617D01*
X200152734Y-88748746D01*
X200339139Y-88618225D01*
X200500047Y-88457317D01*
X200630568Y-88270912D01*
X200726739Y-88064674D01*
X200785635Y-87844870D01*
X200785635Y-87844868D01*
X200785636Y-87844865D01*
X200805468Y-87618182D01*
X200805468Y-87618173D01*
X200785636Y-87391490D01*
X200785635Y-87391486D01*
X200726739Y-87171682D01*
X200630568Y-86965444D01*
X200500047Y-86779039D01*
X200339139Y-86618131D01*
X200152734Y-86487610D01*
X200101539Y-86463737D01*
X200048467Y-86417006D01*
X200029083Y-86349000D01*
X200049543Y-86281310D01*
X200101541Y-86236254D01*
X200152734Y-86212383D01*
X200339139Y-86081862D01*
X200500047Y-85920954D01*
X200630568Y-85734549D01*
X200726739Y-85528311D01*
X200785635Y-85308507D01*
X200785635Y-85308505D01*
X200785636Y-85308502D01*
X200805468Y-85081819D01*
X200805468Y-85081810D01*
X200785636Y-84855127D01*
X200778873Y-84829888D01*
X200726739Y-84635319D01*
X200630568Y-84429081D01*
X200500047Y-84242676D01*
X200339139Y-84081768D01*
X200152734Y-83951247D01*
X200101539Y-83927374D01*
X200048467Y-83880643D01*
X200029083Y-83812637D01*
X200049543Y-83744947D01*
X200101541Y-83699891D01*
X200152734Y-83676020D01*
X200339139Y-83545499D01*
X200500047Y-83384591D01*
X200630568Y-83198186D01*
X200726739Y-82991948D01*
X200785635Y-82772144D01*
X200785635Y-82772142D01*
X200785636Y-82772139D01*
X200805468Y-82545456D01*
X200805468Y-82545447D01*
X200785636Y-82318764D01*
X200777899Y-82289888D01*
X200726739Y-82098956D01*
X200630568Y-81892718D01*
X200500047Y-81706313D01*
X200339139Y-81545405D01*
X200152734Y-81414884D01*
X200101539Y-81391011D01*
X200048467Y-81344280D01*
X200029083Y-81276274D01*
X200049543Y-81208584D01*
X200101541Y-81163528D01*
X200152734Y-81139657D01*
X200339139Y-81009136D01*
X200500047Y-80848228D01*
X200630568Y-80661823D01*
X200726739Y-80455585D01*
X200785635Y-80235781D01*
X200785635Y-80235779D01*
X200785636Y-80235776D01*
X200805468Y-80009093D01*
X200805468Y-80009084D01*
X200785636Y-79782401D01*
X200785635Y-79782397D01*
X200726739Y-79562593D01*
X200630568Y-79356355D01*
X200500047Y-79169950D01*
X200339139Y-79009042D01*
X200152734Y-78878521D01*
X200101539Y-78854648D01*
X200048467Y-78807917D01*
X200029083Y-78739911D01*
X200049543Y-78672221D01*
X200101541Y-78627165D01*
X200139350Y-78609534D01*
X200152730Y-78603296D01*
X200152730Y-78603295D01*
X200152734Y-78603294D01*
X200339139Y-78472773D01*
X200500047Y-78311865D01*
X200630568Y-78125460D01*
X200726739Y-77919222D01*
X200785635Y-77699418D01*
X200785635Y-77699416D01*
X200785636Y-77699413D01*
X200805468Y-77472730D01*
X200805468Y-77472721D01*
X200785636Y-77246038D01*
X200785635Y-77246034D01*
X200726739Y-77026230D01*
X200630568Y-76819992D01*
X200500047Y-76633587D01*
X200339139Y-76472679D01*
X200152734Y-76342158D01*
X200101539Y-76318285D01*
X200048467Y-76271554D01*
X200029083Y-76203548D01*
X200049543Y-76135858D01*
X200101541Y-76090802D01*
X200152734Y-76066931D01*
X200339139Y-75936410D01*
X200500047Y-75775502D01*
X200630568Y-75589097D01*
X200726739Y-75382859D01*
X200785635Y-75163055D01*
X200785635Y-75163053D01*
X200785636Y-75163050D01*
X200805468Y-74936367D01*
X200805468Y-74936358D01*
X200785636Y-74709675D01*
X200785635Y-74709671D01*
X200726739Y-74489867D01*
X200630568Y-74283629D01*
X200500047Y-74097224D01*
X200339139Y-73936316D01*
X200152734Y-73805795D01*
X200101539Y-73781922D01*
X200048467Y-73735191D01*
X200029083Y-73667185D01*
X200049543Y-73599495D01*
X200101541Y-73554439D01*
X200152734Y-73530568D01*
X200339139Y-73400047D01*
X200500047Y-73239139D01*
X200630568Y-73052734D01*
X200726739Y-72846496D01*
X200785635Y-72626692D01*
X200785635Y-72626690D01*
X200785636Y-72626687D01*
X200805468Y-72400004D01*
X200805468Y-72399995D01*
X200785636Y-72173312D01*
X200785635Y-72173308D01*
X200726739Y-71953504D01*
X200630568Y-71747266D01*
X200500047Y-71560861D01*
X200339139Y-71399953D01*
X200152734Y-71269432D01*
X199946496Y-71173261D01*
X199924936Y-71167484D01*
X199726687Y-71114363D01*
X199500005Y-71094532D01*
X199499995Y-71094532D01*
X199273312Y-71114363D01*
X199053507Y-71173260D01*
X199053506Y-71173260D01*
X199053504Y-71173261D01*
X198958416Y-71217601D01*
X198847265Y-71269432D01*
X198660859Y-71399954D01*
X198499954Y-71560859D01*
X198369432Y-71747265D01*
X198273260Y-71953507D01*
X198214363Y-72173312D01*
X198194532Y-72399995D01*
X187053500Y-72399995D01*
X187053500Y-71701838D01*
X187047053Y-71641873D01*
X186996456Y-71506217D01*
X186909690Y-71390310D01*
X186793783Y-71303544D01*
X186772150Y-71295475D01*
X186658126Y-71252946D01*
X186658128Y-71252946D01*
X186598162Y-71246500D01*
X183801838Y-71246500D01*
X183801837Y-71246500D01*
X183741872Y-71252946D01*
X183606219Y-71303543D01*
X183606218Y-71303543D01*
X183606217Y-71303544D01*
X183490310Y-71390310D01*
X183403543Y-71506219D01*
X183352946Y-71641872D01*
X183346500Y-71701837D01*
X183346500Y-71771000D01*
X183326577Y-71838850D01*
X183273135Y-71885159D01*
X183221000Y-71896500D01*
X182179000Y-71896500D01*
X182111150Y-71876577D01*
X182064841Y-71823135D01*
X182053500Y-71771000D01*
X182053500Y-71701841D01*
X182053500Y-71701838D01*
X182047053Y-71641873D01*
X181996456Y-71506217D01*
X181909690Y-71390310D01*
X181793783Y-71303544D01*
X181772150Y-71295475D01*
X181658126Y-71252946D01*
X181658128Y-71252946D01*
X181598162Y-71246500D01*
X178801838Y-71246500D01*
X178801837Y-71246500D01*
X178741872Y-71252946D01*
X178606219Y-71303543D01*
X178606218Y-71303543D01*
X178606217Y-71303544D01*
X178490310Y-71390310D01*
X178403543Y-71506219D01*
X178352946Y-71641872D01*
X178346500Y-71701837D01*
X178346500Y-72991000D01*
X178326577Y-73058850D01*
X178273135Y-73105159D01*
X178221000Y-73116500D01*
X134773709Y-73116500D01*
X134645656Y-73150811D01*
X134530850Y-73217095D01*
X134530846Y-73217097D01*
X134530844Y-73217099D01*
X134530842Y-73217101D01*
X134530838Y-73217104D01*
X134437098Y-73310843D01*
X134437099Y-73310844D01*
X134437097Y-73310846D01*
X133928200Y-73819742D01*
X133866135Y-73853632D01*
X133839458Y-73856500D01*
X132625036Y-73856500D01*
X132551088Y-73871209D01*
X132467235Y-73927238D01*
X132411210Y-74011085D01*
X132411209Y-74011088D01*
X132411209Y-74011089D01*
X132396500Y-74085035D01*
X132396500Y-74085038D01*
X132396500Y-74085039D01*
X132396500Y-75834963D01*
X132411209Y-75908911D01*
X132467238Y-75992764D01*
X132551085Y-76048789D01*
X132551086Y-76048789D01*
X132551089Y-76048791D01*
X132625035Y-76063500D01*
X134374964Y-76063499D01*
X134448911Y-76048791D01*
X134532763Y-75992763D01*
X134588791Y-75908911D01*
X134603500Y-75834965D01*
X134603499Y-74620539D01*
X134623422Y-74552690D01*
X134640257Y-74531798D01*
X134813205Y-74358850D01*
X134853574Y-74318481D01*
X134915638Y-74284592D01*
X134986173Y-74289637D01*
X135042783Y-74332015D01*
X135067495Y-74398271D01*
X135054658Y-74463164D01*
X135006610Y-74559657D01*
X135006608Y-74559662D01*
X134992824Y-74608107D01*
X134950643Y-74756359D01*
X134950642Y-74756360D01*
X134931772Y-74960000D01*
X134950642Y-75163639D01*
X134950643Y-75163640D01*
X135006608Y-75360338D01*
X135006610Y-75360342D01*
X135097766Y-75543408D01*
X135221004Y-75706601D01*
X135221006Y-75706603D01*
X135221010Y-75706608D01*
X135230210Y-75714995D01*
X135266930Y-75775424D01*
X135265151Y-75846116D01*
X135234404Y-75896482D01*
X134434328Y-76696557D01*
X134372263Y-76730447D01*
X134301728Y-76725402D01*
X134261038Y-76700562D01*
X134167857Y-76615615D01*
X134167854Y-76615613D01*
X134167849Y-76615609D01*
X133993989Y-76507960D01*
X133993976Y-76507953D01*
X133803281Y-76434078D01*
X133803275Y-76434076D01*
X133602254Y-76396500D01*
X133397746Y-76396500D01*
X133196724Y-76434076D01*
X133196718Y-76434078D01*
X133006023Y-76507953D01*
X133006010Y-76507960D01*
X132832150Y-76615609D01*
X132832139Y-76615618D01*
X132681010Y-76753391D01*
X132681007Y-76753394D01*
X132557763Y-76916596D01*
X132557763Y-76916597D01*
X132527717Y-76976939D01*
X132479640Y-77028797D01*
X132415374Y-77046500D01*
X132238211Y-77046500D01*
X132153779Y-77069123D01*
X132153779Y-77069124D01*
X132138326Y-77073264D01*
X132122873Y-77077405D01*
X132019461Y-77137111D01*
X129137111Y-80019461D01*
X129077405Y-80122874D01*
X129046500Y-80238212D01*
X129046500Y-80271000D01*
X129026577Y-80338850D01*
X128973135Y-80385159D01*
X128921000Y-80396500D01*
X128625036Y-80396500D01*
X128551088Y-80411209D01*
X128467235Y-80467238D01*
X128411210Y-80551085D01*
X128411209Y-80551088D01*
X128411209Y-80551089D01*
X128396500Y-80625035D01*
X128396500Y-80625039D01*
X128396500Y-81992170D01*
X128376577Y-82060020D01*
X128323135Y-82106329D01*
X128253139Y-82116393D01*
X128188815Y-82087017D01*
X128182258Y-82080912D01*
X128047378Y-81946032D01*
X128013488Y-81883967D01*
X128015411Y-81822945D01*
X128018967Y-81810447D01*
X128049358Y-81703636D01*
X128068228Y-81500000D01*
X128049358Y-81296364D01*
X127993392Y-81099662D01*
X127902234Y-80916593D01*
X127902233Y-80916592D01*
X127902233Y-80916591D01*
X127778992Y-80753394D01*
X127778989Y-80753391D01*
X127698018Y-80679576D01*
X127627857Y-80615615D01*
X127627854Y-80615613D01*
X127627849Y-80615609D01*
X127453989Y-80507960D01*
X127453976Y-80507953D01*
X127263281Y-80434078D01*
X127263275Y-80434076D01*
X127062254Y-80396500D01*
X126857746Y-80396500D01*
X126656724Y-80434076D01*
X126656718Y-80434078D01*
X126466023Y-80507953D01*
X126466010Y-80507960D01*
X126292150Y-80615609D01*
X126292139Y-80615618D01*
X126141010Y-80753391D01*
X126141007Y-80753394D01*
X126017766Y-80916591D01*
X125926610Y-81099657D01*
X125926607Y-81099666D01*
X125870643Y-81296359D01*
X125870642Y-81296360D01*
X125851772Y-81500000D01*
X124500500Y-81500000D01*
X124500500Y-67626000D01*
X124520423Y-67558150D01*
X124573865Y-67511841D01*
X124626000Y-67500500D01*
X178151252Y-67500500D01*
X178451551Y-67464037D01*
X178451557Y-67464035D01*
X178451560Y-67464035D01*
X178745250Y-67391647D01*
X178745251Y-67391646D01*
X178745266Y-67391643D01*
X179028113Y-67284373D01*
X179295967Y-67143792D01*
X179544924Y-66971950D01*
X179771352Y-66771352D01*
X179971950Y-66544924D01*
X180143792Y-66295967D01*
X180284373Y-66028113D01*
X180295035Y-66000000D01*
X188541996Y-66000000D01*
X188561997Y-66343407D01*
X188621727Y-66682153D01*
X188621729Y-66682162D01*
X188720386Y-67011700D01*
X188856627Y-67327541D01*
X188856635Y-67327558D01*
X189028623Y-67625449D01*
X189234043Y-67901375D01*
X189234043Y-67901376D01*
X189324182Y-67996917D01*
X190458224Y-66862875D01*
X190470278Y-66879466D01*
X190620534Y-67029722D01*
X190637122Y-67041774D01*
X189501212Y-68177684D01*
X189501212Y-68177686D01*
X189733586Y-68372672D01*
X189733603Y-68372684D01*
X190021001Y-68561708D01*
X190021005Y-68561711D01*
X190328390Y-68716085D01*
X190651624Y-68833732D01*
X190651649Y-68833740D01*
X190986341Y-68913063D01*
X190986355Y-68913065D01*
X191328007Y-68953000D01*
X191671993Y-68953000D01*
X192013644Y-68913065D01*
X192013658Y-68913063D01*
X192348350Y-68833740D01*
X192348375Y-68833732D01*
X192671609Y-68716085D01*
X192978994Y-68561711D01*
X192978998Y-68561708D01*
X193266396Y-68372684D01*
X193266413Y-68372672D01*
X193498786Y-68177686D01*
X193498786Y-68177684D01*
X192362876Y-67041774D01*
X192379466Y-67029722D01*
X192529722Y-66879466D01*
X192541775Y-66862876D01*
X193675816Y-67996917D01*
X193675817Y-67996917D01*
X193765955Y-67901375D01*
X193765963Y-67901366D01*
X193971376Y-67625449D01*
X194143364Y-67327558D01*
X194143372Y-67327541D01*
X194279613Y-67011700D01*
X194378270Y-66682162D01*
X194378272Y-66682153D01*
X194438002Y-66343407D01*
X194458003Y-66000000D01*
X194438002Y-65656592D01*
X194378272Y-65317846D01*
X194378270Y-65317837D01*
X194279613Y-64988299D01*
X194143372Y-64672458D01*
X194143364Y-64672441D01*
X193971376Y-64374550D01*
X193765956Y-64098624D01*
X193765956Y-64098623D01*
X193675816Y-64003081D01*
X192541774Y-65137122D01*
X192529722Y-65120534D01*
X192379466Y-64970278D01*
X192362875Y-64958224D01*
X193498786Y-63822314D01*
X193498786Y-63822312D01*
X193266413Y-63627327D01*
X193266396Y-63627315D01*
X192978998Y-63438291D01*
X192978994Y-63438288D01*
X192671609Y-63283914D01*
X192348375Y-63166267D01*
X192348350Y-63166259D01*
X192013658Y-63086936D01*
X192013644Y-63086934D01*
X191671993Y-63047000D01*
X191328007Y-63047000D01*
X190986355Y-63086934D01*
X190986341Y-63086936D01*
X190651649Y-63166259D01*
X190651624Y-63166267D01*
X190328390Y-63283914D01*
X190021005Y-63438288D01*
X190021001Y-63438291D01*
X189733604Y-63627314D01*
X189501212Y-63822314D01*
X190637123Y-64958225D01*
X190620534Y-64970278D01*
X190470278Y-65120534D01*
X190458225Y-65137123D01*
X189324183Y-64003081D01*
X189324182Y-64003081D01*
X189234045Y-64098623D01*
X189234035Y-64098634D01*
X189028623Y-64374550D01*
X188856635Y-64672441D01*
X188856627Y-64672458D01*
X188720386Y-64988299D01*
X188621729Y-65317837D01*
X188621727Y-65317846D01*
X188561997Y-65656592D01*
X188541996Y-66000000D01*
X180295035Y-66000000D01*
X180391643Y-65745266D01*
X180464037Y-65451551D01*
X180500500Y-65151252D01*
X180500500Y-65000000D01*
X180500500Y-64934108D01*
X180500500Y-64004478D01*
X180500820Y-63995525D01*
X180511318Y-63848748D01*
X180515123Y-63795546D01*
X180517668Y-63777837D01*
X180559333Y-63586305D01*
X180564375Y-63569136D01*
X180632871Y-63385491D01*
X180640303Y-63369215D01*
X180734240Y-63197183D01*
X180743919Y-63182124D01*
X180861376Y-63025220D01*
X180873095Y-63011694D01*
X181011694Y-62873095D01*
X181025220Y-62861376D01*
X181182124Y-62743919D01*
X181197183Y-62734240D01*
X181369215Y-62640303D01*
X181385491Y-62632871D01*
X181569136Y-62564375D01*
X181586305Y-62559333D01*
X181777837Y-62517668D01*
X181795546Y-62515123D01*
X181995526Y-62500820D01*
X182004479Y-62500500D01*
X182065892Y-62500500D01*
X201934108Y-62500500D01*
X201995521Y-62500500D01*
X202004474Y-62500820D01*
G37*
%TD.AperFunction*%
%TD*%
M02*
