%TF.GenerationSoftware,KiCad,Pcbnew,8.0.4*%
%TF.CreationDate,2024-08-10T21:18:51+02:00*%
%TF.ProjectId,breakout,62726561-6b6f-4757-942e-6b696361645f,rev?*%
%TF.SameCoordinates,Original*%
%TF.FileFunction,Profile,NP*%
%FSLAX46Y46*%
G04 Gerber Fmt 4.6, Leading zero omitted, Abs format (unit mm)*
G04 Created by KiCad (PCBNEW 8.0.4) date 2024-08-10 21:18:51*
%MOMM*%
%LPD*%
G01*
G04 APERTURE LIST*
%TA.AperFunction,Profile*%
%ADD10C,0.050000*%
%TD*%
G04 APERTURE END LIST*
D10*
X195300000Y-85081815D02*
G75*
G02*
X193700000Y-85081815I-800000J0D01*
G01*
X193700000Y-85081815D02*
G75*
G02*
X195300000Y-85081815I800000J0D01*
G01*
X195300000Y-80009089D02*
G75*
G02*
X193700000Y-80009089I-800000J0D01*
G01*
X193700000Y-80009089D02*
G75*
G02*
X195300000Y-80009089I800000J0D01*
G01*
X199000000Y-108000000D02*
G75*
G02*
X197000000Y-110000000I-2000000J0D01*
G01*
X195300000Y-100300000D02*
G75*
G02*
X193700000Y-100300000I-800000J0D01*
G01*
X193700000Y-100300000D02*
G75*
G02*
X195300000Y-100300000I800000J0D01*
G01*
X195300000Y-92690904D02*
G75*
G02*
X193700000Y-92690904I-800000J0D01*
G01*
X193700000Y-92690904D02*
G75*
G02*
X195300000Y-92690904I800000J0D01*
G01*
X195300000Y-90154541D02*
G75*
G02*
X193700000Y-90154541I-800000J0D01*
G01*
X193700000Y-90154541D02*
G75*
G02*
X195300000Y-90154541I800000J0D01*
G01*
X197000000Y-62000000D02*
G75*
G02*
X199000000Y-64000000I0J-2000000D01*
G01*
X180000000Y-65000000D02*
G75*
G02*
X178000000Y-67000000I-2000000J0D01*
G01*
X182000000Y-110000000D02*
G75*
G02*
X180000000Y-108000000I0J2000000D01*
G01*
X182000000Y-62000000D02*
X197000000Y-62000000D01*
X195300000Y-95227267D02*
G75*
G02*
X193700000Y-95227267I-800000J0D01*
G01*
X193700000Y-95227267D02*
G75*
G02*
X195300000Y-95227267I800000J0D01*
G01*
X131000000Y-105000000D02*
X178000000Y-105000000D01*
X124000000Y-105000000D02*
X131000000Y-105000000D01*
X195300000Y-74936363D02*
G75*
G02*
X193700000Y-74936363I-800000J0D01*
G01*
X193700000Y-74936363D02*
G75*
G02*
X195300000Y-74936363I800000J0D01*
G01*
X178000000Y-105000000D02*
G75*
G02*
X180000000Y-107000000I0J-2000000D01*
G01*
X195300000Y-77472726D02*
G75*
G02*
X193700000Y-77472726I-800000J0D01*
G01*
X193700000Y-77472726D02*
G75*
G02*
X195300000Y-77472726I800000J0D01*
G01*
X180000000Y-108000000D02*
X180000000Y-107000000D01*
X195300000Y-87618178D02*
G75*
G02*
X193700000Y-87618178I-800000J0D01*
G01*
X193700000Y-87618178D02*
G75*
G02*
X195300000Y-87618178I800000J0D01*
G01*
X182000000Y-110000000D02*
X197000000Y-110000000D01*
X180000000Y-65000000D02*
X180000000Y-64000000D01*
X180000000Y-64000000D02*
G75*
G02*
X182000000Y-62000000I2000000J0D01*
G01*
X199000000Y-64000000D02*
X199000000Y-108000000D01*
X124000000Y-67000000D02*
X124000000Y-105000000D01*
X195300000Y-82545452D02*
G75*
G02*
X193700000Y-82545452I-800000J0D01*
G01*
X193700000Y-82545452D02*
G75*
G02*
X195300000Y-82545452I800000J0D01*
G01*
X131000000Y-67000000D02*
X124000000Y-67000000D01*
X131000000Y-67000000D02*
X178000000Y-67000000D01*
X195300000Y-72400000D02*
G75*
G02*
X193700000Y-72400000I-800000J0D01*
G01*
X193700000Y-72400000D02*
G75*
G02*
X195300000Y-72400000I800000J0D01*
G01*
X195300000Y-97763630D02*
G75*
G02*
X193700000Y-97763630I-800000J0D01*
G01*
X193700000Y-97763630D02*
G75*
G02*
X195300000Y-97763630I800000J0D01*
G01*
M02*
