%TF.GenerationSoftware,KiCad,Pcbnew,8.0.4*%
%TF.CreationDate,2024-08-10T21:18:51+02:00*%
%TF.ProjectId,breakout,62726561-6b6f-4757-942e-6b696361645f,rev?*%
%TF.SameCoordinates,Original*%
%TF.FileFunction,Legend,Bot*%
%TF.FilePolarity,Positive*%
%FSLAX46Y46*%
G04 Gerber Fmt 4.6, Leading zero omitted, Abs format (unit mm)*
G04 Created by KiCad (PCBNEW 8.0.4) date 2024-08-10 21:18:51*
%MOMM*%
%LPD*%
G01*
G04 APERTURE LIST*
%ADD10C,0.250000*%
%ADD11C,0.200000*%
%ADD12C,0.333000*%
%ADD13C,0.120000*%
%ADD14C,0.100000*%
%ADD15R,1.700000X1.700000*%
%ADD16O,1.700000X1.700000*%
%ADD17C,5.400000*%
%ADD18R,2.200000X2.200000*%
%ADD19C,2.200000*%
G04 APERTURE END LIST*
D10*
X191714285Y-87280928D02*
X191714285Y-88280928D01*
X192071427Y-86709500D02*
X192428570Y-87780928D01*
X192428570Y-87780928D02*
X191499999Y-87780928D01*
D11*
X192749374Y-71817873D02*
X192332707Y-73067873D01*
X192332707Y-73067873D02*
X191916041Y-71817873D01*
X191558897Y-73008350D02*
X191380326Y-73067873D01*
X191380326Y-73067873D02*
X191082707Y-73067873D01*
X191082707Y-73067873D02*
X190963659Y-73008350D01*
X190963659Y-73008350D02*
X190904135Y-72948826D01*
X190904135Y-72948826D02*
X190844612Y-72829778D01*
X190844612Y-72829778D02*
X190844612Y-72710730D01*
X190844612Y-72710730D02*
X190904135Y-72591683D01*
X190904135Y-72591683D02*
X190963659Y-72532159D01*
X190963659Y-72532159D02*
X191082707Y-72472635D01*
X191082707Y-72472635D02*
X191320802Y-72413111D01*
X191320802Y-72413111D02*
X191439850Y-72353588D01*
X191439850Y-72353588D02*
X191499373Y-72294064D01*
X191499373Y-72294064D02*
X191558897Y-72175016D01*
X191558897Y-72175016D02*
X191558897Y-72055969D01*
X191558897Y-72055969D02*
X191499373Y-71936921D01*
X191499373Y-71936921D02*
X191439850Y-71877397D01*
X191439850Y-71877397D02*
X191320802Y-71817873D01*
X191320802Y-71817873D02*
X191023183Y-71817873D01*
X191023183Y-71817873D02*
X190844612Y-71877397D01*
X190308897Y-72413111D02*
X189892231Y-72413111D01*
X189713659Y-73067873D02*
X190308897Y-73067873D01*
X190308897Y-73067873D02*
X190308897Y-71817873D01*
X190308897Y-71817873D02*
X189713659Y-71817873D01*
X189177945Y-73067873D02*
X189177945Y-71817873D01*
X189177945Y-71817873D02*
X188463660Y-73067873D01*
X188463660Y-73067873D02*
X188463660Y-71817873D01*
X187927945Y-73008350D02*
X187749374Y-73067873D01*
X187749374Y-73067873D02*
X187451755Y-73067873D01*
X187451755Y-73067873D02*
X187332707Y-73008350D01*
X187332707Y-73008350D02*
X187273183Y-72948826D01*
X187273183Y-72948826D02*
X187213660Y-72829778D01*
X187213660Y-72829778D02*
X187213660Y-72710730D01*
X187213660Y-72710730D02*
X187273183Y-72591683D01*
X187273183Y-72591683D02*
X187332707Y-72532159D01*
X187332707Y-72532159D02*
X187451755Y-72472635D01*
X187451755Y-72472635D02*
X187689850Y-72413111D01*
X187689850Y-72413111D02*
X187808898Y-72353588D01*
X187808898Y-72353588D02*
X187868421Y-72294064D01*
X187868421Y-72294064D02*
X187927945Y-72175016D01*
X187927945Y-72175016D02*
X187927945Y-72055969D01*
X187927945Y-72055969D02*
X187868421Y-71936921D01*
X187868421Y-71936921D02*
X187808898Y-71877397D01*
X187808898Y-71877397D02*
X187689850Y-71817873D01*
X187689850Y-71817873D02*
X187392231Y-71817873D01*
X187392231Y-71817873D02*
X187213660Y-71877397D01*
X186677945Y-72413111D02*
X186261279Y-72413111D01*
X186082707Y-73067873D02*
X186677945Y-73067873D01*
X186677945Y-73067873D02*
X186677945Y-71817873D01*
X186677945Y-71817873D02*
X186082707Y-71817873D01*
D12*
X191523809Y-98003160D02*
X191714285Y-97907922D01*
X191714285Y-97907922D02*
X191999999Y-97907922D01*
X191999999Y-97907922D02*
X192285714Y-98003160D01*
X192285714Y-98003160D02*
X192476190Y-98193636D01*
X192476190Y-98193636D02*
X192571428Y-98384112D01*
X192571428Y-98384112D02*
X192666666Y-98765064D01*
X192666666Y-98765064D02*
X192666666Y-99050779D01*
X192666666Y-99050779D02*
X192571428Y-99431731D01*
X192571428Y-99431731D02*
X192476190Y-99622207D01*
X192476190Y-99622207D02*
X192285714Y-99812684D01*
X192285714Y-99812684D02*
X191999999Y-99907922D01*
X191999999Y-99907922D02*
X191809523Y-99907922D01*
X191809523Y-99907922D02*
X191523809Y-99812684D01*
X191523809Y-99812684D02*
X191428571Y-99717445D01*
X191428571Y-99717445D02*
X191428571Y-99050779D01*
X191428571Y-99050779D02*
X191809523Y-99050779D01*
X190571428Y-99907922D02*
X190571428Y-97907922D01*
X190571428Y-97907922D02*
X189428571Y-99907922D01*
X189428571Y-99907922D02*
X189428571Y-97907922D01*
X188476190Y-99907922D02*
X188476190Y-97907922D01*
X188476190Y-97907922D02*
X188000000Y-97907922D01*
X188000000Y-97907922D02*
X187714285Y-98003160D01*
X187714285Y-98003160D02*
X187523809Y-98193636D01*
X187523809Y-98193636D02*
X187428571Y-98384112D01*
X187428571Y-98384112D02*
X187333333Y-98765064D01*
X187333333Y-98765064D02*
X187333333Y-99050779D01*
X187333333Y-99050779D02*
X187428571Y-99431731D01*
X187428571Y-99431731D02*
X187523809Y-99622207D01*
X187523809Y-99622207D02*
X187714285Y-99812684D01*
X187714285Y-99812684D02*
X188000000Y-99907922D01*
X188000000Y-99907922D02*
X188476190Y-99907922D01*
D11*
X192749374Y-74317873D02*
X192332707Y-75567873D01*
X192332707Y-75567873D02*
X191916041Y-74317873D01*
X191499373Y-75567873D02*
X191499373Y-74317873D01*
X190666040Y-74317873D02*
X190427945Y-74317873D01*
X190427945Y-74317873D02*
X190308897Y-74377397D01*
X190308897Y-74377397D02*
X190189850Y-74496445D01*
X190189850Y-74496445D02*
X190130326Y-74734540D01*
X190130326Y-74734540D02*
X190130326Y-75151207D01*
X190130326Y-75151207D02*
X190189850Y-75389302D01*
X190189850Y-75389302D02*
X190308897Y-75508350D01*
X190308897Y-75508350D02*
X190427945Y-75567873D01*
X190427945Y-75567873D02*
X190666040Y-75567873D01*
X190666040Y-75567873D02*
X190785088Y-75508350D01*
X190785088Y-75508350D02*
X190904135Y-75389302D01*
X190904135Y-75389302D02*
X190963659Y-75151207D01*
X190963659Y-75151207D02*
X190963659Y-74734540D01*
X190963659Y-74734540D02*
X190904135Y-74496445D01*
X190904135Y-74496445D02*
X190785088Y-74377397D01*
X190785088Y-74377397D02*
X190666040Y-74317873D01*
D10*
X191642856Y-89380928D02*
X192357142Y-89380928D01*
X192357142Y-89380928D02*
X192428570Y-90095214D01*
X192428570Y-90095214D02*
X192357142Y-90023785D01*
X192357142Y-90023785D02*
X192214285Y-89952357D01*
X192214285Y-89952357D02*
X191857142Y-89952357D01*
X191857142Y-89952357D02*
X191714285Y-90023785D01*
X191714285Y-90023785D02*
X191642856Y-90095214D01*
X191642856Y-90095214D02*
X191571427Y-90238071D01*
X191571427Y-90238071D02*
X191571427Y-90595214D01*
X191571427Y-90595214D02*
X191642856Y-90738071D01*
X191642856Y-90738071D02*
X191714285Y-90809500D01*
X191714285Y-90809500D02*
X191857142Y-90880928D01*
X191857142Y-90880928D02*
X192214285Y-90880928D01*
X192214285Y-90880928D02*
X192357142Y-90809500D01*
X192357142Y-90809500D02*
X192428570Y-90738071D01*
X192499999Y-94380928D02*
X191499999Y-94380928D01*
X191499999Y-94380928D02*
X192142856Y-95880928D01*
X192428570Y-81923785D02*
X192357142Y-81852357D01*
X192357142Y-81852357D02*
X192214285Y-81780928D01*
X192214285Y-81780928D02*
X191857142Y-81780928D01*
X191857142Y-81780928D02*
X191714285Y-81852357D01*
X191714285Y-81852357D02*
X191642856Y-81923785D01*
X191642856Y-81923785D02*
X191571427Y-82066642D01*
X191571427Y-82066642D02*
X191571427Y-82209500D01*
X191571427Y-82209500D02*
X191642856Y-82423785D01*
X191642856Y-82423785D02*
X192499999Y-83280928D01*
X192499999Y-83280928D02*
X191571427Y-83280928D01*
X192071427Y-76780928D02*
X191928570Y-76780928D01*
X191928570Y-76780928D02*
X191785713Y-76852357D01*
X191785713Y-76852357D02*
X191714285Y-76923785D01*
X191714285Y-76923785D02*
X191642856Y-77066642D01*
X191642856Y-77066642D02*
X191571427Y-77352357D01*
X191571427Y-77352357D02*
X191571427Y-77709500D01*
X191571427Y-77709500D02*
X191642856Y-77995214D01*
X191642856Y-77995214D02*
X191714285Y-78138071D01*
X191714285Y-78138071D02*
X191785713Y-78209500D01*
X191785713Y-78209500D02*
X191928570Y-78280928D01*
X191928570Y-78280928D02*
X192071427Y-78280928D01*
X192071427Y-78280928D02*
X192214285Y-78209500D01*
X192214285Y-78209500D02*
X192285713Y-78138071D01*
X192285713Y-78138071D02*
X192357142Y-77995214D01*
X192357142Y-77995214D02*
X192428570Y-77709500D01*
X192428570Y-77709500D02*
X192428570Y-77352357D01*
X192428570Y-77352357D02*
X192357142Y-77066642D01*
X192357142Y-77066642D02*
X192285713Y-76923785D01*
X192285713Y-76923785D02*
X192214285Y-76852357D01*
X192214285Y-76852357D02*
X192071427Y-76780928D01*
X191571427Y-80680928D02*
X192428570Y-80680928D01*
X191999999Y-80680928D02*
X191999999Y-79180928D01*
X191999999Y-79180928D02*
X192142856Y-79395214D01*
X192142856Y-79395214D02*
X192285713Y-79538071D01*
X192285713Y-79538071D02*
X192428570Y-79609500D01*
X191714285Y-91980928D02*
X191999999Y-91980928D01*
X191999999Y-91980928D02*
X192142856Y-92052357D01*
X192142856Y-92052357D02*
X192214285Y-92123785D01*
X192214285Y-92123785D02*
X192357142Y-92338071D01*
X192357142Y-92338071D02*
X192428570Y-92623785D01*
X192428570Y-92623785D02*
X192428570Y-93195214D01*
X192428570Y-93195214D02*
X192357142Y-93338071D01*
X192357142Y-93338071D02*
X192285713Y-93409500D01*
X192285713Y-93409500D02*
X192142856Y-93480928D01*
X192142856Y-93480928D02*
X191857142Y-93480928D01*
X191857142Y-93480928D02*
X191714285Y-93409500D01*
X191714285Y-93409500D02*
X191642856Y-93338071D01*
X191642856Y-93338071D02*
X191571427Y-93195214D01*
X191571427Y-93195214D02*
X191571427Y-92838071D01*
X191571427Y-92838071D02*
X191642856Y-92695214D01*
X191642856Y-92695214D02*
X191714285Y-92623785D01*
X191714285Y-92623785D02*
X191857142Y-92552357D01*
X191857142Y-92552357D02*
X192142856Y-92552357D01*
X192142856Y-92552357D02*
X192285713Y-92623785D01*
X192285713Y-92623785D02*
X192357142Y-92695214D01*
X192357142Y-92695214D02*
X192428570Y-92838071D01*
X192499999Y-84380928D02*
X191571427Y-84380928D01*
X191571427Y-84380928D02*
X192071427Y-84952357D01*
X192071427Y-84952357D02*
X191857142Y-84952357D01*
X191857142Y-84952357D02*
X191714285Y-85023785D01*
X191714285Y-85023785D02*
X191642856Y-85095214D01*
X191642856Y-85095214D02*
X191571427Y-85238071D01*
X191571427Y-85238071D02*
X191571427Y-85595214D01*
X191571427Y-85595214D02*
X191642856Y-85738071D01*
X191642856Y-85738071D02*
X191714285Y-85809500D01*
X191714285Y-85809500D02*
X191857142Y-85880928D01*
X191857142Y-85880928D02*
X192285713Y-85880928D01*
X192285713Y-85880928D02*
X192428570Y-85809500D01*
X192428570Y-85809500D02*
X192499999Y-85738071D01*
D13*
%TO.C,J1*%
X132170000Y-73630000D02*
X133500000Y-73630000D01*
X132170000Y-74960000D02*
X132170000Y-73630000D01*
X132170000Y-76230000D02*
X134770000Y-76230000D01*
X132170000Y-99150000D02*
X132170000Y-76230000D01*
X132170000Y-99150000D02*
X137370000Y-99150000D01*
X134770000Y-73630000D02*
X137370000Y-73630000D01*
X134770000Y-76230000D02*
X134770000Y-73630000D01*
X137370000Y-99150000D02*
X137370000Y-73630000D01*
%TD*%
%LPC*%
D14*
X142500000Y-66900000D02*
X177000000Y-66900000D01*
X177000000Y-72500000D01*
X142500000Y-72500000D01*
X142500000Y-66900000D01*
G36*
X142500000Y-66900000D02*
G01*
X177000000Y-66900000D01*
X177000000Y-72500000D01*
X142500000Y-72500000D01*
X142500000Y-66900000D01*
G37*
X142250000Y-100000000D02*
X177000000Y-100000000D01*
X177000000Y-105000000D01*
X142250000Y-105000000D01*
X142250000Y-100000000D01*
G36*
X142250000Y-100000000D02*
G01*
X177000000Y-100000000D01*
X177000000Y-105000000D01*
X142250000Y-105000000D01*
X142250000Y-100000000D01*
G37*
D15*
%TO.C,J9*%
X129500000Y-81500000D03*
D16*
X126960000Y-81500000D03*
X129500000Y-84040000D03*
X126960000Y-84040000D03*
X129500000Y-86580000D03*
X126960000Y-86580000D03*
X129500000Y-89120000D03*
X126960000Y-89120000D03*
X129500000Y-91660000D03*
X126960000Y-91660000D03*
%TD*%
D15*
%TO.C,J5*%
X153500000Y-74960000D03*
D16*
X153500000Y-77500000D03*
X153500000Y-80040000D03*
X153500000Y-82580000D03*
X153500000Y-85120000D03*
X153500000Y-87660000D03*
X153500000Y-90200000D03*
X153500000Y-92740000D03*
X153500000Y-95280000D03*
X153500000Y-97820000D03*
%TD*%
D17*
%TO.C,H1*%
X189000000Y-66000000D03*
%TD*%
D15*
%TO.C,J4*%
X143500000Y-74920000D03*
D16*
X143500000Y-77460000D03*
X143500000Y-80000000D03*
X143500000Y-82540000D03*
X143500000Y-85080000D03*
X143500000Y-87620000D03*
X143500000Y-90160000D03*
X143500000Y-92700000D03*
X143500000Y-95240000D03*
X143500000Y-97780000D03*
%TD*%
D15*
%TO.C,J3*%
X148500000Y-74920000D03*
D16*
X148500000Y-77460000D03*
X148500000Y-80000000D03*
X148500000Y-82540000D03*
X148500000Y-85080000D03*
X148500000Y-87620000D03*
X148500000Y-90160000D03*
X148500000Y-92700000D03*
X148500000Y-95240000D03*
X148500000Y-97780000D03*
%TD*%
D17*
%TO.C,H2*%
X189000000Y-106000000D03*
%TD*%
D15*
%TO.C,J7*%
X168500000Y-77460000D03*
D16*
X168500000Y-80000000D03*
X168500000Y-82540000D03*
X168500000Y-85080000D03*
X168500000Y-87620000D03*
X168500000Y-90160000D03*
X168500000Y-92700000D03*
X168500000Y-95240000D03*
%TD*%
D18*
%TO.C,J2*%
X181000000Y-72340000D03*
D19*
X181000000Y-74880000D03*
X181000000Y-77419999D03*
X181000000Y-79960000D03*
X181000000Y-82500000D03*
X181000000Y-85040000D03*
X181000000Y-87580000D03*
X181000000Y-90120001D03*
X181000000Y-92660000D03*
X181000000Y-95200000D03*
X181000000Y-97740000D03*
X181000000Y-100279999D03*
%TD*%
D15*
%TO.C,J6*%
X158500000Y-74920000D03*
D16*
X158500000Y-77460000D03*
X158500000Y-80000000D03*
X158500000Y-82540000D03*
X158500000Y-85080000D03*
X158500000Y-87620000D03*
X158500000Y-90160000D03*
X158500000Y-92700000D03*
X158500000Y-95240000D03*
X158500000Y-97780000D03*
%TD*%
D15*
%TO.C,J1*%
X133500000Y-74960000D03*
D16*
X136040000Y-74960000D03*
X133500000Y-77500000D03*
X136040000Y-77500000D03*
X133500000Y-80040000D03*
X136040000Y-80040000D03*
X133500000Y-82580000D03*
X136040000Y-82580000D03*
X133500000Y-85120000D03*
X136040000Y-85120000D03*
X133500000Y-87660000D03*
X136040000Y-87660000D03*
X133500000Y-90200000D03*
X136040000Y-90200000D03*
X133500000Y-92740000D03*
X136040000Y-92740000D03*
X133500000Y-95280000D03*
X136040000Y-95280000D03*
X133500000Y-97820000D03*
X136040000Y-97820000D03*
%TD*%
%LPD*%
M02*
