%TF.GenerationSoftware,KiCad,Pcbnew,8.0.4*%
%TF.CreationDate,2024-08-22T21:39:24+02:00*%
%TF.ProjectId,breakout,62726561-6b6f-4757-942e-6b696361645f,rev?*%
%TF.SameCoordinates,Original*%
%TF.FileFunction,Legend,Top*%
%TF.FilePolarity,Positive*%
%FSLAX46Y46*%
G04 Gerber Fmt 4.6, Leading zero omitted, Abs format (unit mm)*
G04 Created by KiCad (PCBNEW 8.0.4) date 2024-08-22 21:39:24*
%MOMM*%
%LPD*%
G01*
G04 APERTURE LIST*
G04 Aperture macros list*
%AMRoundRect*
0 Rectangle with rounded corners*
0 $1 Rounding radius*
0 $2 $3 $4 $5 $6 $7 $8 $9 X,Y pos of 4 corners*
0 Add a 4 corners polygon primitive as box body*
4,1,4,$2,$3,$4,$5,$6,$7,$8,$9,$2,$3,0*
0 Add four circle primitives for the rounded corners*
1,1,$1+$1,$2,$3*
1,1,$1+$1,$4,$5*
1,1,$1+$1,$6,$7*
1,1,$1+$1,$8,$9*
0 Add four rect primitives between the rounded corners*
20,1,$1+$1,$2,$3,$4,$5,0*
20,1,$1+$1,$4,$5,$6,$7,0*
20,1,$1+$1,$6,$7,$8,$9,0*
20,1,$1+$1,$8,$9,$2,$3,0*%
G04 Aperture macros list end*
%ADD10C,0.250000*%
%ADD11C,0.333000*%
%ADD12C,0.200000*%
%ADD13C,0.150000*%
%ADD14C,0.120000*%
%ADD15C,0.100000*%
%ADD16R,1.700000X1.700000*%
%ADD17O,1.700000X1.700000*%
%ADD18C,5.400000*%
%ADD19RoundRect,0.250000X-1.350000X0.650000X-1.350000X-0.650000X1.350000X-0.650000X1.350000X0.650000X0*%
%ADD20O,3.200000X1.800000*%
G04 APERTURE END LIST*
D10*
X174885715Y-91980928D02*
X174600000Y-91980928D01*
X174600000Y-91980928D02*
X174457143Y-92052357D01*
X174457143Y-92052357D02*
X174385715Y-92123785D01*
X174385715Y-92123785D02*
X174242857Y-92338071D01*
X174242857Y-92338071D02*
X174171429Y-92623785D01*
X174171429Y-92623785D02*
X174171429Y-93195214D01*
X174171429Y-93195214D02*
X174242857Y-93338071D01*
X174242857Y-93338071D02*
X174314286Y-93409500D01*
X174314286Y-93409500D02*
X174457143Y-93480928D01*
X174457143Y-93480928D02*
X174742857Y-93480928D01*
X174742857Y-93480928D02*
X174885715Y-93409500D01*
X174885715Y-93409500D02*
X174957143Y-93338071D01*
X174957143Y-93338071D02*
X175028572Y-93195214D01*
X175028572Y-93195214D02*
X175028572Y-92838071D01*
X175028572Y-92838071D02*
X174957143Y-92695214D01*
X174957143Y-92695214D02*
X174885715Y-92623785D01*
X174885715Y-92623785D02*
X174742857Y-92552357D01*
X174742857Y-92552357D02*
X174457143Y-92552357D01*
X174457143Y-92552357D02*
X174314286Y-92623785D01*
X174314286Y-92623785D02*
X174242857Y-92695214D01*
X174242857Y-92695214D02*
X174171429Y-92838071D01*
X140335527Y-68319071D02*
X141478384Y-67890500D01*
X141478384Y-67890500D02*
X140335527Y-67461928D01*
X138835526Y-68747642D02*
X138978384Y-68819071D01*
X138978384Y-68819071D02*
X139192669Y-68819071D01*
X139192669Y-68819071D02*
X139406955Y-68747642D01*
X139406955Y-68747642D02*
X139549812Y-68604785D01*
X139549812Y-68604785D02*
X139621241Y-68461928D01*
X139621241Y-68461928D02*
X139692669Y-68176214D01*
X139692669Y-68176214D02*
X139692669Y-67961928D01*
X139692669Y-67961928D02*
X139621241Y-67676214D01*
X139621241Y-67676214D02*
X139549812Y-67533357D01*
X139549812Y-67533357D02*
X139406955Y-67390500D01*
X139406955Y-67390500D02*
X139192669Y-67319071D01*
X139192669Y-67319071D02*
X139049812Y-67319071D01*
X139049812Y-67319071D02*
X138835526Y-67390500D01*
X138835526Y-67390500D02*
X138764098Y-67461928D01*
X138764098Y-67461928D02*
X138764098Y-67961928D01*
X138764098Y-67961928D02*
X139049812Y-67961928D01*
X138121241Y-67319071D02*
X138121241Y-68819071D01*
X138121241Y-68819071D02*
X137264098Y-67319071D01*
X137264098Y-67319071D02*
X137264098Y-68819071D01*
X136549812Y-67319071D02*
X136549812Y-68819071D01*
X136549812Y-68819071D02*
X136192669Y-68819071D01*
X136192669Y-68819071D02*
X135978383Y-68747642D01*
X135978383Y-68747642D02*
X135835526Y-68604785D01*
X135835526Y-68604785D02*
X135764097Y-68461928D01*
X135764097Y-68461928D02*
X135692669Y-68176214D01*
X135692669Y-68176214D02*
X135692669Y-67961928D01*
X135692669Y-67961928D02*
X135764097Y-67676214D01*
X135764097Y-67676214D02*
X135835526Y-67533357D01*
X135835526Y-67533357D02*
X135978383Y-67390500D01*
X135978383Y-67390500D02*
X136192669Y-67319071D01*
X136192669Y-67319071D02*
X136549812Y-67319071D01*
X140228572Y-80680928D02*
X139371429Y-80680928D01*
X139800000Y-80680928D02*
X139800000Y-79180928D01*
X139800000Y-79180928D02*
X139657143Y-79395214D01*
X139657143Y-79395214D02*
X139514286Y-79538071D01*
X139514286Y-79538071D02*
X139371429Y-79609500D01*
X138857143Y-97252357D02*
X138714286Y-97180928D01*
X138714286Y-97180928D02*
X138500000Y-97180928D01*
X138500000Y-97180928D02*
X138285714Y-97252357D01*
X138285714Y-97252357D02*
X138142857Y-97395214D01*
X138142857Y-97395214D02*
X138071428Y-97538071D01*
X138071428Y-97538071D02*
X138000000Y-97823785D01*
X138000000Y-97823785D02*
X138000000Y-98038071D01*
X138000000Y-98038071D02*
X138071428Y-98323785D01*
X138071428Y-98323785D02*
X138142857Y-98466642D01*
X138142857Y-98466642D02*
X138285714Y-98609500D01*
X138285714Y-98609500D02*
X138500000Y-98680928D01*
X138500000Y-98680928D02*
X138642857Y-98680928D01*
X138642857Y-98680928D02*
X138857143Y-98609500D01*
X138857143Y-98609500D02*
X138928571Y-98538071D01*
X138928571Y-98538071D02*
X138928571Y-98038071D01*
X138928571Y-98038071D02*
X138642857Y-98038071D01*
X139571428Y-98680928D02*
X139571428Y-97180928D01*
X139571428Y-97180928D02*
X140428571Y-98680928D01*
X140428571Y-98680928D02*
X140428571Y-97180928D01*
X141142857Y-98680928D02*
X141142857Y-97180928D01*
X141142857Y-97180928D02*
X141500000Y-97180928D01*
X141500000Y-97180928D02*
X141714286Y-97252357D01*
X141714286Y-97252357D02*
X141857143Y-97395214D01*
X141857143Y-97395214D02*
X141928572Y-97538071D01*
X141928572Y-97538071D02*
X142000000Y-97823785D01*
X142000000Y-97823785D02*
X142000000Y-98038071D01*
X142000000Y-98038071D02*
X141928572Y-98323785D01*
X141928572Y-98323785D02*
X141857143Y-98466642D01*
X141857143Y-98466642D02*
X141714286Y-98609500D01*
X141714286Y-98609500D02*
X141500000Y-98680928D01*
X141500000Y-98680928D02*
X141142857Y-98680928D01*
X192357143Y-89380928D02*
X191642857Y-89380928D01*
X191642857Y-89380928D02*
X191571429Y-90095214D01*
X191571429Y-90095214D02*
X191642857Y-90023785D01*
X191642857Y-90023785D02*
X191785715Y-89952357D01*
X191785715Y-89952357D02*
X192142857Y-89952357D01*
X192142857Y-89952357D02*
X192285715Y-90023785D01*
X192285715Y-90023785D02*
X192357143Y-90095214D01*
X192357143Y-90095214D02*
X192428572Y-90238071D01*
X192428572Y-90238071D02*
X192428572Y-90595214D01*
X192428572Y-90595214D02*
X192357143Y-90738071D01*
X192357143Y-90738071D02*
X192285715Y-90809500D01*
X192285715Y-90809500D02*
X192142857Y-90880928D01*
X192142857Y-90880928D02*
X191785715Y-90880928D01*
X191785715Y-90880928D02*
X191642857Y-90809500D01*
X191642857Y-90809500D02*
X191571429Y-90738071D01*
X163885715Y-87280928D02*
X163885715Y-88280928D01*
X163528572Y-86709500D02*
X163171429Y-87780928D01*
X163171429Y-87780928D02*
X164100000Y-87780928D01*
X163171429Y-81923785D02*
X163242857Y-81852357D01*
X163242857Y-81852357D02*
X163385715Y-81780928D01*
X163385715Y-81780928D02*
X163742857Y-81780928D01*
X163742857Y-81780928D02*
X163885715Y-81852357D01*
X163885715Y-81852357D02*
X163957143Y-81923785D01*
X163957143Y-81923785D02*
X164028572Y-82066642D01*
X164028572Y-82066642D02*
X164028572Y-82209500D01*
X164028572Y-82209500D02*
X163957143Y-82423785D01*
X163957143Y-82423785D02*
X163100000Y-83280928D01*
X163100000Y-83280928D02*
X164028572Y-83280928D01*
D11*
X192476190Y-98003160D02*
X192285714Y-97907922D01*
X192285714Y-97907922D02*
X192000000Y-97907922D01*
X192000000Y-97907922D02*
X191714285Y-98003160D01*
X191714285Y-98003160D02*
X191523809Y-98193636D01*
X191523809Y-98193636D02*
X191428571Y-98384112D01*
X191428571Y-98384112D02*
X191333333Y-98765064D01*
X191333333Y-98765064D02*
X191333333Y-99050779D01*
X191333333Y-99050779D02*
X191428571Y-99431731D01*
X191428571Y-99431731D02*
X191523809Y-99622207D01*
X191523809Y-99622207D02*
X191714285Y-99812684D01*
X191714285Y-99812684D02*
X192000000Y-99907922D01*
X192000000Y-99907922D02*
X192190476Y-99907922D01*
X192190476Y-99907922D02*
X192476190Y-99812684D01*
X192476190Y-99812684D02*
X192571428Y-99717445D01*
X192571428Y-99717445D02*
X192571428Y-99050779D01*
X192571428Y-99050779D02*
X192190476Y-99050779D01*
X193428571Y-99907922D02*
X193428571Y-97907922D01*
X193428571Y-97907922D02*
X194571428Y-99907922D01*
X194571428Y-99907922D02*
X194571428Y-97907922D01*
X195523809Y-99907922D02*
X195523809Y-97907922D01*
X195523809Y-97907922D02*
X195999999Y-97907922D01*
X195999999Y-97907922D02*
X196285714Y-98003160D01*
X196285714Y-98003160D02*
X196476190Y-98193636D01*
X196476190Y-98193636D02*
X196571428Y-98384112D01*
X196571428Y-98384112D02*
X196666666Y-98765064D01*
X196666666Y-98765064D02*
X196666666Y-99050779D01*
X196666666Y-99050779D02*
X196571428Y-99431731D01*
X196571428Y-99431731D02*
X196476190Y-99622207D01*
X196476190Y-99622207D02*
X196285714Y-99812684D01*
X196285714Y-99812684D02*
X195999999Y-99907922D01*
X195999999Y-99907922D02*
X195523809Y-99907922D01*
D10*
X174885715Y-87280928D02*
X174885715Y-88280928D01*
X174528572Y-86709500D02*
X174171429Y-87780928D01*
X174171429Y-87780928D02*
X175100000Y-87780928D01*
X163100000Y-84380928D02*
X164028572Y-84380928D01*
X164028572Y-84380928D02*
X163528572Y-84952357D01*
X163528572Y-84952357D02*
X163742857Y-84952357D01*
X163742857Y-84952357D02*
X163885715Y-85023785D01*
X163885715Y-85023785D02*
X163957143Y-85095214D01*
X163957143Y-85095214D02*
X164028572Y-85238071D01*
X164028572Y-85238071D02*
X164028572Y-85595214D01*
X164028572Y-85595214D02*
X163957143Y-85738071D01*
X163957143Y-85738071D02*
X163885715Y-85809500D01*
X163885715Y-85809500D02*
X163742857Y-85880928D01*
X163742857Y-85880928D02*
X163314286Y-85880928D01*
X163314286Y-85880928D02*
X163171429Y-85809500D01*
X163171429Y-85809500D02*
X163100000Y-85738071D01*
X192285715Y-91980928D02*
X192000000Y-91980928D01*
X192000000Y-91980928D02*
X191857143Y-92052357D01*
X191857143Y-92052357D02*
X191785715Y-92123785D01*
X191785715Y-92123785D02*
X191642857Y-92338071D01*
X191642857Y-92338071D02*
X191571429Y-92623785D01*
X191571429Y-92623785D02*
X191571429Y-93195214D01*
X191571429Y-93195214D02*
X191642857Y-93338071D01*
X191642857Y-93338071D02*
X191714286Y-93409500D01*
X191714286Y-93409500D02*
X191857143Y-93480928D01*
X191857143Y-93480928D02*
X192142857Y-93480928D01*
X192142857Y-93480928D02*
X192285715Y-93409500D01*
X192285715Y-93409500D02*
X192357143Y-93338071D01*
X192357143Y-93338071D02*
X192428572Y-93195214D01*
X192428572Y-93195214D02*
X192428572Y-92838071D01*
X192428572Y-92838071D02*
X192357143Y-92695214D01*
X192357143Y-92695214D02*
X192285715Y-92623785D01*
X192285715Y-92623785D02*
X192142857Y-92552357D01*
X192142857Y-92552357D02*
X191857143Y-92552357D01*
X191857143Y-92552357D02*
X191714286Y-92623785D01*
X191714286Y-92623785D02*
X191642857Y-92695214D01*
X191642857Y-92695214D02*
X191571429Y-92838071D01*
X163885715Y-91980928D02*
X163600000Y-91980928D01*
X163600000Y-91980928D02*
X163457143Y-92052357D01*
X163457143Y-92052357D02*
X163385715Y-92123785D01*
X163385715Y-92123785D02*
X163242857Y-92338071D01*
X163242857Y-92338071D02*
X163171429Y-92623785D01*
X163171429Y-92623785D02*
X163171429Y-93195214D01*
X163171429Y-93195214D02*
X163242857Y-93338071D01*
X163242857Y-93338071D02*
X163314286Y-93409500D01*
X163314286Y-93409500D02*
X163457143Y-93480928D01*
X163457143Y-93480928D02*
X163742857Y-93480928D01*
X163742857Y-93480928D02*
X163885715Y-93409500D01*
X163885715Y-93409500D02*
X163957143Y-93338071D01*
X163957143Y-93338071D02*
X164028572Y-93195214D01*
X164028572Y-93195214D02*
X164028572Y-92838071D01*
X164028572Y-92838071D02*
X163957143Y-92695214D01*
X163957143Y-92695214D02*
X163885715Y-92623785D01*
X163885715Y-92623785D02*
X163742857Y-92552357D01*
X163742857Y-92552357D02*
X163457143Y-92552357D01*
X163457143Y-92552357D02*
X163314286Y-92623785D01*
X163314286Y-92623785D02*
X163242857Y-92695214D01*
X163242857Y-92695214D02*
X163171429Y-92838071D01*
X162457143Y-97252357D02*
X162314286Y-97180928D01*
X162314286Y-97180928D02*
X162100000Y-97180928D01*
X162100000Y-97180928D02*
X161885714Y-97252357D01*
X161885714Y-97252357D02*
X161742857Y-97395214D01*
X161742857Y-97395214D02*
X161671428Y-97538071D01*
X161671428Y-97538071D02*
X161600000Y-97823785D01*
X161600000Y-97823785D02*
X161600000Y-98038071D01*
X161600000Y-98038071D02*
X161671428Y-98323785D01*
X161671428Y-98323785D02*
X161742857Y-98466642D01*
X161742857Y-98466642D02*
X161885714Y-98609500D01*
X161885714Y-98609500D02*
X162100000Y-98680928D01*
X162100000Y-98680928D02*
X162242857Y-98680928D01*
X162242857Y-98680928D02*
X162457143Y-98609500D01*
X162457143Y-98609500D02*
X162528571Y-98538071D01*
X162528571Y-98538071D02*
X162528571Y-98038071D01*
X162528571Y-98038071D02*
X162242857Y-98038071D01*
X163171428Y-98680928D02*
X163171428Y-97180928D01*
X163171428Y-97180928D02*
X164028571Y-98680928D01*
X164028571Y-98680928D02*
X164028571Y-97180928D01*
X164742857Y-98680928D02*
X164742857Y-97180928D01*
X164742857Y-97180928D02*
X165100000Y-97180928D01*
X165100000Y-97180928D02*
X165314286Y-97252357D01*
X165314286Y-97252357D02*
X165457143Y-97395214D01*
X165457143Y-97395214D02*
X165528572Y-97538071D01*
X165528572Y-97538071D02*
X165600000Y-97823785D01*
X165600000Y-97823785D02*
X165600000Y-98038071D01*
X165600000Y-98038071D02*
X165528572Y-98323785D01*
X165528572Y-98323785D02*
X165457143Y-98466642D01*
X165457143Y-98466642D02*
X165314286Y-98609500D01*
X165314286Y-98609500D02*
X165100000Y-98680928D01*
X165100000Y-98680928D02*
X164742857Y-98680928D01*
X191928572Y-76780928D02*
X192071429Y-76780928D01*
X192071429Y-76780928D02*
X192214286Y-76852357D01*
X192214286Y-76852357D02*
X192285715Y-76923785D01*
X192285715Y-76923785D02*
X192357143Y-77066642D01*
X192357143Y-77066642D02*
X192428572Y-77352357D01*
X192428572Y-77352357D02*
X192428572Y-77709500D01*
X192428572Y-77709500D02*
X192357143Y-77995214D01*
X192357143Y-77995214D02*
X192285715Y-78138071D01*
X192285715Y-78138071D02*
X192214286Y-78209500D01*
X192214286Y-78209500D02*
X192071429Y-78280928D01*
X192071429Y-78280928D02*
X191928572Y-78280928D01*
X191928572Y-78280928D02*
X191785715Y-78209500D01*
X191785715Y-78209500D02*
X191714286Y-78138071D01*
X191714286Y-78138071D02*
X191642857Y-77995214D01*
X191642857Y-77995214D02*
X191571429Y-77709500D01*
X191571429Y-77709500D02*
X191571429Y-77352357D01*
X191571429Y-77352357D02*
X191642857Y-77066642D01*
X191642857Y-77066642D02*
X191714286Y-76923785D01*
X191714286Y-76923785D02*
X191785715Y-76852357D01*
X191785715Y-76852357D02*
X191928572Y-76780928D01*
X163957143Y-89380928D02*
X163242857Y-89380928D01*
X163242857Y-89380928D02*
X163171429Y-90095214D01*
X163171429Y-90095214D02*
X163242857Y-90023785D01*
X163242857Y-90023785D02*
X163385715Y-89952357D01*
X163385715Y-89952357D02*
X163742857Y-89952357D01*
X163742857Y-89952357D02*
X163885715Y-90023785D01*
X163885715Y-90023785D02*
X163957143Y-90095214D01*
X163957143Y-90095214D02*
X164028572Y-90238071D01*
X164028572Y-90238071D02*
X164028572Y-90595214D01*
X164028572Y-90595214D02*
X163957143Y-90738071D01*
X163957143Y-90738071D02*
X163885715Y-90809500D01*
X163885715Y-90809500D02*
X163742857Y-90880928D01*
X163742857Y-90880928D02*
X163385715Y-90880928D01*
X163385715Y-90880928D02*
X163242857Y-90809500D01*
X163242857Y-90809500D02*
X163171429Y-90738071D01*
X164028572Y-80680928D02*
X163171429Y-80680928D01*
X163600000Y-80680928D02*
X163600000Y-79180928D01*
X163600000Y-79180928D02*
X163457143Y-79395214D01*
X163457143Y-79395214D02*
X163314286Y-79538071D01*
X163314286Y-79538071D02*
X163171429Y-79609500D01*
X136549812Y-103252357D02*
X136406955Y-103180928D01*
X136406955Y-103180928D02*
X136192669Y-103180928D01*
X136192669Y-103180928D02*
X135978383Y-103252357D01*
X135978383Y-103252357D02*
X135835526Y-103395214D01*
X135835526Y-103395214D02*
X135764097Y-103538071D01*
X135764097Y-103538071D02*
X135692669Y-103823785D01*
X135692669Y-103823785D02*
X135692669Y-104038071D01*
X135692669Y-104038071D02*
X135764097Y-104323785D01*
X135764097Y-104323785D02*
X135835526Y-104466642D01*
X135835526Y-104466642D02*
X135978383Y-104609500D01*
X135978383Y-104609500D02*
X136192669Y-104680928D01*
X136192669Y-104680928D02*
X136335526Y-104680928D01*
X136335526Y-104680928D02*
X136549812Y-104609500D01*
X136549812Y-104609500D02*
X136621240Y-104538071D01*
X136621240Y-104538071D02*
X136621240Y-104038071D01*
X136621240Y-104038071D02*
X136335526Y-104038071D01*
X137264097Y-104680928D02*
X137264097Y-103180928D01*
X137264097Y-103180928D02*
X138121240Y-104680928D01*
X138121240Y-104680928D02*
X138121240Y-103180928D01*
X138835526Y-104680928D02*
X138835526Y-103180928D01*
X138835526Y-103180928D02*
X139192669Y-103180928D01*
X139192669Y-103180928D02*
X139406955Y-103252357D01*
X139406955Y-103252357D02*
X139549812Y-103395214D01*
X139549812Y-103395214D02*
X139621241Y-103538071D01*
X139621241Y-103538071D02*
X139692669Y-103823785D01*
X139692669Y-103823785D02*
X139692669Y-104038071D01*
X139692669Y-104038071D02*
X139621241Y-104323785D01*
X139621241Y-104323785D02*
X139549812Y-104466642D01*
X139549812Y-104466642D02*
X139406955Y-104609500D01*
X139406955Y-104609500D02*
X139192669Y-104680928D01*
X139192669Y-104680928D02*
X138835526Y-104680928D01*
X140335526Y-103680928D02*
X141478384Y-104109500D01*
X141478384Y-104109500D02*
X140335526Y-104538071D01*
X139300000Y-94380928D02*
X140300000Y-94380928D01*
X140300000Y-94380928D02*
X139657143Y-95880928D01*
D12*
X191250625Y-71817873D02*
X191667292Y-73067873D01*
X191667292Y-73067873D02*
X192083958Y-71817873D01*
X192441102Y-73008350D02*
X192619673Y-73067873D01*
X192619673Y-73067873D02*
X192917292Y-73067873D01*
X192917292Y-73067873D02*
X193036340Y-73008350D01*
X193036340Y-73008350D02*
X193095864Y-72948826D01*
X193095864Y-72948826D02*
X193155387Y-72829778D01*
X193155387Y-72829778D02*
X193155387Y-72710730D01*
X193155387Y-72710730D02*
X193095864Y-72591683D01*
X193095864Y-72591683D02*
X193036340Y-72532159D01*
X193036340Y-72532159D02*
X192917292Y-72472635D01*
X192917292Y-72472635D02*
X192679197Y-72413111D01*
X192679197Y-72413111D02*
X192560149Y-72353588D01*
X192560149Y-72353588D02*
X192500626Y-72294064D01*
X192500626Y-72294064D02*
X192441102Y-72175016D01*
X192441102Y-72175016D02*
X192441102Y-72055969D01*
X192441102Y-72055969D02*
X192500626Y-71936921D01*
X192500626Y-71936921D02*
X192560149Y-71877397D01*
X192560149Y-71877397D02*
X192679197Y-71817873D01*
X192679197Y-71817873D02*
X192976816Y-71817873D01*
X192976816Y-71817873D02*
X193155387Y-71877397D01*
X193691102Y-72413111D02*
X194107768Y-72413111D01*
X194286340Y-73067873D02*
X193691102Y-73067873D01*
X193691102Y-73067873D02*
X193691102Y-71817873D01*
X193691102Y-71817873D02*
X194286340Y-71817873D01*
X194822054Y-73067873D02*
X194822054Y-71817873D01*
X194822054Y-71817873D02*
X195536339Y-73067873D01*
X195536339Y-73067873D02*
X195536339Y-71817873D01*
X196072054Y-73008350D02*
X196250625Y-73067873D01*
X196250625Y-73067873D02*
X196548244Y-73067873D01*
X196548244Y-73067873D02*
X196667292Y-73008350D01*
X196667292Y-73008350D02*
X196726816Y-72948826D01*
X196726816Y-72948826D02*
X196786339Y-72829778D01*
X196786339Y-72829778D02*
X196786339Y-72710730D01*
X196786339Y-72710730D02*
X196726816Y-72591683D01*
X196726816Y-72591683D02*
X196667292Y-72532159D01*
X196667292Y-72532159D02*
X196548244Y-72472635D01*
X196548244Y-72472635D02*
X196310149Y-72413111D01*
X196310149Y-72413111D02*
X196191101Y-72353588D01*
X196191101Y-72353588D02*
X196131578Y-72294064D01*
X196131578Y-72294064D02*
X196072054Y-72175016D01*
X196072054Y-72175016D02*
X196072054Y-72055969D01*
X196072054Y-72055969D02*
X196131578Y-71936921D01*
X196131578Y-71936921D02*
X196191101Y-71877397D01*
X196191101Y-71877397D02*
X196310149Y-71817873D01*
X196310149Y-71817873D02*
X196607768Y-71817873D01*
X196607768Y-71817873D02*
X196786339Y-71877397D01*
X197322054Y-72413111D02*
X197738720Y-72413111D01*
X197917292Y-73067873D02*
X197322054Y-73067873D01*
X197322054Y-73067873D02*
X197322054Y-71817873D01*
X197322054Y-71817873D02*
X197917292Y-71817873D01*
D10*
X191571429Y-81923785D02*
X191642857Y-81852357D01*
X191642857Y-81852357D02*
X191785715Y-81780928D01*
X191785715Y-81780928D02*
X192142857Y-81780928D01*
X192142857Y-81780928D02*
X192285715Y-81852357D01*
X192285715Y-81852357D02*
X192357143Y-81923785D01*
X192357143Y-81923785D02*
X192428572Y-82066642D01*
X192428572Y-82066642D02*
X192428572Y-82209500D01*
X192428572Y-82209500D02*
X192357143Y-82423785D01*
X192357143Y-82423785D02*
X191500000Y-83280928D01*
X191500000Y-83280928D02*
X192428572Y-83280928D01*
X174100000Y-94380928D02*
X175100000Y-94380928D01*
X175100000Y-94380928D02*
X174457143Y-95880928D01*
X161957143Y-74180928D02*
X162457143Y-75680928D01*
X162457143Y-75680928D02*
X162957143Y-74180928D01*
X163457142Y-75680928D02*
X163457142Y-74180928D01*
X164457143Y-74180928D02*
X164742857Y-74180928D01*
X164742857Y-74180928D02*
X164885714Y-74252357D01*
X164885714Y-74252357D02*
X165028571Y-74395214D01*
X165028571Y-74395214D02*
X165100000Y-74680928D01*
X165100000Y-74680928D02*
X165100000Y-75180928D01*
X165100000Y-75180928D02*
X165028571Y-75466642D01*
X165028571Y-75466642D02*
X164885714Y-75609500D01*
X164885714Y-75609500D02*
X164742857Y-75680928D01*
X164742857Y-75680928D02*
X164457143Y-75680928D01*
X164457143Y-75680928D02*
X164314286Y-75609500D01*
X164314286Y-75609500D02*
X164171428Y-75466642D01*
X164171428Y-75466642D02*
X164100000Y-75180928D01*
X164100000Y-75180928D02*
X164100000Y-74680928D01*
X164100000Y-74680928D02*
X164171428Y-74395214D01*
X164171428Y-74395214D02*
X164314286Y-74252357D01*
X164314286Y-74252357D02*
X164457143Y-74180928D01*
X140157143Y-89380928D02*
X139442857Y-89380928D01*
X139442857Y-89380928D02*
X139371429Y-90095214D01*
X139371429Y-90095214D02*
X139442857Y-90023785D01*
X139442857Y-90023785D02*
X139585715Y-89952357D01*
X139585715Y-89952357D02*
X139942857Y-89952357D01*
X139942857Y-89952357D02*
X140085715Y-90023785D01*
X140085715Y-90023785D02*
X140157143Y-90095214D01*
X140157143Y-90095214D02*
X140228572Y-90238071D01*
X140228572Y-90238071D02*
X140228572Y-90595214D01*
X140228572Y-90595214D02*
X140157143Y-90738071D01*
X140157143Y-90738071D02*
X140085715Y-90809500D01*
X140085715Y-90809500D02*
X139942857Y-90880928D01*
X139942857Y-90880928D02*
X139585715Y-90880928D01*
X139585715Y-90880928D02*
X139442857Y-90809500D01*
X139442857Y-90809500D02*
X139371429Y-90738071D01*
X140085715Y-91980928D02*
X139800000Y-91980928D01*
X139800000Y-91980928D02*
X139657143Y-92052357D01*
X139657143Y-92052357D02*
X139585715Y-92123785D01*
X139585715Y-92123785D02*
X139442857Y-92338071D01*
X139442857Y-92338071D02*
X139371429Y-92623785D01*
X139371429Y-92623785D02*
X139371429Y-93195214D01*
X139371429Y-93195214D02*
X139442857Y-93338071D01*
X139442857Y-93338071D02*
X139514286Y-93409500D01*
X139514286Y-93409500D02*
X139657143Y-93480928D01*
X139657143Y-93480928D02*
X139942857Y-93480928D01*
X139942857Y-93480928D02*
X140085715Y-93409500D01*
X140085715Y-93409500D02*
X140157143Y-93338071D01*
X140157143Y-93338071D02*
X140228572Y-93195214D01*
X140228572Y-93195214D02*
X140228572Y-92838071D01*
X140228572Y-92838071D02*
X140157143Y-92695214D01*
X140157143Y-92695214D02*
X140085715Y-92623785D01*
X140085715Y-92623785D02*
X139942857Y-92552357D01*
X139942857Y-92552357D02*
X139657143Y-92552357D01*
X139657143Y-92552357D02*
X139514286Y-92623785D01*
X139514286Y-92623785D02*
X139442857Y-92695214D01*
X139442857Y-92695214D02*
X139371429Y-92838071D01*
X191500000Y-84380928D02*
X192428572Y-84380928D01*
X192428572Y-84380928D02*
X191928572Y-84952357D01*
X191928572Y-84952357D02*
X192142857Y-84952357D01*
X192142857Y-84952357D02*
X192285715Y-85023785D01*
X192285715Y-85023785D02*
X192357143Y-85095214D01*
X192357143Y-85095214D02*
X192428572Y-85238071D01*
X192428572Y-85238071D02*
X192428572Y-85595214D01*
X192428572Y-85595214D02*
X192357143Y-85738071D01*
X192357143Y-85738071D02*
X192285715Y-85809500D01*
X192285715Y-85809500D02*
X192142857Y-85880928D01*
X192142857Y-85880928D02*
X191714286Y-85880928D01*
X191714286Y-85880928D02*
X191571429Y-85809500D01*
X191571429Y-85809500D02*
X191500000Y-85738071D01*
X174171429Y-81923785D02*
X174242857Y-81852357D01*
X174242857Y-81852357D02*
X174385715Y-81780928D01*
X174385715Y-81780928D02*
X174742857Y-81780928D01*
X174742857Y-81780928D02*
X174885715Y-81852357D01*
X174885715Y-81852357D02*
X174957143Y-81923785D01*
X174957143Y-81923785D02*
X175028572Y-82066642D01*
X175028572Y-82066642D02*
X175028572Y-82209500D01*
X175028572Y-82209500D02*
X174957143Y-82423785D01*
X174957143Y-82423785D02*
X174100000Y-83280928D01*
X174100000Y-83280928D02*
X175028572Y-83280928D01*
X163100000Y-94380928D02*
X164100000Y-94380928D01*
X164100000Y-94380928D02*
X163457143Y-95880928D01*
X174100000Y-84380928D02*
X175028572Y-84380928D01*
X175028572Y-84380928D02*
X174528572Y-84952357D01*
X174528572Y-84952357D02*
X174742857Y-84952357D01*
X174742857Y-84952357D02*
X174885715Y-85023785D01*
X174885715Y-85023785D02*
X174957143Y-85095214D01*
X174957143Y-85095214D02*
X175028572Y-85238071D01*
X175028572Y-85238071D02*
X175028572Y-85595214D01*
X175028572Y-85595214D02*
X174957143Y-85738071D01*
X174957143Y-85738071D02*
X174885715Y-85809500D01*
X174885715Y-85809500D02*
X174742857Y-85880928D01*
X174742857Y-85880928D02*
X174314286Y-85880928D01*
X174314286Y-85880928D02*
X174171429Y-85809500D01*
X174171429Y-85809500D02*
X174100000Y-85738071D01*
X174528572Y-76780928D02*
X174671429Y-76780928D01*
X174671429Y-76780928D02*
X174814286Y-76852357D01*
X174814286Y-76852357D02*
X174885715Y-76923785D01*
X174885715Y-76923785D02*
X174957143Y-77066642D01*
X174957143Y-77066642D02*
X175028572Y-77352357D01*
X175028572Y-77352357D02*
X175028572Y-77709500D01*
X175028572Y-77709500D02*
X174957143Y-77995214D01*
X174957143Y-77995214D02*
X174885715Y-78138071D01*
X174885715Y-78138071D02*
X174814286Y-78209500D01*
X174814286Y-78209500D02*
X174671429Y-78280928D01*
X174671429Y-78280928D02*
X174528572Y-78280928D01*
X174528572Y-78280928D02*
X174385715Y-78209500D01*
X174385715Y-78209500D02*
X174314286Y-78138071D01*
X174314286Y-78138071D02*
X174242857Y-77995214D01*
X174242857Y-77995214D02*
X174171429Y-77709500D01*
X174171429Y-77709500D02*
X174171429Y-77352357D01*
X174171429Y-77352357D02*
X174242857Y-77066642D01*
X174242857Y-77066642D02*
X174314286Y-76923785D01*
X174314286Y-76923785D02*
X174385715Y-76852357D01*
X174385715Y-76852357D02*
X174528572Y-76780928D01*
X174957143Y-89380928D02*
X174242857Y-89380928D01*
X174242857Y-89380928D02*
X174171429Y-90095214D01*
X174171429Y-90095214D02*
X174242857Y-90023785D01*
X174242857Y-90023785D02*
X174385715Y-89952357D01*
X174385715Y-89952357D02*
X174742857Y-89952357D01*
X174742857Y-89952357D02*
X174885715Y-90023785D01*
X174885715Y-90023785D02*
X174957143Y-90095214D01*
X174957143Y-90095214D02*
X175028572Y-90238071D01*
X175028572Y-90238071D02*
X175028572Y-90595214D01*
X175028572Y-90595214D02*
X174957143Y-90738071D01*
X174957143Y-90738071D02*
X174885715Y-90809500D01*
X174885715Y-90809500D02*
X174742857Y-90880928D01*
X174742857Y-90880928D02*
X174385715Y-90880928D01*
X174385715Y-90880928D02*
X174242857Y-90809500D01*
X174242857Y-90809500D02*
X174171429Y-90738071D01*
X139371429Y-81923785D02*
X139442857Y-81852357D01*
X139442857Y-81852357D02*
X139585715Y-81780928D01*
X139585715Y-81780928D02*
X139942857Y-81780928D01*
X139942857Y-81780928D02*
X140085715Y-81852357D01*
X140085715Y-81852357D02*
X140157143Y-81923785D01*
X140157143Y-81923785D02*
X140228572Y-82066642D01*
X140228572Y-82066642D02*
X140228572Y-82209500D01*
X140228572Y-82209500D02*
X140157143Y-82423785D01*
X140157143Y-82423785D02*
X139300000Y-83280928D01*
X139300000Y-83280928D02*
X140228572Y-83280928D01*
X175028572Y-80680928D02*
X174171429Y-80680928D01*
X174600000Y-80680928D02*
X174600000Y-79180928D01*
X174600000Y-79180928D02*
X174457143Y-79395214D01*
X174457143Y-79395214D02*
X174314286Y-79538071D01*
X174314286Y-79538071D02*
X174171429Y-79609500D01*
X139728572Y-76780928D02*
X139871429Y-76780928D01*
X139871429Y-76780928D02*
X140014286Y-76852357D01*
X140014286Y-76852357D02*
X140085715Y-76923785D01*
X140085715Y-76923785D02*
X140157143Y-77066642D01*
X140157143Y-77066642D02*
X140228572Y-77352357D01*
X140228572Y-77352357D02*
X140228572Y-77709500D01*
X140228572Y-77709500D02*
X140157143Y-77995214D01*
X140157143Y-77995214D02*
X140085715Y-78138071D01*
X140085715Y-78138071D02*
X140014286Y-78209500D01*
X140014286Y-78209500D02*
X139871429Y-78280928D01*
X139871429Y-78280928D02*
X139728572Y-78280928D01*
X139728572Y-78280928D02*
X139585715Y-78209500D01*
X139585715Y-78209500D02*
X139514286Y-78138071D01*
X139514286Y-78138071D02*
X139442857Y-77995214D01*
X139442857Y-77995214D02*
X139371429Y-77709500D01*
X139371429Y-77709500D02*
X139371429Y-77352357D01*
X139371429Y-77352357D02*
X139442857Y-77066642D01*
X139442857Y-77066642D02*
X139514286Y-76923785D01*
X139514286Y-76923785D02*
X139585715Y-76852357D01*
X139585715Y-76852357D02*
X139728572Y-76780928D01*
D12*
X191250625Y-74317873D02*
X191667292Y-75567873D01*
X191667292Y-75567873D02*
X192083958Y-74317873D01*
X192500626Y-75567873D02*
X192500626Y-74317873D01*
X193333959Y-74317873D02*
X193572054Y-74317873D01*
X193572054Y-74317873D02*
X193691102Y-74377397D01*
X193691102Y-74377397D02*
X193810149Y-74496445D01*
X193810149Y-74496445D02*
X193869673Y-74734540D01*
X193869673Y-74734540D02*
X193869673Y-75151207D01*
X193869673Y-75151207D02*
X193810149Y-75389302D01*
X193810149Y-75389302D02*
X193691102Y-75508350D01*
X193691102Y-75508350D02*
X193572054Y-75567873D01*
X193572054Y-75567873D02*
X193333959Y-75567873D01*
X193333959Y-75567873D02*
X193214911Y-75508350D01*
X193214911Y-75508350D02*
X193095864Y-75389302D01*
X193095864Y-75389302D02*
X193036340Y-75151207D01*
X193036340Y-75151207D02*
X193036340Y-74734540D01*
X193036340Y-74734540D02*
X193095864Y-74496445D01*
X193095864Y-74496445D02*
X193214911Y-74377397D01*
X193214911Y-74377397D02*
X193333959Y-74317873D01*
D10*
X139300000Y-84380928D02*
X140228572Y-84380928D01*
X140228572Y-84380928D02*
X139728572Y-84952357D01*
X139728572Y-84952357D02*
X139942857Y-84952357D01*
X139942857Y-84952357D02*
X140085715Y-85023785D01*
X140085715Y-85023785D02*
X140157143Y-85095214D01*
X140157143Y-85095214D02*
X140228572Y-85238071D01*
X140228572Y-85238071D02*
X140228572Y-85595214D01*
X140228572Y-85595214D02*
X140157143Y-85738071D01*
X140157143Y-85738071D02*
X140085715Y-85809500D01*
X140085715Y-85809500D02*
X139942857Y-85880928D01*
X139942857Y-85880928D02*
X139514286Y-85880928D01*
X139514286Y-85880928D02*
X139371429Y-85809500D01*
X139371429Y-85809500D02*
X139300000Y-85738071D01*
X192428572Y-80680928D02*
X191571429Y-80680928D01*
X192000000Y-80680928D02*
X192000000Y-79180928D01*
X192000000Y-79180928D02*
X191857143Y-79395214D01*
X191857143Y-79395214D02*
X191714286Y-79538071D01*
X191714286Y-79538071D02*
X191571429Y-79609500D01*
X192285715Y-87280928D02*
X192285715Y-88280928D01*
X191928572Y-86709500D02*
X191571429Y-87780928D01*
X191571429Y-87780928D02*
X192500000Y-87780928D01*
X140085715Y-87280928D02*
X140085715Y-88280928D01*
X139728572Y-86709500D02*
X139371429Y-87780928D01*
X139371429Y-87780928D02*
X140300000Y-87780928D01*
X138357143Y-74180928D02*
X138857143Y-75680928D01*
X138857143Y-75680928D02*
X139357143Y-74180928D01*
X139857142Y-75680928D02*
X139857142Y-74180928D01*
X140857143Y-74180928D02*
X141142857Y-74180928D01*
X141142857Y-74180928D02*
X141285714Y-74252357D01*
X141285714Y-74252357D02*
X141428571Y-74395214D01*
X141428571Y-74395214D02*
X141500000Y-74680928D01*
X141500000Y-74680928D02*
X141500000Y-75180928D01*
X141500000Y-75180928D02*
X141428571Y-75466642D01*
X141428571Y-75466642D02*
X141285714Y-75609500D01*
X141285714Y-75609500D02*
X141142857Y-75680928D01*
X141142857Y-75680928D02*
X140857143Y-75680928D01*
X140857143Y-75680928D02*
X140714286Y-75609500D01*
X140714286Y-75609500D02*
X140571428Y-75466642D01*
X140571428Y-75466642D02*
X140500000Y-75180928D01*
X140500000Y-75180928D02*
X140500000Y-74680928D01*
X140500000Y-74680928D02*
X140571428Y-74395214D01*
X140571428Y-74395214D02*
X140714286Y-74252357D01*
X140714286Y-74252357D02*
X140857143Y-74180928D01*
X191500000Y-94380928D02*
X192500000Y-94380928D01*
X192500000Y-94380928D02*
X191857143Y-95880928D01*
X163528572Y-76780928D02*
X163671429Y-76780928D01*
X163671429Y-76780928D02*
X163814286Y-76852357D01*
X163814286Y-76852357D02*
X163885715Y-76923785D01*
X163885715Y-76923785D02*
X163957143Y-77066642D01*
X163957143Y-77066642D02*
X164028572Y-77352357D01*
X164028572Y-77352357D02*
X164028572Y-77709500D01*
X164028572Y-77709500D02*
X163957143Y-77995214D01*
X163957143Y-77995214D02*
X163885715Y-78138071D01*
X163885715Y-78138071D02*
X163814286Y-78209500D01*
X163814286Y-78209500D02*
X163671429Y-78280928D01*
X163671429Y-78280928D02*
X163528572Y-78280928D01*
X163528572Y-78280928D02*
X163385715Y-78209500D01*
X163385715Y-78209500D02*
X163314286Y-78138071D01*
X163314286Y-78138071D02*
X163242857Y-77995214D01*
X163242857Y-77995214D02*
X163171429Y-77709500D01*
X163171429Y-77709500D02*
X163171429Y-77352357D01*
X163171429Y-77352357D02*
X163242857Y-77066642D01*
X163242857Y-77066642D02*
X163314286Y-76923785D01*
X163314286Y-76923785D02*
X163385715Y-76852357D01*
X163385715Y-76852357D02*
X163528572Y-76780928D01*
D13*
X127896666Y-78184819D02*
X127896666Y-78899104D01*
X127896666Y-78899104D02*
X127849047Y-79041961D01*
X127849047Y-79041961D02*
X127753809Y-79137200D01*
X127753809Y-79137200D02*
X127610952Y-79184819D01*
X127610952Y-79184819D02*
X127515714Y-79184819D01*
X128420476Y-79184819D02*
X128610952Y-79184819D01*
X128610952Y-79184819D02*
X128706190Y-79137200D01*
X128706190Y-79137200D02*
X128753809Y-79089580D01*
X128753809Y-79089580D02*
X128849047Y-78946723D01*
X128849047Y-78946723D02*
X128896666Y-78756247D01*
X128896666Y-78756247D02*
X128896666Y-78375295D01*
X128896666Y-78375295D02*
X128849047Y-78280057D01*
X128849047Y-78280057D02*
X128801428Y-78232438D01*
X128801428Y-78232438D02*
X128706190Y-78184819D01*
X128706190Y-78184819D02*
X128515714Y-78184819D01*
X128515714Y-78184819D02*
X128420476Y-78232438D01*
X128420476Y-78232438D02*
X128372857Y-78280057D01*
X128372857Y-78280057D02*
X128325238Y-78375295D01*
X128325238Y-78375295D02*
X128325238Y-78613390D01*
X128325238Y-78613390D02*
X128372857Y-78708628D01*
X128372857Y-78708628D02*
X128420476Y-78756247D01*
X128420476Y-78756247D02*
X128515714Y-78803866D01*
X128515714Y-78803866D02*
X128706190Y-78803866D01*
X128706190Y-78803866D02*
X128801428Y-78756247D01*
X128801428Y-78756247D02*
X128849047Y-78708628D01*
X128849047Y-78708628D02*
X128896666Y-78613390D01*
X182054819Y-71133333D02*
X182769104Y-71133333D01*
X182769104Y-71133333D02*
X182911961Y-71180952D01*
X182911961Y-71180952D02*
X183007200Y-71276190D01*
X183007200Y-71276190D02*
X183054819Y-71419047D01*
X183054819Y-71419047D02*
X183054819Y-71514285D01*
X182150057Y-70704761D02*
X182102438Y-70657142D01*
X182102438Y-70657142D02*
X182054819Y-70561904D01*
X182054819Y-70561904D02*
X182054819Y-70323809D01*
X182054819Y-70323809D02*
X182102438Y-70228571D01*
X182102438Y-70228571D02*
X182150057Y-70180952D01*
X182150057Y-70180952D02*
X182245295Y-70133333D01*
X182245295Y-70133333D02*
X182340533Y-70133333D01*
X182340533Y-70133333D02*
X182483390Y-70180952D01*
X182483390Y-70180952D02*
X183054819Y-70752380D01*
X183054819Y-70752380D02*
X183054819Y-70133333D01*
D14*
%TO.C,J9*%
X125630000Y-80170000D02*
X125630000Y-92990000D01*
X125630000Y-80170000D02*
X128230000Y-80170000D01*
X125630000Y-92990000D02*
X130830000Y-92990000D01*
X128230000Y-80170000D02*
X128230000Y-82770000D01*
X128230000Y-82770000D02*
X130830000Y-82770000D01*
X129500000Y-80170000D02*
X130830000Y-80170000D01*
X130830000Y-80170000D02*
X130830000Y-81500000D01*
X130830000Y-82770000D02*
X130830000Y-92990000D01*
%TO.C,J5*%
X152170000Y-73630000D02*
X153500000Y-73630000D01*
X152170000Y-74960000D02*
X152170000Y-73630000D01*
X152170000Y-76230000D02*
X152170000Y-99150000D01*
X152170000Y-76230000D02*
X154830000Y-76230000D01*
X152170000Y-99150000D02*
X154830000Y-99150000D01*
X154830000Y-76230000D02*
X154830000Y-99150000D01*
%TO.C,J4*%
X142170000Y-76190000D02*
X142170000Y-99110000D01*
X142170000Y-76190000D02*
X144830000Y-76190000D01*
X142170000Y-99110000D02*
X144830000Y-99110000D01*
X143500000Y-73590000D02*
X144830000Y-73590000D01*
X144830000Y-73590000D02*
X144830000Y-74920000D01*
X144830000Y-76190000D02*
X144830000Y-99110000D01*
%TO.C,J3*%
X147170000Y-73590000D02*
X148500000Y-73590000D01*
X147170000Y-74920000D02*
X147170000Y-73590000D01*
X147170000Y-76190000D02*
X147170000Y-99110000D01*
X147170000Y-76190000D02*
X149830000Y-76190000D01*
X147170000Y-99110000D02*
X149830000Y-99110000D01*
X149830000Y-76190000D02*
X149830000Y-99110000D01*
%TO.C,J7*%
X167170000Y-76130000D02*
X168500000Y-76130000D01*
X167170000Y-77460000D02*
X167170000Y-76130000D01*
X167170000Y-78730000D02*
X167170000Y-96570000D01*
X167170000Y-78730000D02*
X169830000Y-78730000D01*
X167170000Y-96570000D02*
X169830000Y-96570000D01*
X169830000Y-78730000D02*
X169830000Y-96570000D01*
%TO.C,J2*%
X178200000Y-69600000D02*
X187800000Y-69600000D01*
X178200000Y-102580000D02*
X178200000Y-69600000D01*
X187800000Y-69600000D02*
X187800000Y-102580000D01*
X187800000Y-102580000D02*
X178200000Y-102580000D01*
X188050000Y-69350000D02*
X187050000Y-69350000D01*
X188050000Y-69350000D02*
X188050000Y-70400000D01*
X188300000Y-71730000D02*
X187800000Y-71730000D01*
X187800000Y-73130000D01*
X188300000Y-73130000D01*
X188300000Y-71730000D01*
X188300000Y-74270000D02*
X187800000Y-74270000D01*
X187800000Y-75670000D01*
X188300000Y-75670000D01*
X188300000Y-74270000D01*
X188300000Y-76810000D02*
X187800000Y-76810000D01*
X187800000Y-78210000D01*
X188300000Y-78210000D01*
X188300000Y-76810000D01*
X188300000Y-79320000D02*
X187800000Y-79320000D01*
X187800000Y-80720000D01*
X188300000Y-80720000D01*
X188300000Y-79320000D01*
X188300000Y-86940000D02*
X187800000Y-86940000D01*
X187800000Y-88340000D01*
X188300000Y-88340000D01*
X188300000Y-86940000D01*
X188300000Y-89480000D02*
X187800000Y-89480000D01*
X187800000Y-90880000D01*
X188300000Y-90880000D01*
X188300000Y-89480000D01*
X188300000Y-92020000D02*
X187800000Y-92020000D01*
X187800000Y-93420000D01*
X188300000Y-93420000D01*
X188300000Y-92020000D01*
X188300000Y-94560000D02*
X187800000Y-94560000D01*
X187800000Y-95960000D01*
X188300000Y-95960000D01*
X188300000Y-94560000D01*
X188300000Y-97100000D02*
X187800000Y-97100000D01*
X187800000Y-98500000D01*
X188300000Y-98500000D01*
X188300000Y-97100000D01*
X188300000Y-99640000D02*
X187800000Y-99640000D01*
X187800000Y-101040000D01*
X188300000Y-101040000D01*
X188300000Y-99640000D01*
X188300564Y-84400000D02*
X187800564Y-84400000D01*
X187800564Y-85800000D01*
X188300564Y-85800000D01*
X188300564Y-84400000D01*
X188300919Y-81860000D02*
X187800919Y-81860000D01*
X187800919Y-83260000D01*
X188300919Y-83260000D01*
X188300919Y-81860000D01*
%TO.C,J6*%
X157170000Y-76190000D02*
X157170000Y-99110000D01*
X157170000Y-76190000D02*
X159830000Y-76190000D01*
X157170000Y-99110000D02*
X159830000Y-99110000D01*
X158500000Y-73590000D02*
X159830000Y-73590000D01*
X159830000Y-73590000D02*
X159830000Y-74920000D01*
X159830000Y-76190000D02*
X159830000Y-99110000D01*
%TD*%
%LPC*%
D15*
X142250000Y-99500000D02*
X177000000Y-99500000D01*
X177000000Y-105000000D01*
X142250000Y-105000000D01*
X142250000Y-99500000D01*
G36*
X142250000Y-99500000D02*
G01*
X177000000Y-99500000D01*
X177000000Y-105000000D01*
X142250000Y-105000000D01*
X142250000Y-99500000D01*
G37*
X142500000Y-66900000D02*
X177000000Y-66900000D01*
X177000000Y-73000000D01*
X142500000Y-73000000D01*
X142500000Y-66900000D01*
G36*
X142500000Y-66900000D02*
G01*
X177000000Y-66900000D01*
X177000000Y-73000000D01*
X142500000Y-73000000D01*
X142500000Y-66900000D01*
G37*
D16*
%TO.C,J9*%
X129500000Y-81500000D03*
D17*
X126960000Y-81500000D03*
X129500000Y-84040000D03*
X126960000Y-84040000D03*
X129500000Y-86580000D03*
X126960000Y-86580000D03*
X129500000Y-89120000D03*
X126960000Y-89120000D03*
X129500000Y-91660000D03*
X126960000Y-91660000D03*
%TD*%
D16*
%TO.C,J5*%
X153500000Y-74960000D03*
D17*
X153500000Y-77500000D03*
X153500000Y-80040000D03*
X153500000Y-82580000D03*
X153500000Y-85120000D03*
X153500000Y-87660000D03*
X153500000Y-90200000D03*
X153500000Y-92740000D03*
X153500000Y-95280000D03*
X153500000Y-97820000D03*
%TD*%
D18*
%TO.C,H1*%
X191500000Y-66000000D03*
%TD*%
D16*
%TO.C,J4*%
X143500000Y-74920000D03*
D17*
X143500000Y-77460000D03*
X143500000Y-80000000D03*
X143500000Y-82540000D03*
X143500000Y-85080000D03*
X143500000Y-87620000D03*
X143500000Y-90160000D03*
X143500000Y-92700000D03*
X143500000Y-95240000D03*
X143500000Y-97780000D03*
%TD*%
D16*
%TO.C,J3*%
X148500000Y-74920000D03*
D17*
X148500000Y-77460000D03*
X148500000Y-80000000D03*
X148500000Y-82540000D03*
X148500000Y-85080000D03*
X148500000Y-87620000D03*
X148500000Y-90160000D03*
X148500000Y-92700000D03*
X148500000Y-95240000D03*
X148500000Y-97780000D03*
%TD*%
D18*
%TO.C,H2*%
X191500000Y-106000000D03*
%TD*%
D16*
%TO.C,J7*%
X168500000Y-77460000D03*
D17*
X168500000Y-80000000D03*
X168500000Y-82540000D03*
X168500000Y-85080000D03*
X168500000Y-87620000D03*
X168500000Y-90160000D03*
X168500000Y-92700000D03*
X168500000Y-95240000D03*
%TD*%
D19*
%TO.C,J2*%
X185200000Y-72400000D03*
X180200000Y-72400000D03*
D20*
X185200000Y-74940000D03*
X180200000Y-74940000D03*
X185200000Y-77480000D03*
X180200000Y-77480000D03*
X185200000Y-80020000D03*
X180200000Y-80020000D03*
X185200000Y-82560000D03*
X180200000Y-82560000D03*
X185200000Y-85100000D03*
X180200000Y-85100000D03*
X185200000Y-87640000D03*
X180200000Y-87640000D03*
X185200000Y-90180000D03*
X180200000Y-90180000D03*
X185200000Y-92720000D03*
X180200000Y-92720000D03*
X185200000Y-95260000D03*
X180200000Y-95260000D03*
X185200000Y-97800000D03*
X180200000Y-97800000D03*
X185200000Y-100340000D03*
X180200000Y-100340000D03*
%TD*%
D16*
%TO.C,J6*%
X158500000Y-74920000D03*
D17*
X158500000Y-77460000D03*
X158500000Y-80000000D03*
X158500000Y-82540000D03*
X158500000Y-85080000D03*
X158500000Y-87620000D03*
X158500000Y-90160000D03*
X158500000Y-92700000D03*
X158500000Y-95240000D03*
X158500000Y-97780000D03*
%TD*%
D16*
%TO.C,J1*%
X133500000Y-74960000D03*
D17*
X136040000Y-74960000D03*
X133500000Y-77500000D03*
X136040000Y-77500000D03*
X133500000Y-80040000D03*
X136040000Y-80040000D03*
X133500000Y-82580000D03*
X136040000Y-82580000D03*
X133500000Y-85120000D03*
X136040000Y-85120000D03*
X133500000Y-87660000D03*
X136040000Y-87660000D03*
X133500000Y-90200000D03*
X136040000Y-90200000D03*
X133500000Y-92740000D03*
X136040000Y-92740000D03*
X133500000Y-95280000D03*
X136040000Y-95280000D03*
X133500000Y-97820000D03*
X136040000Y-97820000D03*
%TD*%
%LPD*%
M02*
